<svg id="Capa_1" enable-background="new 0 0 512 512" viewBox="0 0 512 512" xmlns="http://www.w3.org/2000/svg"><g><g><path d="m7.5 53.399v405.203c0 8.284 6.716 15 15 15h467c8.284 0 15-6.716 15-15v-405.203c0-8.284-6.716-15-15-15h-467c-8.284 0-15 6.715-15 15z" fill="#d8ecfe"/><path d="m489.5 38.399h-52.567c8.284 0 14.999 6.716 14.999 15v405.203c0 8.284-6.716 15-15 15h52.568c8.284 0 15-6.716 15-15v-405.203c0-8.284-6.716-15-15-15z" fill="#bddbff"/><path d="m342.718 38.399v103.242c0 11.287 9.15 20.437 20.437 20.437h141.345v-108.679c0-8.284-6.716-15-15-15z" fill="#62dbfb"/><path d="m504.5 162.078v-108.679c0-8.284-6.716-15-15-15h-52.567c8.284.001 14.999 6.716 14.999 15v108.679z" fill="#01d0fb"/><path d="m163.641 412.407v-194.561c0-6.85 5.553-12.402 12.402-12.402h267.262c6.85 0 12.402 5.553 12.402 12.402v194.561c0 6.85-5.553 12.402-12.402 12.402h-267.261c-6.85 0-12.403-5.553-12.403-12.402z" fill="#fdb441"/><path d="m443.305 205.443h-36.769c6.85 0 12.402 5.553 12.402 12.402v194.561c0 6.85-5.553 12.402-12.402 12.402h36.769c6.85 0 12.402-5.553 12.402-12.402v-194.56c.001-6.85-5.552-12.403-12.402-12.403z" fill="#fe9738"/><path d="m342.718 38.399v89.587h-335.218v-74.587c0-8.284 6.716-15 15-15z" fill="#678d98"/><path d="m91.662 376.314c-4.024 0-8.047-1.535-11.117-4.605l-6.516-6.516c-7.393-7.393-11.465-17.223-11.465-27.679v-67.854c0-8.683 7.039-15.722 15.722-15.722s15.722 7.039 15.722 15.722v67.854c0 2.057.801 3.99 2.255 5.445l6.516 6.516c6.14 6.14 6.14 16.094 0 22.234-3.069 3.07-7.093 4.605-11.117 4.605z" fill="#678d98"/><ellipse cx="145.109" cy="83.192" fill="#5de1c4" rx="15" ry="15" transform="matrix(.995 -.099 .099 .995 -7.491 14.704)"/><ellipse cx="69.974" cy="83.192" fill="#fe76a8" rx="15" ry="15" transform="matrix(.995 -.099 .099 .995 -7.857 7.3)"/></g><g><path d="m489.5 30.899h-467c-12.407 0-22.5 10.093-22.5 22.5v121.097c0 4.142 3.358 7.5 7.5 7.5s7.5-3.358 7.5-7.5v-39.01h320.218v6.156c0 15.404 12.532 27.937 27.937 27.937h133.845v81.298c0 4.142 3.358 7.5 7.5 7.5s7.5-3.358 7.5-7.5v-197.478c0-12.407-10.093-22.5-22.5-22.5zm-474.5 89.586v-67.086c0-4.136 3.364-7.5 7.5-7.5h312.718v74.586zm348.155 34.093c-7.133 0-12.937-5.803-12.937-12.937v-95.742h139.282c4.136 0 7.5 3.364 7.5 7.5v101.179z"/><path d="m504.5 278.375c-4.142 0-7.5 3.358-7.5 7.5v172.726c0 4.136-3.364 7.5-7.5 7.5h-467c-4.136 0-7.5-3.364-7.5-7.5v-249.105c0-4.142-3.358-7.5-7.5-7.5s-7.5 3.358-7.5 7.5v249.105c0 12.407 10.093 22.5 22.5 22.5h467c12.407 0 22.5-10.093 22.5-22.5v-172.726c0-4.142-3.358-7.5-7.5-7.5z"/><path d="m443.305 432.309c10.974 0 19.902-8.928 19.902-19.902v-194.561c0-10.974-8.928-19.902-19.902-19.902h-267.262c-10.974 0-19.902 8.928-19.902 19.902v194.561c0 10.974 8.928 19.902 19.902 19.902zm-267.262-219.366h267.262c2.703 0 4.902 2.199 4.902 4.902v89.781h-277.066v-89.781c0-2.702 2.199-4.902 4.902-4.902zm-4.902 199.464v-89.78h277.066v89.78c0 2.703-2.199 4.902-4.902 4.902h-267.262c-2.703 0-4.902-2.199-4.902-4.902z"/><path d="m78.286 246.438c-12.805 0-23.222 10.417-23.222 23.222v67.854c0 12.459 4.852 24.172 13.662 32.982l6.516 6.516c4.386 4.387 10.217 6.802 16.42 6.802s12.034-2.416 16.421-6.802c9.054-9.055 9.053-23.787 0-32.84l-6.515-6.515c-.048-.049-.06-.075-.06-.143v-67.854c0-12.805-10.418-23.222-23.222-23.222zm19.19 119.968c-1.553 1.553-3.618 2.408-5.814 2.408s-4.261-.855-5.813-2.408l-6.517-6.517c-5.977-5.977-9.269-13.923-9.269-22.375v-67.854c0-4.534 3.688-8.222 8.222-8.222s8.222 3.688 8.222 8.222v67.854c0 4.06 1.581 7.876 4.452 10.749l6.516 6.516c3.207 3.205 3.207 8.422.001 11.627z"/><path d="m145.109 60.692c-12.407 0-22.5 10.093-22.5 22.5s10.093 22.5 22.5 22.5 22.5-10.093 22.5-22.5-10.093-22.5-22.5-22.5zm0 30c-4.136 0-7.5-3.364-7.5-7.5s3.364-7.5 7.5-7.5 7.5 3.364 7.5 7.5-3.364 7.5-7.5 7.5z"/><path d="m69.974 60.692c-12.407 0-22.5 10.093-22.5 22.5s10.093 22.5 22.5 22.5 22.5-10.093 22.5-22.5-10.093-22.5-22.5-22.5zm0 30c-4.136 0-7.5-3.364-7.5-7.5s3.364-7.5 7.5-7.5 7.5 3.364 7.5 7.5-3.364 7.5-7.5 7.5z"/><path d="m215.771 75.692h-7.519c-4.142 0-7.5 3.358-7.5 7.5s3.358 7.5 7.5 7.5h7.519c4.142 0 7.5-3.358 7.5-7.5s-3.358-7.5-7.5-7.5z"/><path d="m264.987 75.692h-7.52c-4.142 0-7.5 3.358-7.5 7.5s3.358 7.5 7.5 7.5h7.52c4.142 0 7.5-3.358 7.5-7.5s-3.358-7.5-7.5-7.5z"/><path d="m390.131 87.22c-.919 0-1.828.047-2.723.139 5.556-8.857 11.643-13.592 11.819-13.727 3.303-2.477 3.984-7.16 1.518-10.476-2.472-3.323-7.17-4.014-10.494-1.542-.925.688-22.019 17.194-26.35 47.986-.192 1.367-.332 2.76-.332 4.183 0 14.647 11.916 26.563 26.563 26.563 14.646 0 26.562-11.916 26.562-26.563-.001-14.647-11.917-26.563-26.563-26.563zm0 38.125c-6.376 0-11.563-5.187-11.563-11.563 0-6.375 5.187-11.562 11.563-11.562 6.375 0 11.562 5.187 11.562 11.562 0 6.376-5.187 11.563-11.562 11.563z"/><path d="m452.891 61.949c-13.876 0-25.165 11.289-25.165 25.165v27.25c0 13.876 11.289 25.165 25.165 25.165s25.165-11.289 25.165-25.165v-27.25c0-13.877-11.289-25.165-25.165-25.165zm10.165 52.414c0 5.605-4.56 10.165-10.165 10.165s-10.165-4.56-10.165-10.165v-27.25c0-5.605 4.56-10.165 10.165-10.165s10.165 4.56 10.165 10.165z"/></g></g><g/><g/><g/><g/><g/><g/><g/><g/><g/><g/><g/><g/><g/><g/><g/></svg>