<svg id="Capa_1" enable-background="new 0 0 512 512" viewBox="0 0 512 512" xmlns="http://www.w3.org/2000/svg"><g><g><path d="m249.169 23.011v254.646h33.702v-254.646c0-2.737-2.221-4.958-4.958-4.958h-23.791c-2.737 0-4.953 2.221-4.953 4.958z" fill="#678d98"/><path d="m358.129 339.849 8.994 19.093c1.061 2.252 1.61 4.71 1.61 7.199v102.416c0 14.021 11.368 25.39 25.389 25.39h74.434c14.021 0 25.387-11.368 25.387-25.389v-102.417c0-2.489.55-4.947 1.611-7.199l8.081-17.157c2.802-5.949-1.538-12.792-8.114-12.792h-130.507c-5.58.001-9.263 5.808-6.885 10.856z" fill="#d8ecfe"/><path d="m495.52 328.994h-30.841c6.576 0 10.917 6.842 8.114 12.791l-8.081 17.157c-1.061 2.252-1.61 4.71-1.61 7.199v102.417c0 14.021-11.367 25.389-25.388 25.389h30.841c14.021 0 25.387-11.367 25.387-25.389v-102.417c0-2.489.55-4.947 1.611-7.199l8.081-17.157c2.802-5.949-1.538-12.791-8.114-12.791z" fill="#bddbff"/><path d="m493.937 394.101v74.466c0 14.018-11.364 25.38-25.382 25.38h-74.434c-14.024 0-25.389-11.366-25.389-25.39v-75.175c6.332-3.39 14.142-6.186 25.267-7.634 40.067-5.209 43.02 17.48 83.087 12.259 6.68-.863 12.159-2.222 16.851-3.906z" fill="#fe76a8"/><path d="m493.937 468.567v-74.466c-4.693 1.684-10.171 3.043-16.851 3.907-5.246.684-9.844.879-13.985.731v69.819c0 14.021-11.367 25.389-25.388 25.389h30.841c14.019 0 25.383-11.362 25.383-25.38z" fill="#fe5694"/><path d="m7.5 476.033v-252.043c0-9.894 8.021-17.916 17.916-17.916h271.804c9.895 0 17.916 8.021 17.916 17.916v252.044c0 9.895-8.021 17.916-17.916 17.916h-271.804c-9.895-.001-17.916-8.022-17.916-17.917z" fill="#d8ecfe"/><path d="m297.22 206.074h-40.079c9.894 0 17.916 8.021 17.916 17.916v252.044c0 9.895-8.021 17.916-17.916 17.916h40.079c9.894 0 17.916-8.021 17.916-17.916v-252.044c0-9.895-8.021-17.916-17.916-17.916z" fill="#bddbff"/><path d="m43.614 254.501v117.376c0 6.801 5.513 12.313 12.313 12.313h210.782c6.801 0 12.313-5.513 12.313-12.313v-117.376c0-6.801-5.513-12.313-12.313-12.313h-210.782c-6.801 0-12.313 5.513-12.313 12.313z" fill="#62dbfb"/><g><path d="m203.396 429.959v18.222c0 5.037 4.083 9.12 9.12 9.12h38.258c5.037 0 9.12-4.083 9.12-9.12v-18.222c0-5.037-4.083-9.12-9.12-9.12h-38.258c-5.037 0-9.12 4.083-9.12 9.12z" fill="#fe76a8"/><path d="m62.742 429.959v18.222c0 5.037 4.083 9.12 9.12 9.12h38.258c5.037 0 9.12-4.083 9.12-9.12v-18.222c0-5.037-4.083-9.12-9.12-9.12h-38.258c-5.037 0-9.12 4.083-9.12 9.12z" fill="#fdb441"/></g><path d="m411.548 92.264v105.624c0 10.714 8.687 19.4 19.401 19.4s19.397-8.687 19.397-19.4v-105.624c0-4.554-3.692-8.246-8.246-8.246h-22.306c-4.554 0-8.246 3.692-8.246 8.246z" fill="#5de1c4"/><path d="m266.019 69.762c-14.09 0-25.513 11.423-25.513 25.513s11.423 25.513 25.513 25.513 25.512-11.425 25.512-25.515-11.421-25.511-25.512-25.511z" fill="#d8ecfe"/></g><g><path d="m509.428 329.142c-3.038-4.789-8.237-7.648-13.908-7.648h-57.071v-97.777c11.192-3.256 19.397-13.599 19.397-25.829v-65.747h9.924c4.143 0 7.5-3.358 7.5-7.5s-3.357-7.5-7.5-7.5h-9.924v-24.877c0-8.683-7.063-15.746-15.746-15.746h-3.649v-30.046c0-4.142-3.357-7.5-7.5-7.5s-7.5 3.358-7.5 7.5v30.046h-3.656c-8.683 0-15.746 7.063-15.746 15.746v24.878h-3.988c-1.82 0-3.534-.712-4.826-2.003l-20.97-20.97c-4.126-4.125-9.606-6.396-15.434-6.396h-60.669c-1.306-5.599-4.034-10.656-7.791-14.763v-49.999c0-6.871-5.59-12.46-12.46-12.46h-23.79c-6.865 0-12.45 5.589-12.45 12.46v49.997c-5.377 5.875-8.664 13.694-8.664 22.267s3.287 16.392 8.664 22.267v81.032h-216.255c-14.015 0-25.416 11.401-25.416 25.415v48.834c0 4.142 3.358 7.5 7.5 7.5s7.5-3.358 7.5-7.5v-48.834c0-5.743 4.672-10.416 10.416-10.416h271.804c5.743 0 10.416 4.672 10.416 10.416v252.044c0 5.743-4.673 10.416-10.416 10.416h-271.804c-5.743 0-10.416-4.672-10.416-10.416v-168.21c0-4.142-3.358-7.5-7.5-7.5s-7.5 3.358-7.5 7.5v168.21c0 14.014 11.401 25.416 25.416 25.416h271.804c14.015 0 25.416-11.401 25.416-25.416v-252.044c0-14.014-11.401-25.416-25.416-25.416h-6.85v-81.035c3.758-4.107 6.485-9.167 7.792-14.767h60.668c1.82 0 3.534.711 4.826 2.003l20.971 20.97c4.125 4.125 9.606 6.396 15.433 6.396h3.988v65.747c0 12.23 8.207 22.573 19.401 25.829v97.777h-11.417c-4.143 0-7.5 3.358-7.5 7.5s3.357 7.5 7.5 7.5h11.418v43.228c-7.939-2.042-17.524-3.089-30.418-1.411-6.175.804-11.685 2.037-16.8 3.74v-15.91c0-3.571-.804-7.165-2.325-10.395l-9.014-19.139c.004-.032.044-.096.121-.113h12.018c4.143 0 7.5-3.358 7.5-7.5s-3.357-7.5-7.5-7.5h-12.018c-5.203 0-9.974 2.623-12.761 7.017s-3.127 9.827-.91 14.534l8.993 19.094c.586 1.244.896 2.628.896 4.003v102.417c0 18.135 14.754 32.89 32.889 32.89h74.434c18.135 0 32.888-14.754 32.888-32.889v-102.418c0-1.375.31-2.759.896-4.003l8.081-17.156c2.415-5.13 2.045-11.051-.992-15.84zm-261.422-233.867c0-9.933 8.081-18.013 18.013-18.013s18.012 8.08 18.012 18.012c0 9.933-8.08 18.015-18.012 18.015-9.932-.001-18.013-8.081-18.013-18.014zm27.364-69.724v38.067c-2.967-.878-6.103-1.357-9.351-1.357-3.247 0-6.383.479-9.35 1.357v-38.067zm-18.7 173.023v-71.642c2.966.878 6.102 1.357 9.35 1.357s6.384-.479 9.351-1.357v71.643h-18.701zm162.378-106.31c0-.412.335-.746.746-.746h22.306c.411 0 .746.334.746.746v24.878h-23.798zm0 105.624v-65.747h23.798v65.747c0 6.562-5.337 11.901-11.897 11.901-6.562 0-11.901-5.339-11.901-11.901zm76.472 138.606c.668 0 1.044.371 1.241.683.197.311.373.809.088 1.413l-8.081 17.157c-1.521 3.229-2.325 6.824-2.325 10.395v22.439c-3.183.848-6.595 1.508-10.325 1.99-18.027 2.347-27.145-1.329-37.667-5.603v-48.474zm-26.965 149.953h-74.434c-9.864 0-17.889-8.025-17.889-17.89v-70.462c5.466-2.38 11.522-3.971 18.734-4.91 33.821-4.398 38.537 13.1 70.777 13.099 6.873 0 14.317-.897 20.698-2.282v64.555c.001 9.865-8.023 17.89-17.886 17.89z"/><path d="m286.522 371.877v-117.376c0-10.925-8.889-19.813-19.813-19.813h-210.782c-10.925 0-19.813 8.888-19.813 19.813v117.376c0 10.925 8.888 19.813 19.813 19.813h210.782c10.925 0 19.813-8.888 19.813-19.813zm-15 0c0 2.654-2.159 4.813-4.813 4.813h-210.782c-2.654 0-4.813-2.159-4.813-4.813v-117.376c0-2.654 2.159-4.813 4.813-4.813h210.782c2.654 0 4.813 2.159 4.813 4.813z"/><path d="m153.955 274.374c-1.385-2.122-3.747-3.4-6.28-3.4h-38.196c-4.142 0-7.5 3.358-7.5 7.5s3.358 7.5 7.5 7.5h26.707l-25.897 58.914c-1.667 3.792.056 8.217 3.848 9.884.982.432 2.006.636 3.014.636 2.884 0 5.635-1.674 6.87-4.484l30.521-69.432c1.018-2.32.797-4.997-.587-7.118z"/><path d="m195.391 270.157c-12.046 0-22.473 8.57-24.792 20.377-.798 4.064 1.85 8.006 5.914 8.805s8.006-1.849 8.805-5.914c.941-4.791 5.177-8.268 10.073-8.268 5.661 0 10.267 4.605 10.267 10.266s-4.605 10.266-10.267 10.266c-4.142 0-7.5 3.358-7.5 7.5s3.358 7.5 7.5 7.5c5.661 0 10.267 4.605 10.267 10.266s-4.605 10.267-10.267 10.267c-5.094 0-9.465-3.794-10.167-8.824-.066-.474-.1-.96-.1-1.443 0-4.142-3.358-7.5-7.5-7.5s-7.5 3.358-7.5 7.5c0 1.173.082 2.355.243 3.515 1.73 12.4 12.488 21.752 25.023 21.752 13.932 0 25.267-11.334 25.267-25.267 0-6.921-2.799-13.198-7.322-17.766 4.523-4.568 7.322-10.846 7.322-17.766.001-13.932-11.334-25.266-25.266-25.266z"/><path d="m150.121 338.261c-4.142 0-7.5 3.358-7.5 7.5v2.144c0 4.142 3.358 7.5 7.5 7.5s7.5-3.358 7.5-7.5v-2.144c0-4.142-3.358-7.5-7.5-7.5z"/><path d="m250.774 413.339h-38.258c-9.164 0-16.62 7.456-16.62 16.62v18.222c0 9.164 7.456 16.62 16.62 16.62h38.258c9.165 0 16.62-7.456 16.62-16.62v-18.222c0-9.165-7.456-16.62-16.62-16.62zm1.62 34.842c0 .893-.727 1.62-1.62 1.62h-38.258c-.893 0-1.62-.727-1.62-1.62v-18.222c0-.894.727-1.62 1.62-1.62h38.258c.893 0 1.62.727 1.62 1.62z"/><path d="m71.861 413.339c-9.164 0-16.62 7.456-16.62 16.62v18.222c0 9.164 7.456 16.62 16.62 16.62h38.258c9.164 0 16.62-7.456 16.62-16.62v-18.222c0-9.165-7.456-16.62-16.62-16.62zm39.878 16.62v18.222c0 .893-.727 1.62-1.62 1.62h-38.258c-.893 0-1.62-.727-1.62-1.62v-18.222c0-.894.727-1.62 1.62-1.62h38.258c.894 0 1.62.726 1.62 1.62z"/></g></g><g/><g/><g/><g/><g/><g/><g/><g/><g/><g/><g/><g/><g/><g/><g/></svg>