<svg id="Capa_1" enable-background="new 0 0 512 512" viewBox="0 0 512 512" xmlns="http://www.w3.org/2000/svg"><g><g><g><path d="m132.364 391.081c-2.085-4.155-8.006-4.155-10.092 0-5.232 10.425-12.654 26.331-12.654 32.662 0 9.776 7.925 17.7 17.7 17.7s17.7-7.925 17.7-17.7c0-6.331-7.422-22.237-12.654-32.662z" fill="#5de1c4"/><path d="m16.65 474.37v3.89c0 14.492 11.748 26.24 26.24 26.24h168.855c14.492 0 26.24-11.748 26.24-26.24v-3.89c0-3.093-2.508-5.601-5.601-5.601h-210.133c-3.093 0-5.601 2.508-5.601 5.601z" fill="#d8ecfe"/><path d="m157.911 117.374h-61.186v184.939c0 8.606 4.287 16.647 11.432 21.444l1.016.682c2.497 1.676 3.995 4.486 3.995 7.493v7.45c0 7.619 5.855 14.175 13.465 14.533 8.126.383 14.834-6.092 14.834-14.133v-7.85c0-3.007 1.498-5.817 3.995-7.493l1.016-.682c7.146-4.797 11.432-12.838 11.432-21.444v-184.939z" fill="#d8ecfe"/><path d="m127.736 117.374v184.939c0 8.606-4.287 16.647-11.432 21.444l-1.016.682c-1.333.895-2.369 2.118-3.057 3.516.601 1.221.938 2.575.938 3.977v7.45c0 7.619 5.855 14.175 13.465 14.533 8.125.383 14.834-6.092 14.834-14.133v-7.85c0-3.007 1.498-5.817 3.995-7.493l1.016-.682c7.146-4.797 11.432-12.838 11.432-21.444v-184.939z" fill="#bddbff"/><path d="m167.462 47.645c0-22.694-18.831-40.99-41.72-40.114-20.591.788-37.445 17.4-38.513 37.979-.332 6.401.839 12.494 3.19 17.96 4.358 10.133 6.306 21.14 6.306 32.171v21.735h61.186v-20.62c0-11.5 1.975-22.981 6.433-33.583 2.008-4.777 3.118-10.022 3.118-15.528z" fill="#fe76a8"/><path d="m125.742 7.53c-4.742.182-9.281 1.211-13.479 2.926 14.674 5.973 25.024 20.368 25.024 37.189 0 5.506-1.111 10.751-3.119 15.527-4.458 10.601-6.433 22.082-6.433 33.583v20.62h30.175v-20.62c0-11.5 1.975-22.981 6.433-33.583 2.008-4.776 3.119-10.021 3.119-15.527 0-22.695-18.831-40.99-41.72-40.115z" fill="#fe5694"/><path d="m96.725 176.628v125.685c0 8.606 4.287 16.647 11.432 21.444l1.016.682c2.497 1.676 3.995 4.486 3.995 7.493v7.45c0 7.619 5.855 14.175 13.465 14.533 8.126.383 14.834-6.092 14.834-14.133v-7.85c0-3.007 1.498-5.817 3.995-7.493l1.016-.682c7.146-4.797 11.432-12.838 11.432-21.444v-125.685z" fill="#5de1c4"/><path d="m157.911 302.313v-125.685h-30.175v125.685c0 8.606-4.287 16.647-11.432 21.444l-1.016.682c-1.333.895-2.369 2.118-3.057 3.516.601 1.221.938 2.575.938 3.977v7.45c0 7.619 5.855 14.175 13.465 14.533 8.125.383 14.834-6.092 14.834-14.133v-7.85c0-3.007 1.498-5.817 3.995-7.493l1.016-.682c7.145-4.797 11.432-12.837 11.432-21.444z" fill="#0ed2b3"/><ellipse cx="354.472" cy="212.945" fill="#d8ecfe" rx="140.878" ry="140.878" transform="matrix(.707 -.707 .707 .707 -46.752 313.02)"/><path d="m354.472 72.067c-6.073 0-12.057.384-17.927 1.13 69.34 8.806 122.951 68.016 122.951 139.748s-53.611 130.942-122.951 139.748c5.871.746 11.854 1.13 17.927 1.13 77.805 0 140.878-63.073 140.878-140.878s-63.073-140.878-140.878-140.878z" fill="#bddbff"/><ellipse cx="282.772" cy="205.865" fill="#fe76a8" rx="18.505" ry="18.505" transform="matrix(.707 -.707 .707 .707 -62.747 260.246)"/><g fill="#fdb441"><path d="m404.022 229.52c-2.865 0-5.772-.654-8.504-2.035-9.31-4.705-13.042-16.066-8.337-25.375 3.77-7.459 4.282-16.589 1.371-24.422s-9.262-14.413-16.987-17.599c-9.643-3.977-14.236-15.018-10.259-24.661 3.978-9.643 15.018-14.236 24.661-10.259 17.536 7.233 31.384 21.578 37.992 39.359 6.608 17.783 5.49 37.691-3.067 54.621-3.323 6.577-9.972 10.371-16.87 10.371z"/><ellipse cx="375.072" cy="292.184" rx="21.929" ry="16.132" transform="matrix(.899 -.438 .438 .899 -90.026 193.521)"/></g></g></g><g><path d="m127.318 380.464c-5.002 0-9.504 2.779-11.748 7.252-13.452 26.803-13.452 33.503-13.452 36.026 0 13.896 11.306 25.2 25.201 25.2s25.2-11.305 25.2-25.2c0-2.522 0-9.223-13.452-36.025-2.245-4.474-6.747-7.253-11.749-7.253zm0 53.478c-5.625 0-10.201-4.576-10.201-10.2 0-1.976 2.199-9.616 10.2-25.955 8.003 16.34 10.201 23.978 10.201 25.955.001 5.625-4.575 10.2-10.2 10.2z"/><path d="m232.385 461.269h-59.956c-4.143 0-7.5 3.358-7.5 7.5s3.357 7.5 7.5 7.5h58.058v1.991c0 10.333-8.407 18.74-18.741 18.74h-168.855c-10.333 0-18.74-8.407-18.74-18.74v-1.991h113.278c4.143 0 7.5-3.358 7.5-7.5s-3.357-7.5-7.5-7.5h-115.178c-7.224 0-13.101 5.877-13.101 13.101v3.89c0 18.604 15.136 33.74 33.74 33.74h168.854c18.604 0 33.741-15.136 33.741-33.74v-3.89c.001-7.224-5.876-13.101-13.1-13.101z"/><path d="m89.225 95.64v128.73c0 4.142 3.357 7.5 7.5 7.5s7.5-3.358 7.5-7.5v-40.242h46.186v118.185c0 6.118-3.033 11.807-8.111 15.216l-1.019.683c-4.579 3.075-7.313 8.204-7.313 13.72v7.85c0 1.835-.731 3.545-2.061 4.812-1.328 1.266-3.068 1.919-4.921 1.829-3.483-.164-6.318-3.323-6.318-7.041v-7.45c0-5.518-2.734-10.647-7.315-13.721l-1.015-.681c-5.08-3.41-8.113-9.099-8.113-15.217v-42.943c0-4.142-3.357-7.5-7.5-7.5s-7.5 3.358-7.5 7.5v42.943c0 11.125 5.515 21.47 14.754 27.672l1.016.682c.422.283.674.756.674 1.266v7.45c0 11.806 9.055 21.48 20.613 22.024.353.017.704.025 1.056.025 5.591 0 10.856-2.103 14.924-5.984 4.263-4.066 6.707-9.776 6.707-15.666v-7.85c0-.509.252-.983.673-1.265l1.019-.683c9.237-6.201 14.752-16.546 14.752-27.671v-205.559c0-11.13 1.967-21.45 5.847-30.676 2.458-5.847 3.704-12.049 3.704-18.434 0-13.072-5.188-25.265-14.608-34.332-9.416-9.062-21.791-13.778-34.898-13.277-24.375.933-44.455 20.737-45.719 45.085-.385 7.399.891 14.57 3.79 21.312 3.78 8.789 5.696 18.616 5.696 29.208zm15 73.488v-44.254h46.186v44.254zm-9.505-123.23c.864-16.673 14.617-30.234 31.31-30.873 8.948-.35 17.471 2.886 23.922 9.096 6.456 6.213 10.011 14.567 10.011 23.524 0 4.378-.852 8.624-2.531 12.62-4.658 11.075-7.02 23.353-7.02 36.49v13.12h-46.186v-14.235c0-12.641-2.327-24.461-6.916-35.133-1.984-4.612-2.855-9.526-2.59-14.609z"/><path d="m354.472 64.567c-81.815 0-148.378 66.562-148.378 148.378 0 38.216 14.526 73.102 38.342 99.433l-72.02 72.019c-2.929 2.929-2.929 7.678 0 10.606 1.465 1.465 3.384 2.197 5.304 2.197 1.919 0 3.839-.732 5.304-2.197l72.02-72.019c26.331 23.814 61.214 38.339 99.428 38.339 81.815 0 148.378-66.562 148.378-148.378s-66.563-148.378-148.378-148.378zm0 281.756c-73.545 0-133.378-59.833-133.378-133.378s59.833-133.378 133.378-133.378 133.377 59.833 133.377 133.378-59.833 133.378-133.377 133.378z"/><path d="m289.581 230.959 4.752 11.64c1.187 2.907 3.988 4.667 6.946 4.667.943 0 1.904-.18 2.832-.558 3.835-1.565 5.674-5.943 4.108-9.778l-5.759-14.107c3.931-4.557 6.315-10.483 6.315-16.959 0-2.398-.333-4.718-.943-6.925l9.387-4.945c3.664-1.931 5.07-6.467 3.14-10.131-1.932-3.664-6.464-5.072-10.132-3.14l-10.441 5.5c-2.735-2.372-5.964-4.186-9.515-5.257v-6.699c0-4.142-3.357-7.5-7.5-7.5s-7.5 3.358-7.5 7.5v6.699c-3.007.908-5.786 2.346-8.227 4.206l-3.073-2.442c-3.243-2.577-7.962-2.037-10.538 1.206-2.577 3.243-2.037 7.961 1.206 10.538l3.577 2.842c-.935 2.679-1.45 5.553-1.45 8.547 0 2.098.256 4.137.728 6.092l-2.781 1.249c-3.778 1.697-5.466 6.136-3.769 9.915 1.249 2.781 3.983 4.429 6.846 4.429 1.027 0 2.071-.212 3.069-.661l4.287-1.926c4.637 4.283 10.83 6.906 17.625 6.906 2.357.003 4.638-.318 6.81-.908zm-17.814-25.094c0-6.068 4.937-11.005 11.005-11.005s11.005 4.937 11.005 11.005-4.937 11.005-11.005 11.005-11.005-4.937-11.005-11.005z"/><path d="m443.088 176.184c-.057 0-8.323.186-8.323.186-.778-4.901-2.024-9.746-3.774-14.455-1.737-4.674-3.939-9.124-6.525-13.316l2.593-1.035c3.848-1.536 5.721-5.899 4.186-9.746-1.536-3.848-5.905-5.721-9.746-4.185l-6.532 2.607c-2.219-2.344-4.588-4.543-7.089-6.59l1.209-1.924c2.204-3.507 1.146-8.137-2.36-10.34-3.51-2.204-8.137-1.147-10.341 2.361l-.997 1.587c-2.13-1.13-4.314-2.172-6.56-3.098-4.372-1.803-9.039-2.386-13.602-1.761l-1.098-4.624c-.956-4.029-4.993-6.524-9.03-5.563-4.03.957-6.521 5-5.563 9.03l1.789 7.533c-2.993 2.635-5.384 5.922-6.949 9.717-.578 1.401-1.023 2.833-1.352 4.282l-6.458 1.597c-4.021.995-6.475 5.061-5.479 9.082.845 3.417 3.906 5.701 7.274 5.701.596 0 1.202-.072 1.807-.221l3.954-.978c.094.244.183.49.284.732 1.545 3.714 3.884 6.936 6.801 9.536l-1.738 1.211c-3.399 2.367-4.235 7.042-1.868 10.441 1.458 2.093 3.79 3.214 6.161 3.214 1.479 0 2.974-.437 4.279-1.346l6.974-4.857c2.891 2.528 5.179 5.757 6.51 9.339.092.246.172.497.255.747l-8.01 1.176c-4.098.602-6.933 4.412-6.331 8.51.548 3.729 3.751 6.411 7.411 6.411.362 0 .73-.026 1.1-.081l5.603-.823c-.306.849-.656 1.681-1.062 2.485-2.417 4.783-3.305 10.063-2.626 15.262l-7.257 3.7c-3.69 1.881-5.157 6.398-3.275 10.088 1.325 2.599 3.957 4.095 6.688 4.095 1.146 0 2.31-.264 3.4-.82l6.512-3.32c2.247 2.642 5.018 4.836 8.206 6.447 3.677 1.859 7.788 2.841 11.888 2.841 6.321 0 12.245-2.214 16.893-6.089l4.768 5.754c1.482 1.79 3.622 2.714 5.778 2.714 1.686 0 3.382-.565 4.781-1.725 3.189-2.643 3.633-7.371.989-10.561l-7.56-9.123c3.603-8.488 5.599-17.524 5.964-26.636l7.618-.172c4.141-.094 7.422-3.526 7.328-7.667-.096-4.083-3.435-7.33-7.498-7.33zm-39.066 45.836c-1.786 0-3.509-.413-5.121-1.229-2.374-1.2-4.275-3.119-5.274-5.546-.005-.011-.009-.023-.014-.034-.14-.337-.279-.677-.395-1.029-.949-2.889-.716-5.975.656-8.69 8.06-15.945 4.526-38.186-14.941-50.086-1.453-.85-2.956-1.611-4.509-2.252-2.812-1.16-5.004-3.345-6.172-6.153s-1.173-5.903-.013-8.714c1.159-2.812 3.345-5.004 6.153-6.172 1.409-.586 2.89-.879 4.372-.879 1.47 0 2.941.289 4.342.867 15.61 6.438 27.938 19.209 33.822 35.038 5.883 15.832 4.887 33.555-2.731 48.626-1.947 3.857-5.847 6.253-10.175 6.253z"/><path d="m385.379 267.766c-6.618-1.214-13.95-.09-20.646 3.167-14.84 7.219-21.923 22.209-16.126 34.126 3.794 7.795 12.022 12.065 21.416 12.065 4.965 0 10.256-1.194 15.387-3.69 6.694-3.257 12.105-8.331 15.235-14.288 3.479-6.621 3.803-13.851.89-19.837-2.912-5.986-8.801-10.194-16.156-11.543zm1.987 24.404c-1.629 3.101-4.734 5.936-8.519 7.777-7.646 3.72-14.966 2.221-16.752-1.45s1.553-10.355 9.2-14.075c2.867-1.395 5.941-2.131 8.762-2.131.902 0 1.779.076 2.614.229 1.535.282 4.275 1.092 5.375 3.353 1.1 2.259.047 4.915-.68 6.297z"/><path d="m309.917 278.26-3.338-3.337c-2.93-2.929-7.677-2.929-10.606.001-2.929 2.929-2.929 7.678.001 10.606l3.338 3.337c1.465 1.464 3.384 2.196 5.303 2.196s3.839-.732 5.304-2.197c2.928-2.929 2.928-7.678-.002-10.606z"/><path d="m318.618 302.078h-4.033c-4.143 0-7.5 3.358-7.5 7.5s3.357 7.5 7.5 7.5h4.033c4.143 0 7.5-3.358 7.5-7.5s-3.357-7.5-7.5-7.5z"/><path d="m318.618 142.158h-4.033c-4.143 0-7.5 3.358-7.5 7.5s3.357 7.5 7.5 7.5h4.033c4.143 0 7.5-3.358 7.5-7.5s-3.357-7.5-7.5-7.5z"/></g></g><g/><g/><g/><g/><g/><g/><g/><g/><g/><g/><g/><g/><g/><g/><g/></svg>