<svg id="Capa_1" enable-background="new 0 0 512 512" viewBox="0 0 512 512" xmlns="http://www.w3.org/2000/svg"><g><g><path d="m339.131 111.185h92.938v30.432h-92.938z" fill="#62dbfb" transform="matrix(.707 -.707 .707 .707 23.56 309.681)"/><path d="m161.017 331.005-151.206 151.204c-3.084 3.084-3.084 8.085 0 11.168l8.811 8.811c3.084 3.084 8.085 3.084 11.168 0l151.205-151.205z" fill="#d8ecfe"/><path d="m147.058 322.918 29.591-29.596 42.029 42.029-29.596 29.591c-5.458 5.458-14.305 5.458-19.763 0l-22.262-22.262c-5.457-5.458-5.457-14.304.001-19.762z" fill="#678d98"/><path d="m338.412 41.058-21.065-21.065c-6.042-6.042-15.839-6.042-21.882 0s-6.042 15.839 0 21.882l14.134 14.134c15.406 15.406 15.406 40.383 0 55.789l-151.466 151.464c-10.678 10.678-10.678 27.991 0 38.669l51.936 51.936c10.678 10.678 27.991 10.678 38.669 0l111.109-111.109c7.284-7.284 17.517-10.81 27.742-9.558l10.692 1.309c15.938 1.951 27.756-14.456 20.855-28.955l-73.254-153.917c-1.869-3.927-4.395-7.505-7.47-10.579z" fill="#d8ecfe"/><path d="m419.136 205.554-28.247-59.352-174.908 174.908c-10.678 10.678-27.991 10.678-38.669 0l32.757 32.757c10.678 10.678 27.991 10.678 38.669 0l111.109-111.109c7.284-7.284 17.517-10.81 27.742-9.558l10.692 1.309c15.938 1.951 27.755-14.456 20.855-28.955z" fill="#bddbff"/><path d="m257.659 228.113-47.036 47.036c-2.625 2.625-2.625 6.88 0 9.504l16.723 16.723c2.625 2.625 6.88 2.625 9.504 0l47.036-47.036c2.625-2.625 2.625-6.88 0-9.504l-16.723-16.723c-2.624-2.625-6.879-2.625-9.504 0z" fill="#5de1c4"/><path d="m502.913 99.136-11.956 11.956c-2.116 2.116-5.544 2.109-7.66-.007l-12.754-12.754c-9.762-9.762-25.594-9.762-35.355 0l-5.97 5.971-21.519-21.519 5.971-5.97c9.762-9.762 9.762-25.594 0-35.355l-12.754-12.754c-2.116-2.116-2.123-5.544-.007-7.66l11.956-11.956c2.116-2.116 5.55-2.116 7.667 0l82.382 82.382c2.115 2.115 2.115 5.55-.001 7.666z" fill="#d8ecfe"/><path d="m419.136 205.554-21.23-44.606-72.127 72.127c-5.448 5.448-5.448 14.282 0 19.73l12.01 12.01 22.057-22.057c7.285-7.285 17.517-10.81 27.742-9.558l10.692 1.309c15.939 1.951 27.756-14.456 20.856-28.955z" fill="#678d98"/></g><g><path d="m272.465 222.81c-2.686-2.686-6.257-4.165-10.055-4.165-3.799 0-7.37 1.479-10.056 4.165l-47.037 47.037c-5.545 5.545-5.545 14.567 0 20.111l16.724 16.724c2.773 2.773 6.414 4.159 10.055 4.159 3.642 0 7.283-1.386 10.056-4.159l47.037-47.037c2.686-2.686 4.165-6.257 4.165-10.056 0-3.798-1.479-7.369-4.165-10.055zm-40.369 72.715-15.622-15.622 45.935-45.935 15.622 15.622z"/><path d="m508.221 86.163-32.927-32.927c-2.929-2.93-7.678-2.929-10.607 0s-2.929 7.678 0 10.607l31.457 31.457-9.01 9.01-11.284-11.285c-12.671-12.672-33.289-12.672-45.964 0l-.666.666-10.912-10.912.666-.666c12.672-12.672 12.672-33.291 0-45.963l-11.284-11.285 9.01-9.01 23.245 23.245c2.929 2.929 7.678 2.929 10.607 0s2.929-7.678 0-10.607l-24.716-24.714c-5.038-5.039-13.236-5.038-18.273 0l-11.957 11.957c-5.034 5.034-5.031 13.228.007 18.267l12.754 12.754c3.305 3.305 5.125 7.699 5.125 12.375s-1.82 9.07-5.125 12.374l-30.301 30.3-25.412-53.396c-2.242-4.711-5.25-8.97-8.939-12.66l-21.065-21.066c-8.957-8.957-23.532-8.957-32.489 0-4.339 4.339-6.729 10.108-6.729 16.245s2.39 11.906 6.729 16.245l14.134 14.134c6.034 6.034 9.358 14.058 9.358 22.592s-3.323 16.557-9.358 22.591l-151.47 151.47c-13.47 13.47-13.576 35.31-.336 48.923l-10.732 10.732c-4.061 4.053-6.297 9.446-6.297 15.185 0 3.716.951 7.281 2.715 10.439l-66.195 66.204c-2.929 2.929-2.928 7.678.001 10.607 1.464 1.464 3.383 2.196 5.303 2.196s3.839-.732 5.304-2.197l65.608-65.618 9.373 9.373-133.09 133.09c-.155.155-.411.151-.563 0l-8.802-8.802c-.16-.16-.163-.417-.008-.572l42.731-42.731c2.929-2.929 2.929-7.678 0-10.607s-7.678-2.929-10.607 0l-42.732 42.732c-5.994 5.994-5.998 15.76 0 21.777l8.819 8.819c3.002 2.993 6.943 4.489 10.883 4.489 3.944 0 7.886-1.5 10.885-4.498l133.676-133.676c3.158 1.763 6.723 2.714 10.438 2.714 5.739 0 11.132-2.236 15.18-6.292l10.737-10.737c6.748 6.563 15.514 9.852 24.284 9.852 8.923 0 17.846-3.396 24.638-10.189l111.112-111.112c5.692-5.692 13.542-8.392 21.528-7.417l10.692 1.309c10.241 1.255 19.958-2.996 25.99-11.369 6.031-8.374 6.985-18.936 2.55-28.254l-27.124-56.991 41.707-41.709c6.823-6.823 17.926-6.823 24.75 0l12.754 12.754c2.438 2.438 5.678 3.783 9.123 3.788h.018c3.447 0 6.688-1.342 9.126-3.78l11.957-11.957c5.038-5.037 5.038-13.235 0-18.273zm-324.453 273.483c-1.219 1.221-2.841 1.894-4.568 1.894-1.73 0-3.357-.674-4.581-1.898l-22.26-22.26c-1.224-1.224-1.898-2.851-1.898-4.581 0-1.727.673-3.35 1.898-4.573l10.728-10.728 31.414 31.414zm59.664-11.078c-7.736 7.737-20.325 7.737-28.063 0l-51.937-51.937c-7.737-7.737-7.737-20.326 0-28.063l151.47-151.47c8.868-8.867 13.751-20.657 13.751-33.198s-4.883-24.331-13.751-33.199l-14.134-14.134c-3.108-3.109-3.108-8.167 0-11.276 1.554-1.554 3.596-2.332 5.638-2.332s4.084.777 5.638 2.332l21.066 21.066c2.477 2.477 4.496 5.336 6.001 8.499l49.75 104.533-68.384 68.384c-8.364 8.364-8.364 21.973 0 30.337l6.707 6.707zm167.757-126.75c-2.784 3.865-7.269 5.829-11.995 5.247l-10.692-1.309c-12.605-1.544-24.98 2.721-33.958 11.699l-16.755 16.755-6.707-6.707c-2.515-2.516-2.515-6.608 0-9.124l64.618-64.618 16.665 35.017c2.047 4.301 1.607 9.175-1.176 13.04zm-19.243-90.851-7.038-14.789 22.794-22.793 10.913 10.913z"/></g></g><g/><g/><g/><g/><g/><g/><g/><g/><g/><g/><g/><g/><g/><g/><g/></svg>