<svg id="Capa_1" enable-background="new 0 0 512 512" viewBox="0 0 512 512" xmlns="http://www.w3.org/2000/svg"><g><g><path d="m135.93 14.071v468.545h29.117v-468.545c0-3.629-2.945-6.571-6.575-6.571h-15.972c-3.629 0-6.57 2.941-6.57 6.571z" fill="#d8ecfe"/><path d="m214.823 309.438v175.33h135.957v-149.028c0-2.531.419-5.045 1.239-7.44l7.724-22.564c1.723-5.031-2.015-10.266-7.333-10.266h-123.621c-7.712.001-13.966 6.256-13.966 13.968z" fill="#d8ecfe"/><path d="m352.41 295.471h-31.496c5.318 0 9.057 5.233 7.334 10.264l-7.726 22.565c-.82 2.395-1.238 4.909-1.238 7.44v149.028h31.496v-149.028c0-2.531.419-5.045 1.239-7.44l7.724-22.564c1.723-5.03-2.015-10.265-7.333-10.265z" fill="#bddbff"/><path d="m350.78 427.274c-5.16.754-11.018 1.199-17.866 1.199-47.505 0-47.505-21.193-95.02-21.193-9.267 0-16.714.813-23.071 2.112v75.376h135.957z" fill="#fdb441"/><path d="m319.284 484.768h31.496v-57.494c-5.16.754-11.018 1.199-17.866 1.199-5.042 0-9.545-.241-13.63-.667z" fill="#fe9738"/><path d="m101.863 349.161v18.317c0 3.606 2.923 6.529 6.529 6.529h249.561c3.606 0 6.529-2.923 6.529-6.529v-18.317c0-3.606-2.923-6.529-6.529-6.529h-249.561c-3.606 0-6.529 2.923-6.529 6.529z" fill="#678d98"/><path d="m357.953 342.632h-38.669v31.375h38.669c3.606 0 6.529-2.923 6.529-6.529v-18.317c0-3.606-2.923-6.529-6.529-6.529z" fill="#537983"/><path d="m92.691 478.107v21.411c0 2.752 2.231 4.982 4.982 4.982h316.654c2.752 0 4.982-2.231 4.982-4.982v-21.411c0-2.752-2.231-4.982-4.982-4.982h-316.654c-2.751 0-4.982 2.231-4.982 4.982z" fill="#678d98"/><path d="m271.871 157.513v51.057c0 3.302 2.677 5.979 5.979 5.979h19.292c3.302 0 5.979-2.677 5.979-5.979v-51.057z" fill="#537983"/><path d="m223.584 48.424v90.218c0 24.112 19.547 43.659 43.659 43.659h40.507c24.112 0 43.659-19.547 43.659-43.659v-90.218c0-9.506-7.706-17.212-17.212-17.212h-93.401c-9.506 0-17.212 7.706-17.212 17.212z" fill="#d8ecfe"/><path d="m334.197 31.212h-31.818c9.506 0 17.212 7.706 17.212 17.212v90.218c0 24.112-19.547 43.659-43.659 43.659h31.818c24.112 0 43.659-19.547 43.659-43.659v-90.218c0-9.506-7.706-17.212-17.212-17.212z" fill="#bddbff"/><path d="m254.024 79.192v20.822c0 3.134 2.54 5.674 5.674 5.674h55.597c3.134 0 5.674-2.54 5.674-5.674v-20.822c0-3.134-2.54-5.674-5.674-5.674h-55.597c-3.134 0-5.674 2.54-5.674 5.674z" fill="#62dbfb"/><g fill="#537983"><path d="m389.764 133.388h-5.634c-2.357 0-4.267-1.91-4.267-4.267v-44.728c0-2.357 1.91-4.267 4.267-4.267h5.634c10.731 0 19.43 8.699 19.43 19.43v14.403c0 10.73-8.699 19.429-19.43 19.429z"/><path d="m150.488 86.249c-11.327 0-20.508 9.184-20.508 20.51s9.182 20.507 20.508 20.507c11.327 0 20.51-9.18 20.51-20.507s-9.184-20.51-20.51-20.51z"/></g></g><g><path d="m414.327 465.625h-56.047v-84.135c7.583-.176 13.702-6.387 13.702-14.012v-18.317c0-7.617-6.106-13.822-13.678-14.011.057-1.501.321-2.988.811-4.421l7.719-22.554c1.597-4.652.845-9.818-2.012-13.817-2.855-3.999-7.495-6.387-12.412-6.387h-57.41v-65.92h2.14c7.434 0 13.48-6.047 13.48-13.48v-18.853c26.878-1.494 48.289-23.829 48.289-51.074v-24.384h13.453v14.861c0 6.489 5.278 11.768 11.767 11.768h5.635c14.849 0 26.93-12.081 26.93-26.93v-14.403c0-14.849-12.081-26.93-26.93-26.93h-5.635c-6.488 0-11.767 5.279-11.767 11.767v14.867h-13.453v-50.836c0-13.626-11.086-24.712-24.713-24.712h-93.4c-13.626 0-24.712 11.086-24.712 24.712v50.835h-38.614c-.997-3.582-2.688-6.875-4.92-9.727v-75.462c0-7.758-6.316-14.07-14.08-14.07h-15.97c-7.759 0-14.07 6.312-14.07 14.07v75.459c-2.234 2.854-3.925 6.148-4.922 9.731h-26.518c-4.143 0-7.5 3.358-7.5 7.5 0 4.143 3.358 7.5 7.5 7.5h26.517c.997 3.582 2.689 6.875 4.922 9.727v110.383c0 4.142 3.357 7.5 7.5 7.5s7.5-3.358 7.5-7.5v-100.507c2.256.588 4.621.902 7.059.902s4.805-.315 7.062-.903v201.269h-14.12v-65.761c0-4.142-3.357-7.5-7.5-7.5s-7.5 3.358-7.5 7.5v65.762h-20.038c-7.735 0-14.028 6.293-14.028 14.029v18.317c0 7.735 6.293 14.029 14.028 14.029h20.038v84.119h-30.757c-6.882 0-12.481 5.599-12.481 12.482v21.411c0 6.882 5.6 12.482 12.481 12.482h214.813c4.143 0 7.5-3.358 7.5-7.5s-3.357-7.5-7.5-7.5h-212.295v-16.375h311.617v16.374h-64.322c-4.143 0-7.5 3.358-7.5 7.5s3.357 7.5 7.5 7.5h66.841c6.882 0 12.481-5.6 12.481-12.482v-21.411c.001-6.882-5.599-12.482-12.481-12.482zm-26.965-377.999h2.401c6.578 0 11.93 5.352 11.93 11.93v14.403c0 6.578-5.352 11.93-11.93 11.93h-2.401zm-180.042 293.88v84.119h-34.77v-84.119zm135.96 39.068c-3.27.266-6.7.399-10.366.399-17.954 0-28.469-3.173-37.914-7.098v-32.369h48.28zm-63.28-13.197c-10.252-4.139-22.387-7.597-42.106-7.597-5.546 0-10.7.28-15.573.842v-19.116h57.679zm-57.68 8.365c4.794-.641 9.934-.962 15.573-.962 44.965 0 45.829 21.193 95.021 21.193 3.627 0 7.062-.12 10.366-.356v30.009h-120.96zm130.09-112.772c.067 0 .131 0 .205.104.075.104.054.167.029.238l-7.723 22.565c-1.024 2.997-1.554 6.109-1.616 9.255h-48.305v-32.162zm-130.09 32.162v-25.692c0-3.567 2.902-6.47 6.47-6.47h51.21v32.162zm57.05-128.082v-17.248h16.25v17.248zm-48.286-158.626c0-5.355 4.356-9.712 9.712-9.712h93.4c5.355 0 9.713 4.357 9.713 9.712v90.218c0 19.938-16.221 36.16-36.159 36.16-2.979 0-35.783 0-40.507 0-19.938 0-36.159-16.221-36.159-36.16zm-73.534-33.424v64.652c-2.257-.588-4.623-.903-7.062-.903-2.438 0-4.803.314-7.059.902v-64.651zm-20.071 91.759c0-7.174 5.836-13.01 13.009-13.01 7.174 0 13.01 5.836 13.01 13.01 0 7.172-5.836 13.007-13.01 13.007-7.173 0-13.009-5.835-13.009-13.007zm35.071 17.225c2.232-2.852 3.923-6.144 4.92-9.724h38.614v24.383c0 27.245 21.409 49.579 48.286 51.074v18.853c0 7.433 6.047 13.48 13.479 13.48h2.151v65.92h-51.21c-11.839 0-21.47 9.631-21.47 21.47v25.692h-34.77zm-63.187 226.148h247.619v16.375h-247.619zm34.067 31.374h14.12v84.119h-14.12z"/><path d="m259.698 113.188h55.597c7.264 0 13.174-5.91 13.174-13.174v-20.822c0-7.264-5.91-13.174-13.174-13.174h-55.597c-7.264 0-13.174 5.91-13.174 13.174v20.822c0 7.264 5.911 13.174 13.174 13.174zm1.826-32.17h51.944v17.17h-51.944z"/><path d="m300.502 128.084h-26.012c-4.143 0-7.5 3.358-7.5 7.5s3.357 7.5 7.5 7.5h26.012c4.143 0 7.5-3.358 7.5-7.5s-3.357-7.5-7.5-7.5z"/></g></g><g/><g/><g/><g/><g/><g/><g/><g/><g/><g/><g/><g/><g/><g/><g/></svg>