<svg id="Capa_1" enable-background="new 0 0 512 512" viewBox="0 0 512 512" xmlns="http://www.w3.org/2000/svg"><g><g><path d="m9.271 478.199 57.312-62.642 29.86 29.86-62.642 57.312c-2.664 2.438-6.776 2.345-9.329-.209l-14.993-14.991c-2.553-2.554-2.646-6.666-.208-9.33z" fill="#678d98"/><path d="m307.345 101.137h151.474v55.561h-151.474z" fill="#bddbff" transform="matrix(.707 -.707 .707 .707 21.044 308.639)"/><path d="m500.438 101.571-90.01-90.01c-5.416-5.416-14.196-5.416-19.612 0l-5.925 5.925c-5.416 5.416-5.416 14.196 0 19.612l90.01 90.01c5.416 5.416 14.196 5.416 19.612 0l5.925-5.925c5.416-5.415 5.416-14.196 0-19.612z" fill="#678d98"/><path d="m408.556 201.335-97.891-97.891-197.044 197.044c-14.271 14.272-19.799 34.872-14.973 54.112 1.143 4.556-.335 9.376-3.656 12.697l-16.032 16.032 49.711 49.711 16.032-16.032c3.321-3.321 8.141-4.798 12.697-3.655 19.24 4.826 39.841-.702 54.112-14.973z" fill="#d8ecfe"/><path d="m385.891 178.669-197.045 197.044c-14.271 14.271-34.872 19.8-54.112 14.974-4.556-1.143-9.375.333-12.696 3.654l-16.033 16.033 22.666 22.665 16.032-16.032c3.321-3.321 8.141-4.798 12.697-3.655 19.24 4.826 39.841-.702 54.112-14.973l197.045-197.044z" fill="#bddbff"/><path d="m145.867 268.242-32.246 32.246c-14.271 14.272-19.799 34.872-14.973 54.112 1.143 4.556-.335 9.376-3.656 12.697l-16.032 16.032 49.711 49.711 16.032-16.032c3.321-3.321 8.141-4.798 12.697-3.655 19.24 4.826 39.841-.702 54.112-14.973l32.246-32.246z" fill="#5de1c4"/><path d="m211.512 398.379 36.234-36.234-22.666-22.665-36.234 36.234c-14.271 14.271-34.872 19.8-54.112 14.974-4.556-1.143-9.375.333-12.696 3.654l-16.033 16.033 22.666 22.665 16.032-16.032c3.321-3.321 8.141-4.798 12.697-3.655 19.24 4.825 39.841-.703 54.112-14.974z" fill="#0ed2b3"/><path d="m172.195 250.344h40.483v138.439h-40.483z" fill="#678d98" transform="matrix(.707 -.707 .707 .707 -169.602 229.671)"/><path d="m209.808 341.149h40.483v32.054h-40.483z" fill="#537983" transform="matrix(.707 -.707 .707 .707 -185.182 267.284)"/><path d="m78.96 383.329-15.522 15.522c-10.611 10.611-10.611 27.814 0 38.424l11.287 11.287c10.611 10.611 27.814 10.611 38.424 0l15.522-15.522z" fill="#d8ecfe"/><path d="m106.031 410.401-15.522 15.522c-8.634 8.634-21.634 10.241-31.894 4.823 1.24 2.348 2.847 4.553 4.824 6.529l11.287 11.287c10.611 10.611 27.814 10.611 38.424 0l15.522-15.522z" fill="#bddbff"/><path d="m297.739 68.805-9.413 9.413c-3.882 3.882-3.882 10.176 0 14.059l131.397 131.397c3.882 3.882 10.176 3.882 14.059 0l9.413-9.413c3.882-3.882 3.882-10.176 0-14.059l-131.397-131.397c-3.883-3.882-10.177-3.882-14.059 0z" fill="#678d98"/></g><path d="m505.742 96.265-46.426-46.426c-2.929-2.929-7.677-2.929-10.606 0s-2.929 7.677 0 10.606l46.426 46.427c1.203 1.203 1.865 2.801 1.865 4.502s-.663 3.3-1.866 4.503l-5.924 5.925c-2.483 2.482-6.522 2.482-9.006 0l-90.006-90.006c-2.483-2.483-2.483-6.523 0-9.005l5.925-5.925c1.203-1.203 2.801-1.865 4.502-1.865s3.299.663 4.502 1.865l18.834 18.833c2.929 2.929 7.677 2.929 10.606 0s2.929-7.677 0-10.606l-18.832-18.834c-4.036-4.036-9.402-6.259-15.109-6.259-5.708 0-11.073 2.223-15.109 6.258l-5.925 5.925c-8.331 8.331-8.331 21.887 0 30.218l20.056 20.056-41.792 41.792-40.75-40.75c-6.8-6.799-17.864-6.798-24.664 0l-9.412 9.413c-3.295 3.294-5.109 7.674-5.109 12.333s1.814 9.038 5.108 12.332l11.45 11.45c-42.909 42.909-145.421 145.42-186.15 186.15-15.932 15.932-22.423 39.397-16.942 61.23.479 1.916-.17 4.056-1.687 5.577l-31.551 31.55c-6.548 6.548-10.154 15.254-10.154 24.514 0 2.074.191 4.117.545 6.117l-44.781 48.949c-5.179 5.647-4.984 14.305.434 19.702l14.98 14.98c2.786 2.797 6.435 4.204 10.09 4.204 3.438 0 6.882-1.247 9.616-3.754l48.955-44.787c2 .354 4.044.545 6.117.545 9.26 0 17.966-3.606 24.514-10.154l31.542-31.543c1.529-1.524 3.667-2.173 5.578-1.697 21.841 5.481 45.305-1.008 61.237-16.94 7.506-7.506 64.959-64.96 72.847-72.848 2.929-2.929 2.929-7.677 0-10.606s-7.677-2.929-10.606 0l-23.362 23.362-87.281-87.281 16.837-16.837 14.097 14.097c1.464 1.464 3.384 2.197 5.303 2.197s3.839-.732 5.303-2.197c2.929-2.929 2.929-7.677 0-10.606l-14.097-14.097 30.686-30.686 14.097 14.096c1.464 1.464 3.384 2.197 5.303 2.197s3.839-.732 5.303-2.197c2.929-2.929 2.929-7.677 0-10.606l-14.097-14.096 30.686-30.686 14.096 14.097c1.464 1.465 3.384 2.197 5.303 2.197s3.839-.732 5.303-2.197c2.929-2.929 2.929-7.677 0-10.606l-14.096-14.097 26.636-26.636 87.28 87.28-88.573 88.573c-2.929 2.929-2.929 7.677 0 10.606 1.464 1.464 3.384 2.197 5.303 2.197s3.839-.732 5.303-2.197l88.573-88.573 11.45 11.45c3.294 3.294 7.674 5.108 12.332 5.108 4.659 0 9.039-1.814 12.332-5.108l9.413-9.413c6.799-6.8 6.799-17.864 0-24.664l-40.749-40.749 41.792-41.792 20.056 20.056c4.165 4.166 9.637 6.248 15.109 6.248 5.471 0 10.944-2.083 15.109-6.248l5.924-5.924c4.036-4.036 6.259-9.402 6.259-15.109.003-5.709-2.219-11.074-6.255-15.11zm-476.457 400.429-13.979-13.979 39.856-43.565c.917 1.19 1.908 2.333 2.988 3.413l11.287 11.287c1.08 1.08 2.223 2.071 3.413 2.988zm78.575-53.45c-7.669 7.669-20.148 7.669-27.817 0l-11.287-11.287c-7.669-7.669-7.669-20.147 0-27.816l10.219-10.218 39.102 39.102zm51.372-37.184c-6.989-1.748-14.582.407-19.822 5.633l-10.726 10.726-39.102-39.102 10.734-10.734c5.217-5.232 7.372-12.825 5.623-19.821-4.206-16.754.774-34.755 12.998-46.979l10.255-10.255 87.281 87.281-10.255 10.255c-12.223 12.223-30.225 17.204-46.986 12.996zm85.865-51.876-18.019 18.019-87.281-87.281 18.019-18.019zm192.798-145.233-9.413 9.413c-.622.622-1.348.714-1.726.714-.377 0-1.104-.093-1.726-.715l-131.393-131.393c-.622-.622-.715-1.349-.715-1.726 0-.378.093-1.104.715-1.726l9.412-9.412c.951-.952 2.501-.952 3.453 0 7.629 7.629 123.824 123.822 131.393 131.393.951.951.951 2.5 0 3.452zm-40.75-65.414-28.682-28.682 41.792-41.792 28.682 28.682z"/></g><g/><g/><g/><g/><g/><g/><g/><g/><g/><g/><g/><g/><g/><g/><g/></svg>