<svg id="Capa_1" enable-background="new 0 0 512 512" viewBox="0 0 512 512" xmlns="http://www.w3.org/2000/svg"><g><g><path d="m196.57 131.267c-103.058 0-186.602 83.548-186.602 186.605 0 103.058 83.544 186.601 186.602 186.601s186.602-83.544 186.602-186.602c0-103.057-83.544-186.604-186.602-186.604z" fill="#62dbfb"/><path d="m196.57 131.267c-9.788 0-19.397.759-28.778 2.211 89.393 13.839 157.824 91.122 157.824 184.393s-68.431 170.554-157.824 184.393c9.381 1.452 18.99 2.21 28.778 2.21 103.058 0 186.602-83.544 186.602-186.602s-83.544-186.605-186.602-186.605z" fill="#01d0fb"/><path d="m196.57 162.685c-85.707 0-155.183 69.481-155.183 155.188s69.476 155.183 155.183 155.183 155.187-69.476 155.187-155.183c0-85.708-69.481-155.188-155.187-155.188z" fill="#d8ecfe"/><path d="m260.961 459.103c53.567-24.462 90.796-78.496 90.796-141.231s-37.229-116.77-90.796-141.232c39.594 34.216 64.655 84.794 64.655 141.231 0 56.438-25.061 107.015-64.655 141.232z" fill="#bddbff"/><path d="m432.132 121.912-44.592-44.592-127.494 127.495c-6.272 6.272-9.008 15.257-7.296 23.96l.243 1.238c.598 3.041-.358 6.181-2.55 8.372l-27.294 27.294c-5.553 5.553-6.063 14.597-.778 20.405 5.643 6.201 15.251 6.371 21.111.51l27.585-27.585c2.192-2.192 5.331-3.148 8.372-2.55l1.238.243c8.703 1.712 17.688-1.024 23.96-7.296z" fill="#d8ecfe"/><path d="m410.141 99.921-127.495 127.494c-6.272 6.272-15.256 9.008-23.96 7.296l-1.238-.243c-1.623-.319-3.27-.183-4.791.335-.452 1.328-1.193 2.56-2.215 3.582l-27.294 27.294c-5.553 5.553-6.063 14.597-.778 20.405 5.643 6.201 15.25 6.371 21.111.51l27.585-27.585c2.192-2.192 5.331-3.148 8.372-2.55l1.238.243c8.704 1.712 17.688-1.024 23.96-7.296l127.495-127.495z" fill="#bddbff"/><path d="m489.912 78.055c16.539-16.539 16.149-43.598-1.17-59.641-15.581-14.432-39.971-14.608-55.747-.389-4.907 4.423-8.494 9.717-10.764 15.414-4.209 10.561-10.811 20.003-18.85 28.042l-15.84 15.84 44.592 44.592 15.028-15.028c8.381-8.381 18.188-15.309 29.163-19.787 4.943-2.018 9.575-5.031 13.588-9.043z" fill="#fe76a8"/><path d="m488.742 18.414c-3.588-3.323-7.646-5.881-11.956-7.691 6.341 15.048 3.393 33.081-8.866 45.34-4.013 4.013-8.645 7.026-13.589 9.043-10.975 4.477-20.782 11.405-29.163 19.787l-15.028 15.028 21.991 21.991 15.028-15.028c8.381-8.381 18.188-15.309 29.163-19.787 4.944-2.017 9.576-5.03 13.589-9.043 16.54-16.539 16.15-43.597-1.169-59.64z" fill="#fe5694"/><path d="m344.356 120.504-84.311 84.311c-6.272 6.272-9.008 15.257-7.296 23.96l.243 1.238c.598 3.041-.358 6.181-2.55 8.372l-27.294 27.294c-5.553 5.553-6.063 14.597-.778 20.405 5.643 6.201 15.251 6.371 21.111.51l27.585-27.585c2.192-2.192 5.331-3.148 8.372-2.55l1.238.243c8.703 1.712 17.688-1.024 23.96-7.296l84.311-84.311z" fill="#5de1c4"/><path d="m304.637 249.407 84.311-84.311-21.991-21.991-84.311 84.311c-6.272 6.272-15.256 9.008-23.96 7.296l-1.238-.243c-1.623-.319-3.27-.183-4.791.335-.452 1.328-1.193 2.56-2.215 3.582l-27.294 27.294c-5.553 5.553-6.063 14.597-.778 20.405 5.643 6.201 15.25 6.371 21.111.51l27.585-27.585c2.192-2.192 5.331-3.148 8.372-2.55l1.238.243c8.705 1.712 17.689-1.024 23.961-7.296z" fill="#0ed2b3"/><g fill="#fdb441"><path d="m108.904 322.005c-9.088 0-16.454 6.782-16.454 15.148s7.367 15.149 16.454 15.149c9.088 0 16.454-6.782 16.454-15.149s-7.367-15.148-16.454-15.148z"/><path d="m171.344 251.975c.415 2.108.038 4.291.209 6.433.291 3.631 2.121 6.926 3.455 10.316s2.156 7.345.482 10.58c-1.231 2.38-3.611 3.945-6.031 5.096s-5 2.01-7.22 3.51c-3.433 2.32-5.953 6.127-9.911 7.35-3.922 1.211-8.179-.507-11.522-2.889-3.343-2.383-6.195-5.45-9.753-7.498-2.204-1.268-4.634-2.118-6.798-3.453s-4.126-3.316-4.577-5.818c-.419-2.327.532-4.686 1.752-6.711s2.735-3.892 3.633-6.079c1.092-2.66 1.196-5.608 1.82-8.415s1.994-5.725 4.607-6.926c2.637-1.211 5.845-.362 8.53-1.462 2.97-1.217 4.786-4.608 7.913-5.327 2.392-.55 4.814.644 6.91 1.921 1.682 1.024 3.575 2.41 5.594 2.614 1.451.147 2.743-.366 4.221-.025 3.238.747 6.041 3.505 6.686 6.783z"/><path d="m177.934 361.425c2.914-.117 5.763.843 8.671 1.059 4.931.366 9.732-1.402 14.556-2.486s10.3-1.363 14.292 1.556c2.936 2.147 4.539 5.664 5.579 9.15s1.654 7.125 3.205 10.415c2.397 5.087 6.979 9.26 7.795 14.824.808 5.513-2.382 10.865-6.274 14.852s-8.6 7.175-12.087 11.52c-2.16 2.692-3.806 5.774-6.046 8.399-2.241 2.625-5.306 4.844-8.757 4.928-3.208.078-6.175-1.689-8.637-3.747s-4.651-4.479-7.397-6.138c-3.341-2.018-7.273-2.771-10.908-4.192s-7.264-3.867-8.33-7.621c-1.076-3.789.731-7.915-.185-11.746-1.014-4.236-5.184-7.378-5.498-11.723-.24-3.322 1.866-6.323 4.015-8.868 1.724-2.042 3.977-4.294 4.671-6.959.499-1.916.08-3.755.845-5.667 1.675-4.187 5.958-7.373 10.49-7.556z"/><path d="m287.705 322.8c1.452 1.405 3.224 2.42 5.2 2.847.979.212 1.915.62 2.726 1.208 1.652 1.198 2.758 3.121 2.962 5.151.311 3.092-1.351 6.001-2.953 8.663.083 9.193-9.002 12.822-12.524 11.294-1.235-.536-2.619-.564-3.95-.364-6.643.999-10.474-2.254-11.094-5.749-.319-1.802-.921-3.573-2.127-4.949-4.038-4.607-3.361-12.987 2.975-16.295 1.963-3.512 6.092-5.908 10.113-5.771 2.905.099 6.34 1.708 8.672 3.965z"/></g></g><g><path d="m493.863 12.887c-18.357-17.004-47.292-17.205-65.871-.458-5.648 5.09-9.924 11.217-12.711 18.21-3.663 9.19-9.446 17.775-17.188 25.518l-97.69 97.69c-31.046-19.705-66.81-30.096-103.839-30.096-14.19 0-28.37 1.547-42.146 4.598-4.045.896-6.597 4.901-5.702 8.945.896 4.044 4.897 6.595 8.945 5.702 12.713-2.816 25.801-4.243 38.902-4.243 33.038 0 64.98 8.961 92.947 25.986l-11.989 11.989c-24.56-14.115-52.42-21.553-80.958-21.553-89.711 0-162.696 72.99-162.696 162.706 0 89.711 72.985 162.697 162.696 162.697 55.468 0 106.586-27.845 136.742-74.486 2.249-3.479 1.252-8.122-2.226-10.372-3.479-2.25-8.122-1.253-10.372 2.226-27.38 42.348-73.789 67.629-124.144 67.629-81.439 0-147.695-66.256-147.695-147.695 0-81.445 66.256-147.705 147.695-147.705 24.541 0 48.52 6.062 69.924 17.586l-11.745 11.745c-8.055 8.055-11.551 19.536-9.353 30.715l.244 1.236c.116.59-.069 1.197-.494 1.622l-27.297 27.296c-8.517 8.518-8.966 22.03-1.021 30.759 4.112 4.518 9.732 7.085 15.826 7.228.171.004.341.006.511.006 5.829 0 11.5-2.341 15.627-6.469l27.588-27.588c.426-.426 1.033-.609 1.623-.493l1.236.243c11.178 2.201 22.66-1.298 30.714-9.353l13.1-13.1c13.896 22.969 21.222 49.145 21.222 76.27 0 17.116-2.904 33.893-8.631 49.863-1.398 3.9.629 8.194 4.529 9.593.837.3 1.691.442 2.532.442 3.077 0 5.963-1.908 7.061-4.971 6.311-17.6 9.511-36.08 9.511-54.927 0-31.123-8.732-61.13-25.312-87.182l11.864-11.864c19.558 29.369 29.859 63.425 29.859 99.046 0 98.766-80.352 179.118-179.118 179.118s-179.118-80.352-179.118-179.118c0-71.52 42.419-136.084 108.068-164.483 3.802-1.645 5.551-6.061 3.906-9.862-1.644-3.802-6.06-5.553-9.862-3.906-71.143 30.778-117.113 100.745-117.113 178.253 0 107.038 87.081 194.12 194.119 194.12s194.12-87.082 194.12-194.12c0-39.617-11.76-77.453-34.059-109.848l95.859-95.859c8.133-8.133 17.115-14.239 26.696-18.147 6.025-2.458 11.428-6.053 16.06-10.685 9.483-9.483 14.564-22.092 14.308-35.504-.256-13.406-5.827-25.818-15.684-34.95zm-194.524 231.215c-4.515 4.514-10.95 6.473-17.213 5.241l-1.236-.243c-5.505-1.086-11.158.639-15.124 4.605l-27.588 27.588c-1.382 1.383-3.23 2.105-5.178 2.073-1.954-.046-3.759-.873-5.084-2.328-2.501-2.748-2.261-7.259.534-10.055l27.297-27.297c3.966-3.967 5.688-9.621 4.605-15.126l-.244-1.236c-1.232-6.263.728-12.698 5.241-17.211l79.016-79.015 33.989 33.989zm89.623-89.623-33.989-33.989 32.581-32.581 33.989 33.989zm95.67-81.746c-3.213 3.212-6.954 5.703-11.119 7.403-11.44 4.667-22.084 11.877-31.637 21.43l-9.726 9.726-33.989-33.989 10.538-10.538c9.191-9.191 16.094-19.477 20.516-30.571 1.928-4.838 4.896-9.084 8.82-12.621 12.87-11.6 32.915-11.46 45.634.32 6.839 6.335 10.703 14.94 10.881 24.231.176 9.296-3.345 18.036-9.918 24.609z"/><path d="m108.889 314.511c-13.21 0-23.957 10.161-23.957 22.651s10.747 22.651 23.957 22.651 23.957-10.161 23.957-22.651-10.747-22.651-23.957-22.651zm0 30.3c-4.938 0-8.955-3.431-8.955-7.649s4.018-7.649 8.955-7.649c4.938 0 8.955 3.432 8.955 7.649s-4.017 7.649-8.955 7.649z"/><path d="m149.624 303.161c1.679 0 3.324-.241 4.907-.73 4.119-1.273 6.948-3.903 9.221-6.016 3.821-3.553 3.567-2.693 8.922-5.239 4.564-2.172 7.662-4.927 9.471-8.423 2.426-4.689 2.37-10.333-.165-16.774-.352-.896-.735-1.785-1.119-2.676-.883-2.045-1.717-3.976-1.839-5.494-.039-.486-.022-1.153-.005-1.86.037-1.501.083-3.368-.321-5.422-1.207-6.137-6.174-11.219-12.362-12.646-2.044-.471-3.789-.293-4.831-.187-.078.008-.156.018-.234.026-.428-.205-1.148-.658-1.652-.975-.299-.189-.594-.374-.884-.55-1.857-1.131-6.79-4.134-12.494-2.824-3.602.829-5.963 2.959-7.687 4.514-.436.394-1.08.975-1.39 1.174-.338.07-1.121.111-1.704.142-1.878.097-4.451.231-7.113 1.454-4.386 2.015-7.511 6.318-8.799 12.115-2.008 9.04.588 3.705-4.555 12.252-2.48 4.117-3.392 8.125-2.709 11.913.775 4.299 3.624 8.16 8.023 10.873 1.536.947 3.064 1.658 4.413 2.286 2.786 1.297 3.418 1.577 7.331 4.888 5.194 4.393 10.451 8.18 17.575 8.179zm-18.575-26.667c-1.07-.498-2.082-.969-2.87-1.455-.525-.324-.86-.623-1.046-.822.087-.27.281-.745.708-1.453.338-.561.704-1.105 1.068-1.651 4.831-7.241 3.938-9.043 5.283-15.089.196-.885.443-1.448.611-1.741.389-.046.974-.077 1.434-.101 1.742-.09 4.129-.214 6.614-1.233 2.561-1.049 4.404-2.711 5.749-3.925.279-.251.618-.557.905-.798.306.14.762.377 1.425.781.226.138.457.283.691.431 1.936 1.219 4.588 2.89 8.052 3.24 1.392.141 2.572.02 3.353-.06.063-.006.127-.014.191-.021.376.199.714.603.758.825.086.437.064 1.313.044 2.16-.025 1.011-.053 2.157.048 3.424.319 3.99 1.754 7.313 3.02 10.244.319.739.639 1.478.932 2.222 1.088 2.765.946 4.105.8 4.388-.015.029-.394.724-2.591 1.77-.668.317-1.35.608-2.032.901-1.899.815-4.051 1.737-6.167 3.168-1.764 1.192-3.214 2.541-4.494 3.731-1.273 1.184-2.59 2.408-3.432 2.668-.8.245-2.696-.22-4.957-1.832-2.955-2.105-6.091-5.43-10.365-7.89-1.3-.75-2.592-1.351-3.732-1.882z"/><path d="m156.371 416.009c1.555 5.477 6.107 9.937 12.816 12.559 1.474.576 2.897 1.03 4.273 1.468 7.34 2.339 6.04 2.688 11.954 7.633 4.364 3.648 8.817 5.495 13.241 5.495.129 0 .26-.001.389-.005 5.156-.125 10.227-2.809 14.281-7.558 5.527-6.479 3.008-6.438 12.351-14.545 1.796-1.558 3.653-3.169 5.446-5.007 6.409-6.568 9.367-14.09 8.328-21.18-.76-5.185-3.394-9.076-5.718-12.509-1.063-1.57-2.068-3.054-2.714-4.426-.763-1.62-1.283-3.645-1.834-5.79-.296-1.154-.603-2.348-.969-3.576-1.788-5.992-4.516-10.264-8.34-13.06-5.132-3.753-11.983-4.701-20.365-2.82-1.245.28-2.49.601-3.735.924-3.147.816-6.125 1.587-8.624 1.401-.8-.059-1.759-.232-2.774-.416-1.973-.356-4.213-.76-6.755-.658-7.443.3-14.337 5.229-17.154 12.265-1.216 3.038-.997 5.842-1.137 6.552-.195.62-1.484 2.101-2.254 2.986-.306.352-.607.698-.894 1.038-2.914 3.452-6.203 8.191-5.765 14.25.312 4.31 2.457 7.584 4.023 9.975.705 1.077 1.505 2.297 1.662 2.952.148.621.007 1.998-.117 3.213-.248 2.455-.561 5.509.385 8.839zm11.278-29.55c.24-.285.492-.574.748-.868 1.864-2.143 4.418-5.078 5.451-9.042.409-1.573.482-2.961.535-3.974.016-.306.037-.71.063-.909.644-1.46 2.313-2.676 3.782-2.735.906-.04 2.156.19 3.487.431 1.288.232 2.746.496 4.328.613 4.982.368 9.504-.804 13.499-1.84 1.086-.282 2.171-.565 3.258-.809 3.859-.868 6.778-.764 8.221.292 1.067.78 2.015 2.543 2.821 5.242.297.997.555 2.007.814 3.017.668 2.599 1.424 5.545 2.793 8.452 1.143 2.425 2.588 4.559 3.862 6.442 1.629 2.406 3.035 4.483 3.297 6.275.335 2.287-1.243 5.475-4.221 8.527-5.202 5.327-9.349 6.95-15.734 16.494-.936 1.399-1.821 2.72-2.739 3.797-1.33 1.558-2.609 2.284-3.236 2.3-.205 0-1.326-.067-3.643-2.004-.669-.559-1.357-1.19-2.085-1.858-1.758-1.612-3.751-3.44-6.245-4.946-2.95-1.782-5.999-2.754-8.689-3.611-1.204-.384-2.342-.746-3.368-1.148-2.527-.988-3.7-2.172-3.847-2.686-.16-.565-.01-2.031.111-3.211.234-2.285.525-5.129-.217-8.232-.765-3.199-2.394-5.685-3.703-7.682-.612-.934-1.537-2.346-1.609-2.81.011-.151.167-1.031 2.266-3.517z"/><path d="m300.037 320.79c-1.63-1.182-3.546-2.034-5.543-2.467-.674-.146-1.226-.573-1.569-.906-3.705-3.585-8.929-5.912-13.633-6.072-6.054-.211-12.112 2.846-15.721 7.753-3.823 2.641-6.452 6.687-7.33 11.38-1.037 5.541.483 11.289 4.048 15.355 0 0 .22.321.4 1.336 1.27 7.166 8.403 13.547 19.596 11.859.085-.013.153-.02.207-.024 1.402.549 2.939.819 4.54.818 3.173 0 6.589-1.06 9.658-3.094 4.799-3.181 7.764-8.134 8.35-13.822 1.627-2.868 3.496-6.929 3.022-11.642-.423-4.188-2.618-8.004-6.025-10.474zm-10.819 16.02c-.715 1.188-1.087 2.55-1.074 3.936.026 2.924-2.147 3.792-2.912 4.005-1.441-.504-2.984-.756-4.616-.756-.832 0-1.687.065-2.562.197-1.457.22-2.319.029-2.684-.125-.651-3.29-1.891-5.944-3.782-8.101-.547-.625-.789-1.721-.601-2.728.257-1.375 1.123-1.826 1.407-1.975 1.295-.676 2.364-1.715 3.076-2.989.608-1.089 2.085-1.984 3.313-1.935.777.026 2.499.687 3.71 1.86 2.456 2.377 5.438 4.015 8.634 4.745-.131.911-1.454 3.109-1.909 3.866z"/></g></g><g/><g/><g/><g/><g/><g/><g/><g/><g/><g/><g/><g/><g/><g/><g/></svg>