<svg id="Capa_1" enable-background="new 0 0 512 512" viewBox="0 0 512 512" xmlns="http://www.w3.org/2000/svg"><g><g><g fill="#678d98"><path d="m78.354 444.75v28.272c0 4.835 3.921 8.757 8.756 8.757h45.801c4.835 0 8.753-3.922 8.753-8.757v-28.272z"/><path d="m365.68 444.75v28.272c0 4.835 3.917 8.757 8.752 8.757h45.806c4.835 0 8.752-3.922 8.752-8.757v-28.272z"/></g><path d="m407.451 271.346h-307.558l-54.101 121.133c-1.812 4.058-2.744 8.454-2.744 12.898v32.655c0 6.07 4.92 10.991 10.99 10.991h399.271c6.07 0 10.99-4.92 10.99-10.99v-32.656c0-4.444-.937-8.84-2.749-12.898z" fill="#fe76a8"/><path d="m461.55 392.479-54.099-121.132h-35.05l54.099 121.132c1.812 4.058 2.749 8.452 2.749 12.896v32.659c0 6.07-4.92 10.988-10.99 10.988h35.051c6.07 0 10.99-4.92 10.99-10.99v-32.656c-.001-4.444-.938-8.839-2.75-12.897z" fill="#fe5694"/><path d="m236.898 220.356-45.252-82.802c-4.449-8.141-6.781-17.269-6.781-26.546v-36.924c0-4.633 1.835-9.156 5.312-12.218 3.821-3.365 6.21-8.315 6.129-13.826-.145-9.961-8.587-17.819-18.549-17.819h-23.966c-9.962 0-18.404 7.857-18.549 17.819-.08 5.512 2.308 10.461 6.129 13.826 3.477 3.062 5.312 7.585 5.312 12.218v36.925c0 9.277-2.332 18.405-6.781 26.546l-45.252 82.802c-8.465 15.489 2.745 34.39 20.396 34.39h101.456c17.652-.001 28.861-18.902 20.396-34.391z" fill="#d8ecfe"/><path d="m94.651 220.356c-8.465 15.489 2.745 34.39 20.396 34.39h101.456c17.651 0 28.861-18.9 20.396-34.389l-5.047-9.235h-132.154z" fill="#5de1c4"/><path d="m412.693 220.356-45.252-82.802c-4.449-8.141-6.781-17.269-6.781-26.546v-36.924c0-4.633 1.835-9.156 5.312-12.218 3.821-3.365 6.21-8.315 6.129-13.826-.145-9.961-8.587-17.819-18.549-17.819h-23.966c-9.962 0-18.404 7.857-18.549 17.819-.08 5.512 2.308 10.461 6.129 13.826 3.477 3.062 5.312 7.585 5.312 12.218v36.925c0 9.277-2.332 18.405-6.781 26.546l-45.252 82.802c-8.465 15.489 2.745 34.39 20.396 34.39h101.456c17.651-.001 28.861-18.902 20.396-34.391z" fill="#d8ecfe"/><path d="m412.693 220.356-45.252-82.802c-4.449-8.141-6.781-17.269-6.781-26.546v-36.924c0-4.633 1.835-9.156 5.312-12.218 3.821-3.365 6.21-8.315 6.129-13.826-.145-9.961-8.587-17.819-18.549-17.819h-19.304c9.963 0 18.404 7.857 18.549 17.819.08 5.512-2.308 10.461-6.129 13.826-3.477 3.062-5.312 7.585-5.312 12.218v36.925c0 9.277 2.332 18.405 6.781 26.546l45.252 82.802c8.465 15.489-2.745 34.389-20.396 34.389h19.304c17.651 0 28.861-18.901 20.396-34.39z" fill="#bddbff"/><path d="m270.445 220.356c-8.465 15.489 2.745 34.39 20.396 34.39h101.456c17.651 0 28.861-18.9 20.396-34.389l-5.047-9.235h-132.154z" fill="#5de1c4"/><path d="m372.994 254.746h19.304c17.651 0 28.861-18.9 20.396-34.389l-5.047-9.235h-19.304l5.047 9.235c8.464 15.488-2.745 34.389-20.396 34.389z" fill="#0ed2b3"/><path d="m236.898 220.356-45.252-82.802c-4.449-8.141-6.781-17.269-6.781-26.546v-36.924c0-4.633 1.835-9.156 5.312-12.218 3.821-3.365 6.21-8.315 6.129-13.826-.145-9.961-8.587-17.819-18.549-17.819h-19.304c9.963 0 18.404 7.857 18.549 17.819.08 5.512-2.308 10.461-6.129 13.826-3.477 3.062-5.312 7.585-5.312 12.218v36.925c0 9.277 2.332 18.405 6.781 26.546l45.252 82.802c8.465 15.489-2.745 34.389-20.396 34.389h19.304c17.652 0 28.861-18.901 20.396-34.39z" fill="#bddbff"/><path d="m197.199 254.746h19.304c17.651 0 28.861-18.9 20.396-34.389l-5.047-9.235h-19.304l5.047 9.235c8.464 15.488-2.745 34.389-20.396 34.389z" fill="#0ed2b3"/><g fill="#678d98"><path d="m83.607 125.037c-12.818 0-23.209 10.393-23.209 23.211 0 12.819 10.39 23.209 23.209 23.209s23.211-10.391 23.211-23.209-10.393-23.211-23.211-23.211z"/><path d="m253.672 125.037c-12.818 0-23.21 10.392-23.21 23.211s10.392 23.209 23.21 23.209c12.819 0 23.209-10.391 23.209-23.209s-10.391-23.211-23.209-23.211z"/><path d="m423.737 125.037c-12.818 0-23.209 10.392-23.209 23.211s10.39 23.209 23.209 23.209 23.211-10.39 23.211-23.209c0-12.818-10.393-23.211-23.211-23.211z"/></g><path d="m470.939 124.589v122.424c0 4.271-3.462 7.733-7.733 7.733h-414.412c-4.271 0-7.733-3.462-7.733-7.733v-122.424c0-4.271-3.462-7.733-7.733-7.733h-18.095c-4.271 0-7.733 3.462-7.733 7.733v155.985c0 4.271 3.462 7.733 7.733 7.733h481.534c4.271 0 7.733-3.462 7.733-7.733v-155.985c0-4.271-3.462-7.733-7.733-7.733h-18.095c-4.271 0-7.733 3.462-7.733 7.733z" fill="#d8ecfe"/><g fill="#62dbfb"><path d="m137.126 324.074v20.481c0 3.798 3.079 6.877 6.877 6.877h60.894c3.798 0 6.877-3.079 6.877-6.877v-20.481c0-3.798-3.079-6.877-6.877-6.877h-60.894c-3.798 0-6.877 3.079-6.877 6.877z"/><path d="m295.569 324.074v20.481c0 3.798 3.079 6.877 6.877 6.877h60.894c3.798 0 6.877-3.079 6.877-6.877v-20.481c0-3.798-3.079-6.877-6.877-6.877h-60.894c-3.798 0-6.877 3.079-6.877 6.877z"/></g><g fill="#678d98"><circle cx="156.405" cy="401.141" r="16.695"/><circle cx="253.672" cy="401.141" r="16.695"/><circle cx="350.939" cy="401.141" r="16.695"/></g></g><g><path d="m496.767 109.356h-18.095c-8.399 0-15.232 6.833-15.232 15.233v16.16h-9.921c-3.356-13.32-15.434-23.211-29.782-23.211-14.346 0-26.422 9.891-29.778 23.211h-16.225l-3.711-6.79c-3.835-7.019-5.862-14.955-5.862-22.95v-36.925c0-2.638 1.009-5.04 2.77-6.59 5.619-4.95 8.779-12.08 8.671-19.563-.203-13.901-11.889-25.209-26.049-25.209h-23.966c-14.16 0-25.845 11.309-26.048 25.208-.11 7.482 3.05 14.614 8.671 19.565 1.76 1.55 2.77 3.952 2.77 6.589v36.924c0 7.997-2.027 15.932-5.862 22.95l-3.711 6.791h-21.954c-3.356-13.32-15.433-23.211-29.779-23.211-14.347 0-26.425 9.891-29.781 23.211h-21.953l-3.711-6.791c-3.835-7.018-5.862-14.953-5.862-22.95v-36.924c0-2.638 1.009-5.04 2.769-6.589 5.62-4.95 8.78-12.081 8.671-19.564-.202-13.9-11.888-25.209-26.048-25.209h-23.966c-14.16 0-25.845 11.309-26.048 25.209-.109 7.483 3.051 14.614 8.671 19.564 1.76 1.55 2.769 3.952 2.769 6.589v36.924c0 7.996-2.027 15.932-5.862 22.95l-3.711 6.791h-16.222c-3.356-13.32-15.434-23.211-29.781-23.211-14.346 0-26.423 9.891-29.779 23.211h-5.267v-16.16c0-8.399-6.833-15.233-15.233-15.233h-18.097c-8.4 0-15.233 6.833-15.233 15.233v52.028c0 4.142 3.358 7.5 7.5 7.5s7.5-3.358 7.5-7.5v-52.028c0-.128.104-.233.233-.233h18.095c.129 0 .233.104.233.233v122.424c0 8.4 6.833 15.233 15.233 15.233h414.412c8.399 0 15.233-6.833 15.233-15.233v-122.424c0-.128.104-.233.232-.233h18.095c.129 0 .233.104.233.233v155.985c0 .128-.104.233-.233.233h-481.533c-.128 0-.233-.104-.233-.233v-68.957c0-4.142-3.358-7.5-7.5-7.5s-7.5 3.358-7.5 7.5v68.957c0 8.399 6.833 15.233 15.233 15.233h65.524l-41.817 93.619c-2.25 5.045-3.39 10.413-3.39 15.954v32.65c0 10.195 8.294 18.49 18.49 18.49h16.81v16.5c0 8.966 7.294 16.26 16.26 16.26h45.8c8.96 0 16.25-7.294 16.25-16.26v-16.5h150.08c4.143 0 7.5-3.358 7.5-7.5s-3.357-7.5-7.5-7.5h-245.2c-1.924 0-3.49-1.566-3.49-3.49v-32.65c0-3.422.703-6.735 2.088-9.841l44.547-99.731h312.969l44.546 99.728c1.394 3.125 2.1 6.437 2.1 9.845v32.65c0 1.924-1.565 3.49-3.49 3.49h-119.07c-4.143 0-7.5 3.358-7.5 7.5s3.357 7.5 7.5 7.5h23.939v16.5c0 8.966 7.29 16.26 16.25 16.26h45.811c8.96 0 16.25-7.294 16.25-16.26v-16.5h16.819c10.195 0 18.49-8.294 18.49-18.49v-32.65c0-5.527-1.144-10.895-3.402-15.958l-41.815-93.614h70.184c8.399 0 15.233-6.833 15.233-15.233v-155.987c.001-8.4-6.833-15.233-15.232-15.233zm-73.031 23.181c8.663 0 15.712 7.048 15.712 15.711 0 8.662-7.049 15.709-15.712 15.709-8.661 0-15.708-7.047-15.708-15.709 0-8.663 7.047-15.711 15.708-15.711zm-54.899 23.211 26.164 47.873h-106.863l26.163-47.873zm-46.714-99.51c-2.325-2.048-3.632-4.996-3.587-8.089.084-5.75 5.041-10.428 11.05-10.428h23.966c6.01 0 10.967 4.678 11.051 10.428.045 3.093-1.263 6.042-3.586 8.088-4.993 4.396-7.856 10.901-7.856 17.847v36.924c0 10.35 2.591 20.621 7.487 29.74h-38.158c4.896-9.118 7.488-19.389 7.488-29.74v-36.924c.001-6.945-2.863-13.449-7.855-17.846zm-68.451 76.299c8.662 0 15.709 7.048 15.709 15.711 0 8.662-7.047 15.709-15.709 15.709-8.663 0-15.711-7.047-15.711-15.709 0-8.663 7.048-15.711 15.711-15.711zm-29.781 23.211c3.356 13.319 15.434 23.209 29.781 23.209 14.346 0 26.423-9.89 29.779-23.209h13.757l-33.343 61.011c-4.93 9.02-5.062 19.58-.45 28.636.307.604.636 1.201.986 1.79.012.021.026.04.039.061h-21.532c.012-.021.026-.04.039-.061 4.677-7.886 5.568-17.128 2.664-25.571-.569-1.654-1.268-3.28-2.13-4.855l-33.343-61.011zm-30.849 0 26.163 47.873h-106.862l26.164-47.873zm-46.714-99.51c-2.325-2.047-3.632-4.996-3.587-8.088.084-5.75 5.041-10.428 11.05-10.428h23.966c6.009 0 10.966 4.678 11.05 10.429.045 3.092-1.262 6.041-3.586 8.088-4.992 4.396-7.855 10.901-7.855 17.846v36.924c0 10.351 2.591 20.622 7.487 29.74h-38.157c4.896-9.118 7.487-19.39 7.487-29.74v-36.925c.001-6.945-2.862-13.449-7.855-17.846zm-62.721 76.299c8.663 0 15.711 7.048 15.711 15.711 0 8.662-7.048 15.709-15.711 15.709-8.662 0-15.708-7.047-15.708-15.709-.001-8.663 7.046-15.711 15.708-15.711zm-35.046 114.475v-91.264h5.268c3.356 13.319 15.432 23.209 29.778 23.209 14.348 0 26.425-9.89 29.781-23.209h8.025l-33.344 61.011c-1.643 3.007-2.753 6.185-3.333 9.421-.348 1.942-.504 3.905-.469 5.864.092 5.225 1.54 10.426 4.336 15.142.012.021.026.04.039.061h-39.848c-.128-.001-.233-.106-.233-.235zm66.485.234c-.702 0-1.395-.045-2.076-.133-4.769-.618-8.958-3.354-11.464-7.579-2.864-4.829-2.967-10.654-.274-15.581l2.914-5.332h123.258l2.914 5.332c1.49 2.725 2.12 5.725 1.904 8.679-.058.801-.181 1.598-.364 2.386-.109.47-.242.935-.395 1.397-.356 1.071-.825 2.117-1.419 3.119-2.506 4.226-6.695 6.961-11.464 7.579-.681.088-1.375.133-2.076.133zm175.795 0c-5.614 0-10.676-2.883-13.54-7.712s-2.967-10.654-.274-15.581l2.914-5.332h123.258l2.914 5.332c2.692 4.927 2.59 10.751-.274 15.581-2.506 4.226-6.695 6.961-11.464 7.579-.681.088-1.374.133-2.076.133zm172.365 0h-44.505c.012-.021.026-.04.039-.061 5.594-9.43 5.794-20.805.535-30.426l-33.344-61.011h8.028c3.356 13.319 15.432 23.209 29.778 23.209 14.347 0 26.425-9.889 29.782-23.208h9.922v91.264c-.002.128-.106.233-.235.233zm-329.046 225.773c0 .695-.561 1.26-1.25 1.26h-45.8c-.695 0-1.26-.565-1.26-1.26v-16.5h48.31zm287.33 0c0 .695-.561 1.26-1.25 1.26h-45.81c-.689 0-1.25-.565-1.25-1.26v-16.5h48.311v16.5z"/><path d="m219.274 344.554v-20.48c0-7.927-6.45-14.377-14.377-14.377h-60.894c-7.927 0-14.377 6.45-14.377 14.377v20.48c0 7.927 6.45 14.377 14.377 14.377h60.894c7.928 0 14.377-6.449 14.377-14.377zm-15-.623h-59.648v-19.234h59.648z"/><path d="m377.718 324.074c0-7.927-6.449-14.377-14.377-14.377h-60.895c-7.928 0-14.377 6.45-14.377 14.377v20.48c0 7.927 6.449 14.377 14.377 14.377h60.895c7.928 0 14.377-6.45 14.377-14.377zm-15 19.857h-59.648v-19.234h59.648z"/><path d="m132.21 401.141c0 13.341 10.854 24.195 24.195 24.195s24.195-10.854 24.195-24.195-10.854-24.195-24.195-24.195-24.195 10.854-24.195 24.195zm33.39 0c0 5.07-4.125 9.195-9.195 9.195s-9.195-4.125-9.195-9.195 4.125-9.195 9.195-9.195 9.195 4.125 9.195 9.195z"/><path d="m229.477 401.141c0 13.341 10.854 24.195 24.195 24.195s24.194-10.854 24.194-24.195-10.854-24.195-24.194-24.195c-13.341 0-24.195 10.854-24.195 24.195zm33.389 0c0 5.07-4.125 9.195-9.194 9.195-5.07 0-9.195-4.125-9.195-9.195s4.125-9.195 9.195-9.195c5.069 0 9.194 4.125 9.194 9.195z"/><path d="m350.938 376.946c-13.341 0-24.194 10.854-24.194 24.195s10.854 24.195 24.194 24.195c13.342 0 24.195-10.854 24.195-24.195s-10.853-24.195-24.195-24.195zm0 33.39c-5.069 0-9.194-4.125-9.194-9.195s4.125-9.195 9.194-9.195c5.07 0 9.195 4.125 9.195 9.195s-4.124 9.195-9.195 9.195z"/></g></g><g/><g/><g/><g/><g/><g/><g/><g/><g/><g/><g/><g/><g/><g/><g/></svg>