<svg id="Capa_1" enable-background="new 0 0 512 512" viewBox="0 0 512 512" xmlns="http://www.w3.org/2000/svg"><g><g><path d="m211.466 140.827v-69.634c0-4.879-3.955-8.834-8.834-8.834h-24.818c-4.879 0-8.834 3.955-8.834 8.834v69.636c0 6.933-3.884 13.196-9.953 16.547-20.651 11.406-34.397 33.775-33.365 59.265 1.378 34.027 29.489 61.398 63.541 61.924 36.154.558 65.637-28.582 65.637-64.608 0-24.482-13.621-45.773-33.695-56.733-5.989-3.268-9.679-9.577-9.679-16.397z" fill="#d8ecfe"/><path d="m221.143 157.225c-5.986-3.268-9.677-9.577-9.677-16.398v-69.634c0-4.879-3.955-8.834-8.834-8.834h-24.818c-.154 0-.305.015-.457.023 4.665.239 8.377 4.086 8.377 8.811v69.634c0 6.821 3.691 13.129 9.677 16.398 20.074 10.96 33.695 32.25 33.695 56.733 0 31.267-22.213 57.333-51.715 63.313 3.832.782 7.778 1.233 11.811 1.295 36.154.558 65.637-28.582 65.637-64.608-.001-24.483-13.622-45.774-33.696-56.733z" fill="#bddbff"/><path d="m126.834 226.475c5.806 29.32 31.668 51.616 62.367 52.09 31.854.492 58.518-22.076 64.412-52.09z" fill="#5de1c4"/><path d="m253.613 226.475h-25.735c-5.012 25.511-25.029 45.634-50.488 50.795l.018.007c3.826.78 7.766 1.227 11.792 1.289 31.856.491 58.519-22.076 64.413-52.091z" fill="#0ed2b3"/><path d="m59.8 22.669v459.416h29.822v-459.416c0-3.717-3.013-6.73-6.73-6.73h-16.361c-3.717 0-6.731 3.013-6.731 6.73z" fill="#d8ecfe"/><path d="m15.513 477.468v21.929c0 2.818 2.285 5.103 5.103 5.103h262.874c2.818 0 5.103-2.285 5.103-5.103v-21.929c0-2.818-2.285-5.103-5.103-5.103h-262.874c-2.818 0-5.103 2.284-5.103 5.103z" fill="#678d98"/><path d="m74.711 86.353c-11.601 0-21.007 9.405-21.007 21.006s9.406 21.005 21.007 21.005 21.007-9.404 21.007-21.005-9.406-21.006-21.007-21.006z" fill="#537983"/><path d="m194.809 317.331c-2.763-1.863-6.407-1.863-9.169 0-7.155 4.825-11.866 13.008-11.866 22.287 0 11.141 6.786 20.695 16.448 24.764 9.662-4.068 16.448-13.622 16.448-24.764 0-9.28-4.706-17.462-11.861-22.287z" fill="#fdb441"/><path d="m171.774 369.212v48.23h36.895v-48.23c0-4.144-3.362-7.502-7.506-7.502h-21.883c-4.144 0-7.506 3.358-7.506 7.502z" fill="#d8ecfe"/><path d="m216.129 424.983v-17.057c0-2.307-1.87-4.177-4.177-4.177h-43.46c-2.307 0-4.177 1.87-4.177 4.177v17.057c0 9.925-8.046 17.971-17.971 17.971h-11.816c-4.565 0-8.266 3.701-8.266 8.266v12.88c0 4.565 3.701 8.266 8.266 8.266h111.388c4.565 0 8.266-3.701 8.266-8.266v-12.88c0-4.565-3.701-8.266-8.266-8.266h-11.816c-9.925 0-17.971-8.046-17.971-17.971z" fill="#62dbfb"/><path d="m435.644 343.289v-62.612c0-5.072-4.111-9.183-9.183-9.183h-34.328c-5.072 0-9.183 4.111-9.183 9.183v62.612c0 12.237-3.314 24.246-9.591 34.751l-46.542 77.899c-12.783 21.395 2.632 48.561 27.555 48.561h109.849c24.923 0 40.338-27.166 27.555-48.561l-46.542-77.899c-6.276-10.505-9.59-22.514-9.59-34.751z" fill="#d8ecfe"/><path d="m491.776 455.939-46.542-77.899c-6.276-10.505-9.591-22.514-9.591-34.751v-62.612c0-5.072-4.111-9.183-9.183-9.183h-33.63c5.072 0 9.183 4.111 9.183 9.183v62.612c0 12.237 3.314 24.246 9.591 34.751l46.542 77.899c12.783 21.395-2.632 48.561-27.555 48.561h33.631c24.923 0 40.337-27.166 27.554-48.561z" fill="#bddbff"/><path d="m326.818 455.939c-12.783 21.395 2.632 48.561 27.555 48.561h109.849c24.923 0 40.338-27.166 27.555-48.561l-1.557-2.606h-161.846z" fill="#5de1c4"/><path d="m491.776 455.939-1.557-2.606h-33.631l1.557 2.606c12.783 21.395-2.632 48.561-27.555 48.561h33.631c24.924 0 40.338-27.166 27.555-48.561z" fill="#0ed2b3"/></g><path d="m496.658 449.486-44.985-75.293c-5.579-9.338-8.528-20.024-8.528-30.904v-11.266c0-4.143-3.357-7.5-7.5-7.5s-7.5 3.357-7.5 7.5v11.266c0 13.588 3.684 26.935 10.651 38.598l38.206 63.946h-135.41l38.206-63.946c6.969-11.664 10.652-25.011 10.652-38.598v-62.612c0-.928.755-1.683 1.683-1.683h34.328c.929 0 1.684.755 1.684 1.683v15.499c0 4.143 3.357 7.5 7.5 7.5s7.5-3.357 7.5-7.5v-15.499c0-9.199-7.484-16.683-16.684-16.683h-9.659v-178.634c0-20.148-16.396-36.54-36.551-36.54-20.148 0-36.54 16.392-36.54 36.54v99.569c0 11.904-9.686 21.59-21.59 21.59-11.899 0-21.58-9.686-21.58-21.59v-126.019c0-32.483-26.427-58.91-58.91-58.91-31.12 0-56.665 24.26-58.755 54.858h-5.063c-9.007 0-16.334 7.327-16.334 16.334v28.668h-59.268c-1.016-3.72-2.768-7.136-5.089-10.087v-67.103c0-7.846-6.384-14.229-14.23-14.229h-16.36c-7.846 0-14.23 6.384-14.23 14.229v67.102c-2.322 2.951-4.073 6.368-5.089 10.088h-27.292c-4.143 0-7.5 3.359-7.5 7.5 0 4.143 3.358 7.5 7.5 7.5h27.291c1.016 3.719 2.768 7.135 5.089 10.086v40.424c0 4.143 3.358 7.5 7.5 7.5s7.5-3.357 7.5-7.5v-30.489c4.862 1.31 9.957 1.311 14.82 0v329.984h-14.82v-263.645c0-4.143-3.358-7.5-7.5-7.5s-7.5 3.357-7.5 7.5v263.646h-31.685c-6.949 0-12.603 5.653-12.603 12.603v21.93c0 6.949 5.653 12.603 12.603 12.603h36.171c4.142 0 7.5-3.357 7.5-7.5s-3.358-7.5-7.5-7.5h-33.773v-17.135h258.08v17.133h-188.459c-4.142 0-7.5 3.357-7.5 7.5s3.358 7.5 7.5 7.5h190.856c6.949 0 12.603-5.653 12.603-12.603v-21.93c0-6.949-5.653-12.603-12.603-12.603h-21.847c.012-.255.039-.507.039-.766v-12.88c0-8.693-7.073-15.766-15.766-15.766h-11.817c-5.773 0-10.471-4.697-10.471-10.472v-17.057c0-4.949-3.101-9.179-7.458-10.875v-27.84c0-5.166-2.627-9.729-6.615-12.428 2.973-5.148 4.615-11.046 4.615-17.161 0-11.436-5.668-22.092-15.178-28.517-5.335-3.582-12.221-3.58-17.546.009-9.502 6.41-15.176 17.067-15.176 28.508 0 6.115 1.642 12.014 4.615 17.161-3.988 2.699-6.615 7.263-6.615 12.428v27.841c-4.356 1.697-7.456 5.926-7.456 10.875v17.057c0 5.774-4.697 10.472-10.471 10.472h-11.817c-8.693 0-15.766 7.072-15.766 15.766v12.88c0 .258.026.51.039.766h-21.678v-339.919c2.321-2.951 4.073-6.367 5.089-10.087h59.268v25.969c0 4.086-2.329 7.911-6.079 9.981-24.08 13.299-38.347 38.641-37.233 66.135 1.545 38.169 32.697 68.529 70.918 69.119.384.006.765.009 1.148.009 19.058 0 36.984-7.336 50.585-20.729 13.876-13.664 21.519-31.914 21.519-51.388 0-26.392-14.408-50.652-37.601-63.315-3.56-1.943-5.771-5.704-5.771-9.814v-25.966h33.525c4.142 0 7.5-3.358 7.5-7.5 0-4.143-3.358-7.5-7.5-7.5h-33.525v-28.668c0-9.007-7.328-16.334-16.334-16.334h-4.716c2.053-22.318 20.871-39.858 43.716-39.858 24.211 0 43.91 19.698 43.91 43.91v126.02c0 20.176 16.41 36.59 36.58 36.59 20.176 0 36.59-16.414 36.59-36.59v-99.57c0-11.877 9.663-21.54 21.54-21.54 11.883 0 21.551 9.663 21.551 21.54v178.634h-9.669c-9.199 0-16.683 7.483-16.683 16.683v62.612c0 10.879-2.949 21.565-8.529 30.904l-46.542 77.898c-7.406 12.396-7.573 27.293-.447 39.852s20.001 20.057 34.44 20.057h109.85c14.439 0 27.314-7.498 34.44-20.057 12.937-22.799-1.734-41.573-2.004-42.457zm-301.602-80.276h.022 6.093v27.039h-21.894v-27.039zm-5.222-45.661c.115-.078.255-.116.394-.116.138 0 .275.038.385.112 5.359 3.62 8.558 9.63 8.558 16.075 0 5.628-2.457 10.938-6.658 14.59h-4.584c-4.201-3.652-6.658-8.961-6.658-14.59 0-6.446 3.202-12.455 8.563-16.071zm-56.072 140.551v-12.88c0-.422.343-.766.766-.766h11.817c14.044 0 25.471-11.427 25.471-25.472v-13.733h36.813v13.733c0 14.045 11.426 25.472 25.471 25.472h11.817c.422 0 .766.344.766.766v12.88c0 .422-.343.766-.766.766h-111.389c-.423-.001-.766-.345-.766-.766zm-51.64-440.66v56.396c-2.365-.637-4.847-.983-7.41-.983s-5.046.345-7.41.983v-56.396zm-20.918 83.919c0-7.447 6.06-13.506 13.508-13.506s13.508 6.059 13.508 13.506c0 7.446-6.06 13.505-13.508 13.505s-13.508-6.058-13.508-13.505zm169.09 147.297c-10.988 10.82-25.537 16.649-40.977 16.41-24.069-.371-44.583-15.655-52.598-37.092h107.021c-2.873 7.694-7.409 14.738-13.446 20.682zm-12.745-90.848c18.375 10.032 29.789 29.248 29.789 50.149 0 1.686-.085 3.358-.229 5.018h-113.783c-.076-.874-.135-1.752-.171-2.637-.882-21.783 10.421-41.86 29.498-52.396 8.529-4.711 13.827-13.566 13.827-23.112v-25.97h27.487v25.967c-.001 9.601 5.203 18.406 13.582 22.981zm-13.583-92.616v28.668h-27.487v-28.668c0-.735.599-1.334 1.334-1.334h12.37c.013 0 .026.002.039.002s.026-.002.039-.002h12.371c.735 0 1.334.599 1.334 1.334zm260.256 425.808h-109.85c-8.97 0-16.968-4.657-21.395-12.459-4.155-7.324-4.384-16.068-.302-23.708h153.244c4.168 7.802 3.74 16.582-.302 23.708-4.428 7.802-12.426 12.459-21.395 12.459z"/></g><g/><g/><g/><g/><g/><g/><g/><g/><g/><g/><g/><g/><g/><g/><g/></svg>