<svg id="Capa_1" enable-background="new 0 0 512 512" viewBox="0 0 512 512" xmlns="http://www.w3.org/2000/svg"><g><g><g fill="#62dbfb"><path d="m183.376 203.289v40.839c0 2.85 2.311 5.16 5.162 5.16h20.213c2.85 0 5.161-2.31 5.161-5.16v-40.839z"/><path d="m244.443 203.289v40.839c0 2.85 2.309 5.16 5.159 5.16h20.218c2.85 0 5.161-2.31 5.161-5.16v-40.839z"/></g><path d="m166.381 168.531v40.272c0 4.184 3.392 7.575 7.575 7.575h110.444c4.184 0 7.575-3.392 7.575-7.575v-40.272z" fill="#678d98"/><path d="m93.591 57.358 46.74 46.737 46.101-46.101-46.741-46.741c-5.006-5.006-13.118-5.006-18.124 0l-27.976 27.975c-5.006 5.007-5.006 13.124 0 18.13z" fill="#d8ecfe"/><path d="m146.957 129.394-17.985-17.985c-4.389-4.389-4.389-11.506 0-15.895l48.88-48.88c4.389-4.389 11.506-4.389 15.895 0l17.985 17.985z" fill="#678d98"/><path d="m148.021 344.012v29.556c0 3.419 2.771 6.189 6.19 6.189h181.068v-41.934h-181.068c-3.419 0-6.19 2.77-6.19 6.189z" fill="#678d98"/><path d="m217.611 58.732-83.809 83.819c-.766.766-1.193 1.806-1.193 2.889v19.002c0 2.256 1.826 4.088 4.083 4.088h170.429c15.551 0 28.159 12.608 28.159 28.159v161.384c0 11.976-9.709 21.685-21.684 21.685h-131.617v65.345h240.183v-252.9c0-76.05-61.651-137.7-137.7-137.7h-56.64c-3.83-.001-7.503 1.521-10.211 4.229z" fill="#d8ecfe"/><path d="m284.461 54.502h-38.852c76.05 0 137.7 61.652 137.7 137.701v252.899h38.852v-252.9c0-76.049-61.65-137.7-137.7-137.7z" fill="#bddbff"/><path d="m113.9 479.014v16.719c0 4.842 3.925 8.767 8.767 8.767h290.728c4.842 0 8.767-3.925 8.767-8.767v-60.553h-264.428c-24.209 0-43.834 19.626-43.834 43.834z" fill="#678d98"/><path d="m383.309 435.18v60.553c0 4.842-3.925 8.767-8.767 8.767h38.852c4.842 0 8.767-3.925 8.767-8.767v-60.553z" fill="#537983"/><g transform="matrix(.383 -.924 .924 .383 -126.147 521.638)"><ellipse cx="327.27" cy="355.215" fill="#5de1c4" rx="44.652" ry="44.652"/><ellipse cx="327.27" cy="355.215" fill="#678d98" rx="15.743" ry="15.743"/></g></g><g><path d="m429.658 435.179v-242.983c0-37.019-13.935-72.277-39.238-99.28-2.831-3.022-7.577-3.176-10.601-.344-3.022 2.832-3.177 7.578-.344 10.601 22.688 24.213 35.183 55.828 35.183 89.023v235.483h-225.184v-40.421h96.691c9.553 12.225 24.419 20.107 41.101 20.107 28.757 0 52.153-23.395 52.153-52.152 0-23.358-15.436-43.179-36.643-49.798v-108.73c0-19.663-15.997-35.661-35.66-35.661h-167.013v-14.184c16.044-16.045 60.947-60.992 82.795-82.804 1.302-1.299 3.095-2.043 4.916-2.043h56.641c24.505 0 48.388 6.849 69.069 19.806 3.51 2.2 8.139 1.138 10.338-2.374 2.199-3.51 1.137-8.138-2.374-10.338-23.07-14.455-49.708-22.095-77.033-22.095h-56.641c-5.845 0-11.351 2.279-15.514 6.427l-.579.581-12.676-12.677c-5.945-5.944-14.923-7.051-21.998-3.322l-32.06-32.061c-7.92-7.92-20.807-7.92-28.727 0l-27.98 27.98c-7.915 7.915-7.918 20.804 0 28.738l32.059 32.051c-3.729 7.076-2.622 16.053 3.322 21.998l12.681 12.681-7.888 7.889c-2.161 2.19-3.351 5.087-3.351 8.158v19c0 6.391 5.195 11.59 11.58 11.59h22.192v32.775c0 8.312 6.763 15.075 15.075 15.075h1.923v20.252c0 6.981 5.679 12.66 12.66 12.66h20.21c6.981 0 12.66-5.679 12.66-12.66v-20.252h15.53v20.252c0 6.981 5.679 12.66 12.66 12.66h20.22c6.981 0 12.66-5.679 12.66-12.66v-20.252h1.92c8.313 0 15.075-6.763 15.075-15.075v-32.774h7.645c11.392 0 20.66 9.268 20.66 20.66v106.388c-.171-.002-.339-.013-.51-.013-19.747 0-36.964 11.032-45.815 27.257h-47.816c-4.142 0-7.5 3.358-7.5 7.5s3.358 7.5 7.5 7.5h42.433c-.618 3.206-.954 6.512-.954 9.896 0 5.968 1.021 11.7 2.875 17.045h-122.472v-26.94h43.121c4.142 0 7.5-3.358 7.5-7.5s-3.358-7.5-7.5-7.5h-44.431c-7.549 0-13.69 6.141-13.69 13.69v29.56c0 7.549 6.141 13.69 13.69 13.69h20.27v40.421h-16.746c-28.306 0-51.335 23.029-51.335 51.335v16.719c0 8.969 7.297 16.267 16.267 16.267h290.732c8.969 0 16.266-7.297 16.266-16.267zm-330.772-390.652 27.98-27.98c1.002-1.001 2.336-1.553 3.757-1.553s2.755.552 3.757 1.553l31.47 31.47-35.495 35.494-31.464-31.456c-2.075-2.078-2.077-5.456-.005-7.528zm35.383 61.574c-1.459-1.458-1.459-3.831 0-5.289l48.881-48.881c1.458-1.458 3.831-1.458 5.289 0l12.677 12.677-54.167 54.173zm72.136 135.685h-15.53v-17.912h15.53zm61.07 0h-15.54v-17.912h15.54zm16.996-32.986c0 .041-.034.075-.075.075h-110.445c-.042 0-.075-.034-.075-.075v-32.774h110.596v32.774zm42.795 109.261c20.486 0 37.152 16.666 37.152 37.152s-16.666 37.152-37.152 37.152-37.152-16.666-37.152-37.152 16.666-37.152 37.152-37.152zm86.126 178.939h-290.732c-.698 0-1.267-.568-1.267-1.267v-16.719c0-20.035 16.3-36.335 36.334-36.335h256.93v53.054c.001.698-.567 1.267-1.265 1.267z"/><path d="m327.266 378.457c12.817 0 23.244-10.427 23.244-23.243 0-12.817-10.427-23.244-23.244-23.244s-23.243 10.427-23.243 23.244c0 12.816 10.426 23.243 23.243 23.243zm0-31.488c4.545 0 8.244 3.698 8.244 8.244s-3.698 8.243-8.244 8.243-8.243-3.698-8.243-8.243 3.698-8.244 8.243-8.244z"/></g></g><g/><g/><g/><g/><g/><g/><g/><g/><g/><g/><g/><g/><g/><g/><g/></svg>