<svg id="Capa_1" enable-background="new 0 0 512 512" viewBox="0 0 512 512" xmlns="http://www.w3.org/2000/svg"><g><g><path d="m7.5 72v279.712c0 12.391 10.046 22.438 22.438 22.438h390.406v-302.15c0-12.391-10.044-22.437-22.435-22.437h-367.971c-12.392 0-22.438 10.046-22.438 22.437z" fill="#678d98"/><path d="m397.908 49.563h-39.671c12.391 0 22.436 10.046 22.436 22.437v302.15h39.671v-302.15c-.001-12.391-10.045-22.437-22.436-22.437z" fill="#537983"/><path d="m7.5 72v279.712c0 12.391 10.046 22.438 22.438 22.438h32.227v-324.587h-32.227c-12.392 0-22.438 10.046-22.438 22.437z" fill="#d8ecfe"/><g><path d="m356.984 274.712v124.367c0 34.991 28.366 63.357 63.357 63.357s63.359-28.366 63.359-63.357v-124.367z" fill="#62dbfb"/><path d="m456.744 274.712v124.366c0 30.364-21.365 55.726-49.88 61.906 4.345.942 8.85 1.452 13.477 1.452 34.991 0 63.359-28.366 63.359-63.357v-124.367z" fill="#01d0fb"/><path d="m483.7 330.833v68.247c0 34.988-28.363 63.357-63.359 63.357-34.988 0-63.357-28.369-63.357-63.357v-76.138c7.851-3.314 16.784-6.144 32.059-6.144 36.784 0 36.784 16.407 73.561 16.407 8.802-.002 15.501-.945 21.096-2.372z" fill="#fe76a8"/><path d="m456.744 333.051v66.026c0 30.364-21.365 55.726-49.88 61.906l.015.005c4.339.939 8.841 1.447 13.462 1.447 34.996 0 63.359-28.369 63.359-63.357v-68.247c-5.595 1.427-12.294 2.371-21.096 2.371-2.067.001-4.013-.053-5.86-.151z" fill="#fe5694"/><path d="m366.589 224.158v26.006h107.507v-26.006c0-8.023-6.504-14.528-14.527-14.528h-78.457c-8.022 0-14.523 6.506-14.523 14.528z" fill="#fdb441"/><path d="m459.569 209.63h-26.956c8.023 0 14.526 6.504 14.526 14.526v26.008h26.956v-26.006c.001-8.023-6.503-14.528-14.526-14.528z" fill="#fe9738"/><path d="m486.209 283.72h-131.734c-10.102 0-18.291-8.189-18.291-18.291s8.189-18.291 18.291-18.291h131.733c10.102 0 18.291 8.189 18.291 18.291s-8.188 18.291-18.29 18.291z" fill="#d8ecfe"/><path d="m486.209 247.137h-40.726c10.102 0 18.292 8.189 18.292 18.291s-8.189 18.292-18.292 18.292h40.726c10.102 0 18.291-8.189 18.291-18.292 0-10.102-8.189-18.291-18.291-18.291z" fill="#bddbff"/></g><circle cx="311.899" cy="125.177" fill="#d8ecfe" r="45.085"/><path d="m311.899 80.093v45.085h45.085c0-24.9-20.185-45.085-45.085-45.085z" fill="#fdb441"/><path d="m266.265 197.568h-48.198c-2.29 0-4.146 1.856-4.146 4.146v22.823c0 2.29 1.856 4.146 4.146 4.146h48.198c2.29 0 4.146-1.856 4.146-4.146v-22.823c0-2.29-1.856-4.146-4.146-4.146z" fill="#fdb441"/><path d="m297.626 262.467h-79.558c-2.29 0-4.146 1.856-4.146 4.146v22.823c0 2.29 1.856 4.146 4.146 4.146h79.558c2.29 0 4.146-1.856 4.146-4.146v-22.823c-.001-2.29-1.857-4.146-4.146-4.146z" fill="#fe76a8"/></g><g><path d="m99.144 302.42c0 4.143 3.357 7.5 7.5 7.5s7.5-3.357 7.5-7.5c0-2.824.34-5.595.983-8.29h50.642c.643 2.695.983 5.466.983 8.29 0 4.143 3.357 7.5 7.5 7.5s7.5-3.357 7.5-7.5c0-18.339-10.206-34.83-25.503-45.281 15.395-10.518 25.503-27.038 25.503-45.282 0-18.238-10.102-34.76-25.503-45.281 9.848-6.728 17.308-15.72 21.542-25.842.305-.547.539-1.138.7-1.758 2.123-5.637 3.261-11.592 3.261-17.681 0-4.143-3.357-7.5-7.5-7.5s-7.5 3.357-7.5 7.5c0 2.824-.34 5.595-.983 8.29h-50.642c-.643-2.695-.983-5.466-.983-8.29 0-4.143-3.357-7.5-7.5-7.5s-7.5 3.357-7.5 7.5c0 6.092 1.14 12.05 3.265 17.69.161.615.392 1.201.695 1.744 4.233 10.124 11.694 19.118 21.544 25.847-15.229 10.404-25.503 26.862-25.503 45.281 0 18.472 10.324 34.912 25.503 45.282-15.297 10.449-25.504 26.941-25.504 45.281zm23.395-23.29c4.452-5.603 10.534-10.354 17.908-13.805 7.374 3.451 13.456 8.202 17.908 13.805zm43.554-74.062c.43 2.22.658 4.486.658 6.788s-.229 4.569-.659 6.789h-51.29c-.43-2.22-.659-4.487-.659-6.789s.229-4.568.658-6.788zm-44.694-15c4.529-6.256 11.024-11.551 19.048-15.307 8.024 3.756 14.519 9.051 19.048 15.307zm38.096 43.578c-4.529 6.256-11.023 11.551-19.048 15.307-8.024-3.756-14.519-9.051-19.048-15.307zm-1.14-89.062c-4.452 5.603-10.534 10.354-17.908 13.805-7.374-3.451-13.456-8.202-17.908-13.805z"/><path d="m512 265.429c0-14.222-11.569-25.792-25.791-25.792h-4.609v-15.477c0-12.147-9.882-22.03-22.029-22.03h-31.73v-130.13c0-16.509-13.427-29.94-29.93-29.94h-367.971c-16.508 0-29.94 13.431-29.94 29.94v279.71c0 16.509 13.432 29.94 29.94 29.94h76.699c4.143 0 7.5-3.357 7.5-7.5s-3.357-7.5-7.5-7.5h-36.975v-309.59h328.246c8.232 0 14.93 6.702 14.93 14.94v130.13h-31.73c-12.143 0-22.021 9.883-22.021 22.03v15.477h-4.615c-14.222 0-25.791 11.57-25.791 25.792 0 12.513 8.958 22.969 20.797 25.302v75.92h-207.34c-4.143 0-7.5 3.357-7.5 7.5s3.357 7.5 7.5 7.5h207.34v17.43c0 39.072 31.787 70.86 70.859 70.86s70.86-31.788 70.86-70.86v-108.35c11.842-2.332 20.801-12.788 20.801-25.302zm-457.336 101.221h-24.724c-8.238 0-14.94-6.702-14.94-14.94v-279.71c0-8.238 6.702-14.94 14.94-14.94h24.724zm319.426-142.49c0-3.877 3.149-7.03 7.021-7.03h78.46c3.876 0 7.029 3.153 7.029 7.03v15.477h-92.51zm46.25 230.78c-30.801 0-55.859-25.059-55.859-55.86v-71.022c5.716-2.031 13.108-3.761 24.562-3.761 16.796 0 25.021 3.669 33.729 7.554 9.303 4.149 19.847 8.853 39.831 8.853 4.852 0 9.351-.283 13.597-.837v59.214c0 30.801-25.058 55.859-55.86 55.859zm65.869-178.72h-62.956c-4.143 0-7.5 3.357-7.5 7.5s3.357 7.5 7.5 7.5h52.947v33.494c-4.142.658-8.631.989-13.597.989-16.79 0-25.014-3.668-33.721-7.552-9.304-4.15-19.85-8.854-39.84-8.854-10.388 0-18.169 1.251-24.562 3.036v-21.113h23.279c4.143 0 7.5-3.357 7.5-7.5s-3.357-7.5-7.5-7.5h-33.285c-5.95 0-10.791-4.841-10.791-10.791 0-5.951 4.841-10.792 10.791-10.792h131.734c5.95 0 10.791 4.841 10.791 10.792.001 5.95-4.84 10.791-10.79 10.791z"/><path d="m27.332 193.693v36.327c0 4.143 3.357 7.5 7.5 7.5s7.5-3.357 7.5-7.5v-36.327c0-4.143-3.357-7.5-7.5-7.5s-7.5 3.358-7.5 7.5z"/><path d="m311.899 177.762c28.995 0 52.584-23.589 52.584-52.584s-23.589-52.585-52.584-52.585-52.585 23.59-52.585 52.585 23.59 52.584 52.585 52.584zm7.5-89.416c15.049 4.614 25.69 11.473 29.327 29.311l.004.021h-29.331zm-15 0v36.832c0 4.143 3.357 7.5 7.5 7.5h36.831c-3.486 17.142-18.675 30.084-36.831 30.084-20.725 0-37.585-16.86-37.585-37.584 0-18.157 12.942-33.346 30.085-36.832z"/><path d="m206.422 201.714v22.823c0 6.421 5.225 11.646 11.646 11.646h48.198c6.421 0 11.646-5.225 11.646-11.646v-22.823c0-6.421-5.225-11.646-11.646-11.646h-48.198c-6.422 0-11.646 5.225-11.646 11.646zm15 3.354h41.489v16.114h-41.489z"/><path d="m206.422 289.436c0 6.421 5.225 11.646 11.646 11.646h79.559c6.421 0 11.646-5.225 11.646-11.646v-22.822c0-6.422-5.225-11.646-11.646-11.646h-79.559c-6.421 0-11.646 5.225-11.646 11.646zm15-19.469h72.85v16.114h-72.85z"/></g></g><g/><g/><g/><g/><g/><g/><g/><g/><g/><g/><g/><g/><g/><g/><g/></svg>