<svg id="Capa_1" enable-background="new 0 0 512 512" viewBox="0 0 512 512" xmlns="http://www.w3.org/2000/svg"><g><g><g><path d="m28.796 217.27v191.761c0 43.349 35.14 78.493 78.489 78.493s78.492-35.142 78.492-78.492v-191.762z" fill="#62dbfb"/><path d="m152.383 217.27v191.762c0 37.617-26.469 69.037-61.794 76.693 5.383 1.167 10.964 1.799 16.696 1.799 43.349 0 78.492-35.142 78.492-78.492v-191.762z" fill="#01d0fb"/><path d="m185.777 286.795v122.237c0 43.345-35.137 78.492-78.492 78.492-43.345 0-78.489-35.148-78.489-78.493v-132.013c9.726-4.106 20.792-7.612 39.716-7.612 45.571 0 45.571 20.326 91.131 20.326 10.905 0 19.203-1.169 26.134-2.937z" fill="#fe76a8"/><path d="m152.383 289.544v119.488c0 37.617-26.469 69.037-61.794 76.693l.019.007c5.376 1.164 10.953 1.792 16.677 1.792 43.355 0 78.492-35.146 78.492-78.492v-122.237c-6.931 1.768-15.23 2.937-26.135 2.937-2.56 0-4.97-.067-7.259-.188z" fill="#fe5694"/><path d="m28.794 405.097h37.929c3.96 0 7.169-3.21 7.169-7.169v-88.104c0-3.96-3.21-7.169-7.169-7.169h-37.929z" fill="#d8ecfe"/><path d="m40.693 175.995v32.221h133.185v-32.221c0-9.939-8.056-17.994-17.995-17.994h-97.195c-9.939 0-17.995 8.055-17.995 17.994z" fill="#fdb441"/><path d="m155.884 158.001h-33.394c9.939 0 17.996 8.056 17.996 17.995v32.22h33.393v-32.221c0-9.938-8.057-17.994-17.995-17.994z" fill="#fe9738"/><path d="m7.505 214.494c0-9.306 7.544-16.85 16.85-16.85h165.862c9.306 0 16.85 7.544 16.85 16.85s-7.544 16.85-16.85 16.85h-165.862c-9.306.001-16.85-7.544-16.85-16.85z" fill="#d8ecfe"/><path d="m190.217 197.644h-33.394c9.306 0 16.85 7.545 16.85 16.851s-7.544 16.85-16.85 16.85h33.394c9.306 0 16.85-7.544 16.85-16.85.001-9.306-7.543-16.851-16.85-16.851z" fill="#bddbff"/><path d="m427.455 24.476h-123.45c-5.475 0-10.534 2.921-13.271 7.662l-61.725 106.911c-2.737 4.741-2.737 10.583 0 15.324l61.725 106.911c2.737 4.741 7.796 7.662 13.271 7.662h123.451c5.475 0 10.534-2.921 13.271-7.662l61.725-106.911c2.737-4.741 2.737-10.583 0-15.324l-61.726-106.911c-2.737-4.741-7.796-7.662-13.271-7.662z" fill="#5de1c4"/><path d="m502.452 139.049-61.726-106.911c-2.737-4.741-7.796-7.662-13.271-7.662h-34.87c5.475 0 10.533 2.922 13.271 7.663l61.725 106.911c2.737 4.741 2.737 10.583 0 15.324l-61.725 106.911c-2.737 4.741-7.796 7.661-13.271 7.661h34.87c5.475 0 10.534-2.921 13.271-7.662l61.725-106.911c2.738-4.741 2.738-10.582.001-15.324z" fill="#0ed2b3"/></g></g><g><path d="m508.951 135.296-61.726-106.913c-4.064-7.039-11.638-11.412-19.766-11.412h-123.453c-8.128 0-15.702 4.373-19.766 11.412l-61.726 106.913c-4.064 7.039-4.064 15.785 0 22.825l48.422 83.87-77.662 77.657v-81.002c11.988-1.509 21.294-11.761 21.294-24.152 0-13.427-10.924-24.351-24.351-24.351h-8.841v-14.149c0-14.056-11.436-25.492-25.492-25.492h-26.499c-4.142 0-7.5 3.357-7.5 7.5s3.358 7.5 7.5 7.5h26.499c5.785 0 10.492 4.706 10.492 10.491v14.149h-118.185v-14.149c0-5.785 4.707-10.491 10.491-10.491h35.795c4.142 0 7.5-3.357 7.5-7.5s-3.358-7.5-7.5-7.5h-35.795c-14.056 0-25.492 11.436-25.492 25.492v14.149h-8.84c-13.426-.002-24.35 10.922-24.35 24.349 0 12.391 9.305 22.642 21.292 24.152v170.384c0 47.421 38.575 86.001 85.99 86.001s85.99-38.58 85.99-86.001v-68.168l85.427-85.422 5.539 9.594c4.064 7.039 11.638 11.412 19.766 11.412h123.453c8.128 0 15.702-4.373 19.766-11.412l61.726-106.913c4.067-7.038 4.067-15.784.002-22.823zm-493.951 79.196c0-5.156 4.194-9.351 9.35-9.351h16.282c.02 0 .038.003.058.003s.038-.003.058-.003h133.068c.02 0 .038.003.058.003s.038-.003.058-.003h16.284c5.156 0 9.351 4.194 9.351 9.351s-4.195 9.351-9.351 9.351h-165.865c-5.156 0-9.351-4.194-9.351-9.351zm21.293 95.662h30.096v87.444h-30.096zm141.979 98.875c0 39.15-31.846 71-70.99 71-37.947 0-69.033-29.933-70.899-67.431h30.336c8.089 0 14.67-6.58 14.67-14.669v-88.106c0-8.089-6.581-14.669-14.67-14.669h-30.426v-13.059c7.389-2.751 16.954-5.191 32.215-5.191 10.412 0 18.961 1.088 26.904 3.422 3.972 1.169 8.143-1.106 9.311-5.08 1.168-3.975-1.106-8.143-5.081-9.311-9.356-2.75-19.249-4.031-31.134-4.031-13.926 0-24.006 1.84-32.215 4.364v-27.425h141.98v41.896c-5.637 1-11.784 1.491-18.631 1.491-10.342 0-18.832-1.07-26.719-3.369-3.976-1.156-8.14 1.125-9.299 5.102s1.125 8.14 5.102 9.299c9.289 2.708 19.113 3.969 30.916 3.969 6.706 0 12.867-.431 18.631-1.297v38.712l-44.977 44.974c-2.929 2.929-2.929 7.678 0 10.607 1.464 1.465 3.384 2.197 5.303 2.197s3.839-.732 5.303-2.196l34.37-34.368zm317.689-258.409-61.726 106.913c-1.393 2.413-3.99 3.912-6.776 3.912h-123.453c-2.786 0-5.383-1.499-6.776-3.912l-61.727-106.913c-1.393-2.413-1.393-5.411 0-7.824l61.727-106.913c1.393-2.413 3.99-3.912 6.776-3.912h123.453c2.786 0 5.383 1.499 6.776 3.912l61.726 106.913c1.393 2.413 1.393 5.411 0 7.824z"/><path d="m406.946 56.387c0-4.143-3.358-7.5-7.5-7.5s-7.5 3.357-7.5 7.5c0 2.809-.338 5.566-.976 8.247h-50.476c-.638-2.681-.976-5.438-.976-8.247 0-4.143-3.358-7.5-7.5-7.5s-7.5 3.357-7.5 7.5c0 18.389 10.269 34.8 25.42 45.16-15.116 10.337-25.42 26.727-25.42 45.161 0 17.07 9.025 33.949 25.421 45.161-15.19 10.387-25.421 26.815-25.421 45.161 0 4.143 3.358 7.5 7.5 7.5s7.5-3.357 7.5-7.5c0-2.809.338-5.567.976-8.248h50.475c.638 2.681.976 5.439.976 8.248 0 4.143 3.358 7.5 7.5 7.5s7.5-3.357 7.5-7.5c0-18.359-10.24-34.78-25.42-45.161 15.213-10.403 25.42-26.829 25.42-45.161 0-18.253-10.132-34.706-25.42-45.161 15.198-10.391 25.421-26.82 25.421-45.16zm-23.395 23.247c-4.435 5.569-10.486 10.292-17.819 13.726-7.333-3.434-13.385-8.157-17.819-13.726zm-43.379 73.825c-.427-2.208-.653-4.462-.653-6.751s.227-4.543.653-6.75h51.121c.426 2.207.653 4.462.653 6.75 0 2.289-.227 4.544-.653 6.751zm44.517 15c-4.512 6.22-10.975 11.485-18.957 15.223-7.982-3.738-14.445-9.003-18.957-15.223zm-37.914-43.501c4.512-6.221 10.975-11.486 18.957-15.224 7.982 3.738 14.445 9.003 18.957 15.224zm1.139 88.823c4.434-5.569 10.486-10.292 17.819-13.726 7.333 3.434 13.384 8.157 17.818 13.726z"/></g></g><g/><g/><g/><g/><g/><g/><g/><g/><g/><g/><g/><g/><g/><g/><g/></svg>