<svg id="Capa_1" enable-background="new 0 0 512 512" viewBox="0 0 512 512" xmlns="http://www.w3.org/2000/svg"><g><g><g><g><g><path d="m182.618 341.049-22.898 103.401h107.215l-22.898-103.401z" fill="#678d98"/><path d="m7.502 65.936v284.937c0 6.29 5.098 11.388 11.388 11.388h388.873c6.29 0 11.389-5.099 11.389-11.389v-284.936c0-6.29-5.098-11.388-11.388-11.388h-388.874c-6.29 0-11.388 5.098-11.388 11.388z" fill="#5de1c4"/><path d="m407.765 54.548h-33.361c6.29 0 11.389 5.099 11.389 11.389v284.935c0 6.29-5.099 11.389-11.389 11.389h33.359c6.29 0 11.389-5.099 11.389-11.389v-284.936c.001-6.29-5.097-11.388-11.387-11.388z" fill="#0ed2b3"/><path d="m7.502 314.85v36.023c0 6.29 5.098 11.388 11.388 11.388h388.873c6.29 0 11.389-5.099 11.389-11.389v-36.022z" fill="#d8ecfe"/><path d="m419.153 350.872v-36.022h-33.359v36.022c0 6.29-5.099 11.389-11.389 11.389h33.359c6.289 0 11.389-5.099 11.389-11.389z" fill="#bddbff"/><path d="m133.014 421.729h160.627c5.145 0 9.7 3.324 11.27 8.223l5.5 17.16c1.639 5.112-2.175 10.34-7.544 10.34h-179.08c-5.369 0-9.182-5.227-7.544-10.34l5.5-17.16c1.571-4.899 6.126-8.223 11.271-8.223z" fill="#d8ecfe"/></g><path d="m218.195 90.709 90.338 65.634c2.902 2.108 4.116 5.846 3.008 9.257l-34.506 106.198c-1.108 3.411-4.288 5.721-7.875 5.721h-111.664c-3.587 0-6.766-2.31-7.875-5.721l-34.506-106.198c-1.108-3.411.106-7.149 3.008-9.257l90.338-65.634c2.902-2.108 6.832-2.108 9.734 0z" fill="#5de1c4"/><circle cx="57.445" cy="102.114" fill="#fdb441" r="16.093"/></g><g><path d="m468.147 457.45h-97.945c-27.085 0-44.635-28.586-32.377-52.733l48.186-94.959c2.552-5.05 3.891-10.622 3.891-16.284v-60.543h58.547v60.543c0 5.661 1.331 11.233 3.892 16.284l48.182 94.959c12.258 24.147-5.291 52.733-32.376 52.733z" fill="#62dbfb"/><path d="m500.524 404.717-48.182-94.959c-2.561-5.05-3.892-10.622-3.892-16.284v-60.543h-32.821v60.543c0 5.661 1.258 11.233 3.679 16.284l45.563 94.961c11.591 24.147-5.005 52.731-30.616 52.731h33.892c27.085 0 44.634-28.586 32.377-52.733z" fill="#01d0fb"/><path d="m468.147 457.45h-97.945c-27.083 0-44.631-28.583-32.377-52.733l10.497-20.682c7.997-3.565 17.72-6.639 32.698-8.234 44.47-4.739 46.362 13.008 90.824 8.269 6.482-.692 11.983-1.664 16.774-2.829l11.906 23.476c12.254 24.15-5.294 52.733-32.377 52.733z" fill="#fdb441"/><path d="m434.405 457.45h33.742c27.083 0 44.631-28.583 32.377-52.732l-11.906-23.476c-4.791 1.165-10.292 2.137-16.774 2.829-6.267.668-11.688.889-16.501.79l9.528 19.859c11.568 24.098-4.941 52.617-30.466 52.73z" fill="#fe9738"/><path d="m444.696 215.516h-51.041c-7.602 0-13.766 6.163-13.766 13.765 0 7.603 6.163 13.766 13.766 13.766h51.041c7.602 0 13.766-6.163 13.766-13.765 0-7.603-6.163-13.766-13.766-13.766z" fill="#d8ecfe"/><path d="m444.696 215.516h-28.569c7.602 0 13.766 6.163 13.766 13.766s-6.163 13.765-13.766 13.765h28.569c7.602 0 13.766-6.163 13.766-13.765 0-7.603-6.163-13.766-13.766-13.766z" fill="#bddbff"/></g></g></g><g><path d="m107.981 167.916 34.506 106.2c2.119 6.522 8.15 10.903 15.008 10.903h111.665c6.857 0 12.889-4.382 15.008-10.903l34.506-106.2c2.119-6.522-.185-13.611-5.732-17.642l-90.339-65.635c-5.546-4.03-13.002-4.032-18.55 0l-90.339 65.634c-5.548 4.032-7.852 11.122-5.733 17.643zm16.957 3.646 14.361 4.665 42.308 47.06-27.545 37.913zm68.862 60.46 56.463 23.965 10.196 14.032h-94.265zm9.049-12.455 10.475-14.418 19.819 27.276zm22.61-23.234 20.351-6.611 1.074 36.097zm-4.636-14.266v-24.172l18.232 18.249zm-15 0-41.006-13.321 41.006-17.585zm-4.635 14.265-10.567 14.545-22.831-25.395zm71.405 64.869-10.06-13.846-1.859-62.461 41.044-13.332zm24.492-103.906-42.021 13.65-34.24-34.272v-34.786zm-91.262-55.401v32.946l-62.661 26.871-13.593-4.416z"/><path d="m99.534 219.988h-57.057c-4.143 0-7.5 3.357-7.5 7.5s3.357 7.5 7.5 7.5h57.057c4.143 0 7.5-3.357 7.5-7.5s-3.357-7.5-7.5-7.5z"/><path d="m107.034 255.999c0-4.143-3.357-7.5-7.5-7.5h-57.057c-4.143 0-7.5 3.357-7.5 7.5s3.357 7.5 7.5 7.5h57.057c4.143 0 7.5-3.357 7.5-7.5z"/><path d="m42.477 277.011c-4.143 0-7.5 3.357-7.5 7.5s3.357 7.5 7.5 7.5h22.288c4.143 0 7.5-3.357 7.5-7.5s-3.357-7.5-7.5-7.5z"/><path d="m345.324 94.395h33.198c4.143 0 7.5-3.357 7.5-7.5s-3.357-7.5-7.5-7.5h-33.198c-4.143 0-7.5 3.357-7.5 7.5-.001 4.143 3.357 7.5 7.5 7.5z"/><path d="m345.324 120.839h33.198c4.143 0 7.5-3.357 7.5-7.5s-3.357-7.5-7.5-7.5h-33.198c-4.143 0-7.5 3.357-7.5 7.5s3.357 7.5 7.5 7.5z"/><path d="m345.324 147.282h16.599c4.143 0 7.5-3.357 7.5-7.5s-3.357-7.5-7.5-7.5h-16.599c-4.143 0-7.5 3.357-7.5 7.5-.001 4.143 3.357 7.5 7.5 7.5z"/><path d="m57.444 125.705c13.009 0 23.593-10.584 23.593-23.593s-10.584-23.593-23.593-23.593-23.593 10.584-23.593 23.593 10.584 23.593 23.593 23.593zm0-32.186c4.738 0 8.593 3.855 8.593 8.593s-3.855 8.593-8.593 8.593-8.593-3.855-8.593-8.593 3.855-8.593 8.593-8.593z"/><path d="m507.214 401.324-21.645-42.666c-1.874-3.694-6.388-5.169-10.082-3.295-3.693 1.874-5.169 6.388-3.295 10.082l5.249 10.347c-2.044.312-4.168.585-6.388.822-20.798 2.216-31.382-.752-42.586-3.897-12.078-3.389-24.564-6.894-48.238-4.371-6.169.657-11.739 1.571-16.953 2.797l29.431-57.997c3.075-6.077 4.7-12.879 4.7-19.67v-42.929h43.547v42.929c0 6.815 1.627 13.62 4.704 19.677l10.601 20.901c1.322 2.606 3.959 4.109 6.694 4.109 1.142 0 2.3-.262 3.387-.813 3.694-1.873 5.17-6.387 3.296-10.081l-10.603-20.905c-2.015-3.966-3.079-8.423-3.079-12.888v-46.185c6-3.764 10.01-10.42 10.01-18.009 0-11.726-9.54-21.266-21.266-21.266h-18.043v-142.084c0-10.413-8.472-18.885-18.886-18.885h-257.857c-4.143 0-7.5 3.357-7.5 7.5s3.357 7.5 7.5 7.5h257.858c2.143 0 3.886 1.743 3.886 3.885v142.082h-17.998c-11.726 0-21.266 9.54-21.266 21.266 0 7.592 4.013 14.25 10.016 18.013v46.182c0 4.45-1.066 8.91-3.081 12.891l-.499.982h-363.828v-241.416c0-2.142 1.743-3.885 3.886-3.885h95.823c4.143 0 7.5-3.357 7.5-7.5s-3.357-7.5-7.5-7.5h-95.823c-10.414 0-18.886 8.472-18.886 18.885v284.945c0 10.413 8.472 18.885 18.886 18.885h149.694l-9.852 44.469h-25.715c-8.439 0-15.838 5.399-18.412 13.434l-5.499 17.16c-1.499 4.674-.666 9.831 2.227 13.796s7.551 6.332 12.459 6.332h179.082c4.908 0 9.566-2.367 12.458-6.332s3.726-9.122 2.228-13.796l-5.499-17.16c-2.576-8.035-9.976-13.434-18.413-13.434h-25.715l-9.852-44.469h89.079l-16.016 31.56c-6.946 13.683-6.302 29.659 1.726 42.738 8.03 13.082 21.988 20.892 37.338 20.892h97.945c15.351 0 29.309-7.81 37.338-20.892 8.027-13.079 8.672-29.056 1.727-42.736zm-113.557-178.31h51.041c3.455 0 6.266 2.811 6.266 6.266s-2.811 6.266-6.266 6.266h-51.041c-3.455 0-6.266-2.811-6.266-6.266s2.811-6.266 6.266-6.266zm-95.887 209.229 5.5 17.16c.022.071.064.204-.062.377s-.265.173-.34.173h-179.081c-.075 0-.215 0-.341-.173s-.084-.306-.061-.377l5.5-17.161c.577-1.801 2.235-3.011 4.127-3.011h31.635c.035 0 .072.006.107.006.023 0 .045-.006.068-.006h97.01c.023 0 .045.006.068.006.035 0 .072-.005.107-.006h31.635c1.892 0 3.551 1.21 4.128 3.012zm-45.206-18.012h-78.472l9.852-44.469h58.768zm-3.911-59.469c-.018 0-.036 0-.055 0h-229.712c-2.143 0-3.886-1.743-3.886-3.885v-28.529h356.215l-16.449 32.413h-106.113zm244.05 81.451c-5.28 8.603-14.46 13.738-24.555 13.738h-97.945c-10.095 0-19.274-5.136-24.554-13.738-5.278-8.599-5.702-19.104-1.134-28.102l9.264-18.255c5.948-2.45 14.459-5.15 28.038-6.595 20.803-2.219 31.389.753 42.596 3.897 9.201 2.582 18.64 5.231 33.078 5.231 4.514 0 9.516-.259 15.152-.859 4.231-.452 8.164-1.028 11.899-1.739l9.294 18.322c4.569 8.996 4.144 19.5-1.133 28.1z"/></g></g><g/><g/><g/><g/><g/><g/><g/><g/><g/><g/><g/><g/><g/><g/><g/></svg>