<svg id="Capa_1" enable-background="new 0 0 512 512" viewBox="0 0 512 512" xmlns="http://www.w3.org/2000/svg"><g><g><path d="m135.868 7.5h240.264c9.531 0 18.306 5.188 22.9 13.538l44.076 80.098h-374.216l44.077-80.097c4.594-8.35 13.369-13.539 22.899-13.539z" fill="#fe76a8"/><path d="m399.033 21.038c-4.595-8.35-13.37-13.538-22.9-13.538h-41.051c9.531 0 18.306 5.188 22.901 13.537l44.075 80.099h41.052z" fill="#fe5694"/><path d="m48.053 108.535 32.005 386.287c.453 5.469 5.023 9.678 10.51 9.678h82.264c3.613 0 6.975-1.849 8.909-4.901l8.386-13.229c1.934-3.052 5.291-4.901 8.904-4.901h113.936c3.613 0 6.97 1.849 8.904 4.901l8.386 13.229c1.934 3.052 5.296 4.901 8.909 4.901h82.265c5.487 0 10.058-4.209 10.511-9.677l32.004-386.288z" fill="#fe76a8"/><path d="m422.895 108.535-32.003 386.289c-.453 5.469-5.024 9.676-10.511 9.676h41.051c5.487 0 10.058-4.209 10.511-9.677l32.004-386.288h-41.052z" fill="#fe5694"/><circle cx="256" cy="312.346" fill="#fdb441" r="113.544"/><g><g fill="#537983"><path d="m292.462 250.642-33.306 59.371h-6.311l-33.306-59.371c-1.278-2.278-.405-5.163 1.922-6.35 10.375-5.294 22.118-8.273 34.539-8.273s24.164 2.979 34.539 8.273c2.328 1.188 3.201 4.072 1.923 6.35z"/><path d="m255.561 316.243-34.762 58.518c-1.333 2.244-4.274 2.939-6.458 1.51-21.342-13.963-33.775-37.468-34.652-59.871-.101-2.584 1.955-4.745 4.54-4.777l68.176-.842z"/><path d="m291.201 374.761-34.762-58.518 3.156-5.463 68.175.842c2.585.032 4.642 2.193 4.54 4.777-.876 22.312-13.229 45.859-34.651 59.872-2.184 1.428-5.125.734-6.458-1.51z"/></g><circle cx="256" cy="312.346" fill="#678d98" r="23.057"/></g><g fill="#fe5694"><path d="m367.737 107.188v46.972c0 6.485 5.257 11.741 11.742 11.741h9.061c6.485 0 11.742-5.256 11.742-11.741v-46.972z"/><path d="m111.717 107.188v46.972c0 6.485 5.257 11.741 11.742 11.741h9.061c6.485 0 11.742-5.256 11.742-11.741v-46.972z"/></g><path d="m239.727 107.188v46.972c0 6.485 5.257 11.741 11.742 11.741h9.061c6.485 0 11.742-5.256 11.742-11.741v-46.972z" fill="#fe5694"/><path d="m16.462 97.836v24.099c0 4.396 3.564 7.961 7.961 7.961h463.155c4.396 0 7.961-3.564 7.961-7.96v-24.1c0-4.396-3.564-7.96-7.961-7.96h-463.156c-4.396-.001-7.96 3.563-7.96 7.96z" fill="#d8ecfe"/><path d="m487.578 89.875h-41.052c4.396 0 7.961 3.564 7.961 7.96v24.099c0 4.396-3.564 7.96-7.961 7.96h41.052c4.396 0 7.961-3.564 7.961-7.96v-24.098c-.001-4.397-3.565-7.961-7.961-7.961z" fill="#bddbff"/></g><g><path d="m256 191.303c-66.744 0-121.044 54.3-121.044 121.044s54.3 121.044 121.044 121.044 121.044-54.3 121.044-121.044-54.3-121.044-121.044-121.044zm0 227.088c-58.473 0-106.044-47.571-106.044-106.044s47.571-106.044 106.044-106.044 106.044 47.571 106.044 106.044-47.571 106.044-106.044 106.044z"/><path d="m285.274 303.597c-1.384-4.623-3.836-8.786-7.067-12.208l20.785-37.064c1.608-2.851 1.989-6.285 1.044-9.423-.946-3.141-3.163-5.798-6.091-7.294-11.833-6.03-24.6-9.088-37.946-9.088s-26.113 3.058-37.952 9.092c-2.921 1.492-5.139 4.149-6.084 7.29-.944 3.138-.564 6.572 1.035 9.406l20.795 37.082c-3.231 3.422-5.683 7.584-7.067 12.207l-42.612.525c-3.293.051-6.352 1.394-8.614 3.781-2.258 2.384-3.432 5.504-3.305 8.792 1.019 25.937 15.594 51.169 38.042 65.854 5.716 3.733 13.491 1.997 17.01-3.959l21.692-36.519c2.268.539 4.63.833 7.06.833s4.792-.293 7.06-.833l21.696 36.526c3.529 5.927 11.293 7.701 17.009 3.949 22.452-14.685 37.027-39.918 38.039-65.855.126-3.284-1.047-6.404-3.305-8.788-2.262-2.388-5.321-3.73-8.637-3.781zm-29.274-60.077c9.94 0 19.485 2.064 28.412 6.138l-18.877 33.663c-3.002-.989-6.206-1.531-9.535-1.531s-6.532.542-9.535 1.531l-18.877-33.662c8.931-4.076 18.473-6.139 28.412-6.139zm-40.067 124.748c-16.184-11.649-26.866-30.051-28.559-49.186l38.716-.478c1.356 6.49 4.778 12.228 9.543 16.497zm24.51-55.921c0-8.578 6.979-15.558 15.557-15.558 8.579 0 15.558 6.979 15.558 15.558s-6.979 15.557-15.558 15.557c-8.578-.001-15.557-6.979-15.557-15.557zm55.624 55.921-19.7-33.166c4.765-4.27 8.188-10.007 9.544-16.497l38.716.478c-1.688 19.133-12.367 37.528-28.56 49.185z"/><path d="m487.578 82.375h-46.237l-35.739-64.948c-5.909-10.749-17.202-17.427-29.472-17.427h-240.26c-12.27 0-23.563 6.678-29.471 17.424l-35.74 64.951h-46.237c-8.525 0-15.46 6.936-15.46 15.461v24.099c0 8.525 6.936 15.461 15.46 15.461h18.493l29.67 358.039c.764 9.289 8.664 16.565 17.985 16.565h82.26c6.224 0 11.924-3.137 15.244-8.384l8.393-13.235c.559-.884 1.517-1.411 2.562-1.411h113.94c1.045 0 2.003.527 2.566 1.417l8.385 13.223c3.324 5.254 9.024 8.391 15.248 8.391h82.26c9.321 0 17.221-7.276 17.984-16.56l5.52-66.54c.343-4.128-2.726-7.752-6.854-8.095-4.138-.336-7.752 2.727-8.094 6.854l-5.521 66.546c-.129 1.566-1.462 2.794-3.035 2.794h-82.26c-1.052 0-2.013-.527-2.576-1.417l-8.386-13.224c-3.325-5.253-9.021-8.39-15.237-8.39h-113.939c-6.216 0-11.913 3.137-15.234 8.384l-8.394 13.236c-.559.883-1.521 1.41-2.572 1.41h-82.26c-1.573 0-2.906-1.228-3.035-2.799l-29.569-356.804h46.254v16.765c0 10.609 8.631 19.24 19.24 19.24h9.06c10.609 0 19.24-8.631 19.24-19.24v-16.765h80.47v16.765c0 10.609 8.631 19.24 19.24 19.24h9.06c10.609 0 19.24-8.631 19.24-19.24v-16.765h80.47v16.765c0 10.609 8.631 19.24 19.24 19.24h9.06c10.609 0 19.24-8.631 19.24-19.24v-16.765h46.254l-21.169 255.504c-.342 4.128 2.728 7.752 6.855 8.094.211.018.419.025.627.025 3.861 0 7.142-2.964 7.466-6.881l21.271-256.743h18.492c8.525 0 15.46-6.936 15.46-15.461v-24.098c.002-8.525-6.933-15.461-15.458-15.461zm-350.818 71.785c0 2.338-1.902 4.24-4.24 4.24h-9.06c-2.338 0-4.24-1.902-4.24-4.24v-16.765h17.54zm128.01 0c0 2.338-1.902 4.24-4.24 4.24h-9.06c-2.338 0-4.24-1.902-4.24-4.24v-16.765h17.54zm128.01 0c0 2.338-1.902 4.24-4.24 4.24h-9.06c-2.338 0-4.24-1.902-4.24-4.24v-16.765h17.54zm95.258-32.225c0 .254-.207.461-.46.461h-463.156c-.254 0-.46-.207-.46-.461v-24.099c0-.254.207-.461.46-.461h156.628c4.142 0 7.5-3.357 7.5-7.5s-3.358-7.5-7.5-7.5h-93.27l31.762-57.722c3.274-5.954 9.53-9.653 16.328-9.653h240.26c6.798 0 13.054 3.699 16.329 9.656l31.761 57.719h-208.169c-4.142 0-7.5 3.357-7.5 7.5s3.358 7.5 7.5 7.5h220.777c.03 0 .059.006.089.006.032 0 .063-.005.095-.006h50.566c.254 0 .46.207.46.461z"/></g></g><g/><g/><g/><g/><g/><g/><g/><g/><g/><g/><g/><g/><g/><g/><g/></svg>