<svg id="Capa_1" enable-background="new 0 0 512 512" viewBox="0 0 512 512" xmlns="http://www.w3.org/2000/svg"><g><g><path d="m192.955 463.989h-135.251c-37.402 0-61.636-39.473-44.709-72.817l66.538-131.129c3.524-6.974 5.373-14.668 5.373-22.486v-83.602h80.848v83.602c0 7.818 1.837 15.512 5.373 22.486l66.537 131.129c16.926 33.345-7.307 72.817-44.709 72.817z" fill="#62dbfb"/><path d="m237.664 391.172-66.537-131.129c-3.536-6.974-5.373-14.668-5.373-22.486v-83.602h-45.321v83.603c0 7.818 1.737 15.512 5.081 22.486l62.918 131.13c16.005 33.344-6.912 72.818-42.278 72.818l46.802-.003c37.401 0 61.635-39.472 44.708-72.817z" fill="#01d0fb"/><path d="m192.952 463.987h-135.244c-37.409 0-61.64-39.473-44.714-72.813l28.229-55.627c3.257 1.163 6.714 2.195 10.402 3.077 61.389 14.671 64.005-40.285 125.414-25.614 10.392 2.485 18.96 6.123 26.305 10.532l34.322 67.633c16.926 33.34-7.305 72.812-44.714 72.812z" fill="#fe76a8"/><path d="m203.344 323.542c-7.345-4.409-15.913-8.047-26.305-10.532-10.585-2.529-19.422-2.988-27.115-2.093l38.508 80.257c15.964 33.258-6.796 72.612-42.008 72.813h46.528c37.409 0 61.64-39.473 44.714-72.813z" fill="#fe5694"/><path d="m160.572 129.906h-70.482c-10.498 0-19.009 8.511-19.009 19.009s8.511 19.009 19.009 19.009h70.482c10.498 0 19.009-8.51 19.009-19.009-.001-10.499-8.511-19.009-19.009-19.009z" fill="#eaf6ff"/><path d="m160.572 129.906h-39.45c10.498 0 19.009 8.51 19.009 19.008s-8.511 19.009-19.009 19.009h39.45c10.498 0 19.009-8.51 19.009-19.009-.001-10.498-8.511-19.008-19.009-19.008z" fill="#d5e3f4"/><ellipse cx="68.075" cy="409.77" fill="#fdb441" rx="15.533" ry="15.533" transform="matrix(.987 -.16 .16 .987 -64.759 16.196)"/><ellipse cx="130.39" cy="367.452" fill="#fdb441" rx="16.03" ry="16.031" transform="matrix(.046 -.999 .999 .046 -242.642 480.894)"/><path d="m497.728 158.119-15.308-2.975c-3.096-.602-5.635-2.867-6.491-5.902-2.265-8.032-5.461-15.672-9.462-22.8-1.532-2.73-1.348-6.1.403-8.695l8.757-12.983c2.24-3.321 1.813-7.764-1.02-10.597l-16.265-16.267c-2.833-2.833-7.275-3.26-10.597-1.02l-12.983 8.757c-2.595 1.75-5.966 1.935-8.695.403-7.129-4.001-14.769-7.198-22.801-9.462-3.035-.856-5.301-3.395-5.902-6.491l-2.975-15.308c-.764-3.932-4.208-6.771-8.214-6.771h-23.003c-4.006 0-7.45 2.839-8.214 6.771l-2.975 15.308c-.602 3.096-2.867 5.635-5.902 6.491-8.032 2.265-15.672 5.461-22.8 9.462-2.73 1.532-6.1 1.348-8.695-.403l-12.983-8.758c-3.321-2.24-7.764-1.812-10.597 1.02l-16.265 16.265c-2.833 2.833-3.26 7.276-1.02 10.597l8.758 12.983c1.751 2.595 1.935 5.966.403 8.696-4.001 7.128-7.198 14.769-9.463 22.8-.856 3.035-3.395 5.301-6.491 5.902l-15.308 2.975c-3.932.764-6.771 4.208-6.771 8.214v23.003c0 4.006 2.839 7.45 6.771 8.214l15.308 2.975c3.096.602 5.635 2.867 6.491 5.902 2.265 8.032 5.461 15.672 9.462 22.8 1.532 2.73 1.348 6.1-.403 8.696l-8.757 12.983c-2.24 3.321-1.812 7.764 1.02 10.597l16.265 16.265c2.833 2.833 7.275 3.26 10.597 1.02l12.983-8.757c2.595-1.75 5.966-1.935 8.695-.403 7.128 4.001 14.769 7.198 22.8 9.462 3.035.856 5.301 3.395 5.902 6.491l2.975 15.308c.764 3.932 4.208 6.772 8.214 6.772h23.003c4.006 0 7.45-2.839 8.214-6.772l2.975-15.308c.602-3.096 2.867-5.635 5.902-6.491 8.032-2.265 15.672-5.461 22.801-9.462 2.73-1.532 6.1-1.348 8.695.403l12.983 8.757c3.321 2.24 7.764 1.812 10.597-1.02l16.265-16.265c2.833-2.833 3.26-7.275 1.02-10.597l-8.757-12.983c-1.75-2.595-1.935-5.966-.403-8.695 4.001-7.128 7.198-14.769 9.462-22.8.856-3.035 3.395-5.301 6.491-5.902l15.308-2.975c3.933-.764 6.772-4.208 6.772-8.214v-23.003c0-4.005-2.839-7.449-6.772-8.213zm-123.054 89.789c-38.701 0-70.074-31.373-70.074-70.074s31.373-70.074 70.074-70.074 70.074 31.373 70.074 70.074-31.374 70.074-70.074 70.074z" fill="#5de1c4"/><path d="m497.728 158.119-15.307-2.975c-3.096-.602-5.635-2.867-6.491-5.902-2.265-8.032-5.461-15.672-9.462-22.8-1.532-2.73-1.347-6.1.403-8.695l8.757-12.983c2.24-3.321 1.813-7.764-1.02-10.596l-16.266-16.268c-2.833-2.833-7.276-3.26-10.597-1.02l-12.983 8.757c-2.595 1.75-5.966 1.935-8.695.403-7.129-4.001-14.769-7.198-22.801-9.463-3.035-.856-5.3-3.395-5.902-6.491l-2.975-15.308c-.764-3.932-4.208-6.771-8.214-6.771h-14.498l5.676 25.957c2.025 9.26 9.084 16.657 18.288 18.921 38.189 9.393 66.515 43.861 66.515 84.948 0 41.127-28.381 75.62-66.626 84.974-9.287 2.271-16.407 9.739-18.39 19.093l-5.462 25.76h14.498c4.006 0 7.45-2.839 8.214-6.772l2.975-15.308c.602-3.096 2.867-5.635 5.902-6.491 8.032-2.265 15.672-5.461 22.801-9.462 2.73-1.532 6.1-1.348 8.695.403l12.983 8.757c3.321 2.24 7.764 1.812 10.597-1.02l16.265-16.265c2.833-2.833 3.261-7.275 1.02-10.597l-8.757-12.983c-1.75-2.595-1.935-5.966-.403-8.695 4.001-7.128 7.198-14.769 9.462-22.8.856-3.035 3.395-5.301 6.491-5.902l15.307-2.975c3.933-.764 6.772-4.208 6.772-8.214v-23.003c0-4.006-2.839-7.45-6.772-8.214z" fill="#0ed2b3"/><circle cx="374.673" cy="177.834" fill="#5de1c4" r="25.405"/></g><g><path d="m68.063 386.742c-12.7 0-23.033 10.333-23.033 23.034s10.333 23.034 23.033 23.034 23.033-10.333 23.033-23.034-10.333-23.034-23.033-23.034zm0 31.067c-4.429 0-8.033-3.604-8.033-8.033 0-4.43 3.604-8.033 8.033-8.033s8.033 3.604 8.033 8.033-3.604 8.033-8.033 8.033z"/><path d="m135.208 344.425c-12.698-2.659-25.196 5.504-27.858 18.202-1.686 8.043 1.014 16.511 7.045 22.1 1.444 1.338 3.272 1.999 5.096 1.999 2.015 0 4.025-.808 5.503-2.402 2.815-3.038 2.635-7.783-.403-10.599-2.224-2.061-3.181-5.059-2.56-8.02.965-4.605 5.497-7.565 10.099-6.6 4.604.966 7.565 5.497 6.6 10.101-.85 4.054 1.748 8.029 5.801 8.88 4.051.844 8.029-1.747 8.88-5.802 2.661-12.697-5.504-25.194-18.203-27.859z"/><path d="m374.779 100.261c-.038 0-.075-.006-.113-.006-.041 0-.08.005-.121.006-42.719.068-77.452 34.839-77.452 77.573 0 42.707 34.691 77.46 77.374 77.571.067.001.131.01.199.01.05 0 .098-.006.148-.007 14.972-.027 29.496-4.325 42.008-12.439 3.476-2.253 4.467-6.898 2.213-10.373-2.254-3.476-6.898-4.467-10.373-2.213-8.015 5.196-17.059 8.444-26.496 9.573v-30.087c12.131-2.839 21.696-12.403 24.536-24.534h30.088c-.943 7.82-3.346 15.423-7.093 22.321-1.978 3.64-.63 8.194 3.009 10.171 3.643 1.98 8.194.631 10.171-3.009 6.129-11.28 9.368-24.069 9.368-36.983.001-42.74-34.741-77.515-77.466-77.574zm62.001 70.073h-30.078c-2.84-12.131-12.405-21.695-24.536-24.534v-30.078c28.52 3.423 51.19 26.093 54.614 54.612zm-69.614-54.61v30.078c-12.128 2.841-21.69 12.404-24.529 24.532h-30.078c3.424-28.516 26.091-51.184 54.607-54.61zm-54.607 69.611h30.078c2.84 12.129 12.401 21.692 24.529 24.532v30.077c-28.516-3.425-51.183-26.093-54.607-54.609zm62.118 10.405h-.015c-9.867-.006-17.898-8.036-17.898-17.905 0-9.866 8.021-17.893 17.884-17.905l.018.001.021-.001c9.852.01 17.865 8.017 17.886 17.866 0 .013-.002.025-.002.039s.002.026.002.039c-.021 9.852-8.039 17.861-17.896 17.866z"/><path d="m499.158 150.756-15.307-2.976c-.343-.066-.625-.298-.703-.575-2.395-8.491-5.807-16.712-10.142-24.437-.13-.232-.098-.565.081-.831l8.756-12.983c4.239-6.282 3.427-14.733-1.933-20.095l-16.267-16.267c-5.361-5.358-13.812-6.172-20.093-1.933l-12.986 8.758c-.265.179-.598.208-.829.08-7.726-4.336-15.948-7.748-24.438-10.142-.277-.078-.508-.36-.574-.702l-2.975-15.31c-1.447-7.44-7.998-12.84-15.577-12.84h-23.003c-7.579 0-14.131 5.4-15.577 12.841l-2.975 15.309c-.066.342-.298.624-.575.702-8.491 2.395-16.712 5.807-24.437 10.142-.231.132-.564.098-.831-.081l-12.983-8.756c-6.286-4.238-14.736-3.425-20.095 1.934l-16.267 16.266c-5.358 5.361-6.171 13.812-1.933 20.093l8.758 12.986c.178.264.21.597.08.829-4.335 7.725-7.747 15.946-10.142 24.438-.078.276-.36.508-.703.574l-15.307 2.976c-7.441 1.445-12.842 7.995-12.842 15.576v23.003c0 7.579 5.4 14.131 12.841 15.577l15.308 2.975c.343.066.625.298.703.575 2.394 8.49 5.806 16.711 10.142 24.437.13.232.098.565-.081.831l-8.757 12.983c-4.238 6.283-3.425 14.734 1.934 20.095l5.88 5.88-59.286 59.281-38.208-75.304c-2.993-5.918-4.574-12.524-4.574-19.104v-65.375c8.234-4.503 13.831-13.247 13.831-23.275 0-14.617-11.892-26.509-26.509-26.509h-26.634c-4.142 0-7.5 3.357-7.5 7.5s3.358 7.5 7.5 7.5h26.634c6.346 0 11.509 5.163 11.509 11.509s-5.163 11.509-11.509 11.509h-70.485c-6.346 0-11.509-5.163-11.509-11.509s5.163-11.509 11.509-11.509h8.776c4.142 0 7.5-3.357 7.5-7.5s-3.358-7.5-7.5-7.5h-8.776c-14.617 0-26.51 11.892-26.51 26.509 0 10.027 5.597 18.77 13.829 23.274v65.375c0 6.597-1.581 13.2-4.57 19.095l-66.53 131.13c-9.138 18-8.288 39.02 2.274 56.227 10.564 17.21 28.926 27.485 49.119 27.485h135.259c20.193 0 38.555-10.275 49.119-27.485 10.562-17.206 11.412-38.226 2.275-56.225l-21.18-41.743 62.762-62.758c5.369 5.159 13.665 5.903 19.865 1.724l12.985-8.759c.263-.179.598-.208.829-.08 7.725 4.335 15.946 7.747 24.438 10.142.276.078.508.36.574.703l2.975 15.309c1.446 7.44 7.998 12.84 15.577 12.84h23.003c7.579 0 14.13-5.4 15.577-12.841l2.975-15.308c.066-.343.298-.625.575-.703 8.489-2.394 16.711-5.806 24.437-10.142.231-.13.565-.097.83.081l12.986 8.759c6.28 4.235 14.732 3.423 20.093-1.936l16.267-16.267c5.358-5.36 6.171-13.811 1.933-20.093l-8.758-12.986c-.178-.264-.21-.597-.08-.829 4.336-7.726 7.748-15.947 10.142-24.438.078-.276.36-.508.703-.574l15.309-2.975c7.44-1.446 12.84-7.998 12.84-15.577v-23.003c0-7.582-5.4-14.132-12.842-15.577zm-412.953 112.688c4.051-7.988 6.192-16.938 6.192-25.881v-62.14h65.843v62.14c0 8.92 2.14 17.867 6.193 25.882l22.628 44.598c-2.68-.863-5.435-1.641-8.289-2.324-33.772-8.067-52.201 3.525-68.457 13.756-15.742 9.905-29.336 18.46-56.957 11.86-.476-.114-.945-.238-1.417-.359zm144.761 131.132c6.759 13.314 6.13 28.861-1.683 41.589-7.815 12.731-21.397 20.331-36.335 20.331h-135.258c-14.937 0-28.52-7.601-36.335-20.331-7.813-12.728-8.442-28.275-1.682-41.591l25.337-49.937c8.425 2.422 17.39 3.99 26.259 3.99 20.886 0 34.597-8.628 47.037-16.456 15.744-9.908 29.342-18.464 56.98-11.863 8.297 1.984 15.635 4.822 22.378 8.629l7.2 14.192-47.823 47.819c-2.929 2.929-2.929 7.678 0 10.607s7.677 2.93 10.607.001l44.357-44.354zm266.034-205.24c0 .415-.296.773-.702.853l-15.308 2.975c-5.947 1.156-10.653 5.459-12.28 11.23-2.072 7.351-5.028 14.472-8.784 21.165-2.927 5.214-2.648 11.56.726 16.56l8.757 12.985c.232.344.188.807-.105 1.099l-16.265 16.265c-.294.295-.758.337-1.1.107l-12.983-8.757c-5.003-3.376-11.348-3.653-16.562-.727-6.693 3.756-13.815 6.712-21.164 8.784-5.772 1.627-10.075 6.332-11.231 12.28l-2.975 15.307c-.079.407-.438.703-.853.703h-23.003c-.415 0-.773-.296-.853-.702l-2.975-15.308c-1.156-5.947-5.459-10.653-11.23-12.28-7.352-2.073-14.473-5.028-21.165-8.784-2.399-1.347-5.038-2.016-7.676-2.016-3.094 0-6.186.92-8.885 2.741l-12.982 8.757c-.346.232-.808.189-1.101-.105l-16.265-16.265c-.294-.293-.339-.756-.106-1.101l8.756-12.982c3.375-5.002 3.653-11.348.727-16.562-3.756-6.693-6.712-13.815-8.784-21.164-1.627-5.773-6.332-10.075-12.28-11.231l-15.307-2.975c-.408-.079-.703-.438-.703-.853v-23.003c0-.414.295-.772.703-.852l15.307-2.976c5.947-1.155 10.653-5.459 12.28-11.23 2.073-7.352 5.028-14.473 8.784-21.165 2.927-5.214 2.648-11.56-.726-16.56l-8.758-12.985c-.231-.344-.187-.807.106-1.099l16.265-16.266c.293-.293.756-.336 1.101-.105l12.982 8.756c5.002 3.375 11.348 3.652 16.562.727 6.693-3.756 13.814-6.711 21.164-8.784 5.772-1.627 10.075-6.331 11.231-12.279l2.975-15.308c.079-.407.438-.703.853-.703h23.003c.415 0 .773.296.853.702l2.975 15.309c1.155 5.947 5.459 10.652 11.23 12.279 7.351 2.072 14.472 5.028 21.165 8.784 5.214 2.926 11.562 2.648 16.56-.726l12.985-8.757c.343-.231.806-.188 1.099.105l16.266 16.265c.293.293.338.756.105 1.101l-8.756 12.982c-3.375 5.002-3.653 11.348-.727 16.562 3.756 6.693 6.711 13.814 8.784 21.164 1.627 5.772 6.332 10.075 12.28 11.231l15.308 2.976c.406.079.702.438.702.852z"/></g></g><g/><g/><g/><g/><g/><g/><g/><g/><g/><g/><g/><g/><g/><g/><g/></svg>