<svg id="Capa_1" enable-background="new 0 0 512 512" viewBox="0 0 512 512" xmlns="http://www.w3.org/2000/svg"><g><g><path d="m355.989 7.5h-68.358c-28.794 0-52.135 23.344-52.135 52.138v98.526h41.007v-94.825c0-8.189 6.639-14.829 14.828-14.829h64.658z" fill="#d8ecfe"/><path d="m287.95 135.759h-63.9c-2.302 0-4.556.663-6.49 1.912l-56.92 36.791c-2.061 1.332-3.306 3.622-3.306 6.076v18.733h197.333v-18.733c0-2.454-1.246-4.744-3.306-6.076l-56.92-36.791c-1.935-1.249-4.188-1.912-6.491-1.912z" fill="#678d98"/><path d="m205.07 91.608c0 8.054 6.529 14.583 14.583 14.583h72.695c8.054 0 14.583-6.529 14.583-14.583s-6.529-14.583-14.583-14.583h-72.695c-8.054.001-14.583 6.53-14.583 14.583z" fill="#678d98"/><path d="m64.781 216.8v274.682c0 7.19 5.828 13.018 13.018 13.018h356.403c7.19 0 13.018-5.828 13.018-13.018v-274.682c0-13.367-10.836-24.204-24.204-24.204h-334.032c-13.367 0-24.203 10.837-24.203 24.204z" fill="#d8ecfe"/><path d="m423.016 192.596h-35.585c13.367 0 24.204 10.836 24.204 24.204v263.496c0 13.367-10.836 24.204-24.204 24.204h46.771c7.19 0 13.018-5.828 13.018-13.018v-274.682c0-13.367-10.837-24.204-24.204-24.204z" fill="#bddbff"/><path d="m94.952 366.318v-134.281c0-5.12 4.15-9.27 9.27-9.27h303.557c5.12 0 9.27 4.15 9.27 9.27v134.281c0 5.12-4.15 9.27-9.27 9.27h-303.558c-5.119 0-9.269-4.15-9.269-9.27z" fill="#fdb441"/></g><g><path d="m423.016 185.097h-60.846v-4.557c0-5.007-2.512-9.63-6.738-12.379l-56.915-36.787c-3.147-2.037-6.801-3.114-10.566-3.114h-3.951v-14.568h8.348c12.177 0 22.083-9.906 22.083-22.083s-9.906-22.083-22.083-22.083h-8.348v-6.186c0-4.042 3.288-7.33 7.33-7.33h64.66c4.143 0 7.5-3.357 7.5-7.5s-3.357-7.5-7.5-7.5h-64.66c-12.312 0-22.33 10.018-22.33 22.33v6.186h-26v-9.886c0-24.615 20.021-44.64 44.63-44.64h68.36c4.143 0 7.5-3.357 7.5-7.5s-3.357-7.5-7.5-7.5h-68.36c-32.88 0-59.63 26.754-59.63 59.64v9.886h-8.348c-12.177 0-22.083 9.906-22.083 22.083s9.906 22.083 22.083 22.083h8.348v14.568h-3.95c-3.766 0-7.419 1.077-10.562 3.111l-56.938 36.802c-4.208 2.737-6.72 7.36-6.72 12.367v4.557h-60.846c-17.481 0-31.704 14.222-31.704 31.703v36.279c0 4.143 3.357 7.5 7.5 7.5s7.5-3.357 7.5-7.5v-36.279c0-9.21 7.493-16.703 16.704-16.703h334.031c9.211 0 16.704 7.493 16.704 16.703v115.232c0 4.143 3.357 7.5 7.5 7.5s7.5-3.357 7.5-7.5v-115.232c.001-17.482-14.222-31.703-31.703-31.703zm-210.447-93.489c0-3.905 3.178-7.083 7.083-7.083h72.695c3.905 0 7.083 3.178 7.083 7.083s-3.178 7.083-7.083 7.083c-21.643 0-47.019-.001-72.695 0-3.905.001-7.083-3.177-7.083-7.083zm30.431 22.083h26v14.568h-26zm-78.17 66.991 56.806-36.716c.713-.462 1.548-.706 2.414-.706h63.9c.866 0 1.701.244 2.419.709l56.801 36.713v4.415h-182.34z"/><path d="m447.22 359.732c-4.143 0-7.5 3.357-7.5 7.5v38.28h-367.44v-117.233c0-4.143-3.357-7.5-7.5-7.5s-7.5 3.357-7.5 7.5v203.203c0 11.313 9.205 20.518 20.519 20.518h356.402c11.313 0 20.519-9.204 20.519-20.518v-124.25c0-4.142-3.358-7.5-7.5-7.5zm-183.72 60.781h97.688v76.487h-97.688zm-15 76.487h-97.688v-76.487h97.688zm-176.22-5.518v-70.97h63.531v76.488h-58.012c-3.043 0-5.519-2.476-5.519-5.518zm361.921 5.518h-58.013v-76.487h63.531v70.97c.001 3.041-2.475 5.517-5.518 5.517z"/><path d="m407.778 383.088c9.247 0 16.771-7.522 16.771-16.77v-134.281c0-9.247-7.523-16.77-16.771-16.77h-303.556c-9.247 0-16.771 7.522-16.771 16.77v134.281c0 9.247 7.523 16.77 16.771 16.77zm-305.327-16.77v-134.281c0-.976.794-1.77 1.771-1.77h303.557c.977 0 1.771.794 1.771 1.77v134.281c0 .976-.794 1.77-1.771 1.77h-303.557c-.977 0-1.771-.794-1.771-1.77z"/><path d="m142.426 356.097h15.397c4.143 0 7.5-3.357 7.5-7.5s-3.357-7.5-7.5-7.5h-15.397c-4.143 0-7.5 3.357-7.5 7.5s3.357 7.5 7.5 7.5z"/><path d="m142.426 331.37h15.397c4.143 0 7.5-3.357 7.5-7.5s-3.357-7.5-7.5-7.5h-15.397c-4.143 0-7.5 3.357-7.5 7.5s3.357 7.5 7.5 7.5z"/><path d="m195.363 356.097h15.397c4.143 0 7.5-3.357 7.5-7.5s-3.357-7.5-7.5-7.5h-15.397c-4.143 0-7.5 3.357-7.5 7.5s3.358 7.5 7.5 7.5z"/><path d="m195.363 331.37h15.397c4.143 0 7.5-3.357 7.5-7.5s-3.357-7.5-7.5-7.5h-15.397c-4.143 0-7.5 3.357-7.5 7.5s3.358 7.5 7.5 7.5z"/><path d="m248.301 356.097h15.398c4.143 0 7.5-3.357 7.5-7.5s-3.357-7.5-7.5-7.5h-15.398c-4.143 0-7.5 3.357-7.5 7.5s3.357 7.5 7.5 7.5z"/><path d="m248.301 331.37h15.398c4.143 0 7.5-3.357 7.5-7.5s-3.357-7.5-7.5-7.5h-15.398c-4.143 0-7.5 3.357-7.5 7.5s3.357 7.5 7.5 7.5z"/><path d="m301.239 356.097h15.397c4.143 0 7.5-3.357 7.5-7.5s-3.357-7.5-7.5-7.5h-15.397c-4.143 0-7.5 3.357-7.5 7.5s3.358 7.5 7.5 7.5z"/><path d="m301.239 331.37h15.397c4.143 0 7.5-3.357 7.5-7.5s-3.357-7.5-7.5-7.5h-15.397c-4.143 0-7.5 3.357-7.5 7.5s3.358 7.5 7.5 7.5z"/><path d="m354.177 356.097h15.397c4.143 0 7.5-3.357 7.5-7.5s-3.357-7.5-7.5-7.5h-15.397c-4.143 0-7.5 3.357-7.5 7.5s3.357 7.5 7.5 7.5z"/><path d="m354.177 331.37h15.397c4.143 0 7.5-3.357 7.5-7.5s-3.357-7.5-7.5-7.5h-15.397c-4.143 0-7.5 3.357-7.5 7.5s3.357 7.5 7.5 7.5z"/></g></g><g/><g/><g/><g/><g/><g/><g/><g/><g/><g/><g/><g/><g/><g/><g/></svg>