<svg id="Capa_1" enable-background="new 0 0 512 512" viewBox="0 0 512 512" xmlns="http://www.w3.org/2000/svg"><g><g><path d="m371.252 100.307c0 38.752-31.414 70.165-70.166 70.165s-70.166-31.413-70.166-70.165 31.414-70.169 70.166-70.169 70.166 31.418 70.166 70.169z" fill="#678d98"/><path d="m301.086 30.14c-5.052 0-9.976.546-14.725 1.56 31.68 6.768 55.442 34.907 55.442 68.606s-23.762 61.839-55.442 68.606c4.75 1.015 9.673 1.56 14.725 1.56 38.752 0 70.166-31.413 70.166-70.165s-31.414-70.167-70.166-70.167z" fill="#537983"/><path d="m284.351 11.121v168.756c0 6.936 5.622 12.558 12.558 12.558h8.354c6.936 0 12.558-5.623 12.558-12.558v-168.756c0-2-1.621-3.621-3.621-3.621h-26.229c-1.999 0-3.62 1.621-3.62 3.621z" fill="#d8ecfe"/><path d="m416.272 355.737c0 35.048-28.411 63.458-63.459 63.458s-63.461-28.409-63.461-63.457 28.412-63.46 63.46-63.46 63.46 28.412 63.46 63.459z" fill="#678d98"/><path d="m352.812 292.278c-5.346 0-10.534.667-15.494 1.912 27.557 6.916 47.965 31.844 47.965 61.546s-20.408 54.63-47.965 61.546c4.96 1.245 10.148 1.914 15.494 1.914 35.048 0 63.459-28.41 63.459-63.458.001-35.048-28.411-63.46-63.459-63.46z" fill="#537983"/><path d="m336.078 346.303v82.624c0 6.936 5.623 12.558 12.558 12.558h8.354c6.936 0 12.558-5.623 12.558-12.558v-82.624c0-2-1.621-3.621-3.621-3.621h-26.229c-1.999-.001-3.62 1.621-3.62 3.621z" fill="#d8ecfe"/></g><path d="m349.516 471.678c6.941-2.339 11.605-8.792 11.605-16.058v-7.068c9.085-1.91 15.929-9.981 15.929-19.625v-6.486c27.778-10.083 46.722-36.728 46.722-66.702 0-16.147-5.432-31.044-14.55-42.982l-33.739-190.049c2.129-7.121 3.269-14.645 3.269-22.398 0-33.91-21.691-63.447-53.429-73.796v-15.393c-.001-6.132-4.99-11.121-11.122-11.121h-26.228c-6.132 0-11.121 4.989-11.121 11.121v15.393c-33.108 10.795-55.709 42.739-53.232 79.155l-62.975 109.373c-2.336.068-4.664.719-6.795 1.965l-58.544 34.256c-4.448 2.603-7.094 7.232-7.076 12.387.018 5.153 2.695 9.766 7.161 12.337l58.303 33.574c4.485 2.583 9.854 2.575 14.366-.021 4.479-2.578 7.165-7.182 7.183-12.341v-67.803c.009-2.435-.574-4.745-1.648-6.782l54.734-95.06c8.108 21.758 25.716 39.105 48.525 46.542v5.781c0 9.928 7.257 18.171 16.74 19.76v20.353c0 .829-.542 1.546-1.394 1.829-12.646 4.239-20.426 16.483-18.919 29.769 1.189 10.567 8.405 19.418 18.073 23.028v45.724c-6.03 10.428-9.5 22.512-9.5 35.399 0 6.52.892 12.995 2.651 19.243 1.122 3.986 5.267 6.311 9.251 5.187 3.987-1.123 6.31-5.265 5.187-9.252-1.386-4.926-2.089-10.032-2.089-15.179 0-30.856 25.104-55.96 55.96-55.96s55.96 25.103 55.96 55.96c0 21.747-12.646 41.264-31.722 50.439v-59.877c0-6.132-4.989-11.121-11.122-11.121h-26.23c-6.132 0-11.121 4.989-11.121 11.121v59.874c-4.955-2.386-9.568-5.5-13.63-9.237-3.049-2.804-7.793-2.604-10.598.443-2.804 3.049-2.605 7.794.443 10.598 6.887 6.333 15.024 11.262 23.785 14.452v6.495c0 10.206 7.668 18.638 17.542 19.882v6.811c0 .821-.561 1.561-1.374 1.836-12.647 4.219-20.435 16.458-18.939 29.763 1.452 12.896 11.874 23.25 24.782 24.619 1.022.108 2.038.162 3.046.162 11.217-.001 21.336-6.599 25.774-17.102 1.612-3.815-.174-8.215-3.99-9.827-3.814-1.613-8.215.174-9.828 3.989-2.246 5.314-7.637 8.48-13.42 7.861-5.969-.633-10.787-5.419-11.458-11.38-.697-6.198 2.914-11.896 8.802-13.861zm-189.275-175.655-56.311-32.428 56.311-32.948zm203.51-195.713c0 6.747-1.076 13.274-3.063 19.414-.024.07-.047.141-.069.211-5.607 17.113-18.389 31.137-35.297 38.175v-115.61c23.034 9.589 38.429 32.145 38.429 57.81zm-71.899 79.567v-89.381c0-4.143-3.358-7.5-7.5-7.5s-7.5 3.357-7.5 7.5v67.614c-23.035-9.587-38.431-32.14-38.431-57.8 0-25.666 15.396-48.222 38.431-57.81v12.996c0 4.143 3.358 7.5 7.5 7.5s7.5-3.357 7.5-7.5v-40.496h18.471v164.877c0 2.789-2.269 5.059-5.058 5.059h-8.354c-2.79-.001-5.059-2.27-5.059-5.059zm14.499 122.295v-26.31c9.042-1.708 16.797-7.761 20.529-16.594 1.612-3.815-.174-8.216-3.99-9.828-3.817-1.611-8.215.175-9.828 3.99-1.368 3.238-3.908 5.668-6.989 6.941-.875-3.171-3.773-5.502-7.223-5.502-2.607 0-4.902 1.332-6.246 3.351-2.404-2.076-4.05-5.013-4.422-8.316-.702-6.194 2.909-11.895 8.77-13.859 6.961-2.32 11.639-8.772 11.639-16.056v-20.354c9.479-1.592 16.731-9.834 16.731-19.759v-5.781c16.075-5.241 29.572-15.399 38.978-28.56l26.709 150.45c-11.036-7.08-24.14-11.205-38.198-11.205-17.758 0-34.001 6.572-46.46 17.392zm37.227 126.755v-78.746h18.471v78.746c0 2.789-2.27 5.058-5.059 5.058-.252 0-8.818 0-8.354 0-2.788 0-5.058-2.269-5.058-5.058z"/></g><g/><g/><g/><g/><g/><g/><g/><g/><g/><g/><g/><g/><g/><g/><g/></svg>