<svg id="Capa_1" enable-background="new 0 0 512 512" viewBox="0 0 512 512" xmlns="http://www.w3.org/2000/svg"><g><g><path d="m192.562 471.05h-134.962c-37.323 0-61.509-39.387-44.618-72.661l66.399-130.851c3.517-6.959 5.362-14.638 5.362-22.439v-83.429h80.678v83.428c0 7.801 1.832 15.48 5.361 22.439l66.398 130.852c16.891 33.274-7.295 72.661-44.618 72.661z" fill="#62dbfb"/><path d="m237.18 398.389-66.398-130.852c-3.529-6.959-5.361-14.638-5.361-22.439v-83.428h-45.225v83.426c0 7.801 1.733 15.479 5.07 22.438l62.785 130.854c15.972 33.274-6.897 72.661-42.189 72.661h46.701c37.323.001 61.508-39.386 44.617-72.66z" fill="#01d0fb"/><path d="m192.562 471.05h-134.962c-37.33 0-61.508-39.391-44.618-72.661l28.17-55.509c3.25 1.16 6.7 2.19 10.38 3.07 61.26 14.64 63.87-40.2 125.149-25.56 10.37 2.48 18.92 6.11 26.25 10.51l34.249 67.489c16.89 33.27-7.288 72.661-44.618 72.661z" fill="#fdb441"/><path d="m202.931 330.9c-7.33-4.4-15.88-8.03-26.25-10.51-10.562-2.523-19.381-2.982-27.058-2.089l38.427 80.087c15.931 33.188-6.781 72.461-41.919 72.661h46.431c37.33 0 61.508-39.391 44.618-72.661z" fill="#fe9738"/><path d="m160.249 137.672h-70.334c-10.476 0-18.969 8.493-18.969 18.969s8.493 18.968 18.969 18.968h70.334c10.476 0 18.969-8.492 18.969-18.969 0-10.475-8.493-18.968-18.969-18.968z" fill="#d8ecfe"/><path d="m160.249 137.672h-39.368c10.476 0 18.969 8.492 18.969 18.968s-8.493 18.969-18.969 18.969h39.368c10.476 0 18.969-8.493 18.969-18.969 0-10.475-8.493-18.968-18.969-18.968z" fill="#bddbff"/><path d="m337.918 56.882-106.64 182.661c-12.509 21.426 2.945 48.343 27.755 48.343h213.28c24.81 0 40.264-26.917 27.755-48.343l-106.64-182.661c-12.405-21.247-43.106-21.246-55.51 0z" fill="#d8ecfe"/><path d="m500.068 239.543-106.64-182.661c-10.29-17.624-33.161-20.615-47.743-8.999 2.997 2.387 5.652 5.376 7.767 8.999l106.64 182.661c12.509 21.426-2.946 48.343-27.755 48.343h39.976c24.809 0 40.263-26.918 27.755-48.343z" fill="#bddbff"/><ellipse cx="365.673" cy="241.934" fill="#fe76a8" rx="16.048" ry="16.048" transform="matrix(.383 -.924 .924 .383 2.218 487.187)"/><path d="m346.463 117.906 3.276 65.286c.398 7.926 6.94 14.149 14.877 14.149h2.113c7.936 0 14.479-6.223 14.877-14.149l3.276-65.286c.551-10.987-8.208-20.198-19.21-20.198s-19.761 9.21-19.209 20.198z" fill="#fe76a8"/><g fill="#fed2a4"><ellipse cx="70.736" cy="394.466" rx="15.5" ry="15.5" transform="matrix(.987 -.16 .16 .987 -62.273 16.424)"/><path d="m127.465 405.508c-9.877 0-17.884 8.007-17.884 17.884s8.007 17.884 17.884 17.884 17.883-8.008 17.883-17.884c.001-9.879-8.006-17.884-17.883-17.884z"/></g></g><g><path d="m506.527 235.763-106.638-182.658c-7.184-12.306-19.981-19.654-34.231-19.654s-27.046 7.348-34.231 19.654l-11.097 19.006c-2.089 3.577-.882 8.17 2.695 10.258 3.575 2.088 8.171.881 10.258-2.695l11.096-19.006c4.467-7.649 12.421-12.217 21.278-12.217s16.811 4.567 21.278 12.217l106.638 182.658c4.503 7.714 4.537 16.944.089 24.69-4.447 7.746-12.434 12.371-21.367 12.371h-213.276c-8.932 0-16.92-4.625-21.367-12.371s-4.413-16.976.09-24.69l77.927-133.48c2.089-3.577.882-8.17-2.695-10.258-3.576-2.089-8.17-.883-10.258 2.695l-77.928 133.48c-7.245 12.41-7.299 27.259-.144 39.721 6.903 12.024 19.114 19.352 32.872 19.853l-42.609 42.612-37.45-73.8c-2.976-5.867-4.549-12.454-4.549-19.048v-65.227c8.214-4.498 13.797-13.224 13.797-23.231 0-14.595-11.873-26.468-26.468-26.468h-70.332c-14.595 0-26.468 11.874-26.468 26.468 0 10.006 5.582 18.73 13.794 23.229v65.229c0 6.577-1.574 13.167-4.549 19.05l-5.15 10.16c-1.873 3.694-.396 8.207 3.298 10.08 1.087.551 2.245.812 3.385.812 2.736 0 5.373-1.503 6.695-4.111l5.154-10.166c4.035-7.977 6.167-16.907 6.167-25.825v-61.99h65.679v61.99c0 8.94 2.134 17.873 6.172 25.834l22.564 44.466c-2.662-.855-5.399-1.628-8.233-2.306-33.708-8.056-52.097 3.518-68.321 13.728-18.126 11.406-31.32 18.343-58.22 11.478l13.197-26.008c1.874-3.693.399-8.207-3.294-10.082-3.69-1.873-8.207-.4-10.081 3.295l-45.41 89.488c-9.119 17.964-8.27 38.941 2.271 56.115 10.546 17.181 28.878 27.439 49.035 27.439h134.958c20.16 0 38.492-10.257 49.037-27.436 10.541-17.174 11.39-38.153 2.27-56.116l-21.807-42.974 56.631-56.635h193.617c14.37 0 27.22-7.44 34.375-19.902 7.156-12.464 7.102-27.312-.144-39.722zm-416.622-90.588h70.333c6.324 0 11.468 5.144 11.468 11.469 0 6.323-5.144 11.468-11.468 11.468h-70.333c-6.324 0-11.469-5.144-11.469-11.468s5.145-11.469 11.469-11.469zm140.575 256.61c6.741 13.279 6.114 28.786-1.679 41.481-7.796 12.7-21.348 20.283-36.253 20.283h-134.958c-14.903 0-28.455-7.584-36.251-20.286-7.792-12.695-8.421-28.201-1.68-41.48l25.28-49.82c1.595.458 3.207.891 4.841 1.281 7.908 1.89 14.968 2.698 21.359 2.698 20.842 0 34.528-8.611 46.942-16.424 15.708-9.886 29.272-18.421 56.845-11.835 8.277 1.979 15.596 4.81 22.321 8.607l6.504 12.817-47.034 47.038c-2.929 2.929-2.928 7.678 0 10.606 2.93 2.928 7.678 2.929 10.607-.001l43.568-43.572z"/><path d="m365.658 218.387c-12.984 0-23.548 10.563-23.548 23.548s10.564 23.549 23.548 23.549 23.548-10.564 23.548-23.549-10.564-23.548-23.548-23.548zm0 32.096c-4.714 0-8.549-3.835-8.549-8.549 0-4.713 3.835-8.548 8.549-8.548 4.713 0 8.548 3.835 8.548 8.548 0 4.715-3.835 8.549-8.548 8.549z"/><path d="m365.658 90.211c-15.246 0-27.471 12.727-26.7 28.073l3.276 65.285c.598 11.929 10.423 21.272 22.367 21.272h2.113c11.943 0 21.767-9.344 22.367-21.272l3.276-65.286c.767-15.258-11.365-28.072-26.699-28.072zm11.72 27.321-3.276 65.284c-.198 3.939-3.442 7.025-7.387 7.025h-2.113c-3.944 0-7.188-3.085-7.387-7.024l-3.276-65.285c-.334-6.683 4.975-12.321 11.72-12.321 6.704 0 12.055 5.599 11.719 12.321z"/><path d="m70.726 371.465c-12.682 0-23 10.317-23 23s10.318 23 23 23 23-10.317 23-23-10.318-23-23-23zm0 31c-4.411 0-8-3.589-8-8s3.589-8 8-8 8 3.589 8 8-3.589 8-8 8z"/><path d="m146.658 426.153c-3.551-2.135-8.159-.982-10.291 2.569-1.899 3.162-5.231 5.051-8.912 5.051-5.726 0-10.384-4.658-10.384-10.384 0-5.725 4.658-10.383 10.384-10.383 4.142 0 7.5-3.357 7.5-7.5s-3.358-7.5-7.5-7.5c-13.996 0-25.383 11.387-25.383 25.382 0 13.997 11.387 25.383 25.383 25.383 8.863 0 17.206-4.725 21.773-12.33 2.131-3.549.981-8.156-2.57-10.288z"/></g></g><g/><g/><g/><g/><g/><g/><g/><g/><g/><g/><g/><g/><g/><g/><g/></svg>