<svg id="Capa_1" enable-background="new 0 0 512 512" viewBox="0 0 512 512" xmlns="http://www.w3.org/2000/svg"><g><g><path d="m305.455 277.046h-98.911l-118.555 38.933c-18.804 6.175-31.518 23.728-31.518 43.52v136.239c0 4.84 3.928 8.762 8.768 8.762h381.524c4.84 0 8.766-3.922 8.766-8.762v-136.24c0-19.792-12.713-37.345-31.517-43.52z" fill="#d8ecfe"/><path d="m424.011 315.979-118.556-38.932h-29.459l-.722 19 118.556 38.932c18.804 6.175 31.515 23.728 31.515 43.52v117.239c0 4.84-3.924 8.764-8.764 8.764h30.181c4.84 0 8.766-3.923 8.766-8.762v-136.242c0-19.791-12.713-37.345-31.517-43.519z" fill="#bddbff"/><path d="m359.068 330.752-24.107-52.554c-2.839-6.191-9.022-10.159-15.834-10.159h-126.255c-6.812 0-12.994 3.968-15.834 10.159l-24.107 52.554c-1.257 2.741.705 5.874 3.72 5.938l22.998.49c2.853.061 4.81 2.891 3.861 5.582l-7.85 22.248c-.482 1.367-.221 2.888.687 4.019l79.653 99.201 79.652-99.203c.908-1.131 1.17-2.651.687-4.019l-7.85-22.248c-.949-2.691 1.009-5.521 3.861-5.582l22.998-.49c3.015-.062 4.977-3.196 3.72-5.936z" fill="#62dbfb"/><path d="m207.16 229.182v63.029c0 3.122.737 6.203 2.15 8.987l40.029 78.83c2.768 5.451 10.553 5.451 13.321 0l40.029-78.83c1.414-2.784 2.15-5.865 2.15-8.987v-63.029z" fill="#fed2a4"/><path d="m379.903 91.467c-17.305-67.418-75.246-83.967-123.903-83.967s-106.597 16.55-123.902 83.968c-18.236 71.043 35.772 122.575 65.784 131.769h116.236c30.012-9.194 84.021-60.726 65.785-131.77z" fill="#d8ecfe"/><path d="m379.903 91.467c-17.305-67.418-75.246-83.967-123.903-83.967-7.964 0-16.177.447-24.42 1.484 42.116 5.3 85.012 26.099 99.484 82.481 18.236 71.043-35.774 122.577-65.786 131.771h48.84c30.012-9.193 84.021-60.725 65.785-131.769z" fill="#bddbff"/><path d="m170.993 136.984v42.423c0 46.948 38.059 85.007 85.007 85.007s85.007-38.059 85.007-85.007v-42.423c0-19.932-11.023-38.216-28.615-47.588-37.595-20.03-75.19-20.03-112.786 0-17.59 9.372-28.613 27.656-28.613 47.588z" fill="#fed2a4"/><path d="m275.18 165.489h-38.359c-28.029 26.032-35.562 58.072-35.388 79.089 14.766 12.377 33.793 19.837 54.568 19.837s39.802-7.46 54.568-19.837c.172-21.018-7.36-53.057-35.389-79.089z" fill="#d8ecfe"/><path d="m170.993 136.984v36.354c43.768 29.213 56.955 12.14 72.213 1.802 7.699-5.217 17.89-5.217 25.589 0 15.258 10.338 28.444 27.411 72.213-1.802v-36.354c0-4.16-.487-8.246-1.407-12.197h-167.202c-.92 3.95-1.406 8.037-1.406 12.197z" fill="#62dbfb"/></g><g><path d="m426.35 308.854-81.328-26.708-3.243-7.069c-4.044-8.831-12.935-14.537-22.648-14.537h-6.79v-7.815c11.993-9.237 21.55-21.248 27.813-34.919 31.424-22.98 62.01-69.767 47.013-128.196-1.321-5.158-2.923-10.207-4.763-15.004-1.482-3.867-5.816-5.804-9.688-4.318-3.868 1.482-5.801 5.82-4.318 9.688 1.634 4.261 3.06 8.754 4.238 13.359 10.447 40.7-4.422 74.986-24.829 97.46.46-3.732.701-7.532.701-11.387v-34.814c7.078-2.119 13.178-6.891 16.504-13.228 1.924-3.668.511-8.202-3.156-10.127-3.674-1.924-8.201-.51-10.127 3.156-.836 1.593-2.18 2.994-3.812 4.077-2.549-18.287-13.229-34.527-29.271-44.142l3.571-6.23c2.06-3.594.816-8.177-2.777-10.236-3.594-2.059-8.177-.816-10.236 2.777l-3.988 6.958c-13.865-6.049-27.786-9.541-41.715-10.461v-8.578c0-4.143-3.357-7.5-7.5-7.5s-7.5 3.357-7.5 7.5v8.578c-13.929.92-27.85 4.412-41.715 10.461l-3.988-6.958c-2.06-3.594-6.642-4.836-10.236-2.777-3.594 2.06-4.837 6.643-2.777 10.236l3.571 6.23c-16.042 9.614-26.722 25.854-29.271 44.142-1.632-1.083-2.976-2.484-3.812-4.077-1.926-3.667-6.457-5.08-10.127-3.156-3.667 1.925-5.08 6.459-3.156 10.127 3.326 6.337 9.426 11.109 16.504 13.228v34.814c0 3.855.241 7.655.701 11.387-20.407-22.475-35.276-56.76-24.829-97.46 9.168-35.736 36.848-78.335 116.634-78.335 29.593 0 70.274 6.398 96.031 36.881 2.673 3.164 7.406 3.562 10.569.888 3.164-2.673 3.562-7.405.888-10.569-29.47-34.879-74.718-42.2-107.488-42.2-69.755 0-116.337 31.822-131.165 89.605-14.999 58.434 15.588 105.22 47.012 128.2 6.255 13.653 15.804 25.669 27.813 34.919v7.815h-6.79c-9.714 0-18.604 5.706-22.646 14.532l-3.245 7.074-81.326 26.708c-21.94 7.196-36.683 27.55-36.683 50.646v11.09c0 4.143 3.357 7.5 7.5 7.5s7.5-3.357 7.5-7.5v-11.089c0-16.597 10.593-31.222 26.36-36.394l68.119-22.371-12.343 26.902c-1.641 3.596-1.363 7.74.742 11.088 2.102 3.342 5.709 5.384 9.643 5.463l18.423.393-6.331 17.947c-1.341 3.822-.63 8.001 1.918 11.197l77.999 97.144v26.131h-125.394v-80.535c0-4.143-3.357-7.5-7.5-7.5s-7.5 3.357-7.5 7.5v80.535h-42.866c-.7 0-1.271-.565-1.271-1.26v-90.15c0-4.143-3.357-7.5-7.5-7.5s-7.5 3.357-7.5 7.5v90.15c0 8.966 7.299 16.26 16.271 16.26h381.52c8.972 0 16.271-7.294 16.271-16.26v-136.24c-.001-23.096-14.743-43.449-36.681-50.646zm-107.22-33.314c3.865 0 7.402 2.271 9.014 5.788l22.01 47.971-17.963.383c-3.737.079-7.238 1.963-9.365 5.038-2.126 3.074-2.651 7.014-1.408 10.535l7.236 20.511-65.154 81.144v-57.303c2.455-1.42 4.502-3.535 5.848-6.182l40.037-78.845c1.934-3.827 2.955-8.104 2.955-12.371v-16.67h6.79zm-110.148-34.574c.365-10.307 2.831-27.177 13.161-45.183 8.508-2.21 14.877-6.877 20.633-11.111 1.605-1.182 3.122-2.297 4.637-3.323 5.137-3.48 12.039-3.48 17.176 0 1.515 1.026 3.031 2.142 4.637 3.323 5.755 4.234 12.125 8.901 20.633 11.111 10.33 18.006 12.796 34.876 13.161 45.183-13.051 9.992-29.349 15.948-47.018 15.948s-33.969-5.956-47.02-15.948zm-30.226-108.679h154.488c.479 4.725.164 3.919.264 36.987-32.1 20.447-42.927 12.487-55.395 3.314-1.65-1.214-3.355-2.469-5.111-3.658-10.17-6.891-23.834-6.891-34.004 0-1.756 1.189-3.461 2.444-5.111 3.658-12.469 9.171-23.296 17.133-55.395-3.314.1-33.224-.214-32.272.264-36.987zm137.98 95.186c-1.418-8.938-4.223-19.618-9.571-30.937 7.873-1.188 16.412-4.35 25.972-9.608-1.474 15.229-7.381 29.172-16.401 40.545zm-113.602-131.457c34.977-18.635 69.623-19.238 105.732 0 9.052 4.822 16.038 12.352 20.228 21.271h-146.188c4.189-8.919 11.176-16.449 20.228-21.271zm-24.271 90.904c9.561 5.257 18.102 8.418 25.977 9.606-5.352 11.323-8.157 22.006-9.576 30.946-9.021-11.374-14.929-25.32-16.401-40.552zm77.137 84.994c14.85 0 28.891-3.522 41.34-9.768v30.063c0 1.929-.465 3.868-1.337 5.595l-39.969 78.817-.013-.001-40.017-78.802c-.879-1.741-1.344-3.681-1.344-5.609v-30.063c12.449 6.246 26.49 9.768 41.34 9.768zm-72.653 93.852 7.234-20.508c1.245-3.524.72-7.464-1.406-10.538-2.127-3.075-5.628-4.959-9.365-5.038l-17.963-.383 22.012-47.976c1.609-3.513 5.146-5.783 9.012-5.783h6.79v16.67c0 4.267 1.021 8.544 2.962 12.386l40.032 78.833c1.344 2.646 3.391 4.759 5.846 6.179v57.303zm264.683 129.974c0 .694-.57 1.26-1.271 1.26h-42.866v-80.535c0-4.143-3.357-7.5-7.5-7.5s-7.5 3.357-7.5 7.5v80.535h-125.393v-26.131l78.016-97.164c2.531-3.176 3.242-7.354 1.896-11.19l-6.326-17.934 18.414-.393c3.942-.079 7.55-2.121 9.651-5.463 2.105-3.348 2.383-7.492.735-11.104l-12.336-26.887 68.121 22.371c15.766 5.172 26.358 19.797 26.358 36.394v136.241z"/><path d="m218.549 160.118v-4.837c0-4.143-3.357-7.5-7.5-7.5s-7.5 3.357-7.5 7.5v4.837c0 4.143 3.357 7.5 7.5 7.5s7.5-3.357 7.5-7.5z"/><path d="m300.951 167.618c4.143 0 7.5-3.357 7.5-7.5v-4.837c0-4.143-3.357-7.5-7.5-7.5s-7.5 3.357-7.5 7.5v4.837c0 4.143 3.358 7.5 7.5 7.5z"/></g></g><g/><g/><g/><g/><g/><g/><g/><g/><g/><g/><g/><g/><g/><g/><g/></svg>