<svg id="Capa_1" enable-background="new 0 0 512 512" viewBox="0 0 512 512" xmlns="http://www.w3.org/2000/svg"><g><g><path d="m499.17 285.27v-58.54h-19.64c-16.365 0-31.353-9.163-38.812-23.73l-48.906-95.505c-7.861-15.35-5.936-33.891 4.911-47.299l12.846-15.879-45.512-36.817-23.486 29.033c-8.279 10.234-20.738 16.18-33.901 16.18h-101.34c-13.163 0-25.622-5.946-33.901-16.18l-23.486-29.033-45.512 36.817 12.846 15.879c10.846 13.408 12.772 31.949 4.911 47.299l-48.906 95.505c-7.459 14.567-22.447 23.73-38.812 23.73h-19.64v58.539h19.639c16.365 0 31.353 9.163 38.812 23.73l48.906 95.505c7.861 15.35 5.936 33.891-4.911 47.299l-12.846 15.879 45.512 36.817 23.486-29.033c8.279-10.234 20.738-16.18 33.901-16.18h101.34c13.163 0 25.622 5.946 33.901 16.18l23.486 29.033 45.512-36.817-12.846-15.879c-10.846-13.408-12.771-31.949-4.911-47.299l48.908-95.504c7.459-14.566 22.447-23.73 38.812-23.73z" fill="#0ed2b3"/><path d="m318.333 89.545h-124.667c-14.061 0-26.938 7.873-33.346 20.388l-42.507 83.007c-20.276 39.595-20.276 86.525 0 126.12l42.507 83.007c6.409 12.515 19.286 20.388 33.346 20.388h124.667c14.061 0 26.938-7.873 33.346-20.388l42.507-83.007c20.276-39.595 20.276-86.525 0-126.12l-42.507-83.007c-6.408-12.515-19.285-20.388-33.346-20.388z" fill="#5de1c4"/><path d="m479.53 226.73c-16.365 0-31.353-9.164-38.812-23.73l-48.906-95.505c-7.861-15.35-5.935-33.891 4.911-47.299l12.846-15.879-45.512-36.817-23.486 29.033c-7.679 9.493-18.957 15.288-31.056 16.078 9.056 4.353 16.648 11.586 21.397 20.86l53.117 103.728c25.338 49.479 25.338 108.124 0 157.604l-53.117 103.728c-4.749 9.274-12.34 16.507-21.397 20.86 12.099.791 23.376 6.586 31.056 16.078l23.486 29.033 45.512-36.817-12.846-15.879c-10.846-13.408-12.771-31.949-4.911-47.299l48.907-95.507c7.459-14.566 22.447-23.73 38.812-23.73h19.64v-58.54z" fill="#0ab69f"/><path d="m252.784 142.5c-25.275-16.062-60.731-5.531-79.193 23.521s-12.942 65.626 12.333 81.688c25.274 16.062 60.731 5.529 79.194-23.523s12.94-65.624-12.334-81.686z" fill="#fe76a8"/><path d="m230.914 176.914c-7.845-4.985-19.38-.882-25.764 9.164s-5.201 22.232 2.644 27.218c7.845 4.985 19.38.882 25.764-9.165s5.2-22.232-2.644-27.217z" fill="#fe5694"/><path d="m357.85 220.144c11.092 7.124 16.174 20.697 12.49 33.355l-17.863 61.374c-7.618 26.175-23.272 49.294-44.749 66.085-15.674 12.255-37.678 12.268-53.366.031-25.391-19.805-21.093-59.4 7.957-73.294 12.715-6.081 23.039-16.227 29.341-28.834l23.488-46.985c7.914-15.83 27.811-21.297 42.702-11.732z" fill="#01d0fb"/><ellipse cx="185.627" cy="344.582" fill="#fed2a4" rx="15.388" ry="27.939" transform="matrix(.859 -.511 .511 .859 -150.109 143.397)"/></g><g><path d="m209.314 82.045h-15.647c-16.957 0-32.293 9.376-40.021 24.469l-42.507 83.007c-21.316 41.628-21.316 91.331 0 132.959l42.507 83.006c7.729 15.094 23.064 24.47 40.021 24.47h124.667c16.958 0 32.294-9.376 40.022-24.469l42.507-83.007c21.316-41.628 21.316-91.331 0-132.959l-42.507-83.006c-7.729-15.094-23.064-24.47-40.022-24.47h-74.019c-4.143 0-7.5 3.357-7.5 7.5s3.357 7.5 7.5 7.5h74.019c11.301 0 21.52 6.248 26.671 16.307l42.507 83.007c19.124 37.346 19.124 81.937 0 119.283l-42.507 83.008c-5.15 10.058-15.37 16.306-26.671 16.306h-124.668c-11.301 0-21.52-6.248-26.67-16.307l-42.507-83.007c-19.124-37.346-19.124-81.937 0-119.283l42.507-83.008c5.15-10.058 15.369-16.306 26.67-16.306h15.647c4.143 0 7.5-3.357 7.5-7.5.001-4.143-3.357-7.5-7.499-7.5z"/><path d="m256.807 136.17c-14.084-8.951-31.242-11.088-48.309-6.017-16.692 4.957-31.337 16.268-41.237 31.846-20.65 32.497-14.083 73.787 14.642 92.041 9.23 5.866 19.638 8.649 30.204 8.649 22.316 0 45.326-12.426 59.342-34.48 20.65-32.496 14.082-73.784-14.642-92.039zm1.98 83.994c-16.216 25.516-47.097 35.035-68.841 21.216-21.743-13.818-26.241-45.819-10.026-71.336 7.959-12.524 19.625-21.584 32.848-25.512 4.633-1.376 9.255-2.057 13.76-2.057 7.989 0 15.606 2.143 22.234 6.354 21.743 13.819 26.24 45.819 10.025 71.335z"/><path d="m234.937 170.584c-5.701-3.622-12.979-4.276-19.966-1.791-6.435 2.288-12.171 6.998-16.151 13.263-3.98 6.263-5.81 13.456-5.149 20.254.717 7.381 4.398 13.692 10.101 17.316 3.419 2.173 7.405 3.277 11.556 3.277 2.771 0 5.613-.492 8.41-1.486 6.435-2.289 12.171-6.999 16.151-13.264 3.98-6.264 5.81-13.457 5.149-20.254-.718-7.381-4.399-13.692-10.101-17.315zm-7.709 29.524c-2.163 3.404-5.269 6.02-8.519 7.176-1.53.544-4.459 1.228-6.894-.318-2.432-1.545-3.059-4.489-3.216-6.106-.333-3.434.717-7.354 2.88-10.759 2.163-3.404 5.268-6.02 8.519-7.175.828-.295 2.068-.631 3.417-.631 1.142 0 2.361.24 3.477.949 2.432 1.545 3.059 4.488 3.216 6.104.332 3.434-.717 7.356-2.88 10.76z"/><path d="m345.276 312.776c-3.775 12.971-9.628 25.152-17.396 36.206-2.382 3.389-1.565 8.067 1.823 10.448 3.391 2.384 8.068 1.564 10.448-1.823 8.72-12.407 15.29-26.08 19.527-40.64l17.862-61.373c4.58-15.733-1.851-32.906-15.638-41.762-8.887-5.707-19.825-7.375-30.008-4.578-10.184 2.798-18.732 9.821-23.454 19.268l-23.488 46.985c-5.529 11.059-14.717 20.086-25.87 25.421-16.003 7.654-26.699 22.752-28.614 40.388-1.914 17.635 5.294 34.677 19.281 45.587 9.206 7.181 20.229 10.77 31.262 10.77 14.126 0 24.751-5.286 34.339-13.224 3.189-2.643 3.633-7.37.99-10.561-2.644-3.189-7.371-3.633-10.561-.99-.882.731-2.672 2.149-2.672 2.149-12.985 10.155-31.135 10.166-44.134.026-9.861-7.691-14.943-19.707-13.593-32.14 1.35-12.434 8.891-23.079 20.174-28.476 14.147-6.766 25.801-18.218 32.813-32.245l23.489-46.985c2.862-5.727 7.838-9.814 14.012-11.511 6.175-1.694 12.539-.724 17.927 2.735 8.236 5.29 12.078 15.549 9.342 24.948z"/><path d="m195.083 377.37c3.073 0 6.012-.755 8.667-2.334 5.901-3.513 9.118-10.544 8.826-19.293-.243-7.264-2.829-15.385-7.281-22.866-10.332-17.363-26.579-25.424-37.791-18.749-11.211 6.674-11.876 24.798-1.545 42.159 7.885 13.251 19.215 21.083 29.124 21.083zm-19.908-50.354c1.959-1.164 10.439 2.121 17.229 13.531 3.135 5.267 5.022 10.987 5.18 15.696.113 3.372-.701 5.423-1.505 5.901-1.974 1.169-10.441-2.12-17.23-13.529-6.79-11.408-5.641-20.428-3.674-21.599z"/><path d="m499.17 277.769h-19.639c-19.274 0-36.704 10.657-45.488 27.811l-48.906 95.505c-9.204 17.975-6.945 39.734 5.756 55.434l12.846 15.879c1.482 1.832 3.649 2.783 5.836 2.783 1.656 0 3.324-.546 4.712-1.669 3.221-2.605 3.72-7.328 1.114-10.548l-12.846-15.879c-8.973-11.092-10.569-26.465-4.066-39.164l48.906-95.505c6.206-12.119 18.52-19.648 32.137-19.648h19.639c4.143 0 7.5-3.357 7.5-7.5s-3.359-7.499-7.501-7.499z"/><path d="m346.401 470.75c-9.748-12.052-24.229-18.964-39.731-18.964h-101.34c-15.501 0-29.982 6.912-39.732 18.964l-23.486 29.032c-2.605 3.22-2.106 7.942 1.114 10.548s7.943 2.105 10.548-1.114l23.486-29.032c6.888-8.515 17.119-13.397 28.07-13.397h101.34c10.951 0 21.183 4.883 28.069 13.397l23.486 29.032c1.482 1.832 3.649 2.783 5.836 2.783 1.656 0 3.324-.546 4.712-1.669 3.221-2.605 3.72-7.328 1.114-10.548z"/><path d="m77.957 305.582c-8.784-17.155-26.214-27.812-45.488-27.812h-19.639c-4.143 0-7.5 3.357-7.5 7.5s3.357 7.5 7.5 7.5h19.639c13.617 0 25.931 7.529 32.137 19.649l48.906 95.503c6.503 12.7 4.906 28.073-4.066 39.165l-12.846 15.878c-2.605 3.22-2.106 7.942 1.114 10.548 1.388 1.123 3.056 1.669 4.712 1.669 2.187 0 4.354-.951 5.836-2.783l12.846-15.879c12.701-15.7 14.96-37.46 5.756-55.435z"/><path d="m12.83 234.23h19.64c19.273 0 36.703-10.657 45.487-27.811l48.906-95.505c9.204-17.975 6.945-39.734-5.756-55.434l-12.846-15.879c-2.605-3.22-7.328-3.721-10.548-1.114-3.221 2.605-3.72 7.328-1.114 10.548l12.846 15.879c8.973 11.092 10.569 26.465 4.066 39.164l-48.906 95.505c-6.205 12.118-18.519 19.647-32.135 19.647h-19.64c-4.143 0-7.5 3.357-7.5 7.5s3.358 7.5 7.5 7.5z"/><path d="m165.598 41.249c9.75 12.052 24.231 18.964 39.732 18.964h101.34c15.502 0 29.983-6.912 39.731-18.964l23.486-29.032c2.605-3.22 2.106-7.942-1.114-10.548-3.222-2.605-7.943-2.105-10.548 1.114l-23.486 29.032c-6.887 8.515-17.118 13.397-28.069 13.397h-101.34c-10.951 0-21.183-4.883-28.07-13.397l-23.486-29.032c-2.604-3.22-7.328-3.72-10.548-1.114-3.221 2.605-3.72 7.328-1.114 10.548z"/><path d="m434.043 206.418c8.784 17.155 26.214 27.812 45.487 27.812h19.64c4.143 0 7.5-3.357 7.5-7.5s-3.357-7.5-7.5-7.5h-19.64c-13.616 0-25.93-7.529-32.136-19.649l-48.906-95.503c-6.503-12.7-4.906-28.073 4.066-39.165l12.846-15.879c2.605-3.22 2.106-7.942-1.114-10.548s-7.943-2.105-10.548 1.114l-12.846 15.88c-12.701 15.7-14.96 37.46-5.756 55.435z"/><path d="m279.275 125.65c-3.173 2.663-3.586 7.394-.924 10.566 10.515 12.527 16.655 29.091 16.849 45.445.048 4.111 3.396 7.411 7.497 7.411.03 0 .061 0 .091-.001 4.142-.049 7.46-3.445 7.41-7.588-.236-20.051-7.466-39.552-20.356-54.91-2.664-3.172-7.396-3.584-10.567-.923z"/><path d="m306.785 116.117c-3.03 2.824-3.197 7.57-.374 10.601 10.169 10.912 15.987 25.727 15.964 40.643-.007 4.142 3.346 7.505 7.488 7.512h.012c4.137 0 7.493-3.351 7.5-7.488.029-18.679-7.257-37.228-19.989-50.893-2.824-3.03-7.569-3.2-10.601-.375z"/><path d="m135.624 205.403c-4.145-.237-7.687 2.909-7.932 7.043-1.569 26.473 14.259 52.482 38.492 63.252 3.797 1.689 8.223-.036 9.899-3.808 1.683-3.785-.022-8.218-3.808-9.899-18.346-8.153-30.798-28.616-29.609-48.656.246-4.136-2.907-7.686-7.042-7.932z"/></g></g><g/><g/><g/><g/><g/><g/><g/><g/><g/><g/><g/><g/><g/><g/><g/></svg>