<svg id="Capa_1" enable-background="new 0 0 512 512" viewBox="0 0 512 512" xmlns="http://www.w3.org/2000/svg"><g><g><g><path d="m499.594 382.409-38.985-69.092c-2.69-4.767-4.103-10.148-4.103-15.621v-33.556c0-2.309 1.504-4.301 3.681-5.068 6.066-2.138 10.413-7.917 10.413-14.715 0-8.617-6.986-15.603-15.603-15.603h-42.978c-8.617 0-15.603 6.986-15.603 15.603 0 6.797 4.348 12.577 10.413 14.715 2.177.767 3.681 2.76 3.681 5.068v33.556c0 5.473-1.413 10.854-4.103 15.621l-38.985 69.092c-2.813 4.985-4.582 10.531-4.862 16.248-1 20.451 15.285 37.346 35.516 37.346h70.862c20.231 0 36.517-16.895 35.516-37.346-.278-5.717-2.047-11.263-4.86-16.248z" fill="#d8ecfe"/><path d="m504.456 398.657c-.28-5.717-2.049-11.263-4.862-16.248l-38.985-69.092c-2.69-4.767-4.103-10.148-4.103-15.621v-33.556c0-2.309 1.504-4.301 3.681-5.068 6.066-2.138 10.413-7.917 10.413-14.715 0-8.617-6.986-15.603-15.603-15.603h-19.552v71.942c0 5.473 1.097 10.854 3.184 15.621l30.25 69.092c2.183 4.985 3.555 10.531 3.772 16.248.581 15.304-6.35 28.615-16.453 34.346h12.741c20.232 0 36.517-16.895 35.517-37.346z" fill="#bddbff"/><path d="m367.423 382.409c-2.813 4.985-4.582 10.531-4.862 16.248-1 20.451 15.285 37.346 35.516 37.346h70.862c20.231 0 36.517-16.895 35.516-37.346-.28-5.717-2.049-11.263-4.862-16.248l-27.532-48.794h-77.108z" fill="#5de1c4"/><path d="m456.198 436.003h12.741c20.231 0 36.517-16.895 35.516-37.346-.28-5.717-2.049-11.263-4.862-16.248l-27.532-48.794h-25.86l22.676 51.794c2.183 4.985 3.555 10.531 3.772 16.248.583 15.304-6.348 28.614-16.451 34.346z" fill="#0ed2b3"/><path d="m158.317 329.105-21.028 94.958h98.46l-21.028-94.958z" fill="#678d98"/><path d="m7.5 86.456v251.669c0 5.776 4.683 10.459 10.459 10.459h337.12c5.776 0 10.459-4.683 10.459-10.459v-251.669c0-5.776-4.683-10.459-10.459-10.459h-337.12c-5.777 0-10.459 4.683-10.459 10.459z" fill="#62dbfb"/><path d="m355.079 75.997h-30.635c5.776 0 10.459 4.683 10.459 10.459v251.669c0 5.776-4.683 10.459-10.459 10.459h30.635c5.776 0 10.459-4.683 10.459-10.459v-251.669c0-5.776-4.683-10.459-10.459-10.459z" fill="#01d0fb"/><path d="m7.5 305.045v33.08c0 5.776 4.683 10.459 10.459 10.459h337.12c5.776 0 10.459-4.683 10.459-10.459v-33.08z" fill="#d8ecfe"/><path d="m365.538 338.125v-33.08h-30.635v33.08c0 5.776-4.683 10.459-10.459 10.459h30.635c5.776.001 10.459-4.682 10.459-10.459z" fill="#bddbff"/><path d="m112.763 403.198h147.512c4.725 0 8.908 3.052 10.35 7.551l5.051 15.759c1.505 4.695-1.998 9.495-6.928 9.495h-164.458c-4.93 0-8.433-4.8-6.928-9.495l5.051-15.759c1.442-4.499 5.625-7.551 10.35-7.551z" fill="#d8ecfe"/><path d="m118.847 124.145v180.9h30.281v-180.9c0-5.719-4.636-10.355-10.355-10.355h-9.571c-5.719.001-10.355 4.637-10.355 10.355z" fill="#678d98"/><path d="m203.837 158.854v100.711c0 11.944 9.683 21.627 21.627 21.627 11.945 0 21.627-9.683 21.627-21.627v-100.711c0-3.139-2.544-5.683-5.683-5.683h-31.888c-3.138.001-5.683 2.545-5.683 5.683z" fill="#d8ecfe"/><path d="m203.837 221.377v38.189c0 11.944 9.683 21.627 21.627 21.627 11.945 0 21.627-9.683 21.627-21.627v-38.189z" fill="#fe76a8"/></g></g><path d="m511.947 398.29c-.324-6.625-2.336-13.392-5.821-19.567l-3.692-6.543c-2.035-3.607-6.609-4.881-10.218-2.846-3.607 2.036-4.881 6.61-2.846 10.218l3.692 6.543c2.343 4.152 3.692 8.622 3.902 12.929.381 7.777-2.354 15.152-7.701 20.767-5.351 5.619-12.568 8.713-20.324 8.713h-70.862c-7.755 0-14.973-3.094-20.324-8.713-5.347-5.614-8.082-12.99-7.701-20.767.21-4.306 1.56-8.776 3.902-12.928l25.38-44.979h68.349l4.457 7.9c2.036 3.607 6.611 4.883 10.217 2.846 3.607-2.035 4.882-6.61 2.846-10.217l-18.063-32.013c-2.051-3.634-3.135-7.761-3.135-11.935v-32.064c8.486-3.593 14.094-11.97 14.094-21.275 0-12.739-10.364-23.103-23.103-23.103h-13.988v-40.646c0-31.86-25.924-57.78-57.789-57.78-3.475 0-6.874.326-10.182.917v-37.291c0-9.903-8.057-17.959-17.959-17.959h-258.636c-4.142 0-7.5 3.358-7.5 7.5s3.358 7.5 7.5 7.5h258.636c1.632 0 2.959 1.328 2.959 2.959v42.159c-19.278 9.374-32.599 29.157-32.599 51.994v44.43c0 8.05-6.554 14.6-14.61 14.6-8.05 0-14.6-6.55-14.6-14.6v-89.69c0-21.576-17.554-39.13-39.13-39.13s-39.13 17.554-39.13 39.13v10.321h-8.45c-7.269 0-13.183 5.914-13.183 13.183v18.036h-39.709v-52.745c0-9.845-8.01-17.855-17.855-17.855h-9.571c-9.845 0-17.854 8.01-17.854 17.855v52.745h-10.669c-4.142 0-7.5 3.358-7.5 7.5s3.358 7.5 7.5 7.5h10.669v105.654h-96.346v-211.087c0-1.632 1.328-2.959 2.959-2.959h43.483c4.142 0 7.5-3.358 7.5-7.5s-3.358-7.5-7.5-7.5h-43.483c-9.902 0-17.959 8.056-17.959 17.959v251.669c0 9.903 8.057 17.959 17.959 17.959h126.706l-8.775 39.613h-23.127c-8.016 0-15.045 5.129-17.492 12.762l-5.051 15.758c-1.436 4.478-.638 9.419 2.134 13.218 2.771 3.799 7.234 6.067 11.936 6.067h164.457c4.702 0 9.165-2.268 11.936-6.067s3.569-8.74 2.134-13.218l-5.051-15.759c-2.446-7.633-9.476-12.762-17.492-12.762h-23.126l-8.776-39.613h126.705c9.903 0 17.959-8.056 17.959-17.959v-199.06c3.265-.8 6.673-1.234 10.182-1.234 23.594 0 42.789 19.191 42.789 42.78v40.644h-13.99c-12.739 0-23.103 10.364-23.103 23.103 0 9.305 5.607 17.682 14.094 21.274v32.065c0 4.174-1.084 8.301-3.135 11.935l-38.986 69.092c-3.484 6.175-5.497 12.941-5.82 19.566-.583 11.918 3.615 23.228 11.821 31.844 8.209 8.621 19.285 13.369 31.186 13.369h70.862c11.901 0 22.977-4.748 31.186-13.369 8.209-8.616 12.408-19.925 11.825-31.843zm-300.61-237.618h28.255v16.219h-28.255zm0 68.205h28.255v30.688c0 7.79-6.337 14.127-14.127 14.127s-14.127-6.337-14.127-14.127v-30.688zm28.255-15h-28.255v-21.986h28.255zm-113.245-89.731c0-1.574 1.28-2.855 2.854-2.855h9.571c1.574 0 2.855 1.281 2.855 2.855v52.745h-15.281v-52.745zm0 67.745h15.281v105.654h-15.281zm137.136 221.147 4.957 15.465h-163.84l4.957-15.465c.449-1.4 1.738-2.34 3.208-2.34h29.082c.024 0 .048.004.072.004.015 0 .03-.004.045-.004h89.115c.015 0 .03.004.045.004.024 0 .048-.004.072-.004h29.081c1.468 0 2.757.94 3.206 2.34zm-41.697-17.34h-70.532l8.775-39.613h52.982zm133.293-54.614h-337.12c-1.632 0-2.959-1.327-2.959-2.959v-25.581h343.038v25.581c0 1.632-1.328 2.959-2.959 2.959zm2.959-43.539h-201.41v-105.654h39.709v67.675c0 16.061 13.066 29.127 29.127 29.127s29.127-13.066 29.127-29.127v-67.675h6.791c4.142 0 7.5-3.358 7.5-7.5s-3.358-7.5-7.5-7.5h-6.791v-18.036c0-7.269-5.914-13.183-13.183-13.183h-8.439v-10.322c0-13.305 10.825-24.13 24.13-24.13s24.13 10.825 24.13 24.13v89.69c0 16.322 13.278 29.6 29.6 29.6 16.327 0 29.61-13.278 29.61-29.6v-44.43c0-14.181 6.941-26.765 17.599-34.553zm53.981-61.291h42.978c4.468 0 8.103 3.635 8.103 8.103 0 3.431-2.173 6.501-5.405 7.641-5.197 1.831-8.689 6.71-8.689 12.142v33.557c0 6.751 1.753 13.428 5.071 19.306l5.142 9.113h-51.421l5.142-9.112c3.318-5.879 5.071-12.555 5.071-19.307v-33.557c0-5.431-3.492-10.311-8.688-12.141-3.233-1.14-5.406-4.211-5.406-7.642-.001-4.468 3.634-8.103 8.102-8.103z"/></g><g/><g/><g/><g/><g/><g/><g/><g/><g/><g/><g/><g/><g/><g/><g/></svg>