<svg id="Capa_1" enable-background="new 0 0 512 512" viewBox="0 0 512 512" xmlns="http://www.w3.org/2000/svg"><g><g><path d="m28.848 217.165v192.281c0 43.466 35.235 78.7 78.701 78.7s78.704-35.235 78.704-78.701v-192.28z" fill="#62dbfb"/><path d="m152.768 217.165v192.278c0 37.718-26.54 69.223-61.96 76.9 5.397 1.17 10.993 1.804 16.741 1.804 43.466 0 78.704-35.235 78.704-78.701v-192.281z" fill="#01d0fb"/><path d="m186.253 286.878v122.568c0 43.462-35.232 78.701-78.704 78.701-43.462 0-78.701-35.239-78.701-78.7v-132.372c9.752-4.117 20.848-7.633 39.823-7.633 45.694 0 45.694 20.381 91.377 20.381 10.934 0 19.255-1.172 26.205-2.945z" fill="#fdb441"/><path d="m152.768 289.634v119.81c0 37.718-26.54 69.223-61.96 76.9l.019.007c5.391 1.167 10.982 1.797 16.722 1.797 43.472 0 78.704-35.239 78.704-78.701v-122.569c-6.95 1.773-15.271 2.945-26.205 2.945-2.568 0-4.984-.068-7.28-.189z" fill="#fe9738"/><path d="m40.778 175.78v32.307h133.544v-32.307c0-9.966-8.078-18.043-18.043-18.043h-97.458c-9.966.001-18.043 8.077-18.043 18.043z" fill="#fdb441"/><path d="m156.279 157.738h-33.484c9.966 0 18.044 8.077 18.044 18.043v32.307h33.483v-32.308c0-9.966-8.078-18.042-18.043-18.042z" fill="#fe9738"/><path d="m7.5 214.381c0-9.331 7.567-16.893 16.898-16.893h166.305c9.331 0 16.897 7.562 16.897 16.894 0 9.331-7.566 16.897-16.897 16.897h-166.305c-9.331 0-16.898-7.566-16.898-16.898z" fill="#d8ecfe"/><path d="m190.703 197.488h-33.482c9.331 0 16.896 7.563 16.896 16.894s-7.564 16.896-16.896 16.896h33.482c9.331 0 16.897-7.566 16.897-16.897 0-9.33-7.566-16.893-16.897-16.893z" fill="#bddbff"/><path d="m28.847 405.499h38.031c3.97 0 7.189-3.218 7.189-7.189v-88.341c0-3.97-3.218-7.189-7.189-7.189h-38.031z" fill="#d8ecfe"/><path d="m339.138 39.671-105.858 181.322c-12.417 21.269 2.924 47.988 27.552 47.988h211.717c24.628 0 39.969-26.72 27.552-47.988l-105.859-181.322c-12.314-21.091-42.79-21.091-55.104 0z" fill="#fe76a8"/><path d="m500.1 220.993-105.858-181.322c-10.207-17.483-32.886-20.458-47.363-8.957 2.987 2.374 5.634 5.349 7.74 8.957l105.858 181.322c12.417 21.268-2.924 47.988-27.552 47.988h39.623c24.628 0 39.969-26.72 27.552-47.988z" fill="#fe5694"/><path d="m425.596 166.743c0-29.692-26.373-53.763-58.906-53.763s-58.906 24.07-58.906 53.763c0 18.904 10.691 31.132 26.855 37.523 5.409 2.139 9.013 7.302 9.013 13.119v10.019c0 4.471 3.625 8.096 8.096 8.096h29.883c4.471 0 8.096-3.625 8.096-8.096v-10.019c0-5.817 3.604-10.98 9.013-13.119 16.165-6.391 26.856-18.619 26.856-37.523z" fill="#d8ecfe"/></g><g><path d="m506.56 217.211-105.855-181.315c-7.141-12.233-19.863-19.536-34.027-19.536-14.166 0-26.886 7.303-34.027 19.536l-105.855 181.315c-7.203 12.336-7.256 27.097-.144 39.485 3.727 6.491 9.018 11.594 15.256 14.998l-48.163 48.163v-32.981c0-.017-.003-.034-.003-.051v-48.243c12.019-1.506 21.349-11.781 21.349-24.202 0-13.448-10.945-24.389-24.399-24.389h-8.88v-14.21c0-14.082-11.457-25.539-25.539-25.539h-45.069c-4.142 0-7.5 3.358-7.5 7.5s3.357 7.5 7.5 7.5h45.069c5.811 0 10.54 4.728 10.54 10.539v14.21h-118.534v-14.21c0-5.811 4.728-10.539 10.54-10.539h17.389c4.142 0 7.5-3.358 7.5-7.5s-3.357-7.5-7.5-7.5h-17.39c-14.083 0-25.539 11.457-25.539 25.539v14.21h-8.879c-13.454 0-24.4 10.941-24.4 24.389 0 12.42 9.331 22.695 21.349 24.202 0 0-.002 151.543-.002 170.857 0 11.883 2.417 23.212 6.785 33.521 13.102 30.928 43.766 52.68 79.414 52.68 32.677 0 61.165-18.277 75.779-45.145 6.644-12.214 10.421-26.202 10.421-41.057v-68.368l64.669-64.669c.798.047 1.599.078 2.407.078h88.356c4.142 0 7.5-3.358 7.5-7.5s-3.357-7.5-7.5-7.5h-88.356c-8.846 0-16.757-4.58-21.161-12.252-4.405-7.673-4.372-16.814.088-24.454l105.855-181.315c4.424-7.576 12.301-12.099 21.074-12.099s16.651 4.523 21.074 12.099l105.854 181.316c4.461 7.64 4.494 16.782.089 24.454s-12.316 12.252-21.162 12.252h-88.355c-4.142 0-7.5 3.358-7.5 7.5s3.357 7.5 7.5 7.5h88.355c14.284 0 27.058-7.395 34.17-19.783 7.113-12.388 7.059-27.149-.143-39.486zm-399.015 263.427c-29.443 0-54.769-17.965-65.593-43.508-3.17-7.482-5.093-15.616-5.513-24.137h30.437c8.099 0 14.688-6.589 14.688-14.688v-88.338c0-8.099-6.589-14.688-14.688-14.688h-30.528v-13.129c7.411-2.76 17.008-5.208 32.32-5.208 21.25 0 31.639 4.634 42.637 9.54 11.947 5.329 24.3 10.839 48.737 10.839 6.731 0 12.918-.427 18.702-1.297v38.836l-45.102 45.102c-2.929 2.929-2.929 7.677 0 10.606 2.93 2.929 7.677 2.929 10.607 0l34.495-34.495v53.371c0 12.268-3.119 23.821-8.605 33.908-12.073 22.191-35.604 37.286-62.594 37.286zm71.199-199.816c-5.657 1.005-11.827 1.498-18.702 1.498-21.243 0-31.63-4.633-42.627-9.539-11.948-5.329-24.303-10.841-48.747-10.841-13.976 0-24.087 1.848-32.32 4.382v-27.543h142.396zm-142.396 29.455h30.216v87.716h-30.216zm-21.348-95.897c0-5.177 4.217-9.389 9.4-9.389h166.294c5.182 0 9.399 4.212 9.399 9.389 0 5.183-4.217 9.4-9.399 9.4h-166.294c-5.184 0-9.4-4.217-9.4-9.4z"/><path d="m351.737 242.999h29.882c8.599 0 15.595-6.996 15.595-15.595v-10.018c0-2.706 1.677-5.118 4.271-6.144 20.374-8.055 31.596-23.858 31.596-44.497 0-33.78-29.788-61.261-66.403-61.261s-66.404 27.482-66.404 61.261c0 20.638 11.221 36.44 31.597 44.497 2.595 1.026 4.27 3.437 4.27 6.144v10.018c0 8.599 6.997 15.595 15.596 15.595zm-36.463-76.255c0-25.509 23.06-46.262 51.405-46.262 28.344 0 51.404 20.753 51.404 46.262 0 14.469-7.439 24.747-22.112 30.548-8.356 3.304-13.755 11.191-13.755 20.093v10.018c0 .329-.268.596-.596.596h-29.882c-.329 0-.597-.267-.597-.596v-10.018c0-8.903-5.399-16.789-13.754-20.093-14.674-5.801-22.113-16.079-22.113-30.548z"/><path d="m346.952 174.258v-10.84c0-4.142-3.357-7.5-7.5-7.5-4.142 0-7.5 3.358-7.5 7.5v10.84c0 4.142 3.357 7.5 7.5 7.5s7.5-3.358 7.5-7.5z"/><path d="m393.903 181.758c4.142 0 7.5-3.358 7.5-7.5v-10.84c0-4.142-3.357-7.5-7.5-7.5-4.142 0-7.5 3.358-7.5 7.5v10.84c0 4.142 3.358 7.5 7.5 7.5z"/></g></g><g/><g/><g/><g/><g/><g/><g/><g/><g/><g/><g/><g/><g/><g/><g/></svg>