<svg id="Capa_1" enable-background="new 0 0 512 512" viewBox="0 0 512 512" xmlns="http://www.w3.org/2000/svg"><g><g><path d="m28.8 217.3v105.2l22.5 23.7-22.5 32.3v30.5c0 43.3 35.1 78.5 78.5 78.5s78.5-35.1 78.5-78.5v-191.7z" fill="#62dbfb"/><path d="m152.4 217.3v191.7c0 37.6-26.5 69-61.8 76.7 5.4 1.2 11 1.8 16.7 1.8 43.3 0 78.5-35.1 78.5-78.5v-191.7z" fill="#01d0fb"/><path d="m185.8 286.8v122.2c0 43.3-35.1 78.5-78.5 78.5-43.3 0-78.5-35.1-78.5-78.5v-38.5l11.9-22-11.9-26v-45.5c9.7-4.1 20.8-7.6 39.7-7.6 45.6 0 45.6 20.3 91.1 20.3 10.9 0 19.2-1.1 26.2-2.9z" fill="#fe76a8"/><path d="m152.4 289.5v119.5c0 37.6-26.5 69-61.8 76.7 5.4 1.2 11 1.8 16.7 1.8 43.4 0 78.5-35.1 78.5-78.5v-122.2c-6.9 1.8-15.2 2.9-26.1 2.9-2.6 0-5 0-7.3-.2z" fill="#fe5694"/><path d="m28.8 405.1h37.9c4 0 7.2-3.2 7.2-7.2v-88.1c0-4-3.2-7.2-7.2-7.2h-37.9z" fill="#d8ecfe"/><path d="m40.7 176v32.2h133.2v-32.2c0-9.9-8.1-18-18-18h-97.2c-10 0-18 8.1-18 18z" fill="#fdb441"/><path d="m155.9 158h-33.4c9.9 0 18 8.1 18 18v32.2h33.4v-32.2c0-9.9-8.1-18-18-18z" fill="#fe9738"/><path d="m7.5 214.5c0-9.3 7.5-16.9 16.9-16.9h165.9c9.3 0 16.9 7.5 16.9 16.9s-7.5 16.9-16.9 16.9h-165.9c-9.4-.1-16.9-7.6-16.9-16.9z" fill="#d8ecfe"/><path d="m190.2 197.6h-33.4c9.3 0 16.9 7.5 16.9 16.9s-7.5 16.9-16.9 16.9h33.4c9.3 0 16.9-7.5 16.9-16.9s-7.6-16.9-16.9-16.9z" fill="#bddbff"/><path d="m427.5 24.5h-123.5c-5.5 0-10.5 2.9-13.3 7.7l-61.7 106.8c-2.7 4.7-2.7 10.6 0 15.3l61.7 106.9c2.7 4.7 7.8 7.7 13.3 7.7h123.5c5.5 0 10.5-2.9 13.3-7.7l61.7-106.9c2.7-4.7 2.7-10.6 0-15.3l-61.8-106.9c-2.7-4.7-7.8-7.6-13.2-7.6z" fill="#d8ecfe"/><path d="m502.4 139-61.7-106.9c-2.7-4.7-7.8-7.7-13.3-7.7h-34.9c5.5 0 10.5 2.9 13.3 7.7l61.7 106.9c2.7 4.7 2.7 10.6 0 15.3l-61.7 106.9c-2.7 4.7-7.8 7.7-13.3 7.7h34.9c5.5 0 10.5-2.9 13.3-7.7l61.7-106.9c2.8-4.7 2.8-10.5 0-15.3z" fill="#bddbff"/><path d="m376.6 90.2c-5.2-7.6-16.5-7.6-21.7 0-13.7 20.1-35.6 54.7-35.6 72.3 0 25.6 20.8 46.4 46.4 46.4s46.4-20.8 46.4-46.4c0-17.6-21.8-52.2-35.5-72.3z" fill="#fe76a8"/></g><g><path d="m365.7 77c-6.8 0-13.2 3.4-17.1 9-24.5 35.8-36.9 61.5-36.9 76.5 0 29.7 24.2 53.9 53.9 53.9s53.9-24.2 53.9-53.9c0-15-12.4-40.8-36.9-76.5-3.7-5.7-10-9-16.9-9zm39 85.5c0 21.5-17.5 38.9-38.9 38.9s-38.9-17.5-38.9-38.9c0-11.3 12.8-36.7 34.2-68.1 1.5-2.2 3.8-2.5 4.7-2.5s3.2.2 4.7 2.5c21.4 31.4 34.2 56.8 34.2 68.1z"/><path d="m509 135.3-61.8-106.9c-4.1-7-11.6-11.4-19.8-11.4h-123.4c-8.1 0-15.7 4.4-19.8 11.4l-61.7 106.9c-4.1 7-4.1 15.8 0 22.8l48.4 83.9-77.7 77.7v-81c12-1.5 21.3-11.8 21.3-24.2 0-13.4-10.9-24.4-24.4-24.4h-8.8v-14.1c0-14.1-11.4-25.5-25.5-25.5h-97.1c-14.1 0-25.5 11.4-25.5 25.5v14.1h-8.8c-13.5 0-24.4 11-24.4 24.4 0 12.4 9.3 22.6 21.3 24.2v91.9c0 4.1 3.4 7.5 7.5 7.5s7.5-3.4 7.5-7.5v-20.4h30.1v87.4h-30.1v-32.2c0-4.1-3.4-7.5-7.5-7.5s-7.5 3.4-7.5 7.5v43.6c0 47.4 38.6 86 86 86s86-38.6 86-86v-68.2l85.4-85.4 5.5 9.6c4.1 7 11.6 11.4 19.8 11.4h123.5c8.1 0 15.7-4.4 19.8-11.4l21.4-37.1c2.1-3.6.8-8.2-2.7-10.2-3.6-2.1-8.2-.8-10.2 2.7l-21.4 37.1c-1.4 2.4-4 3.9-6.8 3.9h-123.6c-2.8 0-5.4-1.5-6.8-3.9l-61.7-106.9c-1.4-2.4-1.4-5.4 0-7.8l61.7-106.9c1.4-2.4 4-3.9 6.8-3.9h123.5c2.8 0 5.4 1.5 6.8 3.9l61.7 106.9c1.4 2.4 1.4 5.4 0 7.8l-22.9 39.6c-2.1 3.6-.8 8.2 2.7 10.2 3.6 2.1 8.2.8 10.2-2.7l22.9-39.6c4.1-7 4.1-15.8.1-22.8zm-472.7 103.5h142v41.9c-5.6 1-11.8 1.5-18.6 1.5-21.2 0-31.5-4.6-42.5-9.5-11.9-5.3-24.2-10.8-48.6-10.8-13.9 0-24 1.8-32.2 4.4-.1 0-.1-27.5-.1-27.5zm11.9-62.8c0-5.8 4.7-10.5 10.5-10.5h97.2c5.8 0 10.5 4.7 10.5 10.5v14.1h-118.2zm-33.2 38.5c0-5.2 4.2-9.4 9.4-9.4h165.9c5.2 0 9.4 4.2 9.4 9.4s-4.2 9.4-9.4 9.4h-165.9c-5.2-.1-9.4-4.3-9.4-9.4zm163.3 194.5c0 39.1-31.8 71-71 71-37.9 0-69-29.9-70.9-67.4h30.3c8.1 0 14.7-6.6 14.7-14.7v-88.1c0-8.1-6.6-14.7-14.7-14.7h-30.4v-13.1c7.4-2.8 17-5.2 32.2-5.2 21.2 0 31.5 4.6 42.5 9.5 11.9 5.3 24.2 10.8 48.6 10.8 6.7 0 12.9-.4 18.6-1.3v38.7l-45 45c-2.9 2.9-2.9 7.7 0 10.6 1.5 1.5 3.4 2.2 5.3 2.2s3.8-.7 5.3-2.2l34.4-34.4z"/></g></g></svg>