<svg id="Capa_1" enable-background="new 0 0 512 512" viewBox="0 0 512 512" xmlns="http://www.w3.org/2000/svg"><g><g><path d="m404.756 279.758c39.695 21.386 77.699 27.91 84.884 14.573s-19.169-41.485-58.864-62.871z" fill="#d8ecfe"/><path d="m426.832 452.908c-3.508-.921-5.643-4.426-5.023-7.999.886-5.11 1.375-10.353 1.443-15.701.688-53.92-42.619-98.84-96.53-100.016l-118.612 70.428c0 57.924 46.956 104.88 104.88 104.88h127.272c7.772 0 14.076-6.299 14.076-14.071v-1.836c0-17.13-11.682-31.532-27.506-35.685z" fill="#d8ecfe"/><path d="m345.202 55.204c-7.606 17.123-30.507 31.265-47.63 23.66-17.123-7.606-21.986-34.079-14.38-51.202s27.654-24.837 44.777-17.231c17.123 7.604 24.839 27.65 17.233 44.773z" fill="#bddbff"/><path d="m369.654 453.118c-8.357 7.57-17.55 14.693-27.636 21.279l-60.37 30.102h-26.56c-57.927 0-104.879-46.963-104.879-104.879 0-17.645 4.433-34.687 12.552-49.743 8.108-15.067 19.911-28.143 34.636-37.846l92.689-61.054c12.457-8.201 17.514-23.89 12.357-37.755-59.424 6.945-110.009-54.119-115.808-86.706-.624-3.509-.063-7.112 1.633-10.247 18.088-33.429 69.633-60.729 118.326-53.498 3.8.559 7.186-2.33 7.445-6.161.632-9.092 3.614-18.153 8.533-25.039 11.877-16.641 34.99-20.503 51.631-8.626s20.503 34.99 8.626 51.631c-2.092 2.941-4.683 5.676-7.614 8.12-2.578 2.154-2.732 6.079-.237 8.326 64.989 58.683 112.393 255.428-5.324 362.096z" fill="#d8ecfe"/><path d="m302.443 213.222c4.31 11.593 1.479 24.458-6.844 33.157 49.241 5.057 81.283-25.086 66.622-65.059-20.034 20.122-40.378 29.636-59.778 31.902z" fill="#bddbff"/><path d="m291.164 403.874-16.392 38.163 9 61.404 58.246-29.043c10.086-6.586 19.279-13.71 27.636-21.279 89.569-81.162 83.541-214.471 46.909-299.435 23.886 91.633 12.083 232.493-125.399 250.19z" fill="#bddbff"/><path d="m313.898 285.02c28.977 34.546 61.876 54.658 73.483 44.923 11.607-9.736-2.474-45.633-31.45-80.179z" fill="#d8ecfe"/><path d="m368.932 452.906c-3.508-.921-5.646-4.425-5.027-7.998.886-5.11 1.377-10.354 1.445-15.702.688-53.92-42.62-98.838-96.531-100.014l-117.203 87.655c8.217 49.728 51.415 87.654 103.472 87.654h127.274c7.772 0 14.073-6.301 14.073-14.073v-1.833c0-17.129-11.678-31.536-27.503-35.689z" fill="#d8ecfe"/><path d="m368.932 452.906c-3.508-.921-5.646-4.425-5.027-7.998.886-5.11 1.377-10.354 1.445-15.702.562-44.055-28.249-82.096-68.215-95.184 45.146 59.315 62.992 138.38-9.277 170.478h94.503c7.772 0 14.073-6.301 14.073-14.073v-1.833c.001-17.128-11.677-31.535-27.502-35.688z" fill="#bddbff"/><path d="m42.743 25.4v212.901c0 29.596 23.993 53.589 53.589 53.589s53.589-23.993 53.589-53.589v-212.901z" fill="#62dbfb"/><path d="m117.085 25.4v212.902c0 23.868-15.608 44.082-37.171 51.016 5.175 1.664 10.689 2.572 16.418 2.572 29.596 0 53.589-23.993 53.589-53.589v-212.901z" fill="#01d0fb"/><path d="m149.921 135.397c-3.863.534-8.212.852-13.27.852-36.912 0-36.912-16.467-73.832-16.467-8.272 0-14.682.831-20.077 2.115v116.405c0 29.596 23.993 53.589 53.589 53.589s53.589-23.993 53.589-53.589v-102.905z" fill="#fe76a8"/><path d="m149.921 238.301v-102.904c-3.863.534-8.212.852-13.27.852-8.01 0-14.278-.777-19.566-1.991v104.044c0 23.868-15.608 44.082-37.171 51.016 5.175 1.664 10.689 2.572 16.418 2.572 29.596.001 53.589-23.992 53.589-53.589z" fill="#fe5694"/><path d="m21.179 31.086c0 10.443 8.466 18.909 18.909 18.909h112.489c10.443 0 18.909-8.466 18.909-18.909s-8.466-18.909-18.909-18.909h-112.488c-10.444 0-18.91 8.466-18.91 18.909z" fill="#d8ecfe"/></g><g><path d="m445.859 231.49c-2.047-14.344-5.038-28.634-8.977-42.637-12.167-43.258-32.218-80.199-55.208-101.833 2.775-2.506 5.207-5.215 7.245-8.074 6.908-9.678 9.634-21.467 7.674-33.194-1.959-11.727-8.368-21.989-18.047-28.897-11.216-8.006-24.916-10.048-37.298-6.765-3.061-2.648-6.487-4.832-10.244-6.499-10.11-4.494-21.366-4.78-31.695-.805-10.326 3.974-18.489 11.731-22.985 21.847-4.049 9.13-5.124 20.272-3.205 30.727-13.7 1.899-27.423 5.98-40.397 12.151-22.766 10.828-41.376 27.303-51.058 45.2-2.433 4.496-3.328 9.659-2.522 14.537 4.787 28.964 41.078 77.463 89.305 90.656 8.284 2.266 17.84 3.72 28.273 3.294 1.214 9.115-2.792 18.266-10.77 23.522l-92.686 61.053c-31.66 20.854-50.561 55.938-50.561 93.85 0 21.366 5.996 41.358 16.39 58.384-8.462 20.358-28.411 33.813-50.698 33.813-19.117 0-36.564-9.704-46.671-25.962-7.607-12.226-5.424-28.407 5.196-38.477l18.367-17.437c11.456-10.867 16.498-26.608 13.486-42.107-3.013-15.503-13.584-28.213-28.28-34.001l-31.109-12.249c-3.854-1.517-8.209.376-9.726 4.231-1.518 3.854.376 8.208 4.231 9.726l31.109 12.249c9.9 3.899 17.022 12.461 19.051 22.905 2.029 10.44-1.368 21.043-9.087 28.365l-18.368 17.437c-15.761 14.946-18.96 39.037-7.609 57.281 12.862 20.688 35.07 33.039 59.408 33.039 25.337 0 48.306-13.661 60.604-35.043 20.632 24.573 51.561 40.223 86.081 40.223h185.166c11.899 0 21.579-9.676 21.579-21.57v-1.84c0-19.985-13.368-37.502-32.572-42.79.912-5.414 1.411-10.96 1.483-16.492.165-12.824-1.959-25.355-6.302-37.304 3.463-7.174 6.599-14.58 9.358-22.238 1.404-3.897-.616-8.194-4.513-9.598-3.898-1.406-8.194.616-9.598 4.513-10.497 29.129-26.49 54.539-47.574 75.698 7.324-62.796-41.414-117.335-103.132-118.681-4.119-.113-7.571 3.193-7.661 7.334s3.193 7.571 7.334 7.661c1.557.034 3.104.107 4.641.219 21.943 1.597 42.126 11.103 57.343 26.144 21.813 21.56 30.884 51.657 25.873 80.571-1.303 7.511 3.217 14.619 10.512 16.533.116.031.226.071.341.105.013.004.025.008.037.012 11.891 3.293 20.398 13.663 21.423 25.834.151 1.796.097 2.915.104 4.316.018 3.624-2.948 6.573-6.572 6.573h-127.27c-53.693 0-97.376-43.683-97.376-97.376 0-32.851 16.378-63.253 43.812-81.324l92.686-61.053c12.867-8.475 19.359-23.23 17.42-37.934 20.538-4.391 43.441-16.836 66.265-44.051 2.662-3.174 2.247-7.904-.927-10.566-3.173-2.662-7.904-2.247-10.566.927-15.33 18.279-31.767 30.552-48.855 36.479-14.634 5.075-29.819 5.524-45.133 1.335-18.868-5.161-37.9-17.528-53.59-34.822-13.299-14.659-22.831-31.447-24.874-43.812-.267-1.611.059-3.371.916-4.954 8.202-15.161 24.351-29.3 44.308-38.792 21.39-10.174 44.94-14.03 66.325-10.853 3.824.563 7.745-.51 10.761-2.942 3.075-2.479 4.992-6.173 5.258-10.119.547-7.874 3.155-15.6 7.155-21.201 9.455-13.247 27.923-16.332 41.167-6.879 6.418 4.581 10.668 11.385 11.967 19.16s-.508 15.591-5.091 22.012c-1.694 2.377-3.816 4.635-6.308 6.711-2.923 2.436-4.642 6.009-4.717 9.803-.075 3.751 1.477 7.341 4.256 9.85 21.65 19.548 40.787 54.653 52.505 96.314 12.95 46.044 15.255 95.245 6.49 138.539-.822 4.059 1.802 8.017 5.862 8.839.502.102 1.003.151 1.496.151 3.495 0 6.622-2.456 7.343-6.013 1.922-9.491 3.332-19.25 4.249-29.185 8.962 2.311 16.954 3.463 23.793 3.463 12.162 0 20.683-3.633 24.551-10.814 10.065-18.685-17.599-46.419-50.367-66.403zm-62.987 219.334c11.984-12.047 22.425-25.368 31.263-39.879 1.136 5.949 1.678 12.018 1.599 18.169-.063 4.876-.512 9.763-1.33 14.514-1.284 7.388 3.33 14.651 10.507 16.538 12.901 3.382 21.911 15.07 21.911 28.424v1.84c0 3.623-2.952 6.57-6.579 6.57h-37.356c.665-2.074 1.032-4.28 1.032-6.573-.097-.378 2.093-25.287-21.047-39.603zm-66.415-423.598c-5.488 7.683-8.967 17.584-9.843 27.986-6.035-.836-12.208-1.184-18.446-1.061-1.771-7.913-1.141-16.653 1.865-23.43 2.867-6.451 8.075-11.4 14.664-13.935s13.768-2.353 20.22.515c.269.119.53.249.794.377-3.465 2.634-6.596 5.824-9.254 9.548zm166.562 263.554c-1.367 2.54-11.806 5.458-34.12-.796.525-12.913.229-26.047-.867-39.223 10.741 7.383 19.825 15.132 26.257 22.486 8.253 9.435 9.743 15.654 8.73 17.533z"/><path d="m290.289 111.559v-3.384c0-4.142-3.358-7.5-7.5-7.5s-7.5 3.358-7.5 7.5v3.384c0 4.142 3.358 7.5 7.5 7.5s7.5-3.358 7.5-7.5z"/><path d="m361.052 317.694c-13.204-8.072-27.914-21.385-41.42-37.487-2.662-3.173-7.392-3.588-10.566-.926-3.173 2.662-3.588 7.392-.926 10.566 14.522 17.314 30.535 31.748 45.088 40.645 11.864 7.253 28.341 14.11 38.958 5.203 17.569-14.737-2.057-56.804-30.524-90.742-2.661-3.173-7.392-3.588-10.566-.926-3.173 2.662-3.588 7.392-.926 10.566 13.506 16.102 24.056 32.904 29.707 47.311 5.314 13.547 4.507 20.758 2.669 22.3-1.837 1.541-9.08 1.079-21.494-6.51z"/><path d="m274.759 146.808c2.982 0 5.802-1.79 6.971-4.729 1.531-3.849-.348-8.21-4.196-9.741l-23.706-9.431c-3.851-1.531-8.21.348-9.741 4.196-1.531 3.849.348 8.21 4.196 9.741l23.706 9.431c.91.361 1.848.533 2.77.533z"/><path d="m237.09 148.415c-2.915 2.942-2.893 7.691.049 10.606l21.181 20.985c1.462 1.449 3.371 2.172 5.279 2.172 1.931 0 3.861-.741 5.327-2.221 2.915-2.942 2.893-7.691-.049-10.606l-21.181-20.985c-2.942-2.915-7.691-2.893-10.606.049z"/><path d="m35.236 238.308c0 33.685 27.404 61.089 61.088 61.089s61.088-27.404 61.088-61.089v-181.253c12.255-2.282 21.565-13.049 21.565-25.956 0-14.562-11.847-26.409-26.408-26.409h-18.091c-4.142 0-7.5 3.358-7.5 7.5s3.358 7.5 7.5 7.5h18.091c6.291 0 11.409 5.118 11.409 11.409s-5.118 11.409-11.409 11.409h-2.56c-.033 0-.064-.005-.097-.005s-.064.004-.097.005h-106.982c-.033 0-.064-.005-.097-.005s-.064.004-.097.005h-2.555c-6.291 0-11.409-5.118-11.409-11.409s5.118-11.409 11.409-11.409h59.395c4.142 0 7.5-3.358 7.5-7.5s-3.358-7.5-7.5-7.5h-59.395c-14.562 0-26.408 11.847-26.408 26.408 0 12.906 9.307 23.671 21.56 25.955zm107.177-109.714c-17.648 1.011-27.129-1.843-39.623-7.416-9.336-4.164-19.917-8.885-39.975-8.885-4.472 0-8.637.239-12.579.706v-17.239h20.138c4.142 0 7.5-3.358 7.5-7.5s-3.358-7.5-7.5-7.5h-20.138v-23.252h92.177zm-46.089 155.803c-25.413 0-46.089-20.676-46.089-46.089v-7.952h20.138c4.142 0 7.5-3.358 7.5-7.5s-3.358-7.5-7.5-7.5h-20.137v-52.298h20.138c4.142 0 7.5-3.358 7.5-7.5s-3.358-7.5-7.5-7.5h-20.138v-19.936c3.854-.553 8.01-.83 12.579-.83 16.864 0 25.121 3.683 33.864 7.584 14.047 6.266 25.536 9.725 45.734 8.731v94.7c0 25.414-20.675 46.09-46.089 46.09z"/></g></g><g/><g/><g/><g/><g/><g/><g/><g/><g/><g/><g/><g/><g/><g/><g/></svg>