<svg id="Capa_1" enable-background="new 0 0 512 512" viewBox="0 0 512 512" xmlns="http://www.w3.org/2000/svg"><g><g><g><path d="m125.216 218.617c-9.652.926-19.135 3.626-27.885 8.065l-80.523 40.859c-8.368 4.246-11.712 14.472-7.467 22.839 4.246 8.367 14.477 11.706 22.839 7.463l80.525-40.858c10.635-5.396 23.2-6.253 34.47-2.347l67.115 23.26c8.864 3.073 18.545-1.622 21.619-10.489 3.072-8.866-1.626-18.546-10.491-21.619l-67.117-23.258c-10.664-3.694-21.984-4.98-33.085-3.915z" fill="#fe5694"/><path d="m251.778 431.553-62.305-122.791c-3.309-6.523-5.033-13.734-5.033-21.049v-114.696c0-4.421 2.295-8.451 5.937-10.958 4.244-2.921 7.024-7.811 7.024-13.352 0-8.948-7.253-16.205-16.201-16.205h-69.228c-8.948 0-16.201 7.258-16.201 16.206 0 5.541 2.784 10.431 7.028 13.352 3.642 2.507 5.933 6.538 5.933 10.959v114.694c0 7.314-1.723 14.526-5.032 21.049l-62.302 122.791c-15.846 31.23 6.843 68.188 41.863 68.188h126.652c35.019 0 57.711-36.958 41.865-68.188z" fill="#d8ecfe"/><path d="m251.778 431.553-62.305-122.791c-3.309-6.523-5.033-13.734-5.033-21.049v-114.696c0-4.421 2.295-8.451 5.937-10.958 4.244-2.921 7.024-7.811 7.024-13.352 0-8.948-7.253-16.205-16.201-16.205h-38.418c8.948 0 16.201 7.255 16.201 16.203 0 5.541-2.782 10.432-7.026 13.354-3.642 2.507-5.935 6.536-5.935 10.957v114.698c0 7.314 1.725 14.525 5.034 21.048l62.302 122.791c15.846 31.23-6.844 68.187-41.864 68.187h38.417c35.022.001 57.713-36.957 41.867-68.187z" fill="#bddbff"/><path d="m209.913 499.741h-126.653c-35.021 0-57.708-36.961-41.863-68.188l13.571-26.739c10.341-4.61 22.913-8.585 42.281-10.647 57.504-6.128 59.95 16.819 117.442 10.692 8.382-.895 15.494-2.152 21.69-3.658l15.396 30.353c15.846 31.226-6.843 68.187-41.864 68.187z" fill="#fdb441"/><path d="m251.778 431.553-15.396-30.353c-6.196 1.506-13.308 2.764-21.69 3.658-5.219.556-9.981.87-14.375.991l13.042 25.704c15.846 31.23-6.844 68.187-41.864 68.187h38.417c35.022.001 57.711-36.96 41.866-68.187z" fill="#fe9738"/><path d="m125.216 363.243c-9.652-.926-19.135-3.628-27.885-8.067l-80.525-40.859c-8.368-4.246-11.709-14.471-7.464-22.839 4.246-8.367 14.476-11.706 22.838-7.463l80.525 40.858c10.635 5.396 23.2 6.253 34.47 2.347l67.113-23.258c8.864-3.073 18.545 1.622 21.619 10.489 3.072 8.866-1.626 18.544-10.492 21.617l-67.115 23.259c-10.663 3.695-21.983 4.981-33.084 3.916z" fill="#fe76a8"/><g fill="#fdb441"><path d="m207.42 77.436c-8.708 0-15.767 7.059-15.767 15.767s7.059 15.767 15.767 15.767 15.768-7.059 15.768-15.767-7.059-15.767-15.768-15.767z"/><path d="m108.169 56.421c-8.708 0-15.767 7.059-15.767 15.767s7.059 15.767 15.767 15.767 15.768-7.059 15.768-15.767-7.06-15.767-15.768-15.767z"/><path d="m160.118 12.259c-8.708 0-15.767 7.059-15.767 15.767s7.059 15.767 15.767 15.767 15.768-7.059 15.768-15.767-7.06-15.767-15.768-15.767z"/></g></g></g><g><path d="m484.162 345.497-157.47-54.565 157.471-54.566c21.564-7.476 33.026-31.102 25.551-52.663l-4.521-13.051c-3.621-10.449-11.092-18.862-21.037-23.69-9.948-4.828-21.178-5.493-31.627-1.872l-69.843 24.201c-9.68 3.355-17.474 10.277-21.947 19.492-4.473 9.216-5.089 19.622-1.733 29.304l3.26 9.4c1.357 3.913 5.628 5.989 9.543 4.629 3.914-1.357 5.987-5.63 4.629-9.544l-3.259-9.399c-2.043-5.894-1.668-12.229 1.055-17.84 2.724-5.611 7.47-9.826 13.364-11.869l69.843-24.201c6.659-2.309 13.821-1.886 20.165 1.193 6.341 3.078 11.105 8.443 13.414 15.105l4.522 13.053c4.766 13.748-2.542 28.811-16.291 33.578l-175.465 60.801-59.451-20.601c.222-10.346-6.176-20.126-16.462-23.69l-35.938-12.453v-11.082c0-4.142-3.358-7.5-7.5-7.5-4.143 0-7.5 3.358-7.5 7.5v72.543c0 6.797 1.331 13.592 3.838 19.929l-36.059 12.497c-9.355 3.242-19.788 2.532-28.621-1.949l-6.976-3.54 1.264-2.49c3.822-7.529 5.843-15.982 5.843-24.447v-114.693c0-6.769-3.429-13.174-9.183-17.142-2.365-1.625-3.777-4.305-3.777-7.169 0-4.803 3.903-8.71 8.7-8.71h69.232c4.797 0 8.701 3.907 8.701 8.71 0 2.865-1.41 5.546-3.769 7.17-5.756 3.957-9.192 10.365-9.192 17.141v7.15c0 4.142 3.358 7.5 7.5 7.5 4.143 0 7.5-3.358 7.5-7.5v-7.15c0-1.862.98-3.605 2.694-4.783 6.428-4.427 10.266-11.727 10.266-19.528 0-13.074-10.632-23.711-23.701-23.711h-69.232c-13.069 0-23.701 10.637-23.701 23.711 0 7.806 3.844 15.108 10.273 19.525 1.683 1.16 2.688 2.949 2.688 4.786v43.717c-2.486.976-4.93 2.056-7.294 3.257l-80.525 40.863c-11.104 5.639-16.066 18.644-11.978 30.078-4.093 11.436.867 24.44 11.976 30.076l60.18 30.535-38.878 76.619c-8.634 17.01-7.83 36.87 2.149 53.126s27.325 25.961 46.4 25.961h17.41c4.143 0 7.5-3.358 7.5-7.5s-3.358-7.5-7.5-7.5h-17.41c-13.82 0-26.387-7.031-33.616-18.808-7.23-11.777-7.812-26.166-1.557-38.49l12.34-24.321c7.866-3.309 19.195-7.039 37.616-8.999 27.323-2.912 41.207.985 55.908 5.11 11.747 3.296 23.797 6.678 42.223 6.677 5.754 0 12.134-.33 19.316-1.096 6.027-.643 11.581-1.482 16.834-2.539l12.771 25.167c6.251 12.325 5.665 26.715-1.567 38.493-7.231 11.776-19.798 18.806-33.615 18.806h-74.243c-4.143 0-7.5 3.358-7.5 7.5s3.358 7.5 7.5 7.5h74.243c19.072 0 36.417-9.704 46.398-25.957 9.983-16.255 10.79-36.116 2.162-53.129l-41.262-81.309 10.663-3.695c10.287-3.565 16.685-13.343 16.462-23.687l59.456-20.602 175.464 60.801c13.75 4.768 21.057 19.831 16.291 33.581l-4.521 13.05c-4.766 13.752-19.83 21.063-33.578 16.3l-69.842-24.201c-5.895-2.043-10.641-6.258-13.365-11.869-2.723-5.611-3.098-11.946-1.056-17.839l3.26-9.401c1.357-3.914-.715-8.186-4.629-9.543-3.915-1.359-8.186.716-9.543 4.629l-3.261 9.402c-3.355 9.68-2.738 20.086 1.734 29.302 4.473 9.215 12.267 16.137 21.947 19.492l69.842 24.201c4.472 1.549 9.03 2.285 13.515 2.284 17.151-.001 33.226-10.75 39.15-27.847l4.52-13.048c7.476-21.564-3.986-45.189-25.551-52.667zm-292.228-103.371 31.026 10.751c4.943 1.712 7.571 7.132 5.862 12.071-1.72 4.947-7.137 7.578-12.08 5.867l-24.808-8.602zm-171.743 32.103s80.864-41.023 81.03-41.106v21.281l-55.428 28.115-10.231-5.191c-5.536-2.808-11.648-3.3-17.23-1.848.56-.477 1.176-.904 1.859-1.251zm81.03-3.004v16.487c0 6.116-1.458 12.221-4.218 17.656l-1.266 2.493-33.366-16.93zm124.022 124.619c-3.586.616-7.348 1.135-11.351 1.563-27.311 2.909-41.198-.984-55.896-5.109-15.419-4.326-31.36-8.8-61.549-5.584-9.75 1.038-18.325 2.574-26.302 4.75l16.813-33.132 6.971 3.537c9.536 4.838 19.819 7.813 30.564 8.845 2.716.26 5.446.39 8.179.39 9.565 0 19.138-1.587 28.08-4.685l42.147-14.606zm-2.288-66.859-67.116 23.259c-9.475 3.282-19.822 4.504-29.915 3.537-8.871-.851-17.352-3.304-25.209-7.29l-80.528-40.86c-4.666-2.368-6.536-8.091-4.169-12.757.041-.08.09-.152.132-.23.036-.064.075-.127.11-.193 2.493-4.349 7.995-6.039 12.515-3.746l80.528 40.86c12.444 6.313 27.14 7.313 40.321 2.745l67.116-23.259c4.945-1.715 10.361.916 12.075 5.859 1.713 4.945-.915 10.362-5.86 12.075zm16.462-23.687c-6.224-8.263-17.299-11.987-27.59-8.42l-16.875 5.848c-1.973-4.751-3.018-9.884-3.018-15.015v-9.622l19.895 6.898c2.644.916 5.338 1.351 7.991 1.351 7.664-.001 14.965-3.635 19.595-9.774l41.462 14.367z"/><path d="m207.415 116.466c12.831 0 23.268-10.438 23.268-23.268s-10.438-23.268-23.268-23.268-23.268 10.438-23.268 23.268 10.438 23.268 23.268 23.268zm0-31.536c4.559 0 8.268 3.709 8.268 8.268s-3.709 8.268-8.268 8.268-8.268-3.709-8.268-8.268c.001-4.559 3.71-8.268 8.268-8.268z"/><path d="m108.16 95.451c12.831 0 23.268-10.438 23.268-23.268s-10.438-23.268-23.268-23.268-23.268 10.437-23.268 23.267 10.438 23.269 23.268 23.269zm0-31.536c4.559 0 8.268 3.709 8.268 8.267 0 4.559-3.709 8.268-8.268 8.268s-8.268-3.709-8.268-8.268 3.709-8.267 8.268-8.267z"/><path d="m160.111 51.286c12.831 0 23.268-10.438 23.268-23.268s-10.437-23.268-23.268-23.268-23.268 10.438-23.268 23.268 10.438 23.268 23.268 23.268zm0-31.535c4.559 0 8.268 3.709 8.268 8.267s-3.709 8.268-8.268 8.268-8.268-3.709-8.268-8.268 3.709-8.267 8.268-8.267z"/></g></g><g/><g/><g/><g/><g/><g/><g/><g/><g/><g/><g/><g/><g/><g/><g/></svg>