<svg id="Capa_1" enable-background="new 0 0 512 512" viewBox="0 0 512 512" xmlns="http://www.w3.org/2000/svg"><g><g><g><path d="m167.764 504.5h193.545c22.285 0 40.352-18.066 40.352-40.352v-293.084c0-8.498-6.889-15.387-15.386-15.387h-262.573c-9.779 0-16.237 10.168-12.081 19.02l11.144 23.732c3.061 6.519 4.648 13.632 4.648 20.834v244.886c0 22.285 18.066 40.351 40.351 40.351z" fill="#d8ecfe"/><path d="m386.274 155.677h-37.878c8.498 0 15.386 6.89 15.386 15.388v293.084c0 22.285-18.065 40.351-40.35 40.351h37.877c22.285 0 40.352-18.066 40.352-40.352v-293.084c0-8.498-6.889-15.387-15.387-15.387z" fill="#bddbff"/><path d="m362.33 13.209-132.604 364.328c-1.639 4.503.683 9.482 5.186 11.12l15.007 5.462c4.503 1.639 9.482-.683 11.12-5.186l132.603-364.326c1.639-4.503-.68-9.481-5.183-11.12l-15.008-5.461c-4.503-1.639-9.482.68-11.121 5.183z" fill="#d8ecfe"/><path d="m310.476 155.678-80.75 221.858c-1.639 4.503.683 9.482 5.186 11.12l15.007 5.462c4.503 1.639 9.482-.683 11.12-5.186l84.898-233.255h-35.461z" fill="#bddbff"/><path d="m401.661 345.201c-73.626 52.434-215.725-77.636-274.248 12.785v106.162c0 22.286 18.066 40.352 40.352 40.352h193.545c22.285 0 40.352-18.066 40.352-40.352v-118.947z" fill="#fdb441"/><g fill="#fe9738"><path d="m361.309 504.5c22.285 0 40.352-18.066 40.352-40.352v-118.947c-11.216 7.987-24.022 11.734-37.878 12.676v106.271c0 22.285-18.066 40.35-40.35 40.351h37.876z"/><ellipse cx="311.685" cy="446.708" rx="16.499" ry="16.499" transform="matrix(.987 -.16 .16 .987 -67.531 55.695)"/><ellipse cx="264.537" cy="393.156" rx="16.499" ry="16.499" transform="matrix(.987 -.16 .16 .987 -59.561 47.451)"/></g></g></g><g><path d="m401.661 422.265c4.142 0 7.5-3.358 7.5-7.5v-243.703c0-12.62-10.267-22.887-22.887-22.887h-29.628l44.04-121.001c1.479-4.059 1.289-8.451-.536-12.368-1.824-3.916-5.064-6.888-9.127-8.369l-15.006-5.458c-8.379-3.053-17.681 1.278-20.736 9.662l-50.054 137.535h-62.227c-4.142 0-7.5 3.358-7.5 7.5s3.358 7.5 7.5 7.5h56.768l-58.829 161.647c-17.155-4.223-34.075-7.288-49.889-7.292-.012 0-.019 0-.03 0-3.23 0-6.365.135-9.417.391v-19.973h25.518c4.142 0 7.5-3.358 7.5-7.5s-3.358-7.5-7.5-7.5h-25.518v-44.604h25.518c4.142 0 7.5-3.358 7.5-7.5s-3.358-7.5-7.5-7.5h-33.018c-4.142 0-7.5 3.358-7.5 7.5v89.537c-12.196 3.1-22.716 8.748-31.692 16.995v-118.117c0-8.248-1.853-16.555-5.359-24.022l-11.144-23.732c-1.233-2.625-.161-4.805.357-5.621s2.036-2.712 4.936-2.712h84.301c4.142 0 7.5-3.358 7.5-7.5s-3.358-7.5-7.5-7.5h-84.302c-7.173 0-13.752 3.615-17.597 9.669-3.846 6.055-4.322 13.545-1.273 20.039l11.144 23.732c2.576 5.485 3.937 11.587 3.937 17.646v244.888c0 26.385 21.466 47.852 47.852 47.852h193.546c26.386 0 47.852-21.466 47.852-47.852v-14.383c0-4.142-3.358-7.5-7.5-7.5s-7.5 3.358-7.5 7.5v14.383c0 18.114-14.737 32.852-32.852 32.852h-193.546c-18.115 0-32.852-14.737-32.852-32.852v-103.893c8.313-12.134 18.663-20.112 31.692-24.271v133.274c0 4.142 3.358 7.5 7.5 7.5h33.018c4.142 0 7.5-3.358 7.5-7.5s-3.358-7.5-7.5-7.5h-25.518v-44.604h25.518c4.142 0 7.5-3.358 7.5-7.5s-3.358-7.5-7.5-7.5h-25.518v-44.603h25.518c4.142 0 7.5-3.358 7.5-7.5s-3.358-7.5-7.5-7.5h-25.518v-9.578c3.02-.296 6.157-.443 9.417-.443h.027c49.038.012 113.125 33.079 165.422 33.079 13.363 0 26.061-2.133 37.692-7.459v56.616c0 4.142 3.358 7.5 7.5 7.5zm-32.285-406.492c.223-.609.901-.923 1.51-.7l15.006 5.458c.609.222.924.897.701 1.509l-45.909 126.135h-19.494zm-53.645 147.402h19.493l-62.044 170.468c-5.865-1.695-11.763-3.388-17.665-5.01zm-28.102 174.626 63.558-174.626h35.087c4.349 0 7.887 3.538 7.887 7.887v170.111c-27.592 17.038-65.676 8.249-106.532-3.372z"/><path d="m311.684 455.707c-4.142 0-7.5 3.358-7.5 7.5s3.358 7.5 7.5 7.5c13.233 0 23.999-10.766 23.999-23.999s-10.766-23.999-23.999-23.999-23.999 10.766-23.999 23.999c0 4.142 3.358 7.5 7.5 7.5s7.5-3.358 7.5-7.5c0-4.962 4.037-8.999 8.999-8.999s8.999 4.037 8.999 8.999c-.001 4.962-4.037 8.999-8.999 8.999z"/><path d="m264.535 384.156c4.142 0 7.5-3.358 7.5-7.5s-3.358-7.5-7.5-7.5c-13.233 0-23.999 10.766-23.999 23.999s10.766 23.999 23.999 23.999 23.999-10.766 23.999-23.999c0-4.142-3.358-7.5-7.5-7.5s-7.5 3.358-7.5 7.5c0 4.962-4.037 8.999-8.999 8.999s-8.999-4.037-8.999-8.999c.001-4.962 4.037-8.999 8.999-8.999z"/></g></g><g/><g/><g/><g/><g/><g/><g/><g/><g/><g/><g/><g/><g/><g/><g/></svg>