<svg id="Capa_1" enable-background="new 0 0 512 512" viewBox="0 0 512 512" xmlns="http://www.w3.org/2000/svg"><g><g><g fill="#678d98"><path d="m177.048 321.071v42.892c0 3.896 3.157 7.057 7.053 7.057h29.089c3.896 0 7.056-3.161 7.056-7.057v-42.892z"/><path d="m291.753 321.071v42.892c0 3.896 3.16 7.057 7.056 7.057h29.089c3.896 0 7.053-3.161 7.053-7.057v-42.892z"/></g><g><path d="m115.019 293.193-27.881-48.273c-2.205-3.818-3.368-8.15-3.368-12.558v-84.223c0-3.953-3.206-7.159-7.158-7.159h-27.84c-3.953 0-7.152 3.206-7.152 7.159v84.223c0 4.409-1.164 8.741-3.369 12.558l-27.882 48.273c-8.142 14.095 2.028 31.719 18.306 31.719h68.035c16.278 0 26.451-17.624 18.309-31.719z" fill="#d8ecfe"/><path d="m94.309 215.145h-66.27c-3.976 0-7.198-3.223-7.198-7.198v-19.409c0-3.976 3.223-7.198 7.198-7.198h66.269c3.976 0 7.198 3.223 7.198 7.198v19.409c.001 3.975-3.222 7.198-7.197 7.198z" fill="#678d98"/><path d="m10.367 293.193c-8.141 14.096 2.028 31.719 18.306 31.719h68.037c16.278 0 26.45-17.623 18.309-31.719l-6.431-11.132h-91.791z" fill="#62dbfb"/><path d="m396.981 293.193 27.881-48.273c2.205-3.818 3.368-8.15 3.368-12.558v-84.223c0-3.953 3.206-7.159 7.158-7.159h27.84c3.953 0 7.152 3.206 7.152 7.159v84.223c0 4.409 1.164 8.741 3.369 12.558l27.882 48.273c8.142 14.095-2.028 31.719-18.306 31.719h-68.035c-16.278 0-26.451-17.624-18.309-31.719z" fill="#d8ecfe"/><path d="m417.691 215.145h66.269c3.976 0 7.198-3.223 7.198-7.198v-19.409c0-3.976-3.223-7.198-7.198-7.198h-66.269c-3.976 0-7.198 3.223-7.198 7.198v19.409c0 3.975 3.223 7.198 7.198 7.198z" fill="#678d98"/><path d="m501.633 293.193c8.141 14.096-2.028 31.719-18.306 31.719h-68.037c-16.278 0-26.45-17.623-18.309-31.719l6.431-11.132h91.792z" fill="#62dbfb"/></g><path d="m164.68 276.122 33.118-89.91c2.163-5.873 7.755-9.773 14.014-9.773h88.375c6.259 0 11.852 3.9 14.015 9.774l33.117 89.909z" fill="#fdb441"/><path d="m314.203 186.213c-2.163-5.873-7.756-9.774-14.015-9.774h-39.416c6.259 0 11.855 3.902 14.018 9.775l33.116 89.908h39.415z" fill="#fe9738"/><path d="m153.678 266.062v63.66c0 7.442 6.033 13.475 13.475 13.475h177.694c7.442 0 13.475-6.033 13.475-13.475v-63.66c0-7.442-6.033-13.475-13.475-13.475h-177.694c-7.442 0-13.475 6.033-13.475 13.475z" fill="#d8ecfe"/><path d="m344.847 252.587h-39.415c7.442 0 13.475 6.033 13.475 13.475v63.66c0 7.442-6.033 13.475-13.475 13.475h39.415c7.442 0 13.475-6.033 13.475-13.475v-63.66c0-7.442-6.033-13.475-13.475-13.475z" fill="#bddbff"/><g fill="#678d98"><ellipse cx="210.442" cy="297.892" rx="18.47" ry="18.47" transform="matrix(.383 -.924 .924 .383 -145.307 378.317)"/><ellipse cx="301.558" cy="297.892" rx="18.47" ry="18.47" transform="matrix(.383 -.924 .924 .383 -89.06 462.498)"/></g></g><g><path d="m508.11 289.437-27.873-48.26c-1.55-2.691-2.369-5.739-2.369-8.816v-9.714h6.081c8.104 0 14.697-6.593 14.697-14.697v-19.408c0-8.104-6.593-14.697-14.697-14.697h-6.081v-25.698c0-8.083-6.571-14.659-14.649-14.659h-27.839c-8.083 0-14.658 6.576-14.658 14.659v25.698h-3.039c-8.104 0-14.697 6.593-14.697 14.697v2.202h-79.128l-2.623-7.12c-3.23-8.78-11.689-14.679-21.047-14.679h-36.278c-4.142 0-7.5 3.358-7.5 7.5s3.357 7.5 7.5 7.5h36.278c3.099 0 5.901 1.953 6.971 4.862l20.731 56.282h-143.78l20.731-56.284c1.07-2.907 3.871-4.86 6.971-4.86h17.099c4.142 0 7.5-3.358 7.5-7.5s-3.358-7.5-7.5-7.5h-17.099c-9.358 0-17.817 5.899-21.047 14.677l-2.623 7.122h-79.127v-2.202c0-8.104-6.593-14.697-14.697-14.697h-3.038v-25.698c0-8.083-6.576-14.659-14.659-14.659h-27.84c-8.078 0-14.649 6.576-14.649 14.659v25.698h-6.081c-8.104 0-14.697 6.593-14.697 14.697v19.408c0 8.104 6.593 14.697 14.697 14.697h6.081v9.714c0 3.077-.819 6.126-2.365 8.809l-21.552 37.315-6.325 10.95c-5.183 8.967-5.188 19.675-.012 28.645s14.449 14.326 24.804 14.326h68.036c10.355 0 19.628-5.353 24.805-14.32 5.178-8.968 5.177-19.678-.002-28.649l-27.881-48.272c-1.545-2.671-2.362-5.715-2.362-8.804v-9.714h3.038c8.104 0 14.697-6.593 14.697-14.697v-2.206h73.603l-14.492 39.345h-.968c-11.565 0-20.974 9.409-20.974 20.974v63.657c0 11.565 9.409 20.974 20.974 20.974h2.397v13.261c0 8.028 6.527 14.559 14.549 14.559h29.088c8.028 0 14.559-6.531 14.559-14.559v-13.261h10.749c4.142 0 7.5-3.358 7.5-7.5s-3.358-7.5-7.5-7.5h-71.343c-3.295 0-5.975-2.681-5.975-5.975v-63.657c0-3.294 2.68-5.975 5.975-5.975h177.684c3.295 0 5.975 2.681 5.975 5.975v63.657c0 3.295-2.681 5.975-5.975 5.975h-71.343c-4.142 0-7.5 3.358-7.5 7.5s3.357 7.5 7.5 7.5h10.749v13.261c0 8.028 6.531 14.559 14.559 14.559h29.089c8.022 0 14.549-6.531 14.549-14.559v-13.261h2.396c11.566 0 20.974-9.409 20.974-20.974v-63.657c0-11.565-9.409-20.974-20.974-20.974h-.967l-14.492-39.345h73.603v2.206c0 8.104 6.593 14.697 14.697 14.697h3.039v9.714c0 3.089-.816 6.133-2.364 8.809l-27.879 48.268c-5.179 8.97-5.179 19.68-.002 28.648 5.176 8.966 14.449 14.32 24.805 14.32h68.036c10.355 0 19.628-5.356 24.804-14.326 5.179-8.97 5.174-19.679-.008-28.643zm-458.979-140.951h27.149v25.358h-27.149zm59.403 162.101c-2.466 4.27-6.883 6.82-11.816 6.82h-68.036c-4.931 0-9.347-2.551-11.812-6.823-2.465-4.271-2.463-9.372.007-13.645l4.262-7.379h83.132l4.261 7.378c2.468 4.274 2.469 9.377.002 13.649zm-27.879-61.916 14.953 25.889h-65.805l14.958-25.897c2.859-4.964 4.371-10.601 4.371-16.302v-9.714h27.148v9.714c0 5.723 1.514 11.365 4.375 16.31zm13.361-41.023h-65.663v-18.804h65.662v18.804zm118.736 155.866h-28.199v-12.822h28.199zm114.694 0h-28.199v-12.822h28.199zm108.274-215.028h27.148v25.358h-27.148zm-17.736 40.358h65.662v18.804h-65.662zm13.359 59.832c2.864-4.95 4.378-10.592 4.378-16.315v-9.714h27.148v9.714c0 5.701 1.512 11.338 4.376 16.31l14.953 25.889h-65.805zm63.786 61.907c-2.465 4.273-6.88 6.823-11.812 6.823h-68.036c-4.933 0-9.35-2.55-11.816-6.82-2.467-4.272-2.466-9.375.001-13.648l4.262-7.379h83.132l4.263 7.381c2.469 4.272 2.471 9.372.006 13.643z"/><path d="m184.476 297.89c0 14.319 11.649 25.968 25.968 25.968s25.968-11.649 25.968-25.968-11.649-25.968-25.968-25.968-25.968 11.649-25.968 25.968zm36.937 0c0 6.048-4.921 10.969-10.969 10.969s-10.969-4.921-10.969-10.969 4.921-10.969 10.969-10.969 10.969 4.921 10.969 10.969z"/><path d="m327.524 297.89c0-14.319-11.65-25.968-25.968-25.968s-25.968 11.649-25.968 25.968 11.65 25.968 25.968 25.968 25.968-11.649 25.968-25.968zm-36.937 0c0-6.048 4.921-10.969 10.969-10.969s10.969 4.921 10.969 10.969-4.921 10.969-10.969 10.969-10.969-4.921-10.969-10.969z"/></g></g><g/><g/><g/><g/><g/><g/><g/><g/><g/><g/><g/><g/><g/><g/><g/></svg>