<svg id="Capa_1" enable-background="new 0 0 512 512" viewBox="0 0 512 512" xmlns="http://www.w3.org/2000/svg"><g><g><path d="m261.729 228.322-251.792 251.791c-3.248 3.248-3.248 8.518 0 11.766l10.184 10.184c3.248 3.248 8.518 3.248 11.766 0l251.792-251.792z" fill="#d8ecfe"/><path d="m242.285 225.235-49.406 49.406c-4.322 4.322-4.322 11.329 0 15.651l28.829 28.829c4.322 4.322 11.329 4.322 15.651 0l49.406-49.406z" fill="#678d98"/><path d="m264.525 247.475-49.406 49.406c-4.322 4.322-11.33 4.322-15.652 0l22.24 22.24c4.322 4.322 11.329 4.322 15.651 0l49.406-49.406z" fill="#537983"/><path d="m491.924 88.244-68.168-68.168c-16.767-16.767-43.953-16.767-60.721 0l-118.47 118.47c-6.195 6.195-8.785 15.183-6.674 23.686 1.489 6 3.212 11.775 5.167 17.328 2.045 5.811.654 12.274-3.702 16.63l-12.094 12.094c-3.924 3.924-3.924 10.286 0 14.211l62.244 62.243c3.924 3.924 10.287 3.924 14.211 0l12.201-12.201c4.362-4.362 10.836-5.751 16.652-3.695 5.49 1.94 11.205 3.665 17.147 5.171 8.535 2.163 17.579-.419 23.805-6.645l118.405-118.405c16.765-16.766 16.765-43.952-.003-60.719z" fill="#d8ecfe"/><path d="m491.924 88.244-30.018-30.018c16.768 16.768 16.767 43.953 0 60.72l-118.404 118.405c-6.226 6.226-15.27 8.808-23.805 6.645-5.942-1.506-11.657-3.23-17.147-5.171-5.816-2.056-12.29-.667-16.652 3.695l-12.201 12.201c-3.924 3.924-10.287 3.924-14.211 0l30.018 30.018c3.924 3.924 10.286 3.924 14.211 0l12.201-12.201c4.362-4.362 10.836-5.751 16.652-3.695 5.49 1.941 11.205 3.665 17.147 5.171 8.535 2.163 17.579-.419 23.805-6.645l118.405-118.405c16.767-16.767 16.767-43.952-.001-60.72z" fill="#bddbff"/><path d="m342.659 169.341c-8.81-8.81-23.094-8.81-31.904 0l-14.655 14.655c-8.81 8.81-8.81 23.094 0 31.904s23.094 8.81 31.904 0l14.655-14.655c8.81-8.81 8.81-23.094 0-31.904z" fill="#fe76a8"/><path d="m372.126 68.298-20.261 20.261c-5.012 5.012-5.012 13.139 0 18.151l53.426 53.426c5.012 5.012 13.139 5.012 18.151 0l20.261-20.261c5.012-5.012 5.012-13.139 0-18.151l-53.426-53.426c-5.013-5.012-13.139-5.012-18.151 0z" fill="#5de1c4"/><path d="m306.979 326.727c-5.789-5.789-15.175-5.789-20.965 0l-12.231 12.231c-5.789 5.789-5.789 15.175 0 20.965s15.175 5.789 20.965 0l12.231-12.231c5.79-5.79 5.79-15.176 0-20.965z" fill="#678d98"/></g><g><path d="m305.462 164.025-14.656 14.656c-11.719 11.721-11.719 30.792.001 42.513 5.86 5.86 13.558 8.791 21.256 8.791s15.396-2.93 21.257-8.791l14.654-14.656c5.678-5.678 8.806-13.227 8.806-21.257s-3.127-15.579-8.805-21.257c-11.722-11.72-30.792-11.719-42.513.001zm31.906 10.607c2.844 2.845 4.412 6.627 4.412 10.65s-1.567 7.804-4.412 10.649l-14.654 14.656c-5.873 5.872-15.428 5.871-21.299 0-5.872-5.872-5.872-15.427 0-21.299l14.656-14.656c2.844-2.844 6.625-4.411 10.648-4.411s7.805 1.566 10.649 4.411z"/><path d="m414.383 171.372c5.208 0 10.416-1.983 14.381-5.947l20.262-20.262c7.928-7.929 7.928-20.83 0-28.759l-53.429-53.429c-3.841-3.841-8.948-5.956-14.38-5.956s-10.539 2.115-14.379 5.956l-20.264 20.262c-7.928 7.929-7.928 20.83 0 28.759l53.43 53.429c3.964 3.965 9.172 5.947 14.379 5.947zm-57.202-77.528 20.263-20.262c1.007-1.008 2.347-1.563 3.772-1.563s2.765.555 3.772 1.563l53.429 53.429c2.08 2.08 2.08 5.465 0 7.545l-20.261 20.261c-2.08 2.08-5.465 2.081-7.545 0l-53.429-53.429c-2.08-2.079-2.08-5.463-.001-7.544z"/><path d="m497.25 82.923-68.172-68.173c-19.667-19.668-51.665-19.667-71.332 0l-36.53 36.53c-2.929 2.929-2.929 7.678 0 10.607s7.677 2.929 10.608 0l36.53-36.53c13.817-13.817 36.299-13.817 50.116 0l68.172 68.172c6.694 6.694 10.38 15.593 10.38 25.059s-3.686 18.365-10.38 25.059l-118.41 118.412c-4.381 4.381-10.765 6.172-16.661 4.679-5.686-1.441-11.234-3.114-16.491-4.972-8.524-3.013-18.124-.869-24.456 5.464l-12.203 12.202c-.649.649-1.407.746-1.802.746-.394 0-1.151-.097-1.801-.747l-62.248-62.247c-.994-.994-.994-2.611-.001-3.605l12.096-12.095c6.322-6.323 8.47-15.91 5.474-24.425-1.872-5.318-3.541-10.918-4.963-16.646-1.457-5.87.344-12.222 4.699-16.578l57.198-57.198c2.929-2.929 2.929-7.678 0-10.607-2.93-2.929-7.678-2.929-10.608 0l-57.198 57.198c-8.052 8.053-11.367 19.854-8.651 30.798 1.536 6.187 3.343 12.248 5.372 18.012 1.108 3.151.368 6.538-1.931 8.838l-12.096 12.095c-6.841 6.842-6.841 17.976 0 24.818l3.579 3.579-37.962 37.962c-3.506 3.506-5.437 8.169-5.437 13.129 0 4.068 1.318 7.925 3.719 11.119l-181.233 181.236c-6.169 6.169-6.169 16.208 0 22.378l10.18 10.181c3.085 3.085 7.137 4.627 11.19 4.627 4.052 0 8.104-1.542 11.189-4.627l81.455-81.455c2.929-2.929 2.929-7.678 0-10.607-2.93-2.929-7.678-2.929-10.608 0l-81.455 81.455c-.319.32-.842.322-1.163 0l-10.18-10.181c-.321-.321-.321-.843 0-1.164l181.088-181.088 11.344 11.344-74.882 74.882c-2.929 2.929-2.929 7.678 0 10.607 1.465 1.465 3.384 2.197 5.304 2.197 1.919 0 3.839-.732 5.304-2.197l75.028-75.027c3.194 2.402 7.05 3.719 11.119 3.719 4.961 0 9.624-1.931 13.13-5.437l9.107-9.107 17.524 17.525-.813.813c-8.704 8.705-8.704 22.869 0 31.573 4.353 4.352 10.07 6.529 15.787 6.529s11.434-2.176 15.787-6.529l12.231-12.232c8.705-8.705 8.705-22.868 0-31.573-4.217-4.217-9.823-6.539-15.787-6.539-5.963 0-11.569 2.322-15.785 6.539l-.812.812-17.525-17.525 18.248-18.247 3.578 3.578c3.315 3.315 7.722 5.14 12.409 5.14 4.688 0 9.095-1.826 12.409-5.14l12.203-12.201c2.305-2.304 5.695-3.042 8.85-1.927 5.686 2.01 11.675 3.817 17.804 5.37 10.997 2.788 22.854-.514 30.954-8.612l118.412-118.412c19.665-19.667 19.665-51.667-.001-71.333zm-200.743 246.959c1.957 0 3.796.762 5.179 2.146 2.857 2.856 2.857 7.502 0 10.359l-12.231 12.232c-2.855 2.856-7.501 2.856-10.358 0-2.856-2.856-2.856-7.503-.001-10.359l12.233-12.232c1.383-1.384 3.222-2.146 5.178-2.146zm-50.034-30.479-14.411 14.411c-.907.908-1.969 1.043-2.522 1.043-.552 0-1.613-.135-2.521-1.043l-28.832-28.832c-.908-.908-1.044-1.97-1.044-2.522s.136-1.614 1.044-2.522l37.961-37.961 33.876 33.875z"/></g></g><g/><g/><g/><g/><g/><g/><g/><g/><g/><g/><g/><g/><g/><g/><g/></svg>