<svg id="Capa_1" enable-background="new 0 0 512 512" viewBox="0 0 512 512" xmlns="http://www.w3.org/2000/svg"><g><g><g><path d="m49.429 491.022v-470.044c0-7.443 6.034-13.478 13.477-13.478h386.187c7.443 0 13.477 6.034 13.477 13.478v470.045c0 7.443-6.034 13.478-13.477 13.478h-386.186c-7.444-.001-13.478-6.035-13.478-13.479z" fill="#d8ecfe"/><path d="m449.093 7.5h-43.266c7.443 0 13.477 6.034 13.477 13.478v470.045c0 7.444-6.034 13.478-13.477 13.478h43.266c7.443 0 13.477-6.034 13.477-13.478v-470.045c.001-7.444-6.033-13.478-13.477-13.478z" fill="#bddbff"/><path d="m157.429 420.285h39.691v74.053h-39.691z" fill="#5de1c4"/><path d="m150.674 143.913v67.449c0 5.847 4.74 10.587 10.587 10.587h32.027c5.847 0 10.587-4.74 10.587-10.587v-67.449c0-5.847-4.74-10.587-10.587-10.587h-32.027c-5.847 0-10.587 4.74-10.587 10.587z" fill="#678d98"/><path d="m106.662 281.611v136.841c0 4.882 3.958 8.84 8.84 8.84h123.544c4.882 0 8.84-3.958 8.84-8.84v-136.841c0-4.882-3.958-8.84-8.84-8.84h-123.544c-4.882 0-8.84 3.958-8.84 8.84z" fill="#62dbfb"/><path d="m106.662 307.785h141.224v32.153h-141.224z" fill="#678d98"/><path d="m373.15 407.957h-31.134c-7.419 0-13.433-6.014-13.433-13.433v-115.214h58.001v115.214c0 7.419-6.015 13.433-13.434 13.433z" fill="#62dbfb"/><g fill="#678d98"><path d="m379.123 237.744h-43.079c-14.478 0-26.215 11.737-26.215 26.215v8.115c0 3.996 3.24 7.236 7.236 7.236h81.038c3.996 0 7.236-3.24 7.236-7.236v-8.115c-.001-14.478-11.738-26.215-26.216-26.215z"/><path d="m328.583 330.65v63.874c0 7.419 6.014 13.433 13.433 13.433h31.134c7.419 0 13.433-6.014 13.433-13.433v-63.874z"/><path d="m49.429 470.014v21.009c0 7.444 6.034 13.478 13.477 13.478h386.187c7.443 0 13.477-6.034 13.477-13.478v-21.009z"/></g><path d="m462.571 491.022v-21.009h-43.266v21.009c0 7.444-6.034 13.478-13.477 13.478h43.266c7.443 0 13.477-6.034 13.477-13.478z" fill="#537983"/><path d="m449.093 7.5h-386.186c-7.443 0-13.477 6.034-13.477 13.478v70.484h413.142v-70.484c-.001-7.444-6.035-13.478-13.479-13.478z" fill="#678d98"/><path d="m419.305 20.978v70.484h43.266v-70.484c0-7.444-6.034-13.478-13.477-13.478h-43.266c7.443 0 13.477 6.034 13.477 13.478z" fill="#537983"/><path d="m316.758 38.787v21.386c0 2.513 2.037 4.549 4.549 4.549h52.258c2.513 0 4.549-2.037 4.549-4.549v-21.386c0-2.513-2.037-4.549-4.549-4.549h-52.258c-2.512 0-4.549 2.037-4.549 4.549z" fill="#5de1c4"/></g></g><g><path d="m449.093 0h-386.186c-11.567 0-20.978 9.411-20.978 20.978v470.045c0 11.567 9.411 20.978 20.978 20.978h386.187c11.567 0 20.978-9.411 20.978-20.978v-318.613c0-4.142-3.358-7.5-7.5-7.5s-7.5 3.358-7.5 7.5v290.104h-161.056c-4.142 0-7.5 3.358-7.5 7.5s3.358 7.5 7.5 7.5h161.055v13.509c0 3.296-2.682 5.978-5.978 5.978h-386.186c-3.296 0-5.978-2.682-5.978-5.978v-13.509h201.521c4.142 0 7.5-3.358 7.5-7.5s-3.358-7.5-7.5-7.5h-53.83v-27.722h34.426c9.01 0 16.34-7.33 16.34-16.34v-136.841c0-9.01-7.33-16.34-16.34-16.34h-54.272v-35.823h8.514c9.973 0 18.087-8.114 18.087-18.087v-67.449c0-9.973-8.114-18.087-18.087-18.087h-32.027c-9.973 0-18.087 8.114-18.087 18.087v67.449c0 9.973 8.114 18.087 18.087 18.087h8.513v35.823h-54.272c-9.01 0-16.34 7.33-16.34 16.34v136.841c0 9.01 7.33 16.34 16.34 16.34h34.428v27.722h-93.001v-363.553h398.142v37.883c0 4.142 3.358 7.5 7.5 7.5s7.5-3.358 7.5-7.5v-115.866c0-11.567-9.411-20.978-20.978-20.978zm-287.832 214.449c-1.702 0-3.087-1.385-3.087-3.087v-67.449c0-1.702 1.385-3.087 3.087-3.087h32.027c1.702 0 3.087 1.385 3.087 3.087v67.449c0 1.702-1.385 3.087-3.087 3.087h-8.514v-36.081c0-4.142-3.358-7.5-7.5-7.5s-7.5 3.358-7.5 7.5v36.081zm-47.099 100.836h126.224v17.153h-126.224zm124.884-35.014c.739 0 1.34.601 1.34 1.34v18.674h-55.612v-20.014zm-123.544 0h54.272v20.014h-55.612v-18.674c0-.738.601-1.34 1.34-1.34zm-1.34 138.181v-71.014h126.224v71.014c0 .739-.601 1.34-1.34 1.34-32.986 0-103.925 0-123.544 0-.739 0-1.34-.601-1.34-1.34zm50.768 16.34h24.69v27.722h-24.69zm-108.001-350.831v-62.983c0-3.296 2.682-5.978 5.978-5.978h386.187c3.296 0 5.978 2.682 5.978 5.978v62.984h-398.143z"/><path d="m321.083 394.524c0 11.543 9.391 20.934 20.933 20.934h31.134c11.543 0 20.934-9.391 20.934-20.934v-107.714h4.018c8.125 0 14.736-6.61 14.736-14.736v-8.115c0-18.59-15.125-33.715-33.715-33.715h-43.08c-18.59 0-33.715 15.125-33.715 33.715v8.115c0 8.125 6.61 14.736 14.736 14.736h4.019zm58.001 0c0 3.272-2.662 5.934-5.934 5.934h-31.134c-3.271 0-5.933-2.662-5.933-5.934v-56.374h43.001zm-61.755-130.565c0-10.319 8.396-18.715 18.715-18.715h43.08c10.319 0 18.715 8.396 18.715 18.715v7.851h-80.509v-7.851zm61.755 22.851v36.34h-43.001v-36.34z"/><path d="m373.565 26.738h-52.258c-6.644 0-12.049 5.405-12.049 12.049v21.386c0 6.644 5.405 12.049 12.049 12.049h52.258c6.644 0 12.049-5.405 12.049-12.049v-21.385c.001-6.644-5.405-12.05-12.049-12.05zm-2.95 30.485h-46.356v-15.485h46.356z"/><path d="m265.235 26.738h-6.827c-4.142 0-7.5 3.358-7.5 7.5s3.358 7.5 7.5 7.5h6.827c4.142 0 7.5-3.358 7.5-7.5s-3.358-7.5-7.5-7.5z"/><path d="m265.235 57.223h-6.827c-4.142 0-7.5 3.358-7.5 7.5s3.358 7.5 7.5 7.5h6.827c4.142 0 7.5-3.358 7.5-7.5s-3.358-7.5-7.5-7.5z"/><path d="m210.702 26.738h-6.827c-4.142 0-7.5 3.358-7.5 7.5s3.358 7.5 7.5 7.5h6.827c4.142 0 7.5-3.358 7.5-7.5s-3.358-7.5-7.5-7.5z"/><path d="m210.702 57.223h-6.827c-4.142 0-7.5 3.358-7.5 7.5s3.358 7.5 7.5 7.5h6.827c4.142 0 7.5-3.358 7.5-7.5s-3.358-7.5-7.5-7.5z"/></g></g><g/><g/><g/><g/><g/><g/><g/><g/><g/><g/><g/><g/><g/><g/><g/></svg>