<svg id="Capa_1" enable-background="new 0 0 512 512" viewBox="0 0 512 512" xmlns="http://www.w3.org/2000/svg"><g><g><g><path d="m191.942 291.874c-12.222 20.921-19.235 45.247-19.235 71.224 0 78.768 64.412 142.484 143.427 141.388 74.171-1.037 137.769-64.129 139.361-138.288 1.273-59.474-34.18-110.814-85.238-132.925-6.082-2.628-9.971-8.675-9.971-15.299v-186.27h-92.334v89.635c0 3.972-1.852 7.706-4.999 10.122l-82.41 63.269c-3.783 2.911-9.143 2.559-12.514-.812l-32.696-32.684-28.287 28.275 82.233 82.233c5.338 5.34 6.481 13.614 2.663 20.132zm13.637-74.36 55.961-42.973c2.628-2.004 6.412-.142 6.412 3.159v40.285c0 6.6-3.866 12.647-9.936 15.275-11.421 4.938-22.04 11.362-31.67 18.988l-21.628-21.628c-3.724-3.735-3.324-9.899.861-13.106z" fill="#d8ecfe"/><path d="m370.256 233.273c-6.082-2.628-9.971-8.675-9.971-15.299v-186.27h-36.218v4.835h-56.115v52.892h38.058c9.973 0 18.057 8.084 18.057 18.057v121.486c0 6.624 3.889 12.67 9.971 15.299 51.058 22.111 86.511 66.452 85.238 125.925-1.366 63.647-48.405 119.139-108.603 134.249 1.813.043 3.631.064 5.461.039 74.171-1.037 137.769-64.129 139.361-138.288 1.272-59.473-34.181-110.814-85.239-132.925z" fill="#bddbff"/><path d="m173.214 375.026c6.105 73.169 67.936 130.497 142.92 129.46 73.452-1.025 136.544-62.915 139.29-136.143-16.371-7.65-35.995-14.038-67.123-16.029-86.688-5.528-89.222 34.168-175.886 28.64-15.617-1.001-28.335-3.111-39.201-5.928z" fill="#5de1c4"/><path d="m419.276 370.198c-1.366 63.647-48.405 119.139-108.603 134.249 1.812.044 3.632.064 5.461.039 73.452-1.025 136.543-62.915 139.29-136.143-10.241-4.785-21.755-9.076-36.561-12.107.356 4.559.515 9.206.413 13.962z" fill="#0ed2b3"/><path d="m361.014 42.951h-93.793c-9.79 0-17.726-7.936-17.726-17.726s7.937-17.725 17.727-17.725h93.793c9.79 0 17.726 7.936 17.726 17.726s-7.937 17.725-17.727 17.725z" fill="#d8ecfe"/><path d="m361.014 7.5h-31.316c9.79 0 17.726 7.936 17.726 17.726s-7.936 17.726-17.726 17.726h31.316c9.79 0 17.726-7.936 17.726-17.726s-7.936-17.726-17.726-17.726z" fill="#bddbff"/><path d="m144.705 151.408-37.714-37.714c-4.055-4.055-10.63-4.055-14.686 0l-32.791 32.791c-4.055 4.055-4.055 10.63 0 14.686l37.714 37.714c4.055 4.055 10.63 4.055 14.686 0l32.791-32.791c4.055-4.055 4.055-10.63 0-14.686z" fill="#fe76a8"/></g></g><g><path d="m269.067 167.415c-3.943-1.954-8.57-1.508-12.095 1.179l-55.961 42.972c-3.7 2.838-6.001 7.137-6.312 11.794-.311 4.667 1.405 9.244 4.715 12.564l21.628 21.628c1.456 1.456 3.377 2.197 5.306 2.197 1.639 0 3.283-.535 4.654-1.62 9.259-7.332 19.349-13.382 29.994-17.985 8.781-3.803 14.455-12.5 14.455-22.157v-40.286c0-4.395-2.446-8.336-6.384-10.286zm-8.616 50.571c0 3.673-2.126 6.968-5.412 8.391-9.824 4.248-19.22 9.601-28.008 15.951l-17.002-17.001c-.331-.332-.38-.71-.363-.969.018-.253.116-.615.477-.892l50.309-38.632v33.152z"/><path d="m373.232 226.388c-3.309-1.43-5.446-4.732-5.446-8.414v-8.475c0-4.142-3.357-7.5-7.5-7.5s-7.5 3.358-7.5 7.5v8.475c0 9.67 5.689 18.378 14.49 22.181 47.408 20.53 78.285 65.733 80.597 116.784-13.548-5.28-32.062-10.381-59.094-12.111-44.98-2.864-68.434 6.115-91.116 14.803-22.15 8.484-43.078 16.497-84.768 13.838-11.976-.768-22.677-2.235-32.553-4.448-.085-1.967-.135-3.941-.135-5.923 0-23.727 6.297-47.047 18.206-67.432 5.524-9.428 3.949-21.446-3.83-29.226l-29.203-29.203c-2.929-2.928-7.677-2.93-10.607 0-2.929 2.929-2.929 7.678 0 10.606l29.203 29.203c2.956 2.956 3.571 7.494 1.491 11.044-13.254 22.687-20.26 48.625-20.26 75.007 0 40.16 15.75 77.81 44.349 106.015 28.094 27.708 65.144 42.888 104.551 42.888.707 0 1.423-.005 2.132-.015 37.827-.529 74.078-16.119 102.075-43.898 27.421-27.207 43.196-62.42 44.599-99.385.003-.056.064-1.616.08-2.343 1.301-60.852-33.93-115.792-89.761-139.971zm-57.203 270.598c-36.144.507-70.225-13.19-95.942-38.554-20.516-20.233-33.669-45.875-38.154-73.752 14.955 2.935 31.907 4.303 46.45 4.303 73.712 0 80.092-34.246 159.439-29.185 28.797 1.842 46.554 7.497 59.819 13.261-5.227 66.946-63.936 122.982-131.612 123.927z"/><path d="m124.776 196.629 17.671-17.671 20.28 20.265c3.289 3.288 7.652 4.966 12.034 4.966 3.639 0 7.29-1.157 10.347-3.51l82.4-63.263c4.974-3.806 7.942-9.815 7.942-16.076v-70.888h77.33v124.048c0 4.142 3.357 7.5 7.5 7.5s7.5-3.358 7.5-7.5v-124.977c10.633-2.965 18.46-12.731 18.46-24.297 0-13.91-11.316-25.226-25.225-25.226h-93.793c-13.909 0-25.226 11.316-25.226 25.226 0 11.564 7.824 21.328 18.454 24.295v71.819c0 1.621-.77 3.178-2.067 4.171l-82.418 63.276c-.792.611-1.924.538-2.634-.172l-20.66-20.644c1.667-2.757 2.576-5.915 2.576-9.219 0-4.777-1.86-9.269-5.238-12.646l-37.715-37.714c-3.378-3.378-7.869-5.238-12.646-5.238-4.776 0-9.268 1.86-12.646 5.238l-32.79 32.791c-3.378 3.378-5.238 7.869-5.238 12.646s1.86 9.269 5.238 12.646l37.715 37.715c3.486 3.486 8.065 5.229 12.646 5.229 3.197 0 6.385-.869 9.211-2.568l16.174 16.174c1.465 1.465 3.384 2.197 5.304 2.197 1.919 0 3.839-.732 5.303-2.197 2.93-2.929 2.93-7.678.001-10.606zm132.22-171.403c0-5.638 4.587-10.226 10.226-10.226h93.793c5.639 0 10.226 4.587 10.226 10.226s-4.587 10.226-10.226 10.226c.34 0-10.681 0-93.793 0-5.639 0-10.226-4.588-10.226-10.226zm-154.464 168.356-37.715-37.715c-.734-.735-.845-1.593-.845-2.039s.11-1.305.846-2.04l32.789-32.79c.735-.735 1.594-.845 2.04-.845s1.305.11 2.039.845l37.715 37.715c.734.735.845 1.593.845 2.039s-.11 1.304-.846 2.04l-2.179 2.179c-.028.028-.059.051-.087.079s-.051.058-.078.086l-30.446 30.446c-1.124 1.124-2.955 1.124-4.078 0z"/></g></g><g/><g/><g/><g/><g/><g/><g/><g/><g/><g/><g/><g/><g/><g/><g/></svg>