<svg id="Capa_1" enable-background="new 0 0 512 512" viewBox="0 0 512 512" xmlns="http://www.w3.org/2000/svg"><g><g><path d="m236.92 414.228h-125.45c-15.7 0-25.76-16.71-18.41-30.58l49.92-94.25c1.23-2.33 1.88-4.93 1.88-7.56v-63.31c0-5.01 4.06-9.07 9.08-9.07h40.52c5.01 0 9.07 4.06 9.07 9.07v50.16c0 3.73 3.03 6.76 6.76 6.76h27.91v28h-21.13c-1.91 0-3.14 2.03-2.24 3.72l40.5 76.48c7.35 13.87-2.7 30.58-18.41 30.58z" fill="#d8ecfe"/><path d="m255.33 383.648-40.5-76.48c-.9-1.69.33-3.72 2.24-3.72h21.13v-28h-27.91c-3.73 0-6.76-3.03-6.76-6.76v-50.16c0-5.01-4.06-9.07-9.07-9.07h-32.516c5.02 0 9.08 4.06 9.08 9.07v63.31c0 2.63.65 5.23 1.88 7.56l49.92 94.25c7.35 13.87-2.71 30.58-18.41 30.58h32.506c15.71 0 25.76-16.71 18.41-30.58z" fill="#bddbff"/><path d="m451.827 237.169c-2.856 0-5.326-1.996-5.926-4.788l-8.382-39.062c-2.63-12.27-13.66-21.18-26.21-21.18h-54.44c-12.55 0-23.58 8.91-26.21 21.18l-8.382 39.062c-.599 2.793-3.069 4.788-5.926 4.788h-42.23c-5.768 0-10.442 4.674-10.442 10.442v193.833c0 5.768 4.676 10.444 10.444 10.444h219.933c5.768 0 10.443-4.678 10.443-10.446v-193.831c0-5.768-4.675-10.443-10.443-10.443h-42.229zm-94.077-31.881c.52-2.42 2.66-4.15 5.14-4.15h42.4c2.48 0 4.62 1.73 5.14 4.15l8.556 39.861c1.006 4.687-2.569 9.109-7.363 9.109h-55.066c-4.794 0-8.369-4.422-7.363-9.109z" fill="#fdb441"/><path d="m494.057 237.169h-33.067c5.768 0 10.444 4.675 10.444 10.443v193.832c0 5.768-4.676 10.444-10.444 10.444h33.067c5.768 0 10.443-4.678 10.443-10.446v-193.831c0-5.768-4.675-10.442-10.443-10.442z" fill="#fe9738"/><path d="m451.827 237.169c-2.856 0-5.326-1.996-5.926-4.788l-8.382-39.062c-2.63-12.27-13.66-21.18-26.21-21.18h-54.44c-12.55 0-23.58 8.91-26.21 21.18l-8.382 39.062c-.599 2.793-3.069 4.788-5.926 4.788h-5.729v15.523c0 7.087 2.815 13.884 7.827 18.896l5.482 5.482c5.084 5.084 11.978 7.94 19.168 7.94h81.98c7.189 0 14.084-2.856 19.168-7.94l5.481-5.481c5.012-5.011 7.827-11.809 7.827-18.896v-15.523h-5.728zm-40.204 17.089h-55.066c-4.794 0-8.369-4.422-7.363-9.109l8.556-39.861c.52-2.42 2.66-4.15 5.14-4.15h42.4c2.48 0 4.62 1.73 5.14 4.15l8.556 39.861c1.006 4.688-2.569 9.109-7.363 9.109z" fill="#678d98"/><path d="m236.92 414.228h-125.45c-15.7 0-25.76-16.71-18.41-30.59l19.32-36.47c4.62-1.2 10.03-1.94 16.74-1.94 34.88 0 34.88 20 69.77 20 20.75 0 29.15-7.08 39.9-12.81l16.54 31.22c7.35 13.88-2.7 30.59-18.41 30.59z" fill="#5de1c4"/><path d="m204.414 414.228h32.506c15.71 0 25.76-16.71 18.41-30.59l-16.54-31.22c-8.048 4.29-14.78 9.336-26.363 11.602l10.396 19.628c7.351 13.87-2.709 30.58-18.409 30.58z" fill="#0ed2b3"/><path d="m253.052 127.298h-157.71c-2.827 0-5.119 2.292-5.119 5.119v6.495c0 7.486 3.419 14.563 9.284 19.215l64.706 51.327h19.968l64.706-51.327c5.865-4.653 9.285-11.729 9.285-19.216v-6.495c-.001-2.827-2.293-5.118-5.12-5.118z" fill="#fe76a8"/><path d="m35.911 67.449v346.78h30v-346.78c0-4.052-3.281-7.338-7.333-7.338h-15.329c-4.051 0-7.338 3.286-7.338 7.338z" fill="#d8ecfe"/><g fill="#678d98"><path d="m7.5 423.492v19.129c0 5.117 4.151 9.268 9.268 9.268h263.552c5.117 0 9.262-4.151 9.262-9.268v-19.129c0-5.117-4.145-9.262-9.262-9.262h-263.552c-5.117-.001-9.268 4.145-9.268 9.262z"/><path d="m50.912 225.262c-13.75 0-24.899 11.148-24.899 24.898 0 13.751 11.149 24.898 24.899 24.898 13.751 0 24.898-11.147 24.898-24.898s-11.147-24.898-24.898-24.898z"/><path d="m473.67 331.528v24.36c0 17.52-14.2 31.72-31.72 31.72h-87.63c-21.03 0-40.64-10.39-52.45-27.79l-27.75-40.86c-6.6-9.71-17.54-15.51-29.29-15.51h-6.63v-28h6.63c21.03 0 40.64 10.39 52.45 27.78l27.75 40.86c6.59 9.72 17.54 15.52 29.29 15.52h87.63c2.06 0 3.72-1.67 3.72-3.72v-23.97c0-7.53 5.79-14.02 13.33-14.37 8.03-.38 14.67 6.02 14.67 13.98z"/></g></g><g><path d="m494.06 229.669h-41.07l-8.138-37.922c-3.366-15.708-17.474-27.108-33.543-27.108h-54.439c-16.069 0-30.177 11.4-33.543 27.106l-8.138 37.924h-41.069c-9.893 0-17.94 8.049-17.94 17.941v21.254c-3.721-.602-7.513-.916-11.35-.916h-33.8v-10.288h11.47c4.143 0 7.5-3.358 7.5-7.5s-3.357-7.5-7.5-7.5h-11.47v-24.132c0-6.087-3.309-11.403-8.213-14.284l50.731-40.241c7.704-6.111 12.123-15.257 12.123-25.091v-6.495c0-6.958-5.661-12.619-12.619-12.619h-157.71c-6.958 0-12.619 5.661-12.619 12.619v6.495c0 9.834 4.419 18.98 12.123 25.092l50.731 40.241c-4.906 2.881-8.217 8.197-8.217 14.283v24.132h-54.936c-1.454-6.11-4.641-11.552-9.014-15.779v-159.431c0-8.183-6.652-14.84-14.83-14.84h-15.33c-8.183 0-14.84 6.657-14.84 14.84v53.27c0 4.142 3.357 7.5 7.5 7.5s7.5-3.358 7.5-7.5v-53.11h15v151.037c-2.408-.573-4.917-.885-7.498-.885-2.583 0-5.092.312-7.502.886v-62.928c0-4.142-3.357-7.5-7.5-7.5s-7.5 3.358-7.5 7.5v71.162c-4.372 4.228-7.558 9.669-9.012 15.778h-10.668c-4.143 0-7.5 3.358-7.5 7.5 0 4.143 3.358 7.5 7.5 7.5h10.667c1.454 6.109 4.64 11.549 9.012 15.777v133.293h-11.639c-9.248 0-16.77 7.519-16.77 16.76v19.13c0 9.247 7.522 16.77 16.77 16.77h164.23c4.143 0 7.5-3.358 7.5-7.5s-3.357-7.5-7.5-7.5h-164.23c-.976 0-1.77-.794-1.77-1.77v-19.13c0-.971.794-1.76 1.77-1.76h263.55c.971 0 1.76.79 1.76 1.76v19.13c0 .976-.789 1.77-1.76 1.77h-64.32c-4.143 0-7.5 3.358-7.5 7.5s3.357 7.5 7.5 7.5h278.06c9.893 0 17.94-8.052 17.94-17.95v-193.83c0-9.892-8.048-17.941-17.94-17.941zm-156.067-34.778c1.895-8.837 9.833-15.251 18.877-15.251h54.439c9.044 0 16.982 6.414 18.877 15.253l8.382 39.063c.006.027.015.052.021.079 1.23 5.561 5.909 9.771 11.468 10.517v8.14c0 5.135-1.999 9.961-5.631 13.592l-5.481 5.481c-3.703 3.704-8.627 5.743-13.864 5.743h-81.981c-5.237 0-10.161-2.04-13.864-5.743l-5.481-5.482c-3.631-3.63-5.63-8.458-5.63-13.592v-8.14c5.625-.745 10.303-5.067 11.487-10.598zm-220.601 158.842c3.559-.672 7.424-1.005 11.728-1.005 15.441 0 22.721 4.173 31.149 9.005 8.988 5.153 19.177 10.995 38.62 10.995 18.202 0 28.287-5.123 36.874-10.003l12.939 24.435c2.209 4.168 2.075 9.07-.356 13.112-2.434 4.042-6.705 6.456-11.427 6.456h-125.449c-4.72 0-8.99-2.415-11.424-6.459-2.433-4.042-2.566-8.943-.357-13.111zm120.808-42.785h6.63c3.973 0 7.828.848 11.35 2.415v55.864l-30.861-58.279zm29.825-8.174c-.159-.108-.318-.215-.483-.315-6.476-4.042-13.997-6.326-21.842-6.485v-13c5.383.083 10.653.927 15.671 2.479.102.033.207.058.311.088 11.893 3.524 22.234 11.357 29.394 21.899l27.746 40.855c7.986 11.779 21.257 18.811 35.498 18.811h87.63c6.187 0 11.22-5.033 11.22-11.22v-23.97c0-3.634 2.771-6.72 6.185-6.878 1.811-.089 3.506.549 4.802 1.785 1.299 1.238 2.014 2.909 2.014 4.703v24.36c0 13.355-10.865 24.22-24.22 24.22h-87.63c-18.544 0-35.831-9.16-46.246-24.504l-27.751-40.862c-3.301-4.853-7.583-8.771-12.299-11.966zm-57.735-19.826h20.41v13h-13.63c-3.559 0-6.776 1.821-8.607 4.872-1.829 3.047-1.923 6.738-.261 9.858l20.538 38.785c-7.905 4.509-15.206 8.266-29.851 8.266-15.448 0-22.729-4.174-31.16-9.007-12.842-7.363-23.125-11.588-41.894-10.929l23.778-44.894c1.797-3.405 2.747-7.23 2.747-11.06v-24.179h15.35v47.252c0 4.142 3.357 7.5 7.5 7.5s7.5-3.358 7.5-7.5v-47.252h13.32v11.028c0 7.863 6.397 14.26 14.26 14.26zm-27.58-40.288v-25.702h11.75c.866 0 1.57.704 1.57 1.57v24.132zm-84.987-103.749v-4.114h152.948v4.114c0 5.229-2.35 10.091-6.445 13.34l-62.658 49.703h-14.741l-62.658-49.702c-4.097-3.25-6.446-8.112-6.446-13.341zm54.637 79.617c0-.866.709-1.57 1.58-1.57h13.77v25.702h-15.35zm-15 63.31c0 1.4-.351 2.804-1.008 4.05l-49.919 94.248c-4.465 8.426-4.416 18.26.048 26.594h-13.071v-133.291c4.373-4.228 7.559-9.67 9.014-15.779h54.937v24.178zm-69.05-31.678c0 9.593-7.805 17.398-17.397 17.398-9.595 0-17.4-7.805-17.4-17.398s7.806-17.398 17.4-17.398c9.592 0 17.397 7.804 17.397 17.398zm-24.9 156.57v-125.059c2.41.574 4.919.886 7.502.886 2.581 0 5.09-.312 7.498-.885v125.058zm453.59 34.71c0 1.627-1.319 2.95-2.94 2.95h-197.073l.001-.027c.059-.573.091-1.154.091-1.743v-19.13c0-9.242-7.519-16.76-16.76-16.76h-9.141v-78.752l24.484 36.052c13.208 19.46 35.136 31.078 58.656 31.078h87.63c21.626 0 39.22-17.594 39.22-39.22v-24.36c0-5.85-2.428-11.52-6.661-15.558-4.292-4.095-9.927-6.191-15.856-5.914-11.485.533-20.482 10.136-20.482 21.862v20.19h-83.85c-9.262 0-17.891-4.571-23.086-12.234l-27.75-40.86c-8.062-11.87-19.372-20.814-32.305-25.989v-25.415c0-1.621 1.319-2.94 2.94-2.94h29.004v8.022c0 9.141 3.56 17.735 10.022 24.199l5.482 5.482c6.536 6.536 15.228 10.136 24.471 10.136h81.98c9.244 0 17.935-3.6 24.472-10.137l5.48-5.481c6.465-6.464 10.024-15.058 10.024-24.199v-8.022h29.003c1.621 0 2.94 1.319 2.94 2.94v193.83z"/><path d="m343.057 253.346c.624 1.271 1.35 2.233 1.814 2.836 2.77 3.596 7.106 5.577 11.686 5.577h55.064c.57 0 1.136-.032 1.695-.094l.013-.002c3.92-.442 7.482-2.395 9.977-5.479.051-.105 4.609-5.174 3.013-12.608l-8.558-39.861c-1.254-5.838-6.499-10.076-12.473-10.076h-42.399c-5.972 0-11.218 4.236-12.474 10.076l-8.558 39.863c-.686 3.231-.305 6.712 1.2 9.768zm21.645-44.707h38.775l8.167 38.118s-.007-.016-.022-.016h-55.097z"/><path d="m337.087 414.9h-18.137c-4.143 0-7.5 3.358-7.5 7.5s3.357 7.5 7.5 7.5h18.137c4.143 0 7.5-3.358 7.5-7.5s-3.358-7.5-7.5-7.5z"/><path d="m393.158 414.9h-18.137c-4.143 0-7.5 3.358-7.5 7.5s3.357 7.5 7.5 7.5h18.137c4.143 0 7.5-3.358 7.5-7.5s-3.357-7.5-7.5-7.5z"/><path d="m449.229 414.9h-18.136c-4.143 0-7.5 3.358-7.5 7.5s3.357 7.5 7.5 7.5h18.136c4.143 0 7.5-3.358 7.5-7.5s-3.357-7.5-7.5-7.5z"/></g></g><g/><g/><g/><g/><g/><g/><g/><g/><g/><g/><g/><g/><g/><g/><g/></svg>