<svg id="Capa_1" enable-background="new 0 0 512 512" viewBox="0 0 512 512" xmlns="http://www.w3.org/2000/svg"><g><g><path d="m176.645 223.59h115.481c20.45 0 32.754-22.675 21.608-39.82l-49.849-76.679c-4.102-6.31-6.286-13.675-6.286-21.201v-40.303c0-3.142 1.368-6.176 3.855-8.097 3.963-3.06 6.517-7.855 6.517-13.249 0-9.246-7.495-16.741-16.741-16.741h-33.69c-9.246 0-16.741 7.495-16.741 16.741 0 5.395 2.554 10.19 6.517 13.249 2.487 1.92 3.855 4.955 3.855 8.097v40.303c0 7.526-2.183 14.891-6.286 21.201l-49.849 76.679c-11.145 17.145 1.159 39.82 21.609 39.82z" fill="#d8ecfe"/><path d="m313.734 183.77-49.849-76.679c-4.102-6.31-6.286-13.675-6.286-21.201v-40.303c0-3.142 1.368-6.177 3.855-8.097 3.963-3.06 6.517-7.855 6.517-13.25 0-9.246-7.495-16.741-16.741-16.741h-23.34c9.246 0 16.741 7.495 16.741 16.741 0 5.395-2.554 10.19-6.517 13.25-2.487 1.92-3.855 4.955-3.855 8.097v40.303c0 7.526 2.184 14.891 6.286 21.201l49.849 76.679c11.146 17.145-1.158 39.82-21.608 39.82h23.341c20.449 0 32.753-22.674 21.607-39.82z" fill="#bddbff"/><path d="m296.007 156.501c-26.47 21.272-72.796-21.12-115.828-11.405l-25.142 38.674c-11.146 17.145 1.158 39.82 21.608 39.82h115.481c20.45 0 32.754-22.675 21.608-39.82z" fill="#5de1c4"/><path d="m296.007 156.501c-5.643 4.535-12.191 6.17-19.414 6.04l13.801 21.229c11.146 17.145-1.158 39.82-21.608 39.82h23.341c20.45 0 32.754-22.675 21.608-39.82z" fill="#0ed2b3"/><path d="m90.722 231.349v17.464c0 4.285 3.474 7.759 7.759 7.759h271.809c4.285 0 7.759-3.474 7.759-7.759v-17.464c0-4.285-3.474-7.759-7.759-7.759h-271.809c-4.285 0-7.759 3.474-7.759 7.759z" fill="#d8ecfe"/><path d="m239.608 287.139c-3.146-2.121-7.294-2.121-10.44 0-8.148 5.495-13.508 14.806-13.508 25.373 0 12.687 7.725 23.571 18.727 28.203 11.002-4.633 18.725-15.516 18.725-28.203-.001-10.567-5.356-19.878-13.504-25.373z" fill="#fdb441"/><path d="m213.38 346.219v95.739h42.011v-95.739c0-4.719-3.824-8.548-8.543-8.548h-24.921c-4.719.001-8.547 3.829-8.547 8.548z" fill="#d8ecfe"/><path d="m263.886 450.545v-25.255c0-2.627-2.129-4.756-4.756-4.756h-49.489c-2.627 0-4.756 2.129-4.756 4.756v25.255c0 11.302-9.162 20.464-20.464 20.464h-13.456c-5.198 0-9.412 4.214-9.412 9.412v14.667c0 5.198 4.214 9.412 9.412 9.412h126.84c5.198 0 9.412-4.214 9.412-9.412v-14.667c0-5.198-4.214-9.412-9.412-9.412h-13.455c-11.302 0-20.464-9.162-20.464-20.464z" fill="#678d98"/></g><path d="m430.951 434.457h-45.214l-23.235-170.385h7.788c8.414 0 15.259-6.845 15.259-15.259v-17.464c0-8.414-6.845-15.26-15.259-15.26h-50.366c.507-.778.996-1.573 1.446-2.403 5.913-10.897 5.409-23.609-1.349-34.004l-37.684-57.966c-2.258-3.474-6.903-4.457-10.376-2.2-3.473 2.258-4.458 6.903-2.2 10.376l15.579 23.964c-10.695 3.496-25.439-1.42-42.075-6.975-14.999-5.007-31.509-10.514-48.319-10.742l16.227-24.961c4.905-7.544 7.498-16.288 7.498-25.288v-40.303c0-5.514-2.532-10.761-6.772-14.033-2.288-1.767-3.6-4.432-3.6-7.313 0-5.095 4.146-9.24 9.241-9.24h33.69c5.095 0 9.241 4.146 9.241 9.241 0 2.881-1.312 5.546-3.599 7.312-4.241 3.273-6.773 8.52-6.773 14.034v40.302c0 3.801.469 7.596 1.393 11.282 1.007 4.018 5.083 6.462 9.099 5.45 4.018-1.007 6.458-5.08 5.451-9.099-.625-2.494-.942-5.062-.942-7.634v-40.302c0-.886.359-1.713.939-2.16 5.995-4.628 9.433-11.621 9.433-19.186 0-13.366-10.875-24.241-24.241-24.241h-33.69c-13.367 0-24.241 10.874-24.241 24.24 0 7.565 3.438 14.559 9.434 19.187.579.446.938 1.273.938 2.159v40.304c0 6.09-1.754 12.007-5.074 17.112l-49.849 76.68c-6.758 10.395-7.262 23.106-1.349 34.004.45.83.939 1.625 1.446 2.403h-50.365c-8.414 0-15.259 6.846-15.259 15.26v17.464c0 8.414 6.845 15.259 15.259 15.259h7.786l-32.648 239.413c-.56 4.104 2.313 7.885 6.418 8.445.344.047.685.069 1.022.069 3.692 0 6.909-2.728 7.422-6.487l32.925-241.441h95.479c4.142 0 7.5-3.357 7.5-7.5s-3.358-7.5-7.5-7.5h-118.404c-.143 0-.259-.116-.259-.259v-17.464c0-.144.116-.26.259-.26h271.809c.143 0 .259.116.259.26v17.464c0 .143-.116.259-.259.259h-118.404c-4.142 0-7.5 3.357-7.5 7.5s3.358 7.5 7.5 7.5h95.477l23.235 170.385h-99.212v-9.168c0-5.447-3.573-10.07-8.497-11.661v-67.409c0-5.877-3.183-11.012-7.905-13.808 3.623-5.91 5.625-12.776 5.625-19.902 0-12.682-6.283-24.49-16.812-31.592-5.726-3.853-13.115-3.85-18.818.001-10.532 7.095-16.82 18.904-16.82 31.591 0 7.126 2.003 13.994 5.627 19.904-4.723 2.797-7.906 7.931-7.906 13.806v67.41c-4.923 1.592-8.495 6.214-8.495 11.661v25.255c0 7.148-5.815 12.964-12.963 12.964h-13.456c-9.325 0-16.912 7.587-16.912 16.912v14.667c0 9.325 7.587 16.912 16.912 16.912h126.841c9.325 0 16.912-7.587 16.912-16.912v-14.667c0-9.325-7.587-16.912-16.912-16.912h-13.457c-7.148 0-12.964-5.815-12.964-12.964v-1.087h101.258l7.644 56.056c.513 3.76 3.729 6.487 7.422 6.487.337 0 .679-.022 1.022-.069 4.104-.561 6.978-4.341 6.418-8.445l-7.368-54.028h43.168c4.142 0 7.5-3.357 7.5-7.5.001-4.143-3.357-7.501-7.499-7.501zm-254.306-218.368c-6.809 0-12.813-3.573-16.061-9.558-3.247-5.984-2.97-12.966.741-18.674l23.407-36.005c17.429-2.874 35.895 3.286 53.785 9.257 13.689 4.57 26.928 8.99 39.013 8.99 5.673 0 11.091-.979 16.182-3.37l13.735 21.127c3.711 5.708 3.988 12.689.741 18.674-3.248 5.984-9.251 9.558-16.061 9.558h-115.482zm45.285 129.08h24.92c.573 0 1.04.471 1.04 1.05v66.813h-27.01v-66.813c0-.579.471-1.05 1.05-1.05zm11.437-51.814c.305-.206.662-.309 1.021-.309.36 0 .721.104 1.028.311 6.383 4.306 10.194 11.465 10.194 19.152 0 6.843-3.047 13.292-8.233 17.66h-5.984c-5.186-4.368-8.233-10.817-8.233-17.66 0-7.688 3.813-14.847 10.207-19.154zm50.983 185.153h13.456c1.054 0 1.912.857 1.912 1.912v14.667c0 1.055-.858 1.912-1.912 1.912h-126.841c-1.054 0-1.912-.857-1.912-1.912v-14.667c0-1.055.858-1.912 1.912-1.912h13.456c15.419 0 27.963-12.545 27.963-27.964v-22.512h44.001v22.512c.001 15.419 12.546 27.964 27.965 27.964z"/></g><g/><g/><g/><g/><g/><g/><g/><g/><g/><g/><g/><g/><g/><g/><g/></svg>