<svg id="Capa_1" enable-background="new 0 0 512 512" viewBox="0 0 512 512" xmlns="http://www.w3.org/2000/svg"><g><g><g><path d="m18.42 19.672v442.146c0 6.724 5.448 12.172 12.172 12.172h337.78c6.724 0 12.175-5.451 12.175-12.174v-442.143c0-6.724-5.452-12.173-12.176-12.173h-337.779c-6.724 0-12.172 5.448-12.172 12.172z" fill="#fdb441"/><path d="m368.371 7.5h-31.115c6.724 0 12.174 5.451 12.174 12.174v442.142c0 6.724-5.451 12.174-12.174 12.174h31.115c6.724 0 12.175-5.451 12.175-12.174v-442.143c.001-6.724-5.451-12.173-12.175-12.173z" fill="#fe9738"/><path d="m352.14 46.452v388.579c0 5.834-4.728 10.551-10.551 10.551h-226.567l-68.195-68.196v-330.934c0-5.823 4.728-10.551 10.551-10.551h284.211c5.824 0 10.551 4.728 10.551 10.551z" fill="#d8ecfe"/><path d="m242.67 48.45h-86.373c-6.262 0-11.338-5.076-11.338-11.338v-29.612h109.049v29.612c0 6.262-5.076 11.338-11.338 11.338z" fill="#678d98"/><path d="m115.022 445.582v-57.646c0-5.823-4.717-10.55-10.55-10.55h-57.644z" fill="#bddbff"/><g fill="#fe76a8"><path d="m105.239 175.591c-8.405 0-15.218 6.813-15.218 15.218s6.813 15.218 15.218 15.218 15.219-6.813 15.219-15.217-6.814-15.219-15.219-15.219z"/><path d="m187.643 129.709c0 8.405-6.812 15.218-15.217 15.218s-15.218-6.813-15.218-15.218 6.813-15.218 15.218-15.218 15.217 6.814 15.217 15.218z"/><path d="m187.644 190.809c0 8.405-6.813 15.218-15.218 15.218s-15.217-6.813-15.217-15.218 6.813-15.218 15.217-15.218 15.218 6.813 15.218 15.218z"/><path d="m238.509 114.491c-8.405 0-15.218 6.813-15.218 15.218s6.814 15.218 15.218 15.218c8.405 0 15.218-6.813 15.218-15.218s-6.814-15.218-15.218-15.218z"/></g><ellipse cx="380.546" cy="391.466" fill="#62dbfb" rx="113.034" ry="113.034" transform="matrix(.707 -.707 .707 .707 -165.349 383.745)"/><path d="m380.547 278.432c-7.941 0-15.689.823-23.167 2.381 51.314 10.689 89.867 56.167 89.867 110.653s-38.553 99.964-89.867 110.653c7.478 1.558 15.226 2.38 23.167 2.38 62.427 0 113.034-50.607 113.034-113.034s-50.607-113.033-113.034-113.033z" fill="#01d0fb"/><circle cx="380.546" cy="391.466" fill="#d8ecfe" r="84.553"/><path d="m418.131 315.756c18.093 20.04 29.116 46.585 29.116 75.71 0 29.126-11.023 55.671-29.116 75.711 27.81-13.862 46.969-42.584 46.969-75.711-.001-33.126-19.159-61.848-46.969-75.71z" fill="#bddbff"/><path d="m368.446 396.84c.792-8.558-9.014-14.977-19.143-8.401-1.283.833-2.805 1.17-4.33 1.052-12.008-.936-14.776 16.09-4.156 19.648 1.946.652 3.39 2.263 3.722 4.288 1.318 8.049 11.593 14.507 20.048 11.688 7.392-2.464 18.343-15.186 6.046-23.492-1.57-1.062-2.361-2.896-2.187-4.783z" fill="#fdb441"/></g></g><g><path d="m105.239 213.526c9.9 0 18.336-6.366 21.442-15.217h24.307c3.105 8.851 11.541 15.218 21.439 15.218 3.529 0 6.872-.809 9.854-2.25l20.477 20.477c2.93 2.929 7.678 2.928 10.606 0 2.929-2.93 2.929-7.678 0-10.607l-20.474-20.475c1.444-2.985 2.255-6.331 2.255-9.863 0-12.526-10.191-22.718-22.718-22.718-9.898 0-18.334 6.367-21.439 15.219h-24.306c-.163-.466-.337-.927-.53-1.378l35.462-32.247c3.217 1.748 6.901 2.742 10.813 2.742 9.898 0 18.333-6.366 21.438-15.217h23.205c3.106 8.851 11.541 15.217 21.44 15.217 3.53 0 6.875-.81 9.858-2.253l19.399 19.399c1.464 1.464 3.384 2.196 5.303 2.196s3.839-.732 5.303-2.196c2.929-2.93 2.929-7.678 0-10.607l-19.399-19.399c1.443-2.983 2.253-6.328 2.253-9.858s-.81-6.874-2.252-9.856l19.398-19.398c2.929-2.93 2.929-7.678 0-10.607-2.929-2.928-7.678-2.928-10.606 0l-19.398 19.398c-2.984-1.444-6.329-2.254-9.86-2.254-9.899 0-18.335 6.367-21.44 15.219h-23.204c-3.105-8.852-11.54-15.219-21.439-15.219-3.529 0-6.873.81-9.856 2.252l-19.476-19.476c-2.929-2.928-7.678-2.928-10.606 0-2.929 2.93-2.929 7.678 0 10.607l19.475 19.475c-1.444 2.984-2.254 6.329-2.254 9.86 0 3.15.646 6.152 1.81 8.882l-35.46 32.245c-3.218-1.75-6.904-2.745-10.818-2.745-12.527 0-22.718 10.191-22.718 22.718s10.189 22.716 22.716 22.716zm67.187-30.435c4.256 0 7.718 3.462 7.718 7.718 0 2.125-.864 4.053-2.259 5.451l-.01.01c-1.397 1.393-3.325 2.258-5.449 2.258-4.255 0-7.717-3.462-7.717-7.718s3.462-7.719 7.717-7.719zm66.083-61.1c4.255 0 7.718 3.462 7.718 7.718s-3.462 7.718-7.718 7.718-7.718-3.462-7.718-7.717c0-4.256 3.462-7.719 7.718-7.719zm-58.367 7.719c0 4.255-3.461 7.717-7.716 7.717s-7.718-3.462-7.718-7.718c0-2.124.863-4.049 2.255-5.446l.01-.009c1.397-1.392 3.33-2.263 5.453-2.263 4.255 0 7.716 3.463 7.716 7.719zm-74.903 53.381c4.257 0 7.72 3.463 7.72 7.719 0 4.255-3.463 7.717-7.72 7.717-4.255 0-7.718-3.462-7.718-7.718s3.462-7.718 7.718-7.718z"/><path d="m489.496 339.845c-1.775-3.742-6.246-5.336-9.991-3.56-3.742 1.775-5.336 6.249-3.56 9.991 6.725 14.17 10.135 29.374 10.135 45.189 0 58.192-47.342 105.535-105.534 105.535s-105.534-47.343-105.534-105.534c0-58.192 47.343-105.535 105.536-105.535 29.509 0 56.874 11.87 77.053 33.425 2.831 3.023 7.577 3.18 10.601.349 3.023-2.831 3.18-7.577.349-10.601-20.997-22.428-49.998-36.003-80.503-37.927v-251.507c.001-10.846-8.826-19.67-19.678-19.67h-337.78c-10.846 0-19.67 8.824-19.67 19.67v92.71c0 4.143 3.358 7.5 7.5 7.5s7.5-3.357 7.5-7.5v-92.71c0-2.575 2.095-4.67 4.67-4.67h106.869v13.4h-80.079c-9.953 0-18.051 8.097-18.051 18.05v330.938c0 2.071.848 3.96 2.196 5.304l68.193 68.193c1.325 1.322 3.258 2.196 5.303 2.196h161.969c2.798 4.684 5.903 9.163 9.29 13.41h-255.69c-2.575 0-4.67-2.095-4.67-4.67v-314.441c0-4.143-3.358-7.5-7.5-7.5s-7.5 3.357-7.5 7.5v314.44c0 10.846 8.824 19.67 19.67 19.67h269.901c21.305 18.966 49.355 30.51 80.056 30.51 66.462 0 120.534-54.071 120.534-120.534-.001-18.058-3.898-35.425-11.585-51.621zm-116.447-320.175v251.501c-4.541.28-9.016.808-13.409 1.579v-226.3c0-9.953-8.097-18.05-18.05-18.05h-80.082v-13.4h106.862c2.581 0 4.679 2.095 4.679 4.67zm-126.541-4.67v22.112c0 2.116-1.722 3.838-3.838 3.838h-86.374c-2.116 0-3.838-1.722-3.838-3.838v-22.112zm-23.454 40.95-3.02 12.4c-.25 1.023-1.161 1.739-2.214 1.739h-36.68c-1.048 0-1.954-.716-2.203-1.734l-3.021-12.405zm-115.532 371.525-42.589-42.589h39.538c1.683 0 3.051 1.367 3.051 3.05zm15 10.606v-50.145c0-9.953-8.097-18.05-18.051-18.05h-50.143v-323.436c0-1.682 1.37-3.05 3.052-3.05h81.181c2.597 7.3 9.556 12.55 17.736 12.55h4.181l3.887 15.96c1.896 7.76 8.795 13.18 16.776 13.18h36.68c7.988 0 14.89-5.42 16.787-13.186l3.886-15.954h4.177c8.18 0 15.139-5.25 17.736-12.55h81.184c1.682 0 3.05 1.368 3.05 3.05v229.942c-48.982 15.317-84.628 61.11-84.628 115.073 0 16.517 3.342 32.269 9.381 46.615h-146.872z"/><path d="m380.546 299.413c-50.758 0-92.053 41.295-92.053 92.053 0 50.759 41.295 92.054 92.053 92.054s92.053-41.295 92.053-92.054c0-50.758-41.295-92.053-92.053-92.053zm0 169.107c-42.487 0-77.053-34.566-77.053-77.054s34.566-77.053 77.053-77.053 77.053 34.565 77.053 77.053-34.566 77.054-77.053 77.054z"/><path d="m349.837 358.513c.758.122 1.521.182 2.283.182 4.13 0 8.19-1.756 10.986-4.848 2.778-3.072 2.54-7.814-.533-10.593-2.976-2.691-7.518-2.551-10.325.25-1.788-3.541-6.061-5.095-9.728-3.472-3.788 1.677-5.499 6.106-3.823 9.894 1.998 4.513 6.266 7.803 11.14 8.587z"/><path d="m375.987 396.232c.125-6.251-3.045-12.036-8.48-15.321-6.541-3.953-14.771-3.541-22.064 1.093-9.004-.646-16.544 5.084-18.352 13.976-1.738 8.552 2.559 16.729 10.289 19.878 1.291 5.555 5.085 10.559 10.567 13.87 3.896 2.353 8.189 3.562 12.388 3.562 2.261 0 4.494-.351 6.625-1.061 7.17-2.39 15.323-10.232 16.554-19.22.524-3.83.187-10.947-7.527-16.777zm-7.335 14.741c-.361 2.634-3.932 6.19-6.437 7.025-1.887.629-4.321.214-6.514-1.111-2.019-1.219-3.495-3.054-3.76-4.673-.776-4.739-4.126-8.644-8.741-10.188-1.765-.592-1.525-2.49-1.41-3.059.362-1.782 1.449-2.021 2.186-2.021.16 0 .303.012.418.021 3.239.251 6.352-.523 8.993-2.238 2.41-1.564 4.788-1.931 6.362-.98.514.311 1.356 1.034 1.23 2.398-.431 4.647 1.661 9.127 5.458 11.689 2.42 1.637 2.276 2.687 2.215 3.137z"/><path d="m404.841 355.196c2.149 0 4.284-.92 5.767-2.7 2.651-3.183 2.219-7.912-.963-10.562l-3.478-2.898c-3.182-2.652-7.911-2.221-10.563.96-2.652 3.183-2.222 7.912.96 10.563l3.481 2.9c1.402 1.168 3.103 1.737 4.796 1.737z"/><path d="m416.125 379.02c-4.451 1.53-8.179 4.84-10.227 9.078-2.048 4.237-2.326 9.213-.761 13.652.476 1.35 1.075 2.519 1.556 3.459.238.465.545 1.065.701 1.448-3.959-.64-7.735 1.961-8.536 5.919-.821 4.061 1.804 8.018 5.864 8.839.95.191 1.912.285 2.873.285 3.921 0 7.799-1.564 10.589-4.377 3.47-3.5 4.995-8.67 3.979-13.492-.474-2.248-1.385-4.028-2.117-5.458-.319-.622-.62-1.211-.761-1.609-.234-.665-.188-1.504.12-2.14.307-.634.935-1.191 1.6-1.421 3.917-1.347 6-5.614 4.653-9.531-1.348-3.917-5.617-6.001-9.533-4.652z"/><path d="m238.509 262.139h-148.488c-4.142 0-7.5 3.357-7.5 7.5s3.358 7.5 7.5 7.5h148.488c4.142 0 7.5-3.357 7.5-7.5s-3.358-7.5-7.5-7.5z"/><path d="m238.509 300.903h-148.488c-4.142 0-7.5 3.357-7.5 7.5s3.358 7.5 7.5 7.5h148.488c4.142 0 7.5-3.357 7.5-7.5s-3.358-7.5-7.5-7.5z"/><path d="m170.147 339.667h-80.126c-4.142 0-7.5 3.357-7.5 7.5s3.358 7.5 7.5 7.5h80.126c4.142 0 7.5-3.357 7.5-7.5s-3.358-7.5-7.5-7.5z"/></g></g><g/><g/><g/><g/><g/><g/><g/><g/><g/><g/><g/><g/><g/><g/><g/></svg>