<svg id="Capa_1" enable-background="new 0 0 512 512" viewBox="0 0 512 512" xmlns="http://www.w3.org/2000/svg"><g><g><path d="m76.235 99.145v247.617c0 7.557 6.129 13.683 13.686 13.683h316.156v-261.3z" fill="#fe76a8"/><path d="m366.775 99.145h39.302v261.3h-39.302z" fill="#fe5694"/><path d="m76.235 99.145v-34.449c0-7.557 6.127-13.683 13.684-13.683h302.475c7.557 0 13.683 6.126 13.683 13.683v34.449z" fill="#d8ecfe"/><path d="m392.394 51.013h-39.302c7.557 0 13.683 6.126 13.683 13.683v34.449h39.302v-34.449c0-7.557-6.126-13.683-13.683-13.683z" fill="#bddbff"/><path d="m76.235 124.702c-37.96 0-68.731 30.773-68.731 68.732s30.772 68.731 68.731 68.731c37.96 0 68.732-30.772 68.732-68.731s-30.772-68.732-68.732-68.732z" fill="#62dbfb"/><path d="m235.116 175.812c-9.732 0-17.622 7.889-17.622 17.621s7.89 17.623 17.622 17.623 17.62-7.891 17.62-17.624-7.887-17.62-17.62-17.62z" fill="#5de1c4"/><circle cx="235.115" cy="292.713" fill="#5de1c4" r="17.621"/><path d="m462.566 479.582h-112.98c-31.243 0-51.484-32.974-37.344-60.827l55.581-109.534c2.944-5.826 4.488-12.251 4.488-18.781v-69.837h67.533v69.837c0 6.53 1.534 12.956 4.489 18.782l55.58 109.534c14.139 27.853-6.104 60.826-37.347 60.826z" fill="#d8ecfe"/><path d="m499.913 418.755-55.58-109.534c-2.954-5.826-4.489-12.252-4.489-18.782v-69.837h-37.858v6.635h-30.339v34.928h10.633c10.883 0 19.705 8.822 19.705 19.705v8.566c0 6.53 1.451 12.957 4.244 18.783l52.557 109.537c13.37 27.853-5.773 60.825-35.316 60.825h39.094c31.245.001 51.488-32.973 37.349-60.826z" fill="#bddbff"/><path d="m462.566 479.582h-112.98c-31.24 0-51.479-32.971-37.344-60.827l12.106-23.855c9.225-4.112 20.44-7.659 37.717-9.497 51.296-5.466 53.479 15.004 104.765 9.538 7.477-.798 13.822-1.92 19.349-3.263l13.734 27.079c14.135 27.854-6.107 60.825-37.347 60.825z" fill="#5de1c4"/><path d="m423.645 479.582h38.921c31.24 0 51.482-32.971 37.347-60.827l-13.734-27.079c-5.527 1.344-11.872 2.465-19.349 3.263-7.229.771-13.481 1.025-19.033.911l10.991 22.907c13.343 27.798-5.7 60.695-35.143 60.825z" fill="#0ed2b3"/><path d="m435.515 200.513h-58.876c-8.769 0-15.879 7.109-15.879 15.878 0 8.77 7.109 15.878 15.879 15.878h58.876c8.769 0 15.878-7.109 15.878-15.878.001-8.769-7.109-15.878-15.878-15.878z" fill="#d8ecfe"/><path d="m435.515 200.513h-32.954c8.769 0 15.878 7.109 15.878 15.878 0 8.77-7.109 15.878-15.878 15.878h32.954c8.769 0 15.878-7.109 15.878-15.878.001-8.769-7.109-15.878-15.878-15.878z" fill="#bddbff"/></g><g><path d="m68.733 156.647v29.287h-13.334c-4.143 0-7.5 3.357-7.5 7.5s3.357 7.5 7.5 7.5h20.834c4.143 0 7.5-3.357 7.5-7.5v-36.787c0-4.143-3.357-7.5-7.5-7.5-4.142-.001-7.5 3.357-7.5 7.5z"/><path d="m506.606 415.36-55.582-109.534c-2.406-4.738-3.678-10.059-3.678-15.384v-53.898c6.904-4.068 11.55-11.576 11.55-20.154 0-12.891-10.487-23.378-23.378-23.378h-21.941v-128.318c0-11.681-9.5-21.184-21.181-21.184h-31.802v-11.095c0-4.143-3.357-7.5-7.5-7.5s-7.5 3.357-7.5 7.5v11.095h-96.937v-11.095c0-4.143-3.357-7.5-7.5-7.5s-7.5 3.357-7.5 7.5v11.095h-96.937v-11.095c0-4.143-3.357-7.5-7.5-7.5s-7.5 3.357-7.5 7.5v11.095h-31.804c-11.68 0-21.183 9.503-21.183 21.184v52.878c-38.527 3.781-68.733 36.356-68.733 75.861 0 39.503 30.205 72.077 68.732 75.858v77.472c0 11.679 9.506 21.181 21.189 21.181h44.581c4.143 0 7.5-3.357 7.5-7.5s-3.357-7.5-7.5-7.5h-44.581c-3.413 0-6.189-2.772-6.189-6.181v-77.471c36.058-3.538 64.821-32.301 68.359-68.359h59.046c3.198 10.201 12.738 17.623 23.979 17.623 11.24 0 20.779-7.423 23.976-17.624h14.661c.987 0 1.79.802 1.79 1.789v77.232c0 .987-.803 1.79-1.79 1.79h-16.05c-4.117-8.468-12.818-14.151-22.59-14.151-9.783 0-18.491 5.694-22.598 14.151h-55.1l4.884-4.442c3.064-2.787 3.288-7.53.501-10.595-2.785-3.063-7.528-3.289-10.595-.501l-19.234 17.494c-1.563 1.421-2.453 3.436-2.453 5.548s.891 4.127 2.453 5.548l19.234 17.495c3.064 2.787 7.809 2.563 10.595-.501 2.787-3.064 2.563-7.808-.501-10.595l-4.893-4.451h52.914c1.934 11.942 12.313 21.09 24.793 21.09s22.858-9.148 24.793-21.09h13.847c9.258 0 16.79-7.532 16.79-16.79v-77.233c0-9.258-7.532-16.789-16.791-16.789h-14.661c-3.198-10.199-12.736-17.62-23.975-17.62-11.241 0-20.781 7.421-23.979 17.621h-59.046c-3.538-36.059-32.301-64.821-68.359-68.36v-10.93h314.844v86.37h-21.936c-12.892 0-23.379 10.487-23.379 23.378 0 8.579 4.647 16.088 11.553 20.156v53.896c0 5.294-1.274 10.62-3.678 15.386l-23.908 47.115h-167.726c-4.143 0-7.5 3.357-7.5 7.5s3.357 7.5 7.5 7.5h160.115l-24.06 47.416c-7.83 15.427-7.102 33.439 1.948 48.182 9.05 14.742 24.781 23.543 42.08 23.543h56.56c4.143 0 7.5-3.357 7.5-7.5s-3.357-7.5-7.5-7.5h-56.56c-12.044 0-22.995-6.127-29.296-16.391s-6.808-22.804-1.355-33.546l10.875-21.431c6.953-2.901 16.939-6.139 33.053-7.854 24.217-2.583 36.531.875 49.567 4.532 10.535 2.956 21.341 5.989 37.869 5.988 5.163 0 10.887-.296 17.332-.982 5.168-.552 9.949-1.267 14.483-2.158l11.116 21.906c5.451 10.74 4.944 23.28-1.356 33.542-6.302 10.266-17.257 16.394-29.306 16.394h-21.42c-4.143 0-7.5 3.357-7.5 7.5s3.357 7.5 7.5 7.5h21.42c17.304 0 33.039-8.802 42.089-23.546 9.049-14.741 9.779-32.752 1.95-48.178zm-271.492-112.528c-5.58 0-10.12-4.54-10.12-10.12 0-.665.066-1.326.206-2.012.932-4.698 5.101-8.109 9.914-8.109 4.805 0 8.968 3.4 9.919 8.141.003.013.005.026.008.04.127.628.193 1.281.193 1.94 0 5.58-4.54 10.12-10.12 10.12zm.003-119.521c5.58 0 10.119 4.541 10.119 10.122 0 5.582-4.539 10.123-10.119 10.123-5.582 0-10.123-4.541-10.123-10.123-.001-5.582 4.54-10.122 10.123-10.122zm-97.653 10.121c0 33.763-27.468 61.231-61.231 61.231s-61.233-27.468-61.233-61.23c0-33.764 27.469-61.233 61.232-61.233s61.232 27.469 61.232 61.232zm-53.731-101.79v-26.948c0-3.409 2.774-6.184 6.183-6.184h31.803v8.838c0 4.143 3.357 7.5 7.5 7.5s7.5-3.357 7.5-7.5v-8.838h96.937v8.838c0 4.143 3.357 7.5 7.5 7.5s7.5-3.357 7.5-7.5v-8.838h96.937v8.838c0 4.143 3.357 7.5 7.5 7.5s7.5-3.357 7.5-7.5v-8.838h31.802c3.409 0 6.183 2.774 6.183 6.184v26.948zm292.908 116.371h58.877c4.619 0 8.378 3.759 8.378 8.378 0 4.62-3.759 8.379-8.378 8.379h-58.877c-4.62 0-8.379-3.759-8.379-8.379s3.759-8.378 8.379-8.378zm89.398 179.471c-24.205 2.581-36.522-.874-49.557-4.532-13.827-3.88-28.129-7.891-55.209-5.006-8.033.855-15.177 2.09-21.837 3.799l35.088-69.145c3.462-6.867 5.292-14.529 5.292-22.157v-50.673h52.531v50.673c0 7.674 1.834 15.342 5.302 22.173l37.379 73.663c-2.857.466-5.838.868-8.989 1.205z"/></g></g><g/><g/><g/><g/><g/><g/><g/><g/><g/><g/><g/><g/><g/><g/><g/></svg>