<svg id="Capa_1" enable-background="new 0 0 512 512" viewBox="0 0 512 512" xmlns="http://www.w3.org/2000/svg"><g><g><path d="m317.515 375.44-23.932 13.73c-6.112 3.506-13.816 2.482-18.799-2.501l-27.816-27.817-27.31 27.31 27.816 27.817c4.982 4.982 6.007 12.687 2.501 18.799l-13.73 23.932c-2.636 4.595-1.865 10.385 1.881 14.131l12.907 12.907c4.451 4.451 11.668 4.451 16.119 0l77.401-77.401c4.451-4.451 4.451-11.668 0-16.119l-12.907-12.907c-3.745-3.746-9.536-4.517-14.131-1.881z" fill="#fe76a8"/><path d="m344.553 390.227-12.907-12.907c-2.129-2.129-4.918-3.293-7.774-3.42.103 3.044-.996 6.121-3.32 8.445l-77.402 77.402c-2.324 2.324-5.4 3.422-8.445 3.32.127 2.855 1.291 5.645 3.42 7.774l12.907 12.907c4.451 4.451 11.668 4.451 16.119 0l77.401-77.401c4.452-4.452 4.452-11.669.001-16.12z" fill="#fe5694"/><path d="m480.356 31.579c-32.135-32.135-84.236-32.136-116.372-.001l-107.3 107.301c-15.693 15.693-25.439 36.357-27.573 58.447l-1.559 16.123c-1.065 11.021-5.93 21.33-13.759 29.159l-111.082 111.082c-6.286 6.286-10.245 14.531-11.218 23.367l-1.188 10.77c-.438 3.976-2.215 7.683-5.043 10.511l-71.537 71.537c-7.629 7.629-8.331 20.054-1.069 28.033 7.753 8.519 20.955 8.753 29.006.701l71.934-71.934c2.829-2.829 6.539-4.61 10.515-5.047l10.77-1.187c8.837-.973 17.077-4.927 23.363-11.214l111.082-111.082c7.829-7.829 18.138-12.694 29.159-13.759l16.128-1.559c22.09-2.135 42.75-11.885 58.443-27.577l107.3-107.3c32.135-32.135 32.135-84.236 0-116.371z" fill="#d8ecfe"/><path d="m480.356 31.579c-5.067-5.067-10.632-9.33-16.535-12.799 18.532 31.536 14.269 72.768-12.8 99.837l-107.3 107.3c-15.693 15.693-36.354 25.441-58.444 27.576l-16.126 1.558c-11.021 1.065-21.329 5.928-29.158 13.758l-111.084 111.084c-6.286 6.286-14.528 10.242-23.365 11.215l-10.77 1.186c-2.32.255-4.542.98-6.558 2.091-.793 1.439-1.776 2.776-2.955 3.954l-71.537 71.537c-7.629 7.628-8.331 20.054-1.069 28.033 7.753 8.519 20.955 8.753 29.006.701l71.934-71.934c2.828-2.828 6.539-4.61 10.515-5.047l10.77-1.187c8.837-.973 17.077-4.927 23.363-11.214l111.082-111.082c7.829-7.829 18.138-12.694 29.159-13.759l16.128-1.559c22.09-2.135 42.75-11.885 58.443-27.577l107.3-107.3c32.136-32.136 32.136-84.237.001-116.372z" fill="#bddbff"/><path d="m213.161 400.14-116.263-116.259 47.788-47.788 116.259 116.258c5.044 5.044 5.044 13.224 0 18.268l-29.521 29.521c-5.044 5.044-13.219 5.044-18.263 0z" fill="#678d98"/><path d="m53.46 236.507 50.079 50.081 43.854-43.854-50.081-50.084c-6.221-6.221-16.308-6.221-22.529 0l-21.323 21.328c-6.221 6.221-6.221 16.308 0 22.529z" fill="#fdb441"/><path d="m82.336 291.191c7.556 7.556 19.808 7.556 27.364 0l42.297-42.297c7.556-7.556 7.556-19.808 0-27.364s-19.808-7.556-27.364 0l-42.297 42.297c-7.557 7.556-7.557 19.807 0 27.364z" fill="#d8ecfe"/></g><g><path d="m485.678 26.254c-35.008-35.006-91.973-35.004-126.988 0l-107.31 107.31c-16.882 16.883-27.443 39.271-29.734 63.036l-1.561 16.12c-.899 9.273-5.019 18.003-11.601 24.584l-25.988 25.997-18.951-18.951c3.42-9.49 1.339-20.535-6.252-28.128-5.072-5.072-11.815-7.864-18.988-7.864-4.2 0-8.25.965-11.906 2.777l-23.796-23.796c-9.136-9.135-24.002-9.137-33.14.002l-21.316 21.326c-4.433 4.425-6.875 10.311-6.875 16.575 0 6.262 2.442 12.148 6.87 16.57l23.799 23.799c-4.952 10.037-3.265 22.546 5.077 30.888 5.235 5.235 12.111 7.851 18.987 7.851 3.099 0 6.197-.537 9.146-1.599l18.945 18.944-26.699 26.699c-7.472 7.473-12.222 17.367-13.372 27.852l-1.192 10.789c-.245 2.261-1.271 4.397-2.888 6.013l-25.403 25.402c-2.929 2.93-2.929 7.678 0 10.608 1.465 1.464 3.385 2.196 5.304 2.196s3.839-.732 5.304-2.196l25.402-25.403c4.027-4.028 6.582-9.357 7.192-14.99l1.191-10.778c.78-7.111 4.001-13.818 9.069-18.885l26.699-26.699 44.937 44.936-26.713 26.705c-5.048 5.056-11.751 8.271-18.878 9.054l-10.772 1.191c-5.654.625-10.98 3.183-15 7.202l-71.937 71.936c-2.446 2.447-5.7 3.752-9.162 3.668-3.46-.08-6.657-1.542-8.998-4.112-4.431-4.871-4.062-12.801.826-17.681l21.203-21.202c2.929-2.93 2.929-7.678 0-10.608-2.93-2.928-7.678-2.928-10.608 0l-21.199 21.199c-10.648 10.633-11.227 27.494-1.316 38.391 5.131 5.633 12.143 8.834 19.743 9.011.222.006.443.008.664.008 7.351 0 14.238-2.85 19.455-8.066l71.937-71.936c1.617-1.618 3.763-2.648 6.041-2.9l10.767-1.19c10.507-1.155 20.397-5.902 27.846-13.362l26.709-26.701 17.604 17.604c3.855 3.863 8.983 5.991 14.44 5.991 3.415 0 6.701-.834 9.625-2.403l10.258 10.265c2.582 2.577 3.115 6.588 1.294 9.76l-13.737 23.942c-4.299 7.518-3.03 17.041 3.087 23.158l12.911 12.911c3.685 3.684 8.525 5.527 13.364 5.527 4.84 0 9.681-1.843 13.365-5.527l77.413-77.414c7.357-7.375 7.355-19.362-.007-26.724l-12.91-12.91c-6.118-6.117-15.641-7.388-23.168-3.082l-23.935 13.733c-3.162 1.819-7.178 1.285-9.762-1.298l-10.256-10.263c1.567-2.924 2.398-6.207 2.398-9.619 0-5.455-2.125-10.584-5.984-14.444l-17.608-17.608 25.988-25.988c6.588-6.589 15.317-10.709 24.58-11.601l16.132-1.56c23.776-2.303 46.16-12.866 63.026-29.744l58.065-58.056c2.93-2.929 2.93-7.678.001-10.607-2.93-2.929-7.679-2.93-10.607-.001l-58.067 58.058c-14.413 14.423-33.543 23.451-53.862 25.419l-16.128 1.559c-12.717 1.225-24.702 6.879-33.748 15.924l-25.988 25.988-44.928-44.928 25.989-25.998c9.033-9.034 14.688-21.016 15.922-33.744l1.562-16.124c1.958-20.311 10.982-39.444 25.41-53.871l107.309-107.31c29.168-29.157 76.618-29.157 105.772 0 14.13 14.129 21.911 32.912 21.911 52.89 0 19.977-7.781 38.757-21.911 52.883l-23.941 23.942c-2.929 2.929-2.929 7.677.001 10.607 2.928 2.928 7.677 2.929 10.607-.001l23.94-23.941c16.963-16.957 26.305-39.506 26.305-63.491s-9.34-46.533-26.302-63.496zm-429.405 198.987c0-2.251.878-4.367 2.478-5.964l21.321-21.33c3.287-3.287 8.635-3.287 11.924 0l22.799 22.798-33.251 33.251-22.799-22.798c-1.594-1.592-2.472-3.707-2.472-5.957zm31.353 60.648c-4.62-4.62-4.62-12.138 0-16.758l42.301-42.302c2.237-2.237 5.213-3.47 8.379-3.47s6.142 1.233 8.38 3.47c4.034 4.034 4.544 10.277 1.534 14.871-.016.024-.032.047-.048.071-1.238 1.859.355-.089-43.788 44.118-4.617 4.624-12.139 4.622-16.758 0zm209.695 109.797 23.922-13.726c1.66-.95 3.759-.672 5.105.674l12.91 12.91c1.519 1.518 1.517 3.994 0 5.513l-77.407 77.408c-1.521 1.522-3.994 1.522-5.513 0l-12.911-12.911c-1.346-1.345-1.622-3.444-.679-5.094l13.731-23.93c5.191-9.038 3.666-20.488-3.7-27.839l-9.641-9.648 16.705-16.705 9.639 9.646c7.364 7.364 18.814 8.889 27.839 3.702zm-40.09-34.19c0 1.445-.563 2.803-1.59 3.828l-29.529 29.528c-1.021 1.023-2.378 1.586-3.822 1.586s-2.801-.564-3.826-1.592l-100.911-100.91 37.181-37.182 100.906 100.907c1.027 1.025 1.591 2.388 1.591 3.835z"/><path d="m409.29 90.4c1.464 1.464 3.384 2.196 5.303 2.196s3.839-.732 5.304-2.197c2.929-2.929 2.929-7.678-.001-10.607l-16.143-16.143c-.579-.579-1.232-1.039-1.925-1.389-1.843-.931-3.987-1.048-5.911-.36-1.011.362-1.963.939-2.773 1.749l-117.741 117.742c-2.929 2.93-2.929 7.678 0 10.608l16.145 16.143c1.464 1.464 3.384 2.196 5.303 2.196s3.839-.732 5.304-2.197c2.929-2.929 2.929-7.678-.001-10.607l-10.839-10.839 28.64-28.64 10.84 10.84c1.464 1.464 3.384 2.196 5.303 2.196s3.839-.732 5.304-2.197c2.929-2.929 2.929-7.678-.001-10.607l-10.839-10.839 28.64-28.64 10.84 10.84c1.464 1.464 3.384 2.196 5.303 2.196s3.839-.732 5.304-2.197c2.929-2.929 2.929-7.678-.001-10.607l-10.838-10.84 28.64-28.64z"/></g></g><g/><g/><g/><g/><g/><g/><g/><g/><g/><g/><g/><g/><g/><g/><g/></svg>