<svg id="Capa_1" enable-background="new 0 0 512 512" viewBox="0 0 512 512" xmlns="http://www.w3.org/2000/svg"><g><g><path d="m150.781 395.364 12.368 83.885c2.139 14.506 14.587 25.251 29.249 25.251h127.203c14.663 0 27.11-10.746 29.249-25.252l12.368-83.884z" fill="#62dbfb"/><path d="m324.046 395.364-12.367 83.884c-2.139 14.506-14.586 25.252-29.249 25.252h37.172c14.663 0 27.11-10.746 29.249-25.252l12.368-83.884z" fill="#01d0fb"/><path d="m105.041 286.454 19.842 134.597c1.862 12.628 12.702 21.982 25.466 21.982h211.304c12.764 0 23.603-9.354 25.465-21.982l19.843-134.597z" fill="#d8ecfe"/><path d="m372.191 286.454-20.094 136.29c-1.376 9.334-7.606 16.882-15.892 20.288h25.448c12.764 0 23.603-9.354 25.465-21.982l19.843-134.597h-34.77z" fill="#bddbff"/><path d="m225.434 117.098h61.133v71.856h-61.133z" fill="#d8ecfe"/><path d="m113.609 278.554v-2.459c0-53.117 43.062-96.176 96.179-96.176h92.425c53.117 0 96.178 43.059 96.178 96.176v2.459z" fill="#62dbfb"/><path d="m302.213 179.919h-43.621c53.117 0 96.177 43.059 96.177 96.176v2.458h43.622v-2.459c0-53.116-43.061-96.175-96.178-96.175z" fill="#01d0fb"/><path d="m290.731 7.5c-28.106 0-50.89 22.784-50.89 50.891v69.759h32.32v-69.76c0-10.256 8.314-18.57 18.57-18.57h44.267c3.299 0 5.972-2.673 5.972-5.972v-20.376c0-3.299-2.673-5.972-5.972-5.972z" fill="#d8ecfe"/><path d="m186.773 99.278v35.64h144.107c3.253 0 5.89-2.637 5.89-5.889v-23.861c0-3.253-2.637-5.891-5.89-5.891h-144.107z" fill="#62dbfb"/><path d="m190.98 91.771v50.653c0 4.384-3.554 7.938-7.938 7.938h-24.517c-4.384 0-7.938-3.554-7.938-7.938v-50.653c0-4.384 3.554-7.938 7.938-7.938h24.517c4.384 0 7.938 3.554 7.938 7.938z" fill="#678d98"/><path d="m97.949 304.312h316.103c9.863 0 17.859-7.996 17.859-17.859s-7.996-17.859-17.859-17.859h-316.103c-9.863 0-17.859 7.996-17.859 17.859s7.996 17.859 17.859 17.859z" fill="#678d98"/><path d="m414.051 268.595h-36.357c9.863 0 17.859 7.996 17.859 17.858 0 9.863-7.996 17.859-17.859 17.859h36.357c9.863 0 17.859-7.995 17.859-17.859 0-9.863-7.996-17.858-17.859-17.858z" fill="#537983"/><g fill="#678d98"><path d="m237.295 412.369h-68.188c-1.982 0-3.589 1.607-3.589 3.589v5.185c0 12.09 9.801 21.89 21.89 21.89h31.585c12.09 0 21.89-9.801 21.89-21.89v-5.185c.001-1.982-1.606-3.589-3.588-3.589z"/><path d="m342.893 412.369h-68.188c-1.982 0-3.589 1.607-3.589 3.589v5.185c0 12.09 9.801 21.89 21.89 21.89h31.585c12.09 0 21.89-9.801 21.89-21.89v-5.185c.001-1.982-1.606-3.589-3.588-3.589z"/></g></g><path d="m414.051 261.095h-9.257c-2.557-17.694-9.638-34.379-20.704-48.609-2.542-3.27-7.255-3.857-10.524-1.316-3.27 2.543-3.859 7.255-1.316 10.525 9.011 11.587 14.924 25.078 17.356 39.4h-267.228c3.251-19.087 12.675-36.594 27.04-49.951 16.452-15.299 37.893-23.724 60.373-23.724h92.42c16.291 0 32.222 4.456 46.07 12.887 3.539 2.155 8.153 1.031 10.306-2.506 2.154-3.538 1.032-8.152-2.506-10.307-16.199-9.861-34.827-15.074-53.87-15.074h-8.14v-30h36.81c7.383 0 13.39-6.007 13.39-13.39v-23.86c0-7.383-6.007-13.39-13.39-13.39h-51.22v-33.39c0-6.104 4.966-11.069 11.07-11.069h44.269c7.428 0 13.47-6.043 13.47-13.471v-20.38c0-7.427-6.042-13.47-13.47-13.47h-44.27c-32.196 0-58.39 26.193-58.39 58.39v33.39h-33.86c0-8.513-6.925-15.447-15.438-15.447h-24.517c-8.513 0-15.438 6.925-15.438 15.438v50.653c0 8.513 6.925 15.438 15.438 15.438h24.517c8.513 0 15.438-6.928 15.438-15.44h19.45v29.998h-8.14c-26.282 0-51.351 9.852-70.587 27.739-17.421 16.2-28.604 37.633-31.985 60.936h-9.269c-13.983 0-25.359 11.376-25.359 25.358s11.376 25.358 25.359 25.358h3.247l5.565 37.703c.55 3.727 3.752 6.406 7.41 6.406.364 0 .733-.026 1.104-.081 4.098-.605 6.929-4.417 6.324-8.515l-5.241-35.514h279.285l-15.942 108.14c-1.337 9.027-8.928 15.579-18.051 15.579h-11.445c2.4-4.256 3.777-9.162 3.777-14.387v-5.186c0-6.114-4.975-11.089-11.089-11.089h-68.188c-6.114 0-11.089 4.975-11.089 11.089v5.186c0 5.225 1.377 10.131 3.777 14.387h-22.786c2.4-4.256 3.777-9.162 3.777-14.387v-5.186c0-6.114-4.975-11.089-11.089-11.089h-68.188c-6.114 0-11.089 4.975-11.089 11.089v5.186c0 5.225 1.377 10.131 3.777 14.387h-11.445c-9.123 0-16.714-6.552-18.05-15.574l-5.6-38c-.604-4.098-4.412-6.932-8.513-6.326-4.098.604-6.931 4.415-6.327 8.514l5.601 38.005c2.396 16.181 16.535 28.382 32.889 28.382h.985l4.396 29.814c2.663 18.048 18.427 31.656 36.669 31.656h127.2c18.242 0 34.006-13.608 36.67-31.656l4.395-29.813h.984c16.354 0 30.494-12.201 32.89-28.387l16.265-110.332h3.246c13.983 0 25.359-11.376 25.359-25.358s-11.375-25.359-25.358-25.359zm-166.711-202.705c0-23.925 19.465-43.39 43.39-43.39h42.74v17.32h-42.74c-14.375 0-26.07 11.694-26.07 26.069v33.391h-17.32zm-63.86 84.034c0 .242-.196.438-.438.438h-24.517c-.242 0-.438-.196-.438-.438v-50.653c0-.241.196-.438.438-.438h24.517c.242 0 .438.196.438.438zm15-35.644h130.79v20.64h-130.79zm34.45 35.64h46.14v30h-46.14zm45.686 278.724v-1.274h60.366v1.274c0 7.915-6.425 14.355-14.332 14.387h-31.701c-7.908-.032-14.333-6.472-14.333-14.387zm-105.598 0v-1.274h60.366v1.274c0 7.915-6.425 14.355-14.332 14.387h-31.702c-7.907-.032-14.332-6.472-14.332-14.387zm168.413 57.011c-1.586 10.743-10.971 18.845-21.831 18.845h-127.2c-10.86 0-20.245-8.102-21.83-18.844l-4.073-27.626h179.006zm72.62-181.343h-316.102c-5.712 0-10.359-4.646-10.359-10.358s4.647-10.358 10.359-10.358h316.103c5.712 0 10.359 4.646 10.359 10.358s-4.648 10.358-10.36 10.358z"/></g><g/><g/><g/><g/><g/><g/><g/><g/><g/><g/><g/><g/><g/><g/><g/></svg>