<svg id="Capa_1" enable-background="new 0 0 512 512" viewBox="0 0 512 512" xmlns="http://www.w3.org/2000/svg"><g><g><ellipse cx="256" cy="176.072" fill="#d8ecfe" rx="174.31" ry="168.573"/><path d="m256 7.5c-6.74 0-13.387.383-19.928 1.103 86.882 9.565 154.382 80.888 154.382 167.469s-67.5 157.904-154.382 167.469c6.541.72 13.188 1.103 19.928 1.103 96.269 0 174.31-75.473 174.31-168.573s-78.041-168.571-174.31-168.571z" fill="#bddbff"/><g fill="#62dbfb"><path d="m199.831 224.241-30.142 62.993 36.377 17.407 30.143-62.992c1.768-3.696.206-8.128-3.49-9.897l-22.997-11.001c-3.695-1.768-8.123-.206-9.891 3.49z"/><path d="m312.169 224.241 30.142 62.993-36.377 17.407-30.143-62.992c-1.768-3.696-.206-8.128 3.49-9.897l22.997-11.001c3.695-1.768 8.123-.206 9.891 3.49z"/></g><path d="m157.038 268.121-21.529 68.567h240.982l-21.529-68.566c-2.241-7.139-8.858-11.994-16.34-11.994h-165.244c-7.482 0-14.098 4.854-16.34 11.993z" fill="#678d98"/><path d="m354.962 268.122c-2.241-7.139-8.858-11.994-16.34-11.994h-33.355c7.483 0 14.099 4.856 16.34 11.995l21.528 68.565h33.356z" fill="#537983"/><path d="m407.998 296.407h-22.77c-7.744 0-15.417 1.694-22.351 5.143-26.018 12.943-64.251 21.12-106.877 21.12s-80.859-8.176-106.877-21.12c-6.933-3.449-14.607-5.143-22.351-5.143h-22.77c-10.903 0-20.091 8.139-21.407 18.963l-19.397 159.574c-1.91 15.712 10.353 29.556 26.181 29.556h333.242c15.828 0 28.09-13.844 26.181-29.556l-19.397-159.575c-1.316-10.823-10.503-18.962-21.407-18.962z" fill="#d8ecfe"/><path d="m448.802 474.944-19.397-159.575c-1.316-10.824-10.504-18.962-21.407-18.962h-22.77c-2.021 0-4.036.122-6.036.354 9.138 1.663 16.376 9.096 17.533 18.609l19.397 159.575c1.91 15.712-10.353 29.556-26.181 29.556h32.681c15.827-.001 28.09-13.845 26.18-29.557z" fill="#bddbff"/><path d="m195.681 369.54v35.005c0 4.191 3.397 7.588 7.588 7.588h105.461c4.191 0 7.588-3.397 7.588-7.588v-35.005c0-4.191-3.397-7.588-7.588-7.588h-105.461c-4.191 0-7.588 3.397-7.588 7.588z" fill="#5de1c4"/></g><g><path d="m344.681 139.054c0-48.898-39.782-88.681-88.681-88.681s-88.68 39.782-88.68 88.681c0 21.967 8.093 43.045 22.788 59.35 1.481 1.643 3.523 2.479 5.574 2.479 1.789 0 3.585-.637 5.019-1.929 3.077-2.773 3.323-7.516.55-10.592-12.208-13.545-18.93-31.056-18.93-49.308 0-40.627 33.053-73.681 73.68-73.681 40.628 0 73.681 33.053 73.681 73.681 0 5.853-.688 11.677-2.044 17.312-1.113 4.625-2.681 9.099-4.655 13.397l-1.308-5.354c-.983-4.023-5.044-6.491-9.065-5.505-4.024.983-6.488 5.042-5.505 9.066l5.583 22.843c.832 3.407 3.884 5.72 7.278 5.72.443 0 .893-.04 1.344-.121l23.14-4.19c4.075-.738 6.781-4.641 6.043-8.716s-4.636-6.784-8.717-6.043l-6.403 1.16c2.979-5.962 5.282-12.231 6.851-18.746 1.629-6.784 2.457-13.79 2.457-20.823z"/><path d="m456.247 474.04-19.396-159.575c-1.771-14.57-14.175-25.558-28.853-25.558h-12.403c27.344-31.58 42.214-71.008 42.214-112.837.001-97.086-81.559-176.07-181.809-176.07-42.086 0-83.125 14.251-115.558 40.127-3.238 2.583-3.768 7.303-1.185 10.541 2.584 3.237 7.303 3.769 10.541 1.185 29.785-23.765 67.501-36.853 106.202-36.853 91.98 0 166.81 72.255 166.81 161.07 0 43.154-17.368 83.531-48.938 113.956-1.31.256-2.607.555-3.89.899l-7.865-25.05c-3.236-10.315-12.679-17.245-23.496-17.245h-6.465l-13.223-27.632c-1.721-3.588-4.735-6.295-8.489-7.622-3.763-1.33-7.814-1.112-11.399.608l-23.007 11.004c-7.416 3.557-10.562 12.483-7.013 19.9l1.791 3.742h-29.631l1.792-3.743c3.548-7.416.402-16.342-7.02-19.903l-22.992-10.996c-3.594-1.724-7.645-1.941-11.408-.612-3.753 1.326-6.768 4.033-8.491 7.627l-13.22 27.627h-6.465c-10.818 0-20.26 6.93-23.496 17.244l-7.866 25.051c-1.283-.343-2.579-.643-3.889-.899-31.571-30.425-48.94-70.802-48.94-113.956 0-36.907 12.58-71.628 36.38-100.411 2.64-3.192 2.192-7.919-1-10.559-3.192-2.641-7.92-2.191-10.559 1-25.679 31.054-39.821 70.108-39.821 109.97 0 41.828 14.87 81.256 42.215 112.837h-12.403c-14.677 0-27.081 10.987-28.853 25.558l-19.396 159.575c-1.169 9.619 1.845 19.295 8.27 26.548s15.666 11.412 25.356 11.412h216.129c4.143 0 7.5-3.358 7.5-7.5s-3.357-7.5-7.5-7.5h-216.129c-5.398 0-10.548-2.318-14.127-6.359-3.58-4.041-5.259-9.433-4.608-14.792l19.396-159.575c.857-7.051 6.859-12.368 13.962-12.368h22.77c6.705 0 13.279 1.507 19.01 4.358 27.983 13.922 68.155 21.906 110.218 21.906s82.235-7.984 110.218-21.905c5.731-2.851 12.305-4.358 19.01-4.358h22.771c7.103 0 13.105 5.317 13.962 12.367l19.396 159.576c.651 5.359-1.027 10.75-4.607 14.792-3.579 4.041-8.729 6.359-14.128 6.359h-82.113c-4.143 0-7.5 3.358-7.5 7.5s3.357 7.5 7.5 7.5h82.113c9.689 0 18.932-4.16 25.356-11.413 6.424-7.254 9.438-16.93 8.269-26.548zm-173.659-235.559 22.853-10.929 10.086 21.078h-28.081zm-76.028-10.929 22.852 10.929-4.857 10.148h-28.081zm-50.574 68.961 8.21-26.149c1.264-4.028 4.954-6.735 9.184-6.735h55.859c.012 0 .024.002.036.002l.028-.002h98.104l.028.002c.012 0 .024-.002.036-.002h11.15c4.229 0 7.92 2.707 9.185 6.737l8.21 26.146c-25.806 11.883-61.954 18.658-100.016 18.658-38.061 0-74.21-6.775-100.014-18.657z"/><path d="m323.819 404.545v-35.005c0-8.319-6.769-15.088-15.089-15.088h-105.461c-8.319 0-15.088 6.769-15.088 15.088v35.005c0 8.32 6.769 15.088 15.088 15.088h105.461c8.321 0 15.089-6.768 15.089-15.088zm-120.638 0v-35.005c0-.048.04-.088.088-.088h105.461c.049 0 .089.04.089.088v35.005c0 .049-.04.088-.089.088h-105.461c-.048 0-.088-.039-.088-.088z"/><path d="m180.561 448.492c-4.142 0-7.5 3.358-7.5 7.5s3.358 7.5 7.5 7.5h7.111c4.142 0 7.5-3.358 7.5-7.5s-3.358-7.5-7.5-7.5z"/><path d="m228.483 448.492c-4.142 0-7.5 3.358-7.5 7.5s3.358 7.5 7.5 7.5h7.112c4.142 0 7.5-3.358 7.5-7.5s-3.358-7.5-7.5-7.5z"/><path d="m276.405 448.492c-4.143 0-7.5 3.358-7.5 7.5s3.357 7.5 7.5 7.5h7.111c4.143 0 7.5-3.358 7.5-7.5s-3.357-7.5-7.5-7.5z"/><path d="m338.939 455.992c0-4.142-3.357-7.5-7.5-7.5h-7.111c-4.143 0-7.5 3.358-7.5 7.5s3.357 7.5 7.5 7.5h7.111c4.143 0 7.5-3.358 7.5-7.5z"/></g></g><g/><g/><g/><g/><g/><g/><g/><g/><g/><g/><g/><g/><g/><g/><g/></svg>