<svg id="Capa_1" enable-background="new 0 0 512 512" viewBox="0 0 512 512" xmlns="http://www.w3.org/2000/svg"><g><g><path d="m274.892 11.825c-12.547-6.31-27.175-5.678-39.131 1.692-11.956 7.371-19.096 20.155-19.096 34.201v72.347c0 8.285 6.368 15.414 14.644 15.804 8.836.416 16.129-6.625 16.129-15.369v-72.783c0-4.739 3.124-7.175 4.468-8.003 1.343-.829 4.925-2.528 9.159-.398l120.901 60.79c4.684 2.355 10.393.471 12.748-4.213l5.297-10.53c2.355-4.684.466-10.393-4.218-12.748z" fill="#d8ecfe"/><path d="m189.511 117.873v40.572h86.014v-40.573c0-7.539-6.112-13.651-13.651-13.651h-58.711c-7.54.001-13.652 6.112-13.652 13.652z" fill="#fdb441"/><path d="m261.874 104.222h-34.263c7.539 0 13.651 6.111 13.651 13.65v40.574h34.263v-40.573c0-7.54-6.112-13.651-13.651-13.651z" fill="#fe9738"/><path d="m279.741 188.435v-37.884h-94.39v37.884c0 14.511-8.651 27.624-21.99 33.334l-28.517 12.207c-14.474 6.196-23.86 20.423-23.86 36.167v206.088c0 15.615 12.658 28.273 28.273 28.273h186.578c15.615 0 28.273-12.658 28.273-28.272v-206.089c0-15.744-9.386-29.972-23.86-36.167l-28.517-12.207c-13.339-5.711-21.99-18.824-21.99-33.334z" fill="#d8ecfe"/><path d="m330.248 233.976-28.517-12.207c-13.34-5.71-21.99-18.824-21.99-33.334v-37.884h-38.479v50.883c0 14.51 8.651 27.624 21.99 33.334l28.517 12.207c14.474 6.196 23.86 20.424 23.86 36.167v193.088c0 15.614-12.658 28.272-28.273 28.272h38.479c15.615 0 28.273-12.658 28.273-28.272v-206.087c0-15.743-9.386-29.971-23.86-36.167z" fill="#bddbff"/><path d="m110.985 357.695v118.536c0 15.614 12.658 28.273 28.273 28.273h186.578c15.615 0 28.273-12.658 28.273-28.272v-118.537z" fill="#62dbfb"/><path d="m316.28 357.695v118.536c0 15.614-12.658 28.272-28.273 28.272h37.828c15.615 0 28.273-12.658 28.273-28.272v-118.536z" fill="#01d0fb"/><path d="m238.958 242.833c-2.688-3.929-8.483-3.929-11.171 0-7.052 10.306-18.275 28.128-18.275 37.166 0 13.178 10.683 23.86 23.86 23.86s23.86-10.682 23.86-23.86c0-9.038-11.222-26.86-18.274-37.166z" fill="#62dbfb"/></g><g><path d="m399.16 65.918-120.898-60.788c-14.894-7.49-32.255-6.74-46.433 2.005-14.192 8.745-22.665 23.917-22.665 40.584v49.007h-5.999c-11.662 0-21.15 9.488-21.15 21.15v25.177h-19.459c-4.142 0-7.5 3.357-7.5 7.5s3.358 7.5 7.5 7.5h15.297v30.383c0 11.525-6.846 21.903-17.442 26.439l-28.517 12.207c-17.257 7.388-28.407 24.291-28.407 43.061v7.85c0 4.143 3.358 7.5 7.5 7.5s7.5-3.357 7.5-7.5v-7.85c0-12.76 7.58-24.25 19.31-29.272l28.517-12.207c16.122-6.9 26.539-22.691 26.539-40.228v-30.383h79.388v30.383c0 17.537 10.417 33.328 26.539 40.228l28.517 12.207c11.73 5.021 19.31 16.511 19.31 29.272v80.052h-228.12v-37.202c0-4.143-3.358-7.5-7.5-7.5s-7.5 3.357-7.5 7.5v163.235c0 19.724 16.047 35.772 35.772 35.772h186.575c19.725 0 35.772-16.048 35.772-35.772v-206.085c0-18.772-11.151-35.674-28.407-43.061l-28.517-12.207c-10.596-4.536-17.442-14.914-17.442-26.439v-30.383h14.307c4.142 0 7.5-3.357 7.5-7.5s-3.358-7.5-7.5-7.5h-18.524v-25.177c0-11.662-9.488-21.15-21.15-21.15h-6.941v-49.007c0-.315 0-1.055.898-1.611.917-.562 1.577-.232 1.863-.088l26.48 13.31c3.699 1.858 8.209.367 10.069-3.333s.368-8.209-3.333-10.069l-26.475-13.308c-5.269-2.651-11.423-2.387-16.482.724-5.022 3.111-8.02 8.485-8.02 14.376v49.007h-15.769v-49.008c0-11.423 5.807-21.821 15.536-27.816 9.717-5.995 21.613-6.506 31.823-1.373l120.89 60.784c.987.498 1.387 1.706.898 2.682l-5.297 10.524c-.496.985-1.7 1.385-2.685.887l-63.568-31.96c-3.7-1.859-8.209-.369-10.069 3.332-1.861 3.701-.369 8.209 3.332 10.07l63.566 31.958c8.366 4.212 18.6.831 22.82-7.537l5.306-10.542c4.191-8.363.805-18.594-7.555-22.81zm-73.326 431.082h-186.575c-11.454 0-20.772-9.318-20.772-20.772v-111.033h228.119v111.034c0 11.453-9.318 20.771-20.772 20.771zm-57.811-379.124v25.177h-71.009v-25.177c0-3.392 2.759-6.15 6.15-6.15h13.461c.013 0 .026.002.039.002s.026-.002.039-.002h30.692c.013 0 .026.002.039.002s.026-.002.039-.002h14.402c3.39 0 6.148 2.758 6.148 6.15z"/><path d="m264.732 280c0-3.16-.003-12.778-19.585-41.4-2.661-3.889-7.063-6.212-11.775-6.212s-9.115 2.322-11.775 6.212c-4.844 7.079-19.585 28.622-19.585 41.401 0 17.292 14.068 31.359 31.359 31.359s31.361-14.069 31.361-31.36zm-47.72 0c0-3.693 4.299-14.279 16.36-32.043 12.061 17.764 16.36 28.35 16.36 32.043 0 9.02-7.339 16.359-16.36 16.359s-16.36-7.339-16.36-16.359z"/><path d="m183.547 391.401c-4.142 0-7.5 3.357-7.5 7.5v16.257h-19.047v-16.257c0-4.143-3.358-7.5-7.5-7.5s-7.5 3.357-7.5 7.5v49.199c0 4.143 3.358 7.5 7.5 7.5s7.5-3.357 7.5-7.5v-17.943h19.047v17.943c0 4.143 3.358 7.5 7.5 7.5s7.5-3.357 7.5-7.5v-49.199c0-4.142-3.358-7.5-7.5-7.5z"/><path d="m231.125 455.057c-.032 0-.064 0-.096.001-3.034.038-6.203.067-9.176.086 2.227-3.037 4.972-6.852 8.319-11.636 3.119-4.456 5.161-8.706 6.071-12.633.057-.244.101-.492.133-.741l.229-1.786c.041-.316.061-.634.061-.952 0-10.651-8.665-19.316-19.317-19.316-9.21 0-17.181 6.553-18.954 15.581-.798 4.064 1.85 8.007 5.914 8.805 4.064.794 8.006-1.85 8.805-5.914.395-2.012 2.176-3.472 4.235-3.472 2.259 0 4.118 1.743 4.302 3.955l-.098.768c-.385 1.442-1.34 3.776-3.669 7.104-7.288 10.415-11.635 16.105-13.97 19.163-2.962 3.879-4.919 6.441-3.685 10.457.73 2.377 2.595 4.272 4.993 5.074 2.593.862 16.713.572 25.996.455 4.142-.052 7.457-3.451 7.405-7.593-.052-4.111-3.399-7.406-7.498-7.406z"/><path d="m277.115 391.401c-17.7 0-32.1 14.4-32.1 32.1s14.4 32.099 32.1 32.099 32.1-14.399 32.1-32.099-14.4-32.1-32.1-32.1zm0 49.2c-9.429 0-17.1-7.671-17.1-17.099 0-9.43 7.671-17.1 17.1-17.1s17.1 7.671 17.1 17.1c0 9.428-7.671 17.099-17.1 17.099z"/></g></g><g/><g/><g/><g/><g/><g/><g/><g/><g/><g/><g/><g/><g/><g/><g/></svg>