<svg id="Capa_1" enable-background="new 0 0 512 512" viewBox="0 0 512 512" xmlns="http://www.w3.org/2000/svg"><g><g><path d="m258.55 288.716h-80.149l-132.34 40.741c-17.977 5.534-30.247 22.148-30.247 40.957v98.781c0 4.916 3.99 8.901 8.906 8.901h387.513c4.916 0 8.901-3.985 8.901-8.901v-98.781c0-18.81-12.266-35.42-30.243-40.955z" fill="#d8ecfe"/><path d="m343.055 329.926-34.82-50.352-58.384-17.905h-64.237l-58.389 17.905-34.82 50.352c-1.646 2.381-1.015 5.65 1.398 7.249l14.731 9.759c2.757 1.826 3.112 5.736.73 8.03l-12.52 12.059c-1.821 1.753-2.104 4.567-.672 6.65l62.001 90.186h119.317l62.002-90.186c1.432-2.083 1.144-4.896-.677-6.65l-12.515-12.06c-2.382-2.294-2.026-6.204.73-8.03l14.731-9.759c2.413-1.598 3.04-4.868 1.394-7.248z" fill="#bddbff"/><path d="m263.789 281.264v-58.376h-90.626v58.376c0 5.388-3.513 10.145-8.662 11.731l-8.091 2.491c-8.522 2.624-14.338 10.5-14.338 19.416v163.193h152.808v-163.193c0-8.917-5.816-16.793-14.338-19.416l-8.091-2.491c-5.149-1.586-8.662-6.343-8.662-11.731z" fill="#5de1c4"/><path d="m263.789 281.264v-58.376h-90.626v58.376c0 5.388-3.513 10.145-8.662 11.731l-8.091 2.491c-8.522 2.624-14.338 10.5-14.338 19.416v5.065l65.7 46.379c6.416 4.529 14.991 4.529 21.408 0l65.7-46.379v-5.065c0-8.917-5.816-16.793-14.338-19.416l-8.091-2.491c-5.149-1.586-8.662-6.343-8.662-11.731z" fill="#fed2a4"/><path d="m263.789 278.539v-55.651h-90.626v55.449c12.893 8.094 28.06 12.853 44.356 13.029 16.985.184 32.848-4.537 46.27-12.827z" fill="#ffbd86"/><g><path d="m378.219 340.832v113.762c0 27.564 22.343 49.91 49.907 49.91s49.912-22.345 49.912-49.909v-113.763z" fill="#62dbfb"/><path d="m478.038 340.832h-29.51v113.762c0 22.428-14.794 41.398-35.156 47.69 4.663 1.441 9.617 2.219 14.753 2.219 27.564 0 49.912-22.345 49.912-49.909v-113.762z" fill="#01d0fb"/><path d="m478.038 400.834v53.761c0 27.562-22.344 49.909-49.912 49.909-27.562 0-49.907-22.348-49.907-49.91v-59.977c6.184-2.611 13.221-4.84 25.253-4.84 28.977 0 28.977 12.925 57.948 12.925 6.933-.001 12.211-.744 16.618-1.868z" fill="#fe76a8"/><path d="m448.528 401.638v52.957c0 22.428-14.794 41.398-35.156 47.69 4.663 1.441 9.617 2.219 14.753 2.219 27.568 0 49.912-22.348 49.912-49.909v-53.761c-4.407 1.125-9.685 1.868-16.619 1.868-5.09-.001-9.274-.406-12.89-1.064z" fill="#fe5694"/><path d="m385.783 286.164v29.777h84.689v-29.777c0-6.32-5.122-11.442-11.442-11.442h-61.806c-6.319 0-11.441 5.122-11.441 11.442z" fill="#fdb441"/><path d="m459.03 274.722h-29.51c6.32 0 11.443 5.122 11.443 11.442v29.777h-55.18 84.689v-29.777c0-6.32-5.122-11.442-11.442-11.442z" fill="#fe9738"/><path d="m478.8 313.026h-101.345c-9.603 0-17.388 7.785-17.388 17.387 0 9.603 7.785 17.388 17.388 17.388h101.345c9.603 0 17.388-7.785 17.388-17.387 0-9.603-7.785-17.388-17.388-17.388z" fill="#d8ecfe"/><path d="m478.8 313.026h-29.508c9.603 0 17.388 7.785 17.388 17.388s-7.785 17.387-17.388 17.387h29.508c9.603 0 17.388-7.785 17.388-17.387 0-9.604-7.785-17.388-17.388-17.388z" fill="#bddbff"/></g><path d="m341.622 198.401c12.728-13.622 12.726-38.417 2.11-50.745-2.546-2.957-3.812-6.814-3.451-10.7 5.857-62.991-17.074-88.829-49.097-93.732-24.252-39.458-112.256-53.114-163.89-5.08-27.845 25.904-30.285 56.342-29.841 69.532.139 4.136-1.521 8.115-4.521 10.966-25.913 24.629-12.924 60.162 1.981 78.193 3.946 4.773 5.094 11.316 2.881 17.1-2.467 6.447-5.678 11.353-9.633 14.608-3.493 2.874-3.08 8.31.784 10.662 22.716 13.83 74.525 18.56 94.427-3.208h70.209c19.72 21.569 70.763 17.123 93.793 3.587 4.084-2.4 4.331-8.338.397-10.977-4.03-2.703-7.562-6.671-9.678-12.385-2.26-6.101-.913-13.068 3.529-17.821z" fill="#678d98"/><path d="m343.732 147.655c-2.546-2.957-3.812-6.814-3.451-10.7 5.857-62.991-17.074-88.829-49.097-93.732-15.253-24.815-55.721-39.419-96.499-34.895 54.731 19.397 96.443 71.572 89.015 107.785l-36.835 119.885h6.716c19.72 21.569 70.763 17.123 93.793 3.587 4.084-2.4 4.331-8.338.397-10.977-4.03-2.704-7.562-6.671-9.678-12.385-2.259-6.101-.912-13.068 3.529-17.822 12.727-13.622 12.726-38.417 2.11-50.746z" fill="#537983"/><path d="m304.82 135.278v43.096c0 23.838-9.659 45.432-25.291 61.053-15.83 15.83-37.782 25.538-62.01 25.276-47.493-.514-85.388-39.941-85.388-87.437 0 0 0-42.012 0-42.024.001-1.986 1.521-3.622 3.487-3.906 27.124-3.909 46.748-26.034 55.413-37.763 1.564-2.123 4.936-1.005 4.936 1.635v11.549c0 1.676 1.503 2.966 3.169 2.712 19.053-2.996 36.62-14.036 48.07-29.516 1.652-2.233 4.586-3.125 7.221-2.246 7.111 2.37 14.22 5.451 21.323 9.244 17.867 9.517 29.07 28.084 29.07 48.327z" fill="#fed2a4"/></g><g><path d="m503.684 330.412c0-13.722-11.165-24.887-24.887-24.887h-.827v-19.361c0-10.443-8.497-18.94-18.94-18.94h-61.81c-10.443 0-18.939 8.497-18.939 18.94v19.361h-.827c-6.557 0-12.526 2.554-16.977 6.713l-26.09-8.029-19.986-28.9c-.959-1.387-2.357-2.41-3.97-2.904l-39.139-12.005v-4.43c.407-.278.814-.555 1.217-.84 8.155 2.311 17.051 3.34 25.99 3.339 20.063 0 40.308-5.148 52.668-12.418 4.179-2.452 6.762-6.821 6.91-11.688.146-4.83-2.142-9.309-6.132-11.991-3.198-2.142-5.431-5.007-6.821-8.754-1.286-3.471-.511-7.433 1.978-10.095 14.879-15.931 15.981-44.894 2.302-60.775-1.222-1.412-1.824-3.271-1.655-5.099 2.904-31.219-.927-55.851-11.385-73.212-9.081-15.073-22.764-24.495-40.704-28.04-12.707-18.053-37.463-31.074-67.086-35.106-39.693-5.4-79.465 6.32-106.403 31.376-.98.917-1.94 1.845-2.868 2.77-2.93 2.928-2.933 7.677-.006 10.607 2.928 2.93 7.676 2.932 10.607.006.812-.812 1.653-1.625 2.497-2.414 23.667-22.011 58.862-32.287 94.15-27.483 26.379 3.59 48.697 15.468 58.24 30.998 1.154 1.878 3.076 3.153 5.256 3.487 33.19 5.077 47.578 33.884 42.766 85.624-.544 5.873 1.367 11.813 5.235 16.285 9.337 10.841 6.755 31.46-1.906 40.734-6.33 6.771-8.325 16.799-5.083 25.551 2.296 6.183 6.053 11.235 11.173 15.038-12.979 7.021-35.934 11.308-55.454 8.85 16.49-17.468 25.541-40.206 25.541-64.347v-43.093c0-23.035-12.661-44.089-33.036-54.943-7.441-3.974-15.007-7.252-22.483-9.743-5.755-1.917-12.035.053-15.623 4.901-9.375 12.676-22.906 21.746-37.708 25.45v-5.734c0-4.435-2.831-8.346-7.046-9.73-4.206-1.385-8.801.08-11.423 3.639-19.8 26.802-40.108 33.305-50.449 34.795-5.651.814-9.915 5.684-9.918 11.329v42.024c0 25.269 9.912 48.343 26.005 65.417-20.043 2.693-43.628-1.829-56.682-9.234 4.476-4.039 8.121-9.697 10.84-16.827 3.171-8.255 1.6-17.668-4.1-24.566-7.685-9.301-13.158-21.57-14.639-32.822-1.841-13.979 2.212-25.807 12.043-35.153 4.565-4.336 7.062-10.408 6.851-16.66-.227-6.707.357-20.173 6.819-35 1.654-3.798-.083-8.217-3.88-9.872-3.8-1.653-8.218.083-9.872 3.88-7.64 17.534-8.328 33.526-8.059 41.498.066 1.97-.731 3.894-2.191 5.281-29.458 28.002-15.322 68.209 1.365 88.401 2.258 2.732 2.894 6.424 1.654 9.65-1.992 5.224-4.48 9.092-7.378 11.483-3.509 2.878-5.415 7.296-5.098 11.819.317 4.543 2.834 8.673 6.732 11.047 12.413 7.557 32.871 12.911 53.241 12.91 9.102 0 18.186-1.075 26.527-3.495.284.202.565.406.852.604v4.31l-40.639 12.464c-1.612.494-3.011 1.518-3.97 2.904l-20.396 29.493-56.803 17.485c-21.257 6.55-35.54 25.89-35.54 48.126v98.779c0 9.043 7.361 16.399 16.41 16.399h355.121c10.224 15.871 28.036 26.411 48.274 26.411 31.661 0 57.419-25.754 57.419-57.409v-100.227c10.456-2.949 18.145-12.567 18.145-23.952zm-110.403-44.248c0-2.173 1.768-3.94 3.939-3.94h61.81c2.173 0 3.94 1.768 3.94 3.94v19.361h-69.689zm-89.736-.183 31.988 46.255-12.746 8.445c-3.228 2.141-5.277 5.579-5.622 9.433-.345 3.849 1.058 7.589 3.832 10.247l11.092 10.694-29.707 43.208v-99.361c0-12.278-7.888-22.962-19.633-26.587l-8.096-2.492c-2.01-.617-3.36-2.449-3.36-4.56v-5.175zm-122.881-4.718v-17.156c11.283 5.07 23.716 7.954 36.775 8.095.35.003.699.005 1.048.005 13.243 0 26.052-2.717 37.806-7.891v16.947c0 8.743 5.61 16.339 13.954 18.898l8.084 2.488c5.414 1.672 9.052 6.596 9.052 12.254v1.174l-62.523 44.137c-3.816 2.693-8.944 2.692-12.761.001l-62.523-44.138v-1.174c0-5.658 3.638-10.582 9.046-12.252l8.084-2.488c8.347-2.561 13.958-10.157 13.958-18.9zm-31.09 159.267v-106.092l53.874 38.032c4.495 3.172 9.762 4.757 15.029 4.757s10.535-1.586 15.03-4.758l53.874-38.032v136.153h-137.807zm-9.941-302.259c21.349-4.049 38.019-17.845 48.963-29.904.378 2.378 1.586 4.562 3.442 6.157 2.27 1.952 5.273 2.809 8.265 2.355 20.541-3.23 39.613-14.811 52.452-31.82 6.453 2.196 12.998 5.057 19.469 8.513 15.479 8.246 25.094 24.227 25.094 41.707v43.095c0 28.135-14.641 52.964-37.418 67.096-.121.074-.243.146-.36.227-12.487 7.654-26.893 11.682-41.94 11.505-42.992-.465-77.968-36.324-77.968-79.935v-38.996zm-7.721 147.71 33.752-10.352v5.635c0 2.111-1.351 3.943-3.366 4.562l-8.096 2.492c-11.74 3.623-19.628 14.307-19.628 26.586v101.53l-31.201-45.383 11.091-10.684c2.783-2.679 4.181-6.422 3.832-10.269-.349-3.848-2.395-7.279-5.619-9.417l-12.752-8.449zm-108.597 183.21v-98.779c0-15.612 10.03-29.192 24.956-33.791l38.6-11.881-.642.928c-1.944 2.821-2.656 6.229-2.007 9.596.65 3.366 2.581 6.264 5.44 8.161l12.305 8.153-10.421 10.039c-4.476 4.304-5.176 11.155-1.653 16.304l44.681 64.99v27.679h-58.876v-51.443c0-4.143-3.357-7.5-7.5-7.5s-7.5 3.357-7.5 7.5v51.443h-35.972c-.778 0-1.411-.627-1.411-1.399zm279.067 1.399v-29.849l43.198-62.833c3.523-5.145 2.814-12.004-1.663-16.285l-10.419-10.045 12.311-8.157c2.86-1.898 4.791-4.801 5.436-8.173.646-3.37-.075-6.78-2.025-9.592l-1.046-1.512 4.857 1.495c-.301 1.545-.464 3.14-.464 4.772 0 11.389 7.693 21.009 18.154 23.954v100.225c0 5.553.808 10.917 2.285 16zm125.738 26.41c-23.38 0-42.4-19.025-42.4-42.41v-54.808c4.225-1.389 9.663-2.509 17.75-2.509.945 0 1.855.016 2.736.044 4.107.151 7.605-3.111 7.74-7.252.135-4.14-3.112-7.605-7.252-7.74-1.037-.034-2.111-.052-3.225-.052-7.297 0-12.992.771-17.75 1.924v-28.899h84.819v39.336c-2.808.374-5.826.563-9.123.563-9.477 0-15.017-1.528-18.784-2.859-3.905-1.38-8.191.667-9.57 4.572-1.38 3.905.667 8.19 4.572 9.57 7.272 2.57 14.607 3.717 23.782 3.717 3.216 0 6.241-.156 9.123-.459v44.851c.001 23.386-19.028 42.411-42.418 42.411zm50.677-156.701h-101.343c-5.452 0-9.888-4.435-9.888-9.888s4.435-9.888 9.888-9.888h101.343c5.452 0 9.888 4.435 9.888 9.888s-4.436 9.888-9.888 9.888z"/><path d="m175.855 164.681c-4.143 0-7.5 3.357-7.5 7.5v3.866c0 4.143 3.357 7.5 7.5 7.5s7.5-3.357 7.5-7.5v-3.866c0-4.143-3.357-7.5-7.5-7.5z"/><path d="m261.097 164.681c-4.143 0-7.5 3.357-7.5 7.5v3.866c0 4.143 3.357 7.5 7.5 7.5 4.142 0 7.5-3.357 7.5-7.5v-3.866c0-4.143-3.357-7.5-7.5-7.5z"/><path d="m189.357 206.615c-1.693 3.781-.001 8.218 3.779 9.91 8.408 3.765 16.874 5.647 25.34 5.647s16.932-1.883 25.339-5.647c3.78-1.692 5.473-6.13 3.779-9.91-1.693-3.781-6.127-5.475-9.91-3.779-12.926 5.787-25.492 5.787-38.419 0-3.776-1.696-8.215-.001-9.908 3.779z"/><path d="m248.215 153.372c9.029-7.789 16.734-7.789 25.763 0 1.418 1.223 3.161 1.821 4.896 1.821 2.104 0 4.198-.882 5.682-2.601 2.706-3.137 2.356-7.873-.779-10.578-14.627-12.617-30.734-12.617-45.361 0-3.136 2.705-3.485 7.441-.779 10.578 2.706 3.135 7.442 3.486 10.578.78z"/><path d="m188.737 153.372c1.418 1.223 3.161 1.821 4.896 1.821 2.104 0 4.198-.882 5.682-2.601 2.706-3.137 2.356-7.873-.779-10.578-14.627-12.617-30.734-12.617-45.361 0-3.136 2.705-3.485 7.441-.779 10.578 2.705 3.135 7.441 3.485 10.578.779 9.029-7.788 16.734-7.788 25.763.001z"/></g></g><g/><g/><g/><g/><g/><g/><g/><g/><g/><g/><g/><g/><g/><g/><g/></svg>