<svg id="Capa_1" enable-background="new 0 0 512 512" viewBox="0 0 512 512" xmlns="http://www.w3.org/2000/svg"><g><g><path d="m62.87 295.923h81.623v109.623h-81.623z" fill="#d8ecfe"/><path d="m74.303 141.927h58.758v153.996h-58.758z" fill="#d8ecfe"/><path d="m35.483 456.183v-51.24c0-7.622 6.177-13.8 13.799-13.8h108.798c7.622 0 13.8 6.179 13.8 13.8v51.24z" fill="#fdb441"/><path d="m158.08 391.143h-35.484c7.622 0 13.8 6.18 13.8 13.802v51.239h35.484v-51.24c0-7.623-6.179-13.801-13.8-13.801z" fill="#fe9738"/><path d="m504.5 464.812v16.661c0 5.515-4.471 9.985-9.985 9.985h-478.933c-4.464 0-8.082-3.618-8.082-8.082v-40.171c0-4.464 3.618-8.082 8.082-8.082h422.779c2.526 0 5.032.442 7.405 1.307l52.165 19c3.945 1.436 6.569 5.185 6.569 9.382z" fill="#678d98"/><path d="m252.709 193.992c-4.164 0-8.084-1.897-10.66-5.162l-52.577-66.551c-7.075-8.956-17.858-14.184-29.272-14.184h-71.201v67.964h73.44c4.873 0 9.478 2.229 12.499 6.053l36.039 45.619c7.363 9.317 18.589 14.758 30.471 14.758h81.031v-48.497z" fill="#d8ecfe"/><path d="m380.37 153.103v168.696c0 24.07 19.512 43.581 43.581 43.581s43.585-19.512 43.585-43.582v-168.695z" fill="#62dbfb"/><path d="m438.322 153.103v168.695c0 18.945-12.092 35.059-28.976 41.065 4.567 1.625 9.481 2.517 14.606 2.517 24.07 0 43.585-19.512 43.585-43.582v-168.695z" fill="#01d0fb"/><path d="m467.536 274.852v46.946c0 24.068-19.511 43.582-43.585 43.582-24.068 0-43.581-19.514-43.581-43.581v-52.375c5.4-2.28 11.545-4.227 22.053-4.227 25.304 0 25.304 11.286 50.601 11.286 6.055 0 10.664-.649 14.512-1.631z" fill="#fe76a8"/><path d="m423.952 365.38c24.073 0 43.585-19.514 43.585-43.582v-46.946c-3.849.982-8.457 1.631-14.512 1.631-6.159 0-10.812-.672-14.703-1.684v46.999c0 18.945-12.092 35.059-28.976 41.065 4.567 1.625 9.481 2.517 14.606 2.517z" fill="#fe5694"/><path d="m465.372 124.667h-82.838c-9.533 0-17.261 7.728-17.261 17.261s7.728 17.261 17.261 17.261h82.838c9.533 0 17.261-7.728 17.261-17.261s-7.728-17.261-17.261-17.261z" fill="#d8ecfe"/><path d="m465.372 124.667h-35.149c9.533 0 17.261 7.728 17.261 17.261s-7.728 17.26-17.261 17.26h35.149c9.533 0 17.261-7.728 17.261-17.261s-7.728-17.26-17.261-17.26z" fill="#bddbff"/><path d="m331.765 198.441v39.607h145.842c7.401 0 13.401-5.999 13.401-13.4v-12.806c0-7.401-5.999-13.401-13.401-13.401z" fill="#d8ecfe"/><path d="m477.607 198.441h-41.883c7.401 0 13.401 5.999 13.401 13.401v12.805c0 7.401-6 13.401-13.401 13.401h41.883c7.401 0 13.401-5.999 13.401-13.4v-12.806c-.001-7.402-6-13.401-13.401-13.401z" fill="#bddbff"/><path d="m282.824 177.125v15.733c0 2.899 1.772 5.504 4.469 6.569l5.238 2.068c2.697 1.065 4.469 3.67 4.469 6.569v20.359c0 2.899-1.772 5.504-4.469 6.569l-5.238 2.068c-2.697 1.065-4.469 3.67-4.469 6.569v15.733c0 3.901 3.162 7.063 7.063 7.063h39.089c6.366 0 11.526-5.161 11.526-11.527v-73.311c0-6.366-5.161-11.527-11.526-11.527h-39.089c-3.901.002-7.063 3.164-7.063 7.065z" fill="#678d98"/><path d="m103.681 89.924c-29.081 0-52.654 23.576-52.654 52.656 0 29.081 23.574 52.654 52.655 52.654 29.08 0 52.655-23.573 52.655-52.655-.001-29.079-23.576-52.655-52.656-52.655z" fill="#fe76a8"/><path d="m103.681 89.924c-4.001 0-7.891.462-11.637 1.308 23.478 5.299 41.017 26.269 41.017 51.348 0 25.08-17.539 46.049-41.017 51.348 3.746.845 7.637 1.307 11.638 1.307 29.08 0 52.655-23.573 52.655-52.655-.001-29.08-23.576-52.656-52.656-52.656z" fill="#fe5694"/><ellipse cx="103.682" cy="142.58" fill="#678d98" rx="17.909" ry="17.909" transform="matrix(.998 -.071 .071 .998 -9.847 7.709)"/><ellipse cx="103.682" cy="298.599" fill="#fe76a8" rx="52.655" ry="52.654" transform="matrix(.998 -.058 .058 .998 -17.204 6.541)"/><path d="m103.682 245.944c-4.808 0-9.461.657-13.887 1.864 22.34 6.095 38.768 26.519 38.768 50.79 0 24.272-16.428 44.696-38.768 50.79 4.426 1.208 9.078 1.864 13.887 1.864 29.08 0 52.655-23.573 52.655-52.654-.001-29.079-23.575-52.654-52.655-52.654z" fill="#fe5694"/><ellipse cx="103.682" cy="298.599" fill="#678d98" rx="17.909" ry="17.909" transform="matrix(.998 -.071 .071 .998 -20.907 8.101)"/></g><g><path d="m500.499 448.383-52.166-18.999c-3.206-1.168-6.561-1.76-9.972-1.76h-102.752c-4.142 0-7.5 3.357-7.5 7.5s3.358 7.5 7.5 7.5h102.752c1.655 0 3.283.287 4.839.854l52.165 18.999c.978.356 1.635 1.295 1.635 2.336v16.661c0 1.37-1.115 2.485-2.485 2.485h-478.933c-.321 0-.582-.261-.582-.582v-40.171c0-.321.261-.582.582-.582h285.027c4.142 0 7.5-3.357 7.5-7.5s-3.358-7.5-7.5-7.5h-121.229v-22.683c0-11.745-9.555-21.301-21.3-21.301h-6.09v-49.242c7.438-10.01 11.846-22.399 11.846-35.8 0-19.279-9.127-36.457-23.276-47.473v-61.073c2.536-1.975 4.912-4.144 7.101-6.492h14.779c2.596 0 5.008 1.167 6.615 3.2l36.04 45.619c8.839 11.192 22.09 17.611 36.356 17.611h33.874v9.372c0 8.03 6.533 14.562 14.563 14.562h39.089c10.491 0 19.026-8.535 19.026-19.026v-9.349h24.868v76.25c0 28.166 22.915 51.08 51.08 51.08 28.171 0 51.09-22.914 51.09-51.08v-76.25h2.57c11.524 0 20.9-9.375 20.9-20.899v-12.811c0-11.524-9.375-20.899-20.9-20.899h-2.57v-26.219c8.863-3.773 15.093-12.57 15.093-22.794 0-13.653-11.108-24.761-24.761-24.761h-36.486c-4.142 0-7.5 3.357-7.5 7.5s3.358 7.5 7.5 7.5h36.486c5.382 0 9.761 4.379 9.761 9.761s-4.379 9.761-9.761 9.761h-82.838c-5.382 0-9.761-4.379-9.761-9.761s4.378-9.761 9.761-9.761h11.352c4.142 0 7.5-3.357 7.5-7.5s-3.358-7.5-7.5-7.5h-11.352c-13.653 0-24.761 11.107-24.761 24.761 0 10.226 6.232 19.023 15.097 22.796v26.218h-24.868v-9.353c0-10.153-7.999-18.45-18.022-18.977v-77.75c0-19.156-15.584-34.74-34.74-34.74s-34.74 15.584-34.74 34.74v14.029c0 9.634-7.837 17.471-17.47 17.471-6.041 0-11.57-3.059-14.789-8.18l-46.068-73.337c-8.566-13.652-23.303-21.804-39.423-21.804-25.679 0-46.569 20.892-46.569 46.57v23.296c-29.64 3.706-52.654 29.043-52.654 59.673 0 19.278 9.126 36.454 23.273 47.47v61.078c-14.147 11.017-23.273 28.192-23.273 47.47 0 13.399 4.407 25.786 11.843 35.795v49.247h-6.09c-11.745 0-21.3 9.556-21.3 21.301v22.683h-12.399c-8.592.001-15.582 6.991-15.582 15.583v40.171c0 8.592 6.99 15.582 15.582 15.582h478.933c9.642 0 17.485-7.844 17.485-17.485v-16.661c0-7.322-4.622-13.924-11.501-16.43zm-283.634-225.301-36.042-45.622c-4.471-5.655-11.172-8.899-18.384-8.899h-4.51c3.784-7.869 5.907-16.681 5.907-25.98 0-9.702-2.322-18.866-6.419-26.989h2.783c9.175 0 17.697 4.132 23.385 11.34l52.575 66.544c4.017 5.095 10.049 8.017 16.55 8.017h25.441c1.585 2.152 3.765 3.876 6.389 4.913l4.96 1.957v19.765l-4.962 1.959c-2.62 1.035-4.799 2.757-6.383 4.906h-36.705c-9.647-.002-18.608-4.342-24.585-11.911zm207.085 134.799c-19.895 0-36.08-16.186-36.08-36.08v-47.167c3.523-1.089 8.031-1.937 14.553-1.937 11.056 0 16.243 2.313 22.249 4.993 6.613 2.949 14.108 6.293 28.353 6.293 2.454 0 4.782-.104 7.016-.304v38.121c-.001 19.895-16.191 36.081-36.091 36.081zm36.09-89.277c-2.175.252-4.5.379-7.016.379-11.051 0-16.237-2.313-22.242-4.992-6.614-2.95-14.11-6.294-28.359-6.294-5.872 0-10.578.563-14.553 1.433v-13.58h72.17zm-72.17-101.916h72.17v24.253h-72.17zm89.74 39.253c3.253 0 5.9 2.646 5.9 5.899v12.811c0 3.253-2.646 5.899-5.9 5.899h-129.608v-24.609zm-144.608-24.352v73.311c0 2.22-1.806 4.026-4.026 4.026h-38.652v-14.998l4.96-1.959c5.598-2.21 9.215-7.526 9.215-13.545v-20.359c0-6.017-3.616-11.334-9.215-13.546l-4.96-1.958v-14.999h38.652c2.22 0 4.026 1.806 4.026 4.027zm-190.252-153.548c10.924 0 20.912 5.523 26.719 14.779l46.071 73.342c5.982 9.518 16.259 15.199 27.49 15.199 17.904 0 32.47-14.566 32.47-32.471v-14.029c0-10.885 8.855-19.74 19.74-19.74s19.74 8.855 19.74 19.74v77.7h-25.093c-8.03 0-14.563 6.533-14.563 14.563v9.366h-22.614c-1.877 0-3.616-.84-4.775-2.31l-52.577-66.546c-8.547-10.832-21.362-17.045-35.158-17.045h-13.499c-9.282-9.508-21.676-15.953-35.521-17.684v-23.294c.001-17.408 14.162-31.57 31.57-31.57zm-84.223 114.539c0-24.899 20.256-45.157 45.154-45.157 24.899 0 45.155 20.258 45.155 45.157 0 24.898-20.256 45.154-45.155 45.154s-45.154-20.255-45.154-45.154zm23.273 56.016c6.787 2.661 14.163 4.138 21.882 4.138 7.718 0 15.092-1.477 21.878-4.137v43.983c-6.786-2.66-14.161-4.137-21.878-4.137-7.719 0-15.095 1.478-21.882 4.138zm21.882 54.848c24.898 0 45.155 20.256 45.155 45.154s-20.256 45.154-45.155 45.154-45.155-20.256-45.155-45.154 20.256-45.154 45.155-45.154zm-33.312 95.213c9.544 6.372 21 10.096 33.312 10.096 12.311 0 23.765-3.723 33.309-10.094v34.982h-66.621zm-27.39 56.284c0-3.475 2.826-6.301 6.3-6.301h108.8c3.474 0 6.3 2.826 6.3 6.301v22.683h-121.4z"/><path d="m103.682 167.989c14.011 0 25.41-11.398 25.41-25.409s-11.399-25.41-25.41-25.41-25.409 11.399-25.409 25.41 11.398 25.409 25.409 25.409zm0-35.819c5.74 0 10.41 4.67 10.41 10.41 0 5.739-4.67 10.409-10.41 10.409s-10.409-4.67-10.409-10.409c-.001-5.74 4.669-10.41 10.409-10.41z"/><path d="m103.682 324.008c14.011 0 25.41-11.398 25.41-25.409s-11.399-25.409-25.41-25.409-25.409 11.398-25.409 25.409 11.398 25.409 25.409 25.409zm0-35.819c5.74 0 10.41 4.67 10.41 10.409s-4.67 10.409-10.41 10.409-10.409-4.67-10.409-10.409 4.669-10.409 10.409-10.409z"/></g></g><g/><g/><g/><g/><g/><g/><g/><g/><g/><g/><g/><g/><g/><g/><g/></svg>