<svg id="Capa_1" enable-background="new 0 0 512 512" viewBox="0 0 512 512" xmlns="http://www.w3.org/2000/svg"><g><g><path d="m97.78 147.403v317.867c0 21.666 17.564 39.23 39.23 39.23h237.98c21.666 0 39.23-17.564 39.23-39.23v-317.867z" fill="#d8ecfe"/><path d="m370.031 147.403v317.867c0 21.667-17.564 39.23-39.23 39.23h44.189c21.666 0 39.23-17.564 39.23-39.23v-317.867z" fill="#bddbff"/><path d="m227.634 67.842h56.733v85.983h-56.733z" fill="#d8ecfe"/><path d="m207.047 77.341v-31.008c0-4.702 3.812-8.514 8.514-8.514h80.878c4.702 0 8.514 3.812 8.514 8.514v31.008c0 4.702-3.812 8.514-8.514 8.514h-80.878c-4.702.001-8.514-3.811-8.514-8.514z" fill="#678d98"/><path d="m59.058 141.431v23.566c0 3.216 2.607 5.823 5.823 5.823h382.239c3.216 0 5.823-2.607 5.823-5.823v-23.566c0-3.216-2.607-5.823-5.823-5.823h-382.239c-3.216 0-5.823 2.607-5.823 5.823z" fill="#678d98"/><path d="m148.918 320.21v48.457c0 6.038 4.895 10.932 10.932 10.932h13.713c6.038 0 10.932-4.895 10.932-10.932v-48.457c0-6.038-4.895-10.932-10.932-10.932h-13.713c-6.038 0-10.932 4.895-10.932 10.932z" fill="#678d98"/><g fill="#62dbfb"><ellipse cx="352.215" cy="401.215" rx="19.148" ry="19.148" transform="matrix(.055 -.999 .999 .055 -67.864 730.703)"/><ellipse cx="207.917" cy="213.44" rx="15" ry="15" transform="matrix(.055 -.999 .999 .055 -16.694 409.236)"/><ellipse cx="162.259" cy="454.607" rx="16.06" ry="16.06" transform="matrix(.055 -.999 .999 .055 -300.626 591.477)"/><ellipse cx="305.311" cy="344.439" rx="16.06" ry="16.06" transform="matrix(.055 -.999 .999 .055 -55.484 630.235)"/><ellipse cx="333.066" cy="221.16" rx="20.006" ry="20.006" transform="matrix(.055 -.999 .999 .055 93.826 541.487)"/><ellipse cx="270.762" cy="267.684" rx="23.427" ry="23.427" transform="matrix(.055 -.999 .999 .055 -11.486 523.229)"/></g></g><g><path d="m447.12 128.108h-56.905c-4.142 0-7.5 3.357-7.5 7.5s3.358 7.5 7.5 7.5h55.228v20.212h-378.885v-20.212h288.657c4.142 0 7.5-3.357 7.5-7.5s-3.358-7.5-7.5-7.5h-63.345v-34.753h4.569c8.831 0 16.015-7.184 16.015-16.014v-31.008c0-8.83-7.184-16.014-16.015-16.014h-80.878c-8.831 0-16.015 7.184-16.015 16.014v31.009c0 8.83 7.184 16.014 16.015 16.014h4.569v34.753h-45.92v-56.939c0-15.428-12.556-27.979-27.99-27.979-15.428 0-27.98 12.552-27.98 27.979v10.79c0 8.42-6.846 15.271-15.26 15.271-8.42 0-15.27-6.851-15.27-15.271v-74.46c0-4.143-3.358-7.5-7.5-7.5s-7.5 3.357-7.5 7.5v74.46c0 16.691 13.579 30.271 30.27 30.271 16.686 0 30.26-13.579 30.26-30.271v-10.79c0-7.157 5.823-12.979 12.98-12.979 7.163 0 12.99 5.822 12.99 12.979v56.938h-94.33c-7.346 0-13.323 5.977-13.323 13.322v23.566c0 7.347 5.977 13.323 13.323 13.323h25.4v286.951c0 25.768 20.963 46.73 46.73 46.73h107.381c4.142 0 7.5-3.357 7.5-7.5s-3.358-7.5-7.5-7.5h-107.381c-17.496 0-31.73-14.234-31.73-31.73v-286.95h53.93v123.49c-9.866.341-17.792 8.452-17.792 18.399v48.457c0 10.164 8.269 18.433 18.432 18.433h13.713c10.164 0 18.432-8.269 18.432-18.433v-48.456c0-9.945-7.923-18.054-17.785-18.399v-123.491h74.29v67.928c-5.359 5.564-8.665 13.119-8.665 21.435 0 8.317 3.306 15.872 8.665 21.436v140.65h-30.689c-4.142 0-7.5 3.357-7.5 7.5s3.358 7.5 7.5 7.5h76.378c4.142 0 7.5-3.357 7.5-7.5s-3.358-7.5-7.5-7.5h-30.689v-132.027c2.331.563 4.76.869 7.262.869 17.053 0 30.927-13.874 30.927-30.928 0-4.143-3.358-7.5-7.5-7.5s-7.5 3.357-7.5 7.5c0 8.782-7.145 15.928-15.927 15.928s-15.927-7.146-15.927-15.928 7.145-15.927 15.927-15.927c4.142 0 7.5-3.357 7.5-7.5s-3.358-7.5-7.5-7.5c-2.501 0-4.931.306-7.262.869v-59.305h143.22v286.95c0 17.496-14.234 31.73-31.73 31.73h-95.6c-4.142 0-7.5 3.357-7.5 7.5s3.358 7.5 7.5 7.5h95.6c25.767 0 46.73-20.963 46.73-46.73v-286.95h25.399c7.346 0 13.323-5.977 13.323-13.323v-23.566c0-7.346-5.976-13.323-13.322-13.323zm-232.574-50.766v-31.009c0-.559.455-1.014 1.015-1.014h80.878c.56 0 1.015.455 1.015 1.014v31.009c0 .559-.455 1.014-1.015 1.014h-80.878c-.56-.001-1.015-.456-1.015-1.014zm20.584 16.013h41.74v34.753h-41.74zm-58.135 226.855v48.457c0 1.893-1.54 3.433-3.432 3.433h-13.713c-1.893 0-3.432-1.54-3.432-3.433v-48.457c0-1.893 1.54-3.432 3.432-3.432h6.821c.013 0 .026.002.039.002s.026-.002.039-.002h6.814c1.893 0 3.432 1.539 3.432 3.432z"/><path d="m325.566 401.215c0 14.694 11.955 26.648 26.648 26.648s26.648-11.954 26.648-26.648-11.955-26.648-26.648-26.648-26.648 11.954-26.648 26.648zm38.297 0c0 6.423-5.226 11.648-11.648 11.648s-11.648-5.226-11.648-11.648 5.226-11.648 11.648-11.648 11.648 5.225 11.648 11.648z"/><path d="m230.417 213.44c0-12.406-10.093-22.5-22.5-22.5s-22.5 10.094-22.5 22.5 10.093 22.5 22.5 22.5 22.5-10.093 22.5-22.5zm-22.5 7.5c-4.136 0-7.5-3.364-7.5-7.5s3.364-7.5 7.5-7.5 7.5 3.364 7.5 7.5-3.364 7.5-7.5 7.5z"/><path d="m138.699 454.607c0 12.991 10.569 23.56 23.56 23.56s23.56-10.568 23.56-23.56-10.569-23.561-23.56-23.561c-12.991.001-23.56 10.57-23.56 23.561zm32.119 0c0 4.72-3.84 8.56-8.56 8.56s-8.56-3.84-8.56-8.56c0-4.721 3.84-8.561 8.56-8.561 4.721.001 8.56 3.841 8.56 8.561z"/><path d="m281.751 344.438c0 12.991 10.569 23.561 23.56 23.561s23.56-10.569 23.56-23.561-10.569-23.56-23.56-23.56c-12.991.001-23.56 10.569-23.56 23.56zm32.12 0c0 4.721-3.84 8.561-8.56 8.561s-8.56-3.84-8.56-8.561c0-4.72 3.84-8.56 8.56-8.56 4.72.001 8.56 3.841 8.56 8.56z"/><path d="m333.066 193.654c-15.167 0-27.506 12.339-27.506 27.506s12.339 27.506 27.506 27.506 27.506-12.339 27.506-27.506-12.339-27.506-27.506-27.506zm0 40.012c-6.896 0-12.506-5.61-12.506-12.506s5.61-12.506 12.506-12.506 12.506 5.61 12.506 12.506-5.61 12.506-12.506 12.506z"/></g></g><g/><g/><g/><g/><g/><g/><g/><g/><g/><g/><g/><g/><g/><g/><g/></svg>