<svg id="Capa_1" enable-background="new 0 0 512 512" viewBox="0 0 512 512" xmlns="http://www.w3.org/2000/svg"><g><g><path d="m91.076 23.469h329.847v281.878h-329.847z" fill="#62dbfb"/><path d="m163.869 266.48-11.314 29.996h206.889l-11.314-29.996c-2.696-7.147-9.534-11.879-17.172-11.879h-149.916c-7.639 0-14.477 4.732-17.173 11.879z" fill="#d8ecfe"/><path d="m74.129 289.378h363.742v31.938h-363.742z" fill="#678d98"/><path d="m399.041 289.378h38.83v31.938h-38.83z" fill="#537983"/><path d="m74.129 14.572v24.866h363.742v-24.866c0-3.906-3.166-7.072-7.072-7.072h-349.598c-3.906 0-7.072 3.166-7.072 7.072z" fill="#678d98"/><g fill="#d8ecfe"><path d="m403.976 39.438h33.895v249.941h-33.895z"/><path d="m74.129 39.438h33.895v249.941h-33.895z"/><path d="m74.129 496.59v-175.274h363.742v175.274c0 4.369-3.541 7.91-7.91 7.91h-347.922c-4.369 0-7.91-3.542-7.91-7.91z"/></g><path d="m399.041 321.316v175.274c0 4.369-3.542 7.91-7.91 7.91h38.83c4.369 0 7.91-3.542 7.91-7.91v-175.274z" fill="#bddbff"/><path d="m138.746 421.213v-99.896h234.508v99.896c0 4.751-3.851 8.602-8.602 8.602h-217.304c-4.751 0-8.602-3.852-8.602-8.602z" fill="#5de1c4"/></g><g><path d="m430.799 0h-266.511c-4.142 0-7.5 3.357-7.5 7.5s3.358 7.5 7.5 7.5h266.083v16.938h-348.742v-16.938h47.659c4.142 0 7.5-3.357 7.5-7.5s-3.358-7.5-7.5-7.5h-48.087c-8.035 0-14.572 6.537-14.572 14.572v482.018c0 8.497 6.913 15.41 15.41 15.41h254.946c4.143 0 7.5-3.357 7.5-7.5s-3.357-7.5-7.5-7.5h-254.946c-.226 0-.41-.184-.41-.41v-167.774h49.617v92.396c0 8.879 7.223 16.102 16.102 16.102h217.303c8.879 0 16.103-7.223 16.103-16.102v-92.396h49.617v167.774c0 .227-.184.41-.41.41h-57.976c-4.143 0-7.5 3.357-7.5 7.5s3.357 7.5 7.5 7.5h57.976c8.497 0 15.41-6.913 15.41-15.41v-482.018c0-8.035-6.537-14.572-14.572-14.572zm-.428 46.938v234.941h-18.895v-234.941zm-68.423 234.941-6.799-18.039c-3.766-10.013-13.487-16.74-24.189-16.74h-149.92c-10.702 0-20.423 6.728-24.188 16.736l-6.8 18.043h-34.529v-234.941h280.953v234.941zm-16.03 0h-179.836l4.808-12.758c1.58-4.2 5.659-7.021 10.15-7.021h149.92c4.491 0 8.57 2.821 10.151 7.025zm-245.395-234.941v234.941h-18.894v-234.941zm265.231 374.275c0 .607-.494 1.102-1.103 1.102h-217.303c-.608 0-1.102-.494-1.102-1.102v-92.396h219.508zm-284.125-107.397v-16.938h275.093c.013 0 .026.003.039.003.022 0 .044-.003.066-.003h73.544v16.938z"/><path d="m192.522 405.542c12.407 0 22.5-10.094 22.5-22.5v-16.988c0-12.406-10.093-22.5-22.5-22.5s-22.5 10.094-22.5 22.5v16.988c0 12.406 10.093 22.5 22.5 22.5zm-7.5-39.488c0-4.136 3.364-7.5 7.5-7.5s7.5 3.364 7.5 7.5v16.988c0 4.136-3.364 7.5-7.5 7.5s-7.5-3.364-7.5-7.5z"/><path d="m262.722 405.542c12.406 0 22.5-10.094 22.5-22.5v-16.988c0-12.406-10.094-22.5-22.5-22.5-12.407 0-22.5 10.094-22.5 22.5v16.988c-.001 12.406 10.093 22.5 22.5 22.5zm-7.501-39.488c0-4.136 3.365-7.5 7.5-7.5s7.5 3.364 7.5 7.5v16.988c0 4.136-3.364 7.5-7.5 7.5s-7.5-3.364-7.5-7.5z"/><path d="m319.478 405.542c12.406 0 22.5-10.094 22.5-22.5v-16.988c0-12.406-10.094-22.5-22.5-22.5s-22.5 10.094-22.5 22.5v16.988c0 12.406 10.093 22.5 22.5 22.5zm-7.5-39.488c0-4.136 3.364-7.5 7.5-7.5s7.5 3.364 7.5 7.5v16.988c0 4.136-3.364 7.5-7.5 7.5s-7.5-3.364-7.5-7.5z"/><path d="m227.441 407.577c4.142 0 7.5-3.357 7.5-7.5v-1c0-4.143-3.358-7.5-7.5-7.5s-7.5 3.357-7.5 7.5v1c0 4.143 3.358 7.5 7.5 7.5z"/><path d="m170.943 459.657c-4.142 0-7.5 3.357-7.5 7.5s3.358 7.5 7.5 7.5h8.144c4.142 0 7.5-3.357 7.5-7.5s-3.358-7.5-7.5-7.5z"/><path d="m224.933 459.657c-4.142 0-7.5 3.357-7.5 7.5s3.358 7.5 7.5 7.5h8.144c4.142 0 7.5-3.357 7.5-7.5s-3.358-7.5-7.5-7.5z"/><path d="m278.924 459.657c-4.143 0-7.5 3.357-7.5 7.5s3.357 7.5 7.5 7.5h8.143c4.143 0 7.5-3.357 7.5-7.5s-3.357-7.5-7.5-7.5z"/><path d="m341.057 459.657h-8.143c-4.143 0-7.5 3.357-7.5 7.5s3.357 7.5 7.5 7.5h8.143c4.143 0 7.5-3.357 7.5-7.5s-3.358-7.5-7.5-7.5z"/></g></g><g/><g/><g/><g/><g/><g/><g/><g/><g/><g/><g/><g/><g/><g/><g/></svg>