<svg id="Capa_1" enable-background="new 0 0 512 512" viewBox="0 0 512 512" xmlns="http://www.w3.org/2000/svg"><g><g><path d="m504.5 211.876h-77.34c-3.917 0-7.651-1.659-10.276-4.566l-67.997-75.283c-5.017-5.554-12.151-8.724-19.635-8.724h-146.504c-7.484 0-14.618 3.17-19.635 8.724l-67.997 75.283c-2.625 2.907-6.359 4.566-10.276 4.566h-77.34v88.229h77.34c3.917 0 7.651 1.659 10.276 4.566l67.997 75.282c5.017 5.554 12.151 8.724 19.635 8.724h146.504c7.484 0 14.618-3.17 19.635-8.724l67.997-75.283c2.625-2.907 6.359-4.566 10.276-4.566h77.34z" fill="#62dbfb"/><path d="m427.16 211.876c-3.917 0-7.651-1.659-10.276-4.566l-67.997-75.283c-5.016-5.554-12.151-8.724-19.635-8.724h-31.654c7.484 0 14.618 3.169 19.635 8.724l56.721 62.798c7.258 8.036 11.276 18.479 11.276 29.307v63.714c0 10.828-4.018 21.271-11.276 29.307l-56.721 62.798c-5.016 5.554-12.151 8.724-19.635 8.724h31.654c7.484 0 14.618-3.169 19.635-8.724l67.997-75.283c2.625-2.907 6.359-4.566 10.276-4.566h77.34v-88.229h-77.34z" fill="#01d0fb"/><path d="m331.463 123.405c-.733-.061-1.469-.101-2.211-.101 0 0-147.982.04-148.715.101v265.17c.733.061 1.469.101 2.211.101 0 0 147.982-.04 148.715-.101z" fill="#fdb441"/><circle cx="128.588" cy="230.819" fill="#d8ecfe" r="14.5"/><circle cx="143.088" cy="292.573" fill="#d8ecfe" r="14.5"/><circle cx="369.539" cy="216.319" fill="#fed2a4" r="14.5"/><circle cx="396.393" cy="270.49" fill="#fed2a4" r="14.5"/><g><path d="m269.72 309.822c-4.349.193-8.641 1.948-11.962 5.269-7.05 7.05-7.05 18.481 0 25.531 7.051 7.051 18.481 7.05 25.531 0 3.321-3.321 5.076-7.613 5.269-11.962z" fill="#d8ecfe"/><path d="m269.72 309.822c.193-4.349 1.948-8.641 5.269-11.962 7.05-7.05 18.481-7.05 25.531 0s7.05 18.481 0 25.531c-3.321 3.321-7.613 5.076-11.962 5.269z" fill="#fe76a8"/></g><g><path d="m245.037 241.271c-3.211-2.939-7.488-4.733-12.184-4.733-9.971 0-18.053 8.083-18.053 18.054s8.083 18.054 18.053 18.054c4.696 0 8.972-1.794 12.184-4.733z" fill="#d8ecfe"/><path d="m245.037 241.271c3.211-2.939 7.488-4.733 12.184-4.733 9.971 0 18.053 8.083 18.053 18.054s-8.083 18.054-18.053 18.054c-4.696 0-8.972-1.794-12.184-4.733z" fill="#fe76a8"/></g><g><path d="m244.343 167.605c-1.918-3.908-5.245-7.138-9.617-8.852-9.283-3.638-19.758.939-23.396 10.222-3.638 9.284.939 19.758 10.222 23.396 4.372 1.713 9.008 1.603 13.07.039z" fill="#d8ecfe"/><path d="m244.343 167.605c4.062-1.564 8.698-1.675 13.07.039 9.283 3.638 13.86 14.112 10.222 23.396s-14.112 13.86-23.396 10.222c-4.372-1.713-7.699-4.944-9.617-8.852z" fill="#fe76a8"/></g></g><g><path d="m504.5 292.605h-77.341c-6.027 0-11.801 2.565-15.841 7.038l-67.998 75.283c-1.275 1.412-2.752 2.598-4.357 3.556v-244.983c1.606.958 3.083 2.145 4.358 3.557l67.997 75.282c4.04 4.473 9.813 7.038 15.841 7.038h77.341c4.143 0 7.5-3.357 7.5-7.5s-3.357-7.5-7.5-7.5h-77.341c-1.792 0-3.509-.763-4.71-2.093l-67.996-75.281c-6.485-7.18-15.742-11.197-25.201-11.197h-78.739c-4.143 0-7.5 3.357-7.5 7.5s3.357 7.5 7.5 7.5h73.45v250.371h-17.904c-4.143 0-7.5 3.357-7.5 7.5s3.357 7.511 7.5 7.5c.967-.003 25.366-.047 26.208-.145 8.479-.759 16.438-4.686 22.186-11.051l67.997-75.282c1.201-1.33 2.918-2.093 4.71-2.093h77.34c4.143 0 7.5-3.357 7.5-7.5s-3.357-7.5-7.5-7.5z"/><path d="m271.059 381.176h-83.021v-250.371h27.476c4.143 0 7.5-3.357 7.5-7.5s-3.357-7.5-7.5-7.5c0 0-34.695.053-35.652.135-.042.004-.085.005-.127.01-8.479.759-16.438 4.686-22.186 11.051l-67.997 75.282c-1.201 1.33-2.918 2.093-4.71 2.093h-77.342c-4.143 0-7.5 3.357-7.5 7.5s3.357 7.5 7.5 7.5h77.341c6.027 0 11.801-2.565 15.841-7.038l67.998-75.283c1.275-1.412 2.752-2.598 4.357-3.556v244.982c-1.606-.958-3.083-2.145-4.358-3.557l-67.997-75.282c-4.04-4.473-9.813-7.038-15.841-7.038h-77.341c-4.143 0-7.5 3.357-7.5 7.5s3.357 7.5 7.5 7.5h77.341c1.792 0 3.509.763 4.71 2.093l67.996 75.281c5.749 6.366 13.708 10.293 22.187 11.052.042.005.085.006.127.01 3.013.258-1.95.108 91.198.135 4.143.001 7.5-3.357 7.5-7.5s-3.358-7.499-7.5-7.499z"/><path d="m15.851 255.99c0 4.143 3.357 7.5 7.5 7.5h31.556l-2.834 3.424c-2.642 3.191-2.195 7.919.995 10.56 1.399 1.158 3.094 1.723 4.778 1.723 2.157 0 4.299-.926 5.781-2.718l13-15.706c2.297-2.774 2.297-6.79 0-9.564l-13-15.706c-2.641-3.191-7.367-3.636-10.56-.995-3.19 2.641-3.637 7.368-.995 10.56l2.834 3.424h-31.555c-4.143-.002-7.5 3.356-7.5 7.498z"/><path d="m469.791 277.474c1.399 1.158 3.094 1.723 4.778 1.723 2.157 0 4.299-.926 5.781-2.718l13-15.706c2.297-2.774 2.297-6.79 0-9.564l-13-15.706c-2.642-3.191-7.367-3.636-10.56-.995-3.19 2.641-3.637 7.368-.995 10.56l2.834 3.424h-31.556c-4.143 0-7.5 3.357-7.5 7.5s3.357 7.5 7.5 7.5h31.556l-2.834 3.424c-2.641 3.19-2.194 7.917.996 10.558z"/><path d="m128.588 208.819c-12.131 0-22 9.869-22 22s9.869 22 22 22 22-9.869 22-22-9.869-22-22-22zm0 29c-3.859 0-7-3.141-7-7s3.141-7 7-7 7 3.141 7 7-3.141 7-7 7z"/><path d="m391.539 216.319c0-12.131-9.869-22-22-22s-22 9.869-22 22 9.869 22 22 22 22-9.869 22-22zm-22 7c-3.859 0-7-3.141-7-7s3.141-7 7-7 7 3.141 7 7-3.141 7-7 7z"/><path d="m121.088 292.572c0 12.131 9.869 22 22 22s22-9.869 22-22-9.869-22-22-22-22 9.869-22 22zm29 0c0 3.859-3.141 7-7 7s-7-3.141-7-7 3.141-7 7-7 7 3.141 7 7z"/><path d="m396.394 292.49c12.131 0 22-9.869 22-22s-9.869-22-22-22-22 9.869-22 22 9.869 22 22 22zm0-29c3.859 0 7 3.141 7 7s-3.141 7-7 7-7-3.141-7-7 3.14-7 7-7z"/><path d="m305.824 328.695c9.963-9.963 9.962-26.175-.001-36.138-4.826-4.827-11.243-7.485-18.069-7.485-6.825 0-13.242 2.658-18.069 7.484-3.043 3.043-5.212 6.768-6.41 10.82-4.052 1.197-7.776 3.368-10.819 6.411-4.827 4.826-7.485 11.243-7.485 18.069 0 6.825 2.658 13.242 7.484 18.068 4.826 4.827 11.243 7.485 18.069 7.485 6.825 0 13.242-2.658 18.069-7.484 3.042-3.043 5.212-6.768 6.41-10.82 4.052-1.196 7.777-3.366 10.821-6.41zm-18.07-28.623c2.819 0 5.469 1.098 7.462 3.092 4.115 4.114 4.116 10.81.001 14.924-1.161 1.162-2.56 2.024-4.086 2.538l-13.377-13.376c.515-1.526 1.377-2.925 2.538-4.086 1.993-1.994 4.644-3.092 7.462-3.092zm-17.23 38.338c-2.819 0-5.469-1.098-7.462-3.092-1.994-1.993-3.092-4.644-3.092-7.462 0-2.819 1.098-5.469 3.092-7.463 1.161-1.161 2.56-2.023 4.085-2.537l13.377 13.376c-.515 1.526-1.377 2.925-2.538 4.086-1.993 1.995-4.643 3.092-7.462 3.092z"/><path d="m245.037 232.156c-3.712-2.019-7.88-3.118-12.183-3.118-14.091 0-25.554 11.463-25.554 25.554s11.463 25.554 25.554 25.554c4.303 0 8.471-1.099 12.183-3.117 3.712 2.019 7.88 3.117 12.184 3.117 14.09 0 25.553-11.463 25.553-25.554s-11.463-25.554-25.553-25.554c-4.304 0-8.472 1.099-12.184 3.118zm-22.737 22.436c0-5.819 4.734-10.554 10.554-10.554 1.642 0 3.24.38 4.684 1.096v18.917c-1.442.715-3.041 1.095-4.684 1.095-5.82 0-10.554-4.735-10.554-10.554zm45.473 0c0 5.819-4.734 10.554-10.553 10.554-1.643 0-3.241-.379-4.684-1.095v-18.918c1.442-.715 3.041-1.095 4.684-1.095 5.819 0 10.553 4.735 10.553 10.554z"/><path d="m204.347 166.239c-2.49 6.355-2.356 13.3.376 19.554 2.733 6.255 7.738 11.071 14.093 13.561 3.004 1.178 6.162 1.767 9.322 1.767 1.056 0 2.11-.09 3.161-.222 2.719 3.233 6.199 5.776 10.206 7.347 3.022 1.185 6.178 1.775 9.33 1.775 3.475 0 6.944-.719 10.224-2.151 6.255-2.733 11.071-7.738 13.562-14.094s2.356-13.3-.376-19.554c-2.733-6.255-7.738-11.071-14.094-13.562-4.007-1.569-8.288-2.067-12.48-1.542-2.72-3.234-6.2-5.778-10.207-7.349-6.354-2.49-13.3-2.356-19.554.376-6.257 2.734-11.073 7.739-13.563 14.094zm56.15 13.989c1.129 2.583 1.185 5.45.155 8.075-1.028 2.625-3.017 4.692-5.601 5.82-2.584 1.129-5.451 1.183-8.075.156-1.529-.6-2.879-1.536-3.961-2.729l6.901-17.612c1.603-.138 3.23.09 4.76.689 2.626 1.028 4.693 3.017 5.821 5.601zm-36.583-14.336c1.354-.592 2.787-.889 4.222-.889 1.302 0 2.605.244 3.854.732 1.529.6 2.879 1.536 3.961 2.729l-6.902 17.613c-1.599.14-3.23-.091-4.76-.69-2.625-1.028-4.692-3.017-5.82-5.601-1.129-2.583-1.185-5.45-.155-8.075 1.028-2.624 3.016-4.691 5.6-5.819z"/></g></g><g/><g/><g/><g/><g/><g/><g/><g/><g/><g/><g/><g/><g/><g/><g/></svg>