<svg id="Capa_1" enable-background="new 0 0 512 512" viewBox="0 0 512 512" xmlns="http://www.w3.org/2000/svg"><g><g><path d="m366.23 127.796-44.363 90.738h73.09v-90.738z" fill="#678d98"/><path d="m31.776 151.109v343.391c0 5.523 4.477 10 10 10h256.252v-353.391z" fill="#678d98"/><path d="m260.266 151.109h37.763v353.391h-37.763z" fill="#537983"/><path d="m31.776 151.109v-10.484c0-73.523 59.603-133.125 133.127-133.125s133.126 59.602 133.126 133.126v10.484z" fill="#d8ecfe"/><path d="m164.903 7.5c-6.411 0-12.713.463-18.881 1.339 64.58 9.171 114.245 64.674 114.245 131.786v10.484h37.763v-10.484c-.002-73.523-59.604-133.125-133.127-133.125z" fill="#bddbff"/><path d="m158.278 211.571v292.929h302.528c5.523 0 10-4.477 10-10v-282.929c0-3.309-2.682-5.991-5.991-5.991h-300.546c-3.308 0-5.991 2.682-5.991 5.991z" fill="#d8ecfe"/><path d="m464.815 205.58h-35.185c3.309 0 5.991 2.682 5.991 5.991v282.929c0 5.523-4.477 10-10 10h35.186c5.523 0 10-4.477 10-10v-282.929c-.001-3.309-2.683-5.991-5.992-5.991z" fill="#bddbff"/><path d="m369.185 384.641h-109.286c-3.094 0-6.002 1.478-7.825 3.977l-17.312 23.719c-1.21 1.658-1.863 3.658-1.863 5.712v86.451h163.286v-86.451c0-2.053-.652-4.053-1.863-5.712l-17.312-23.719c-1.823-2.499-4.731-3.977-7.825-3.977z" fill="#62dbfb"/><path d="m158.278 211.571v50.542h42.652c2.5 0 4.783-1.419 5.889-3.661l8.507-17.245c1.106-2.242 3.389-3.661 5.889-3.661h186.655c2.5 0 4.783 1.419 5.889 3.661l8.507 17.245c1.106 2.242 3.389 3.661 5.889 3.661h42.651v-50.542c0-3.309-2.682-5.991-5.991-5.991h-300.546c-3.308 0-5.991 2.682-5.991 5.991z" fill="#62dbfb"/><path d="m435.621 211.571v50.542h35.186v-50.542c0-3.309-2.682-5.991-5.991-5.991h-35.186c3.308 0 5.991 2.682 5.991 5.991z" fill="#01d0fb"/><path d="m236.882 118.79h-143.958c-2.451 0-4.679-1.422-5.712-3.644l-8.71-18.746c-1.033-2.223-3.261-3.644-5.712-3.644h-32.138c-5.727 14.856-8.876 30.995-8.876 47.87v10.484h266.252v-10.484c0-16.875-3.147-33.014-8.875-47.87h-32.138c-2.451 0-4.679 1.422-5.712 3.644l-8.709 18.745c-1.033 2.223-3.261 3.645-5.712 3.645z" fill="#62dbfb"/><path d="m298.028 151.109v-10.484c0-16.875-3.147-33.014-8.875-47.87h-32.138c-1.874 0-3.612.835-4.791 2.22 5.199 14.239 8.042 29.612 8.042 45.651v10.484h37.762z" fill="#01d0fb"/><path d="m452.943 30.444-15.28 15.28c-2.322 2.322-2.322 6.087 0 8.41l14.199 14.199c2.322 2.322 6.087 2.322 8.41 0l15.28-15.28c6.243-6.243 6.243-16.366 0-22.609s-16.365-6.243-22.609 0z" fill="#fdb441"/><path d="m363.557 142.439c27.107 27.107 70.406 28.152 98.761 3.135 1.858-1.639 1.976-4.495.224-6.247l-95.872-95.872c-1.752-1.752-4.608-1.634-6.247.224-25.017 28.355-23.973 71.654 3.134 98.76z" fill="#d8ecfe"/><path d="m80.681 193.383h-48.904v218.75h48.904c5.323 0 9.638-4.315 9.638-9.638v-199.473c0-5.323-4.315-9.639-9.638-9.639z" fill="#62dbfb"/></g><g><path d="m314.616 287.141c-1.383-3.361-4.627-5.534-8.261-5.532-3.638.001-6.882 2.18-8.26 5.546-.023.057-.047.115-.068.172l-23.679 62.173c-1.475 3.871.469 8.204 4.34 9.678 3.865 1.475 8.203-.468 9.678-4.339l2.063-5.416h31.664l2.036 5.395c1.133 3.004 3.987 4.854 7.018 4.854.88 0 1.775-.156 2.647-.485 3.875-1.463 5.831-5.79 4.368-9.665 0 0-23.518-62.313-23.546-62.381zm-18.475 47.282 10.191-26.759 10.099 26.759z"/><path d="m232.9 281.609c-4.143 0-7.5 3.358-7.5 7.5v63.008c0 3.652 2.631 6.773 6.23 7.392 1.675.288 20.074.127 23.393.108 4.142-.023 7.481-3.4 7.458-7.542-.023-4.128-3.376-7.458-7.499-7.458-.015 0-10.438.048-14.582.053v-55.561c0-4.142-3.357-7.5-7.5-7.5z"/><path d="m376.012 281.609h-18.318c-4.143 0-7.5 3.358-7.5 7.5v63.061c0 1.995.795 3.908 2.209 5.315 1.405 1.4 3.308 2.185 5.291 2.185.011 0 16.876-.075 21.518-.075 13.495 0 24.474-10.979 24.474-24.474 0-7.809-3.681-14.771-9.394-19.255 2.355-3.504 3.731-7.717 3.731-12.247-.001-12.137-9.875-22.01-22.011-22.01zm0 15c3.865 0 7.01 3.145 7.01 7.01 0 3.866-3.145 7.011-7.01 7.011-1.344 0-10.818.017-10.818.017v-14.038zm3.2 47.986c-2.573 0-8.886.023-14.018.043v-18.976c1.367-.005 14.018-.016 14.018-.016 5.224 0 9.474 4.25 9.474 9.474-.001 5.225-4.251 9.475-9.474 9.475z"/><path d="m465.575 73.636 15.281-15.28c9.157-9.158 9.157-24.059 0-33.216-9.156-9.157-24.058-9.157-33.216 0l-15.28 15.281c-2.509 2.509-3.899 5.837-3.932 9.38l-39.258 5.547-17.197-17.197c-2.284-2.285-5.442-3.53-8.678-3.436-3.247.102-6.345 1.561-8.497 4.001-25.548 28.957-26.266 71.839-3.053 101.628l-28.23 57.734h-17.988v-57.454c0-30.809-9.778-60.062-28.28-84.595-2.495-3.306-7.198-3.966-10.504-1.472-3.308 2.494-3.967 7.197-1.473 10.504 4.821 6.392 8.958 13.153 12.429 20.193h-20.685c-5.35 0-10.262 3.134-12.514 7.984l-8.387 18.05h-142.423l-8.387-18.051c-2.254-4.85-7.166-7.983-12.513-7.983h-20.631c20.503-41.578 63.335-70.254 112.744-70.254 28.544 0 55.443 9.329 77.791 26.977 3.251 2.567 7.968 2.014 10.534-1.238 2.567-3.25 2.014-7.967-1.237-10.534-25.023-19.76-55.137-30.205-87.088-30.205-59.527 0-110.531 37.181-131.018 89.537-.175.368-.323.751-.438 1.149-5.919 15.527-9.172 32.359-9.172 49.939v353.875c0 9.649 7.85 17.5 17.499 17.5h419.031c9.649 0 17.5-7.851 17.5-17.5v-95.759c0-4.142-3.357-7.5-7.5-7.5s-7.5 3.358-7.5 7.5v95.759c0 1.378-1.121 2.5-2.5 2.5h-57.121v-78.952c0-3.666-1.143-7.169-3.305-10.133l-17.312-23.717c-3.224-4.418-8.413-7.056-13.884-7.056h-109.284c-5.469 0-10.658 2.637-13.883 7.055l-17.312 23.718c-2.162 2.961-3.305 6.466-3.305 10.134v78.951h-59.623v-227.388h35.152c5.396 0 10.229-3.006 12.614-7.843l8.251-16.725h185.496l8.25 16.726c2.387 4.837 7.221 7.843 12.614 7.843h35.151v94.129c0 4.142 3.357 7.5 7.5 7.5s7.5-3.358 7.5-7.5v-152.17c0-7.439-6.052-13.491-13.491-13.491h-62.359v-27.976c4.039.62 8.116.944 12.196.944 18.775 0 37.584-6.577 52.629-19.85 2.44-2.154 3.898-5.251 4-8.499.101-3.229-1.151-6.391-3.436-8.675l-17.2-17.2 5.548-39.255c3.547-.034 6.875-1.424 9.384-3.934zm-94.622 319.404 17.311 23.717c.276.378.422.825.422 1.292v78.951h-66.643v-104.858h47.143c.695 0 1.356.335 1.767.898zm-130.553 25.008c0-.467.146-.913.42-1.29l17.312-23.718c.411-.562 1.071-.898 1.768-.898h47.144v104.858h-66.644zm217.846-382.3c3.311-3.31 8.694-3.309 12.003 0 3.31 3.309 3.31 8.694.001 12.003l-14.182 14.181-12.003-12.002zm-386.222 64.507 8.387 18.052c2.254 4.849 7.165 7.982 12.513 7.982h143.958c5.35 0 10.262-3.134 12.514-7.984l8.387-18.05h26.142c4.357 12.856 6.605 26.432 6.605 40.37v2.984h-251.253v-2.984c0-14.116 2.342-27.695 6.654-40.37zm-32.747 210.005h43.542v39.69h-43.542zm43.542-15h-43.542v-39.69h43.542zm-43.542 69.69h43.542v37.545c0 1.179-.959 2.138-2.139 2.138h-41.403zm43.542-124.38h-43.542v-39.687h41.403c1.18 0 2.139.959 2.139 2.138zm-43.544 253.93v-74.867h41.405c9.45 0 17.139-7.688 17.139-17.138v-199.474c0-9.45-7.688-17.138-17.139-17.138h-41.404v-27.274h251.251v39.47h-126.258c-7.439 0-13.492 6.052-13.492 13.491v285.43h-109.002c-1.379 0-2.5-1.122-2.5-2.5zm424.031-239.888h-34.57l-8.251-16.727c-2.388-4.837-7.221-7.842-12.614-7.842h-186.657c-5.396 0-10.229 3.006-12.614 7.843l-8.252 16.726h-34.57v-41.532h297.528zm-75.85-56.532h-47.244l22.577-46.172c7.451 6.385 15.822 11.187 24.667 14.378zm27.191-42.022c-16.62-.001-33.216-6.351-45.786-18.922-23.29-23.289-25.225-60.378-5-85.883l90.883 90.883c-11.738 9.307-25.926 13.923-40.097 13.922zm-12.204-87.436 34.26-4.841 5.511 5.511-4.842 34.259z"/></g></g><g/><g/><g/><g/><g/><g/><g/><g/><g/><g/><g/><g/><g/><g/><g/></svg>