<svg id="Capa_1" enable-background="new 0 0 512 512" viewBox="0 0 512 512" xmlns="http://www.w3.org/2000/svg"><g><g><path d="m7.5 81.435v393.9c0 7.764 6.294 14.059 14.059 14.059h468.883c7.764 0 14.059-6.294 14.059-14.059v-393.9z" fill="#d8ecfe"/><path d="m471.447 81.435v393.9c0 7.764-6.294 14.059-14.058 14.059h33.053c7.764 0 14.059-6.294 14.059-14.059v-393.9z" fill="#bddbff"/><path d="m7.5 81.435v-44.77c0-7.764 6.294-14.059 14.059-14.059h468.883c7.764 0 14.059 6.294 14.059 14.059v44.77z" fill="#62dbfb"/><path d="m490.441 22.607h-33.053c7.764 0 14.058 6.294 14.058 14.058v44.77h33.054v-44.77c0-7.764-6.294-14.058-14.059-14.058z" fill="#01d0fb"/><path d="m7.5 285.414h165.667v165.666h-165.667z" fill="#fe76a8"/><path d="m338.833 285.414h165.667v165.666h-165.667z" fill="#fe76a8"/><path d="m471.447 285.414h33.053v165.666h-33.053z" fill="#fe5694"/><path d="m173.167 285.414h165.667v165.666h-165.667z" fill="#5de1c4"/><path d="m7.5 119.748v165.666h165.667v-159.666c0-3.314-2.686-6-6-6z" fill="#fdb441"/><path d="m338.833 125.748v159.666h165.667v-165.666h-159.667c-3.313 0-6 2.686-6 6z" fill="#fdb441"/><path d="m471.447 119.748h33.053v165.666h-33.053z" fill="#fe9738"/></g><g><path d="m490.441 15.106h-307.611c-4.143 0-7.5 3.358-7.5 7.5s3.357 7.5 7.5 7.5h307.611c3.616 0 6.559 2.942 6.559 6.559v37.271h-482v-37.271c0-3.617 2.942-6.559 6.559-6.559h126.271c4.143 0 7.5-3.358 7.5-7.5s-3.357-7.5-7.5-7.5h-126.271c-11.888 0-21.559 9.671-21.559 21.559v438.67c0 11.887 9.671 21.559 21.559 21.559h348.572c4.143 0 7.5-3.358 7.5-7.5s-3.357-7.5-7.5-7.5h-348.572c-3.616 0-6.559-2.942-6.559-6.559v-16.754h482v16.754c0 3.616-2.942 6.559-6.559 6.559h-85.311c-4.143 0-7.5 3.358-7.5 7.5s3.357 7.5 7.5 7.5h85.311c11.888 0 21.559-9.671 21.559-21.559v-438.67c0-11.888-9.671-21.559-21.559-21.559zm6.559 262.809h-150.667v-150.667h150.667zm0-188.979v23.312h-152.167c-7.444 0-13.5 6.056-13.5 13.5v152.167h-150.666v-152.167c0-7.444-6.056-13.5-13.5-13.5h-152.167v-23.312zm-482 38.312h150.667v150.667h-150.667zm0 165.667h150.667v150.666h-150.667zm165.667 0h150.666v150.666h-150.666zm165.666 150.666v-150.666h150.667v150.666z"/><path d="m235.555 320.162h-32.777c-4.143 0-7.5 3.358-7.5 7.5v80.873c0 4.142 3.357 7.5 7.5 7.5s7.5-3.358 7.5-7.5v-33.702h22.674c4.143 0 7.5-3.358 7.5-7.5s-3.357-7.5-7.5-7.5h-22.674v-24.67h25.277c4.143 0 7.5-3.358 7.5-7.5s-3.358-7.501-7.5-7.501z"/><path d="m282.459 341.529c-18.894 0-34.265 15.39-34.265 34.307 0 .089.002.179.005.269l.106 2.95c.067 20.567 16.816 37.279 37.398 37.279 8.244 0 15.645-2.71 21.4-7.837 3.093-2.755 3.366-7.496.611-10.589-2.756-3.093-7.495-3.367-10.59-.611-3.007 2.679-6.85 4.038-11.422 4.038-9.357 0-17.388-5.769-20.735-13.935h44.254c4.143 0 7.5-3.358 7.5-7.5v-4.104c.002-18.896-15.369-34.267-34.262-34.267zm-18.959 30.869c1.623-9.012 9.507-15.869 18.959-15.869 9.464 0 17.355 6.86 18.964 15.869z"/><path d="m393.227 250.667c4.143 0 7.5-3.358 7.5-7.5v-56.96l41.111 59.532c2.311 3.334 6.122 4.766 9.706 3.644 3.683-1.151 6.062-4.665 6.062-9.024l-.758-78.436c-.04-4.118-3.39-7.428-7.498-7.428-.025 0-.05 0-.074 0-4.143.04-7.468 3.43-7.428 7.572l.562 58.103-43.012-62.285c-1.865-2.701-5.267-3.873-8.404-2.898-3.133.977-5.268 3.878-5.268 7.16v81.019c.001 4.143 3.358 7.501 7.501 7.501z"/><path d="m118.765 237.684-38.124-36.78 35.116-32.279c3.05-2.803 3.25-7.547.446-10.597-2.803-3.049-7.548-3.249-10.597-.446l-30.997 28.492v-23.993c0-4.142-3.357-7.5-7.5-7.5s-7.5 3.358-7.5 7.5v81c0 4.142 3.357 7.5 7.5 7.5s7.5-3.358 7.5-7.5v-27.155l33.741 32.552c1.455 1.404 3.332 2.103 5.206 2.103 1.965 0 3.927-.767 5.398-2.292 2.877-2.981 2.792-7.729-.189-10.605z"/><path d="m402.217 329.261c-.025-.069-.053-.139-.081-.208-1.425-3.46-4.767-5.697-8.508-5.695-3.745.002-7.087 2.246-8.506 5.712-.022.057-.046.114-.067.172l-28.079 73.725c-1.475 3.871.469 8.204 4.34 9.678 3.865 1.474 8.203-.469 9.678-4.339l5.153-13.531h34.762l5.098 13.509c1.133 3.003 3.987 4.854 7.018 4.854.88 0 1.775-.156 2.647-.485 3.875-1.462 5.831-5.79 4.368-9.665zm-20.357 50.514 11.748-30.845 11.641 30.845z"/><path d="m470.959 373.075c-6.116-2.256-11.823-4.709-13.767-5.558-.83-.741-.842-1.708-.764-2.255.101-.7.625-2.415 3.32-3.227 6.645-1.999 12.91 2.897 13.124 3.067 3.17 2.623 7.868 2.201 10.521-.954 2.665-3.171 2.255-7.902-.916-10.567-.502-.422-12.479-10.302-27.056-5.909-7.493 2.257-12.797 8.18-13.842 15.458-.984 6.854 1.988 13.449 7.758 17.209.331.216.679.405 1.04.566.298.133 7.396 3.293 15.389 6.241 1.556.574 6.588 2.686 6.036 5.777-.425 2.375-3.564 4.94-7.896 4.94-4.799 0-9.407-1.923-12.325-5.143-2.782-3.071-7.526-3.301-10.594-.521-3.069 2.782-3.303 7.525-.521 10.594 5.8 6.4 14.344 10.07 23.44 10.07 11.342 0 20.872-7.277 22.662-17.304 1.357-7.585-2.033-17.476-15.609-22.484z"/><path d="m118.476 320.248c-4.143 0-7.5 3.358-7.5 7.5v55.678c0 4.272-1.154 10.533-11.139 15.562-2.979 1.5-6.33 2.26-9.962 2.26-.012 0-.024 0-.036 0-4.09-.005-7.656-1.017-10.902-3.09-6.566-4.196-9.245-8.447-9.245-14.673v-55.737c0-4.142-3.357-7.5-7.5-7.5s-7.5 3.358-7.5 7.5v55.737c0 11.427 5.289 20.361 16.169 27.313 5.646 3.607 12.024 5.44 18.958 5.45h.058c5.995 0 11.615-1.299 16.708-3.863 16.027-8.072 19.392-20.204 19.392-28.958v-55.678c-.001-4.144-3.359-7.501-7.501-7.501z"/></g></g><g/><g/><g/><g/><g/><g/><g/><g/><g/><g/><g/><g/><g/><g/><g/></svg>