<svg id="Capa_1" enable-background="new 0 0 512 512" viewBox="0 0 512 512" xmlns="http://www.w3.org/2000/svg"><g><g><path d="m96.614 112.182h318.771v86.728h-318.771z" fill="#678d98"/><path d="m374.542 112.182h40.843v86.728h-40.843z" fill="#537983"/><path d="m7.5 200.218v206.001c0 8.107 6.572 14.679 14.679 14.679h144.271c4.66 0 9.13-1.846 12.433-5.134l14.962-14.897c3.302-3.288 7.773-5.134 12.433-5.134h99.445c4.66 0 9.13 1.846 12.433 5.134l14.962 14.897c3.302 3.288 7.773 5.134 12.433 5.134h144.271c8.107 0 14.679-6.572 14.679-14.679v-206.001c0-8.107-6.572-14.679-14.679-14.679h-467.643c-8.107 0-14.679 6.572-14.679 14.679z" fill="#d8ecfe"/><path d="m489.821 185.539h-41.14c8.107 0 14.679 6.572 14.679 14.679v206.001c0 8.107-6.572 14.679-14.679 14.679h41.14c8.107 0 14.679-6.572 14.679-14.679v-206.001c0-8.107-6.572-14.679-14.679-14.679z" fill="#bddbff"/><path d="m61.794 106.062v19.513c0 8.262 6.697 14.959 14.959 14.959h358.495c8.262 0 14.959-6.697 14.959-14.959v-19.513c0-8.262-6.697-14.959-14.959-14.959h-358.495c-8.262 0-14.959 6.697-14.959 14.959z" fill="#d8ecfe"/><path d="m435.247 91.103h-41.14c8.262 0 14.959 6.697 14.959 14.959v19.513c0 8.262-6.697 14.959-14.959 14.959h41.14c8.262 0 14.959-6.697 14.959-14.959v-19.513c0-8.262-6.697-14.959-14.959-14.959z" fill="#bddbff"/><path d="m166.318 240.279v33.079c0 6.083 4.931 11.013 11.013 11.013h157.338c6.083 0 11.013-4.931 11.013-11.013v-33.079c0-6.083-4.931-11.013-11.013-11.013h-157.338c-6.082 0-11.013 4.931-11.013 11.013z" fill="#62dbfb"/><g fill="#678d98"><ellipse cx="138.932" cy="346.213" rx="30" ry="30" transform="matrix(.707 -.707 .707 .707 -204.117 199.643)"/><ellipse cx="373.068" cy="346.213" rx="30" ry="30" transform="matrix(.707 -.707 .707 .707 -135.541 365.203)"/></g></g><g><path d="m489.821 178.039h-66.931v-30.006h12.357c12.384 0 22.459-10.075 22.459-22.459v-19.513c0-12.384-10.075-22.459-22.459-22.459h-72.065c-4.142 0-7.5 3.358-7.5 7.5s3.358 7.5 7.5 7.5h72.065c4.113 0 7.459 3.346 7.459 7.459v19.513c0 4.113-3.346 7.459-7.459 7.459-25.341 0-335.534 0-358.495 0-4.113 0-7.459-3.346-7.459-7.459v-19.513c0-4.113 3.346-7.459 7.459-7.459h251.43c4.142 0 7.5-3.358 7.5-7.5s-3.358-7.5-7.5-7.5h-251.43c-12.384 0-22.459 10.075-22.459 22.459v19.513c0 12.384 10.075 22.459 22.459 22.459h12.358v30.006h-66.931c-12.23 0-22.179 9.949-22.179 22.179v206.001c0 12.229 9.949 22.179 22.179 22.179h66.226c4.142 0 7.5-3.358 7.5-7.5s-3.358-7.5-7.5-7.5h-66.226c-3.958 0-7.179-3.22-7.179-7.179v-206.001c0-3.958 3.22-7.179 7.179-7.179h467.643c3.958 0 7.179 3.22 7.179 7.179v206.001c0 3.958-3.22 7.179-7.179 7.179h-144.272c-2.695 0-5.231-1.047-7.142-2.949l-14.962-14.897c-4.741-4.72-11.035-7.319-17.724-7.319h-99.445c-6.689 0-12.983 2.599-17.724 7.319l-14.962 14.897c-1.91 1.901-4.446 2.949-7.142 2.949h-43.045c-4.142 0-7.5 3.358-7.5 7.5s3.358 7.5 7.5 7.5h43.045c6.689 0 12.984-2.599 17.725-7.319l14.961-14.897c1.91-1.901 4.446-2.949 7.141-2.949h99.445c2.695 0 5.231 1.047 7.141 2.949l14.962 14.897c4.741 4.72 11.035 7.319 17.725 7.319h144.271c12.229 0 22.179-9.949 22.179-22.179v-206.001c.001-12.23-9.948-22.179-22.178-22.179zm-81.931 0h-303.78v-30.006h303.78z"/><path d="m334.669 221.766h-157.338c-10.208 0-18.513 8.305-18.513 18.514v33.079c0 10.208 8.305 18.513 18.513 18.513h157.338c10.208 0 18.513-8.305 18.513-18.513v-33.079c0-10.209-8.305-18.514-18.513-18.514zm3.513 51.592c0 1.937-1.576 3.513-3.513 3.513h-157.338c-1.937 0-3.513-1.576-3.513-3.513v-33.079c0-1.938 1.576-3.514 3.513-3.514h157.338c1.937 0 3.513 1.576 3.513 3.514z"/><path d="m176.432 346.213c0-20.678-16.822-37.5-37.5-37.5s-37.5 16.822-37.5 37.5 16.822 37.5 37.5 37.5 37.5-16.822 37.5-37.5zm-60 0c0-12.407 10.093-22.5 22.5-22.5s22.5 10.093 22.5 22.5-10.093 22.5-22.5 22.5-22.5-10.093-22.5-22.5z"/><path d="m335.568 346.213c0 20.678 16.823 37.5 37.5 37.5s37.5-16.822 37.5-37.5-16.822-37.5-37.5-37.5c-20.677 0-37.5 16.822-37.5 37.5zm37.5-22.5c12.406 0 22.5 10.093 22.5 22.5s-10.093 22.5-22.5 22.5-22.5-10.093-22.5-22.5 10.094-22.5 22.5-22.5z"/><path d="m221.479 327.324c-4.142 0-7.5 3.358-7.5 7.5s3.358 7.5 7.5 7.5h7.905c4.142 0 7.5-3.358 7.5-7.5s-3.358-7.5-7.5-7.5z"/><path d="m282.615 327.324c-4.142 0-7.5 3.358-7.5 7.5s3.358 7.5 7.5 7.5h7.905c4.142 0 7.5-3.358 7.5-7.5s-3.358-7.5-7.5-7.5z"/></g></g><g/><g/><g/><g/><g/><g/><g/><g/><g/><g/><g/><g/><g/><g/><g/></svg>