<svg id="Capa_1" enable-background="new 0 0 512 512" viewBox="0 0 512 512" xmlns="http://www.w3.org/2000/svg"><g><g><path d="m457.053 99.731v345.539h-33.526v-345.539c0-14.793-12.042-26.831-26.835-26.831h-201.924c-14.803 0-26.846 12.038-26.846 26.831v45.913c0 9.256-7.507 16.764-16.763 16.764s-16.763-7.508-16.763-16.764v-45.913c0-33.284 27.087-60.36 60.371-60.36h201.924c33.285 0 60.362 27.076 60.362 60.36z" fill="#d8ecfe"/><path d="m305.931 332.669c-9.951 0-18.016 8.066-18.016 18.017s8.067 18.018 18.018 18.018 18.018-8.067 18.018-18.018-8.069-18.017-18.02-18.017z" fill="#678d98"/><path d="m60.876 189.699 12.134-36.221c6.104-18.224 23.172-30.509 42.391-30.509h71.52c19.22 0 36.288 12.284 42.392 30.509l12.134 36.222h-180.571z" fill="#5de1c4"/><path d="m229.312 153.478c-6.104-18.224-23.172-30.509-42.392-30.509h-34.839c19.22 0 36.289 12.283 42.393 30.507l12.133 36.223h34.84z" fill="#0ed2b3"/><path d="m45.993 182.759v13.88c0 5.485 4.446 9.931 9.931 9.931h190.474c5.485 0 9.931-4.446 9.931-9.931v-13.88c0-5.485-4.446-9.931-9.931-9.931h-190.474c-5.485 0-9.931 4.446-9.931 9.931z" fill="#678d98"/><path d="m246.398 172.828h-30.135c5.485 0 9.931 4.446 9.931 9.931v13.88c0 5.485-4.446 9.931-9.931 9.931h30.135c5.485 0 9.931-4.446 9.931-9.931v-13.88c0-5.485-4.446-9.931-9.931-9.931z" fill="#537983"/><path d="m414.573 504.5v-107.21c0-4.898 3.971-8.869 8.869-8.869h33.697c4.898 0 8.869 3.971 8.869 8.869v107.21z" fill="#678d98"/><path d="m337.418 39.371h46.723v33.528h-46.723z" fill="#678d98"/><g fill="#62dbfb"><g><path d="m90.425 314.339c-2.043-4.07-7.842-4.07-9.885 0-5.125 10.212-12.395 25.792-12.395 31.993 0 9.575 7.762 17.338 17.338 17.338s17.338-7.762 17.338-17.338c-.001-6.201-7.272-21.781-12.396-31.993z"/><path d="m156.104 314.339c-2.043-4.07-7.842-4.07-9.885 0-5.125 10.212-12.395 25.792-12.395 31.993 0 9.575 7.762 17.338 17.338 17.338s17.338-7.762 17.338-17.338c-.001-6.201-7.272-21.781-12.396-31.993z"/><path d="m221.783 314.339c-2.043-4.07-7.842-4.07-9.885 0-5.125 10.212-12.395 25.792-12.395 31.993 0 9.575 7.762 17.338 17.338 17.338s17.338-7.762 17.338-17.338c-.001-6.201-7.271-21.781-12.396-31.993z"/></g><g><path d="m123.264 242.035c-2.043-4.07-7.842-4.07-9.885 0-5.125 10.212-12.395 25.792-12.395 31.993 0 9.575 7.762 17.338 17.338 17.338s17.338-7.762 17.338-17.338c0-6.201-7.271-21.782-12.396-31.993z"/><path d="m188.943 242.035c-2.043-4.07-7.842-4.07-9.885 0-5.125 10.212-12.395 25.792-12.395 31.993 0 9.575 7.762 17.338 17.338 17.338s17.338-7.762 17.338-17.338c0-6.201-7.271-21.782-12.396-31.993z"/></g></g></g><g><path d="m464.55 382.715v-91.195c0-4.142-3.357-7.5-7.5-7.5s-7.5 3.358-7.5 7.5v89.401h-18.52v-281.191c0-18.93-15.404-34.33-34.34-34.33h-5.05v-18.53h5.05c29.146 0 52.859 23.713 52.859 52.86v156.79c0 4.142 3.357 7.5 7.5 7.5s7.5-3.358 7.5-7.5v-156.79c0-37.418-30.441-67.86-67.859-67.86h-28.41v-8.48c.001-12.897-10.493-23.39-23.39-23.39h-23.069c-12.897 0-23.391 10.493-23.391 23.39v8.48h-103.66c-37.424 0-67.87 30.442-67.87 67.86v15.74h-11.5c-22.478 0-42.372 14.318-49.502 35.628l-4.765 14.23h-5.209c-9.611 0-17.431 7.82-17.431 17.431v13.88c0 9.611 7.82 17.431 17.431 17.431h39.885c4.142 0 7.5-3.358 7.5-7.5s-3.358-7.5-7.5-7.5h-39.885c-1.34 0-2.431-1.091-2.431-2.431v-13.88c0-1.34 1.091-2.431 2.431-2.431h179.825c.017 0 .033.004.05.004.016 0 .032-.004.048-.004h10.551c1.34 0 2.431 1.091 2.431 2.431v13.88c0 1.34-1.091 2.431-2.431 2.431h-115.589c-4.142 0-7.5 3.358-7.5 7.5s3.358 7.5 7.5 7.5h115.589c9.612 0 17.431-7.82 17.431-17.431v-13.88c0-9.611-7.819-17.431-17.431-17.431h-5.204l-4.772-14.228c-7.131-21.312-27.024-35.63-49.502-35.63h-11.5v-15.74c0-10.659 8.68-19.33 19.35-19.33h103.66v245.896c-10.419 3.212-18.014 12.93-18.014 24.39 0 3.147.576 6.161 1.623 8.947l-39.187 76.634c-4.043 7.907-3.69 17.15.944 24.725 4.635 7.576 12.704 12.099 21.583 12.099h81.11c8.874 0 16.939-4.519 21.573-12.089 4.638-7.575 4.995-16.82.954-24.736l-39.192-76.626c1.048-2.788 1.625-5.804 1.625-8.953 0-11.463-7.598-21.182-18.021-24.392v-245.895h83.261c10.664 0 19.34 8.671 19.34 19.33v282.984c-5.308 2.71-8.958 8.219-8.958 14.576v107.21c0 4.142 3.357 7.5 7.5 7.5s7.5-3.358 7.5-7.5v-107.209c0-.755.614-1.369 1.369-1.369h33.696c.755 0 1.369.614 1.369 1.369v107.209c0 4.142 3.357 7.5 7.5 7.5s7.5-3.358 7.5-7.5v-107.209c.002-6.357-3.648-11.866-8.955-14.576zm-109.279 70.453c-1.914 3.127-5.115 4.921-8.78 4.921h-81.11c-3.669 0-6.873-1.796-8.788-4.927-1.916-3.13-2.056-6.8-.384-10.068l36.197-70.788c3.925 2.465 8.562 3.897 13.529 3.897 4.965 0 9.599-1.43 13.523-3.893l36.203 70.78c1.67 3.273 1.528 6.946-.39 10.078zm-49.337-91.964c-5.8 0-10.518-4.718-10.518-10.518 0-5.792 4.706-10.505 10.496-10.516l.017.001.021-.001c5.792.01 10.5 4.723 10.5 10.517.001 5.798-4.716 10.517-10.516 10.517zm70.707-295.804h-31.723v-18.53h31.723zm-63.211-42.01c0-4.626 3.764-8.39 8.391-8.39h23.069c4.627 0 8.391 3.764 8.391 8.39v8.48h-39.851zm-91.231 132.475 3.174 9.463h-148.421l3.171-9.468c5.082-15.187 19.259-25.39 35.278-25.39h71.52c16.018 0 30.195 10.203 35.278 25.395zm-27.429-90.465c-18.941 0-34.35 15.4-34.35 34.33v15.74h-18.52v-15.74c0-29.147 23.717-52.86 52.87-52.86h103.66v18.53zm118.66-18.53h16.488v18.53h-16.488z"/><path d="m85.482 303.786c-4.958 0-9.42 2.754-11.646 7.188-13.192 26.287-13.192 32.877-13.192 35.358 0 13.695 11.142 24.837 24.838 24.837s24.838-11.142 24.838-24.837c0-2.481 0-9.071-13.192-35.358-2.225-4.433-6.688-7.188-11.646-7.188zm0 52.383c-5.425 0-9.838-4.413-9.838-9.837 0-1.912 2.125-9.291 9.838-25.075 7.713 15.784 9.838 23.164 9.838 25.075 0 5.424-4.413 9.837-9.838 9.837z"/><path d="m162.807 310.974c-2.225-4.434-6.687-7.188-11.645-7.188s-9.421 2.754-11.646 7.188c-13.192 26.289-13.192 32.877-13.192 35.357 0 13.695 11.143 24.837 24.838 24.837s24.838-11.142 24.838-24.837c-.001-2.479 0-9.068-13.193-35.357zm-11.646 45.195c-5.425 0-9.838-4.413-9.838-9.837 0-1.911 2.125-9.29 9.838-25.075 7.713 15.786 9.838 23.165 9.838 25.075 0 5.424-4.413 9.837-9.838 9.837z"/><path d="m228.486 310.974c-2.225-4.434-6.688-7.188-11.646-7.188s-9.42 2.754-11.645 7.188c-13.192 26.287-13.192 32.877-13.192 35.358 0 13.695 11.142 24.837 24.838 24.837s24.838-11.142 24.838-24.837c-.001-2.48 0-9.071-13.193-35.358zm-11.646 45.195c-5.425 0-9.838-4.413-9.838-9.837 0-1.912 2.125-9.291 9.838-25.076 7.713 15.786 9.838 23.165 9.838 25.076 0 5.424-4.413 9.837-9.838 9.837z"/><path d="m143.159 274.028c0-2.48.001-9.07-13.192-35.357-2.225-4.434-6.688-7.189-11.646-7.189s-9.42 2.755-11.645 7.188c-13.192 26.287-13.192 32.876-13.192 35.357 0 13.696 11.142 24.838 24.838 24.838s24.837-11.141 24.837-24.837zm-24.837 9.838c-5.425 0-9.838-4.413-9.838-9.838 0-1.911 2.125-9.291 9.838-25.075 7.713 15.786 9.838 23.164 9.838 25.075-.001 5.425-4.414 9.838-9.838 9.838z"/><path d="m208.839 274.028c0-2.481-.001-9.071-13.192-35.357-2.225-4.434-6.688-7.188-11.646-7.188s-9.42 2.755-11.646 7.188c-13.192 26.287-13.192 32.876-13.192 35.357 0 13.696 11.142 24.838 24.838 24.838s24.838-11.142 24.838-24.838zm-24.838 9.838c-5.425 0-9.838-4.413-9.838-9.838 0-1.911 2.125-9.29 9.838-25.075 7.713 15.784 9.838 23.164 9.838 25.075 0 5.425-4.413 9.838-9.838 9.838z"/></g></g><g/><g/><g/><g/><g/><g/><g/><g/><g/><g/><g/><g/><g/><g/><g/></svg>